G04 #@! TF.GenerationSoftware,KiCad,Pcbnew,7.0.6*
G04 #@! TF.CreationDate,2024-04-10T23:04:11-04:00*
G04 #@! TF.ProjectId,Watchy,57617463-6879-42e6-9b69-6361645f7063,rev?*
G04 #@! TF.SameCoordinates,Original*
G04 #@! TF.FileFunction,Copper,L1,Top*
G04 #@! TF.FilePolarity,Positive*
%FSLAX46Y46*%
G04 Gerber Fmt 4.6, Leading zero omitted, Abs format (unit mm)*
G04 Created by KiCad (PCBNEW 7.0.6) date 2024-04-10 23:04:11*
%MOMM*%
%LPD*%
G01*
G04 APERTURE LIST*
G04 Aperture macros list*
%AMRoundRect*
0 Rectangle with rounded corners*
0 $1 Rounding radius*
0 $2 $3 $4 $5 $6 $7 $8 $9 X,Y pos of 4 corners*
0 Add a 4 corners polygon primitive as box body*
4,1,4,$2,$3,$4,$5,$6,$7,$8,$9,$2,$3,0*
0 Add four circle primitives for the rounded corners*
1,1,$1+$1,$2,$3*
1,1,$1+$1,$4,$5*
1,1,$1+$1,$6,$7*
1,1,$1+$1,$8,$9*
0 Add four rect primitives between the rounded corners*
20,1,$1+$1,$2,$3,$4,$5,0*
20,1,$1+$1,$4,$5,$6,$7,0*
20,1,$1+$1,$6,$7,$8,$9,0*
20,1,$1+$1,$8,$9,$2,$3,0*%
G04 Aperture macros list end*
G04 #@! TA.AperFunction,SMDPad,CuDef*
%ADD10RoundRect,0.150000X-0.150000X0.587500X-0.150000X-0.587500X0.150000X-0.587500X0.150000X0.587500X0*%
G04 #@! TD*
G04 #@! TA.AperFunction,SMDPad,CuDef*
%ADD11R,3.700000X1.200000*%
G04 #@! TD*
G04 #@! TA.AperFunction,SMDPad,CuDef*
%ADD12R,1.200000X0.900000*%
G04 #@! TD*
G04 #@! TA.AperFunction,SMDPad,CuDef*
%ADD13RoundRect,0.135000X-0.185000X0.135000X-0.185000X-0.135000X0.185000X-0.135000X0.185000X0.135000X0*%
G04 #@! TD*
G04 #@! TA.AperFunction,SMDPad,CuDef*
%ADD14RoundRect,0.225000X-0.225000X-0.250000X0.225000X-0.250000X0.225000X0.250000X-0.225000X0.250000X0*%
G04 #@! TD*
G04 #@! TA.AperFunction,SMDPad,CuDef*
%ADD15R,0.650000X1.060000*%
G04 #@! TD*
G04 #@! TA.AperFunction,SMDPad,CuDef*
%ADD16RoundRect,0.135000X0.185000X-0.135000X0.185000X0.135000X-0.185000X0.135000X-0.185000X-0.135000X0*%
G04 #@! TD*
G04 #@! TA.AperFunction,SMDPad,CuDef*
%ADD17R,2.900000X2.100000*%
G04 #@! TD*
G04 #@! TA.AperFunction,SMDPad,CuDef*
%ADD18R,1.600000X0.500000*%
G04 #@! TD*
G04 #@! TA.AperFunction,SMDPad,CuDef*
%ADD19R,0.300000X1.300000*%
G04 #@! TD*
G04 #@! TA.AperFunction,SMDPad,CuDef*
%ADD20R,2.000000X3.000000*%
G04 #@! TD*
G04 #@! TA.AperFunction,SMDPad,CuDef*
%ADD21R,1.350000X1.500000*%
G04 #@! TD*
G04 #@! TA.AperFunction,SMDPad,CuDef*
%ADD22O,1.350000X1.500000*%
G04 #@! TD*
G04 #@! TA.AperFunction,ComponentPad*
%ADD23O,1.550000X1.000000*%
G04 #@! TD*
G04 #@! TA.AperFunction,SMDPad,CuDef*
%ADD24O,1.550000X1.000000*%
G04 #@! TD*
G04 #@! TA.AperFunction,ComponentPad*
%ADD25O,0.950000X1.250000*%
G04 #@! TD*
G04 #@! TA.AperFunction,SMDPad,CuDef*
%ADD26O,0.950000X1.250000*%
G04 #@! TD*
G04 #@! TA.AperFunction,SMDPad,CuDef*
%ADD27R,1.350000X0.400000*%
G04 #@! TD*
G04 #@! TA.AperFunction,SMDPad,CuDef*
%ADD28C,1.000000*%
G04 #@! TD*
G04 #@! TA.AperFunction,SMDPad,CuDef*
%ADD29RoundRect,0.140000X-0.170000X0.140000X-0.170000X-0.140000X0.170000X-0.140000X0.170000X0.140000X0*%
G04 #@! TD*
G04 #@! TA.AperFunction,SMDPad,CuDef*
%ADD30RoundRect,0.140000X0.170000X-0.140000X0.170000X0.140000X-0.170000X0.140000X-0.170000X-0.140000X0*%
G04 #@! TD*
G04 #@! TA.AperFunction,SMDPad,CuDef*
%ADD31RoundRect,0.135000X0.135000X0.185000X-0.135000X0.185000X-0.135000X-0.185000X0.135000X-0.185000X0*%
G04 #@! TD*
G04 #@! TA.AperFunction,SMDPad,CuDef*
%ADD32R,1.150000X1.000000*%
G04 #@! TD*
G04 #@! TA.AperFunction,SMDPad,CuDef*
%ADD33R,1.000000X1.550000*%
G04 #@! TD*
G04 #@! TA.AperFunction,SMDPad,CuDef*
%ADD34RoundRect,0.135000X-0.135000X-0.185000X0.135000X-0.185000X0.135000X0.185000X-0.135000X0.185000X0*%
G04 #@! TD*
G04 #@! TA.AperFunction,SMDPad,CuDef*
%ADD35RoundRect,0.147500X-0.172500X0.147500X-0.172500X-0.147500X0.172500X-0.147500X0.172500X0.147500X0*%
G04 #@! TD*
G04 #@! TA.AperFunction,SMDPad,CuDef*
%ADD36RoundRect,0.150000X0.150000X-0.587500X0.150000X0.587500X-0.150000X0.587500X-0.150000X-0.587500X0*%
G04 #@! TD*
G04 #@! TA.AperFunction,SMDPad,CuDef*
%ADD37RoundRect,0.050000X-0.050000X0.387500X-0.050000X-0.387500X0.050000X-0.387500X0.050000X0.387500X0*%
G04 #@! TD*
G04 #@! TA.AperFunction,SMDPad,CuDef*
%ADD38RoundRect,0.050000X-0.387500X0.050000X-0.387500X-0.050000X0.387500X-0.050000X0.387500X0.050000X0*%
G04 #@! TD*
G04 #@! TA.AperFunction,SMDPad,CuDef*
%ADD39R,5.600000X5.600000*%
G04 #@! TD*
G04 #@! TA.AperFunction,SMDPad,CuDef*
%ADD40RoundRect,0.140000X-0.140000X-0.170000X0.140000X-0.170000X0.140000X0.170000X-0.140000X0.170000X0*%
G04 #@! TD*
G04 #@! TA.AperFunction,SMDPad,CuDef*
%ADD41R,0.375000X0.350000*%
G04 #@! TD*
G04 #@! TA.AperFunction,SMDPad,CuDef*
%ADD42R,0.350000X0.375000*%
G04 #@! TD*
G04 #@! TA.AperFunction,SMDPad,CuDef*
%ADD43R,0.500000X0.500000*%
G04 #@! TD*
G04 #@! TA.AperFunction,SMDPad,CuDef*
%ADD44R,0.900000X0.500000*%
G04 #@! TD*
G04 #@! TA.AperFunction,SMDPad,CuDef*
%ADD45RoundRect,0.150000X0.512500X0.150000X-0.512500X0.150000X-0.512500X-0.150000X0.512500X-0.150000X0*%
G04 #@! TD*
G04 #@! TA.AperFunction,SMDPad,CuDef*
%ADD46RoundRect,0.140000X0.140000X0.170000X-0.140000X0.170000X-0.140000X-0.170000X0.140000X-0.170000X0*%
G04 #@! TD*
G04 #@! TA.AperFunction,SMDPad,CuDef*
%ADD47R,1.100000X1.100000*%
G04 #@! TD*
G04 #@! TA.AperFunction,SMDPad,CuDef*
%ADD48R,0.500000X0.375000*%
G04 #@! TD*
G04 #@! TA.AperFunction,SMDPad,CuDef*
%ADD49R,0.650000X0.300000*%
G04 #@! TD*
G04 #@! TA.AperFunction,SMDPad,CuDef*
%ADD50R,0.200000X0.800000*%
G04 #@! TD*
G04 #@! TA.AperFunction,SMDPad,CuDef*
%ADD51R,0.900000X1.200000*%
G04 #@! TD*
G04 #@! TA.AperFunction,SMDPad,CuDef*
%ADD52R,1.100000X0.600000*%
G04 #@! TD*
G04 #@! TA.AperFunction,ViaPad*
%ADD53C,0.600000*%
G04 #@! TD*
G04 #@! TA.AperFunction,ViaPad*
%ADD54C,0.450000*%
G04 #@! TD*
G04 #@! TA.AperFunction,Conductor*
%ADD55C,0.400000*%
G04 #@! TD*
G04 #@! TA.AperFunction,Conductor*
%ADD56C,0.150000*%
G04 #@! TD*
G04 #@! TA.AperFunction,Conductor*
%ADD57C,0.250000*%
G04 #@! TD*
G04 #@! TA.AperFunction,Conductor*
%ADD58C,0.254000*%
G04 #@! TD*
G04 #@! TA.AperFunction,Conductor*
%ADD59C,0.500000*%
G04 #@! TD*
G04 #@! TA.AperFunction,Conductor*
%ADD60C,0.200000*%
G04 #@! TD*
G04 #@! TA.AperFunction,Conductor*
%ADD61C,0.320000*%
G04 #@! TD*
G04 APERTURE END LIST*
G04 #@! TA.AperFunction,EtchedComponent*
G36*
X77425000Y-78720000D02*
G01*
X76925000Y-78720000D01*
X76925000Y-74780000D01*
X77425000Y-74780000D01*
X77425000Y-78720000D01*
G37*
G04 #@! TD.AperFunction*
G04 #@! TA.AperFunction,EtchedComponent*
G36*
X79625000Y-74780000D02*
G01*
X76925000Y-74780000D01*
X76925000Y-74280000D01*
X79625000Y-74280000D01*
X79625000Y-74780000D01*
G37*
G04 #@! TD.AperFunction*
G04 #@! TA.AperFunction,EtchedComponent*
G36*
X79625000Y-77420000D02*
G01*
X79125000Y-77420000D01*
X79125000Y-74780000D01*
X79625000Y-74780000D01*
X79625000Y-77420000D01*
G37*
G04 #@! TD.AperFunction*
G04 #@! TA.AperFunction,EtchedComponent*
G36*
X81625000Y-77420000D02*
G01*
X79625000Y-77420000D01*
X79625000Y-76920000D01*
X81625000Y-76920000D01*
X81625000Y-77420000D01*
G37*
G04 #@! TD.AperFunction*
G04 #@! TA.AperFunction,EtchedComponent*
G36*
X82125000Y-77420000D02*
G01*
X81625000Y-77420000D01*
X81625000Y-74780000D01*
X82125000Y-74780000D01*
X82125000Y-77420000D01*
G37*
G04 #@! TD.AperFunction*
G04 #@! TA.AperFunction,EtchedComponent*
G36*
X84325000Y-74780000D02*
G01*
X81625000Y-74780000D01*
X81625000Y-74280000D01*
X84325000Y-74280000D01*
X84325000Y-74780000D01*
G37*
G04 #@! TD.AperFunction*
G04 #@! TA.AperFunction,EtchedComponent*
G36*
X84325000Y-77420000D02*
G01*
X83825000Y-77420000D01*
X83825000Y-74780000D01*
X84325000Y-74780000D01*
X84325000Y-77420000D01*
G37*
G04 #@! TD.AperFunction*
G04 #@! TA.AperFunction,EtchedComponent*
G36*
X86275000Y-77420000D02*
G01*
X84275000Y-77420000D01*
X84275000Y-76920000D01*
X86275000Y-76920000D01*
X86275000Y-77420000D01*
G37*
G04 #@! TD.AperFunction*
G04 #@! TA.AperFunction,EtchedComponent*
G36*
X86775000Y-77420000D02*
G01*
X86275000Y-77420000D01*
X86275000Y-74780000D01*
X86775000Y-74780000D01*
X86775000Y-77420000D01*
G37*
G04 #@! TD.AperFunction*
G04 #@! TA.AperFunction,EtchedComponent*
G36*
X88975000Y-79680000D02*
G01*
X88475000Y-79680000D01*
X88475000Y-74780000D01*
X88975000Y-74780000D01*
X88975000Y-79680000D01*
G37*
G04 #@! TD.AperFunction*
G04 #@! TA.AperFunction,EtchedComponent*
G36*
X91275000Y-74780000D02*
G01*
X86275000Y-74780000D01*
X86275000Y-74280000D01*
X91275000Y-74280000D01*
X91275000Y-74780000D01*
G37*
G04 #@! TD.AperFunction*
G04 #@! TA.AperFunction,EtchedComponent*
G36*
X91275000Y-79680000D02*
G01*
X90375000Y-79680000D01*
X90375000Y-74780000D01*
X91275000Y-74780000D01*
X91275000Y-79680000D01*
G37*
G04 #@! TD.AperFunction*
D10*
X97790000Y-105962500D03*
X95890000Y-105962500D03*
X96840000Y-107837500D03*
D11*
X75190000Y-104950000D03*
X75190000Y-107750000D03*
D12*
X74550000Y-98640000D03*
X74550000Y-101940000D03*
D13*
X90400000Y-95530000D03*
X90400000Y-96550000D03*
D12*
X72250000Y-98640000D03*
X72250000Y-101940000D03*
D14*
X73645000Y-103370000D03*
X75195000Y-103370000D03*
X73645000Y-109330000D03*
X75195000Y-109330000D03*
D15*
X101650000Y-99080000D03*
X100700000Y-99080000D03*
X99750000Y-99080000D03*
X99750000Y-101280000D03*
X101650000Y-101280000D03*
D16*
X91340000Y-96550000D03*
X91340000Y-95530000D03*
D17*
X96880000Y-87877000D03*
X96880000Y-81545000D03*
D18*
X99730000Y-85345000D03*
X99730000Y-84095000D03*
D12*
X69950000Y-101940000D03*
X69950000Y-98640000D03*
D19*
X91400000Y-97920000D03*
X90900000Y-97920000D03*
X90400000Y-97920000D03*
X89900000Y-97920000D03*
X89400000Y-97920000D03*
X88900000Y-97920000D03*
X88400000Y-97920000D03*
X87900000Y-97920000D03*
X87400000Y-97920000D03*
X86900000Y-97920000D03*
X86400000Y-97920000D03*
X85900000Y-97920000D03*
X85400000Y-97920000D03*
X84900000Y-97920000D03*
X84400000Y-97920000D03*
X83900000Y-97920000D03*
X83400000Y-97920000D03*
X82900000Y-97920000D03*
X82400000Y-97920000D03*
X81900000Y-97920000D03*
X81400000Y-97920000D03*
X80900000Y-97920000D03*
X80400000Y-97920000D03*
X79900000Y-97920000D03*
D20*
X78250000Y-100270000D03*
X93050000Y-100270000D03*
D21*
X70150000Y-85155000D03*
D22*
X72150000Y-85155000D03*
D23*
X101050000Y-97180000D03*
D24*
X101050000Y-97180000D03*
D25*
X98350000Y-96180000D03*
D26*
X98350000Y-96180000D03*
D25*
X98350000Y-91180000D03*
D26*
X98350000Y-91180000D03*
D23*
X101050000Y-90180000D03*
D24*
X101050000Y-90180000D03*
D27*
X98350000Y-94980000D03*
X98350000Y-94330000D03*
X98350000Y-93680000D03*
X98350000Y-93030000D03*
X98350000Y-92380000D03*
D28*
X93920000Y-105820000D03*
X93920000Y-108360000D03*
D29*
X79740000Y-95580000D03*
X79740000Y-96540000D03*
D30*
X82500000Y-96540000D03*
X82500000Y-95580000D03*
X85050000Y-80420000D03*
X85050000Y-79460000D03*
X84130000Y-80420000D03*
X84130000Y-79460000D03*
D31*
X101620000Y-110470000D03*
X100600000Y-110470000D03*
D32*
X92815000Y-89360000D03*
X91065000Y-89360000D03*
X91065000Y-90760000D03*
X92815000Y-90760000D03*
D30*
X78820000Y-96540000D03*
X78820000Y-95580000D03*
D28*
X84870000Y-92870000D03*
D33*
X101390000Y-77305000D03*
X101390000Y-82555000D03*
X99690000Y-77305000D03*
X99690000Y-82555000D03*
D30*
X90700000Y-83180000D03*
X90700000Y-82220000D03*
X92270000Y-96540000D03*
X92270000Y-95580000D03*
D34*
X77940000Y-87170000D03*
X78960000Y-87170000D03*
D35*
X88720000Y-80375000D03*
X88720000Y-81345000D03*
D30*
X81580000Y-96540000D03*
X81580000Y-95580000D03*
D13*
X97490000Y-102540000D03*
X97490000Y-103560000D03*
D36*
X74500000Y-85667500D03*
X76400000Y-85667500D03*
X75450000Y-83792500D03*
D37*
X88720000Y-82472500D03*
X88320000Y-82472500D03*
X87920000Y-82472500D03*
X87520000Y-82472500D03*
X87120000Y-82472500D03*
X86720000Y-82472500D03*
X86320000Y-82472500D03*
X85920000Y-82472500D03*
X85520000Y-82472500D03*
X85120000Y-82472500D03*
X84720000Y-82472500D03*
X84320000Y-82472500D03*
X83920000Y-82472500D03*
X83520000Y-82472500D03*
D38*
X82682500Y-83310000D03*
X82682500Y-83710000D03*
X82682500Y-84110000D03*
X82682500Y-84510000D03*
X82682500Y-84910000D03*
X82682500Y-85310000D03*
X82682500Y-85710000D03*
X82682500Y-86110000D03*
X82682500Y-86510000D03*
X82682500Y-86910000D03*
X82682500Y-87310000D03*
X82682500Y-87710000D03*
X82682500Y-88110000D03*
X82682500Y-88510000D03*
D37*
X83520000Y-89347500D03*
X83920000Y-89347500D03*
X84320000Y-89347500D03*
X84720000Y-89347500D03*
X85120000Y-89347500D03*
X85520000Y-89347500D03*
X85920000Y-89347500D03*
X86320000Y-89347500D03*
X86720000Y-89347500D03*
X87120000Y-89347500D03*
X87520000Y-89347500D03*
X87920000Y-89347500D03*
X88320000Y-89347500D03*
X88720000Y-89347500D03*
D38*
X89557500Y-88510000D03*
X89557500Y-88110000D03*
X89557500Y-87710000D03*
X89557500Y-87310000D03*
X89557500Y-86910000D03*
X89557500Y-86510000D03*
X89557500Y-86110000D03*
X89557500Y-85710000D03*
X89557500Y-85310000D03*
X89557500Y-84910000D03*
X89557500Y-84510000D03*
X89557500Y-84110000D03*
X89557500Y-83710000D03*
X89557500Y-83310000D03*
D39*
X86120000Y-85910000D03*
D13*
X78170000Y-82130000D03*
X78170000Y-83150000D03*
X96550000Y-102540000D03*
X96550000Y-103560000D03*
D28*
X82990000Y-93580000D03*
D16*
X98430000Y-103560000D03*
X98430000Y-102540000D03*
D33*
X101390000Y-103705000D03*
X101390000Y-108955000D03*
X99690000Y-103705000D03*
X99690000Y-108955000D03*
D40*
X83520000Y-91410000D03*
X84480000Y-91410000D03*
D28*
X93160000Y-84650000D03*
D16*
X83200000Y-80470000D03*
X83200000Y-79450000D03*
D40*
X89620000Y-81330000D03*
X90580000Y-81330000D03*
D10*
X98150000Y-99262500D03*
X96250000Y-99262500D03*
X97200000Y-101137500D03*
D16*
X91000000Y-94020000D03*
X91000000Y-93000000D03*
D30*
X91620000Y-83180000D03*
X91620000Y-82220000D03*
D41*
X79127500Y-81570000D03*
X79127500Y-82070000D03*
X79127500Y-82570000D03*
X79127500Y-83070000D03*
D42*
X79640000Y-83082500D03*
X80140000Y-83082500D03*
D41*
X80652500Y-83070000D03*
X80652500Y-82570000D03*
X80652500Y-82070000D03*
X80652500Y-81570000D03*
D42*
X80140000Y-81557500D03*
X79640000Y-81557500D03*
D30*
X89470000Y-96540000D03*
X89470000Y-95580000D03*
X92540000Y-83180000D03*
X92540000Y-82220000D03*
D43*
X88725000Y-79430000D03*
D44*
X90825000Y-79430000D03*
D28*
X93660000Y-87560000D03*
D30*
X83420000Y-96540000D03*
X83420000Y-95580000D03*
X84340000Y-96540000D03*
X84340000Y-95580000D03*
X85970000Y-80420000D03*
X85970000Y-79460000D03*
D13*
X91940000Y-93000000D03*
X91940000Y-94020000D03*
D29*
X94105000Y-88990000D03*
X94105000Y-89950000D03*
D40*
X100740000Y-88620000D03*
X101700000Y-88620000D03*
D30*
X89780000Y-91420000D03*
X89780000Y-90460000D03*
D33*
X69810000Y-82545000D03*
X69810000Y-77295000D03*
X71510000Y-82545000D03*
X71510000Y-77295000D03*
D29*
X75510000Y-81420000D03*
X75510000Y-82380000D03*
D45*
X96197500Y-97530000D03*
X96197500Y-96580000D03*
X96197500Y-95630000D03*
X93922500Y-95630000D03*
X93922500Y-97530000D03*
D46*
X87820000Y-80220000D03*
X86860000Y-80220000D03*
D30*
X80660000Y-96540000D03*
X80660000Y-95580000D03*
D28*
X82090000Y-91790000D03*
D34*
X100730000Y-87690000D03*
X101750000Y-87690000D03*
D47*
X73900000Y-80050000D03*
X73900000Y-82850000D03*
D46*
X78910000Y-86240000D03*
X77950000Y-86240000D03*
D28*
X80260000Y-88420000D03*
D48*
X94757500Y-90942500D03*
D49*
X94682500Y-91480000D03*
D48*
X94757500Y-92017500D03*
X96457500Y-92017500D03*
D49*
X96532500Y-91480000D03*
D48*
X96457500Y-90942500D03*
D28*
X86730000Y-92130000D03*
D46*
X78910000Y-84560000D03*
X77950000Y-84560000D03*
D34*
X90660000Y-84080000D03*
X91680000Y-84080000D03*
D31*
X101750000Y-86750000D03*
X100730000Y-86750000D03*
D34*
X69560000Y-110470000D03*
X70580000Y-110470000D03*
X79700000Y-80600000D03*
X80720000Y-80600000D03*
D33*
X69810000Y-108955000D03*
X69810000Y-103705000D03*
X71510000Y-108955000D03*
X71510000Y-103705000D03*
D46*
X96680000Y-89920000D03*
X95720000Y-89920000D03*
D40*
X83520000Y-90490000D03*
X84480000Y-90490000D03*
D50*
X77350000Y-81860000D03*
X76950000Y-81860000D03*
X76550000Y-81860000D03*
X76550000Y-83460000D03*
X76950000Y-83460000D03*
X77350000Y-83460000D03*
D16*
X95610000Y-103560000D03*
X95610000Y-102540000D03*
D51*
X93110000Y-93730000D03*
X96410000Y-93730000D03*
D13*
X88540000Y-95530000D03*
X88540000Y-96550000D03*
D52*
X80240000Y-84700000D03*
X80240000Y-86100000D03*
D16*
X91350000Y-87910000D03*
X91350000Y-86890000D03*
D13*
X75520000Y-79550000D03*
X75520000Y-80570000D03*
D53*
X84340000Y-94840000D03*
D54*
X77950000Y-85400000D03*
D53*
X72310000Y-82540000D03*
X85120000Y-86910000D03*
D54*
X89040000Y-90460000D03*
D53*
X84120000Y-87910000D03*
D54*
X89710000Y-79260000D03*
D53*
X87120000Y-84910000D03*
D54*
X86810000Y-79460000D03*
D53*
X86120000Y-87910000D03*
D54*
X93666761Y-91483943D03*
D53*
X91360000Y-81330000D03*
X97310000Y-96580000D03*
X87900000Y-99020000D03*
X72250000Y-99540000D03*
X85200000Y-94210000D03*
D54*
X78640000Y-81090000D03*
D53*
X76100000Y-109330000D03*
X99340000Y-81270000D03*
X82500000Y-94840000D03*
D54*
X92270000Y-95010000D03*
D53*
X78820000Y-94840000D03*
D54*
X72290000Y-108960000D03*
D53*
X84120000Y-85910000D03*
X75600000Y-85670000D03*
X93350000Y-82220000D03*
X100690000Y-99910000D03*
X86120000Y-85910000D03*
D54*
X94840427Y-89334557D03*
X79890000Y-82320000D03*
X89710000Y-80460000D03*
D53*
X99480000Y-92380000D03*
D54*
X88010000Y-79460000D03*
D53*
X98430000Y-84110000D03*
D54*
X95020000Y-108360000D03*
X89710000Y-79860000D03*
D53*
X88120000Y-87910000D03*
X87120000Y-86910000D03*
D54*
X87410000Y-79460000D03*
D53*
X83398187Y-99308400D03*
X81580000Y-94840000D03*
X80660000Y-94840000D03*
X88120000Y-85910000D03*
D54*
X91000000Y-92093100D03*
D53*
X83420000Y-94840000D03*
X85120000Y-84910000D03*
D54*
X101700000Y-89160000D03*
X94840000Y-89950000D03*
D53*
X91780000Y-79430000D03*
D54*
X98430000Y-104210000D03*
D53*
X79740000Y-94840000D03*
D54*
X82500000Y-79450000D03*
D53*
X93920000Y-96730000D03*
X69900000Y-84100000D03*
D54*
X90590000Y-87110000D03*
D53*
X87699561Y-81183001D03*
D54*
X81080000Y-83070000D03*
D53*
X89560000Y-82470000D03*
X73800000Y-81200000D03*
D54*
X78170000Y-83800000D03*
X100544993Y-105439972D03*
D53*
X85780000Y-90600000D03*
D54*
X94620000Y-105120000D03*
D53*
X72360000Y-110360000D03*
D54*
X88540000Y-95020000D03*
D53*
X84150000Y-99020000D03*
X81609192Y-85180807D03*
D54*
X81086078Y-81571800D03*
X86900000Y-98950000D03*
X87880000Y-96550000D03*
X99030000Y-88620000D03*
X83230000Y-82060000D03*
X81330000Y-82460000D03*
X78170000Y-81540000D03*
X79306507Y-92710000D03*
X81695461Y-81809685D03*
X79211090Y-93552312D03*
X79070000Y-80600000D03*
D53*
X98000000Y-101140000D03*
X99750000Y-86100000D03*
X99750000Y-98250000D03*
D54*
X81850000Y-80910000D03*
X101210000Y-104860000D03*
X94800000Y-103560000D03*
X82540000Y-82770000D03*
X76980000Y-80950000D03*
X84720000Y-81430000D03*
X101490000Y-83760000D03*
X90560000Y-87770000D03*
X78760000Y-88420000D03*
X76554052Y-84444840D03*
X76280000Y-80290000D03*
X85420000Y-81430000D03*
X70490000Y-81230000D03*
X69810000Y-104900000D03*
X82250000Y-81450000D03*
X90135566Y-93588768D03*
X81640000Y-88520000D03*
X101650000Y-100030000D03*
X95610000Y-101840000D03*
X93011808Y-85783139D03*
X90430000Y-86480000D03*
X92490000Y-85300000D03*
X90425000Y-85710000D03*
X81087207Y-87306138D03*
X94130000Y-92020000D03*
X94130000Y-90940000D03*
X81170997Y-88017436D03*
D55*
X96410000Y-94398788D02*
X96991212Y-94980000D01*
X96410000Y-93730000D02*
X96410000Y-94398788D01*
X98350000Y-94980000D02*
X96991212Y-94980000D01*
X98790000Y-94980000D02*
X99570000Y-95760000D01*
X98350000Y-94980000D02*
X98790000Y-94980000D01*
D56*
X77350000Y-81280000D02*
X77350000Y-81860000D01*
D57*
X91390000Y-95580000D02*
X91340000Y-95530000D01*
D56*
X99790000Y-108955000D02*
X99970000Y-108775000D01*
D57*
X99690000Y-81620000D02*
X99340000Y-81270000D01*
D56*
X79127500Y-81570000D02*
X79120000Y-81570000D01*
X79120000Y-81570000D02*
X78640000Y-81090000D01*
X84480000Y-90490000D02*
X84480000Y-91410000D01*
X99790000Y-108955000D02*
X99969000Y-108776000D01*
X84830000Y-93840000D02*
X85200000Y-94210000D01*
X101700000Y-88620000D02*
X101700000Y-89160000D01*
X99969000Y-103884000D02*
X99790000Y-103705000D01*
X91000000Y-93000000D02*
X91000000Y-92093100D01*
D57*
X74995000Y-109330000D02*
X75900000Y-109330000D01*
D56*
X71410000Y-77295000D02*
X71190000Y-77515000D01*
X99645000Y-103560000D02*
X99790000Y-103705000D01*
X99970000Y-103885000D02*
X99790000Y-103705000D01*
X84480000Y-91410000D02*
X84480000Y-92020000D01*
X84830000Y-92370000D02*
X84830000Y-92920000D01*
D58*
X84340000Y-95580000D02*
X84340000Y-94840000D01*
D56*
X72285000Y-108955000D02*
X72290000Y-108960000D01*
X99969000Y-108776000D02*
X99969000Y-103884000D01*
D57*
X76400000Y-85667500D02*
X75602500Y-85667500D01*
D56*
X98430000Y-103560000D02*
X99645000Y-103560000D01*
X97490000Y-103560000D02*
X98430000Y-103560000D01*
X71180000Y-108725000D02*
X71410000Y-108955000D01*
X91065000Y-89360000D02*
X90935200Y-89360000D01*
X101750000Y-88570000D02*
X101700000Y-88620000D01*
X93670704Y-91480000D02*
X93666761Y-91483943D01*
X90935200Y-89360000D02*
X89835200Y-90460000D01*
X92270000Y-95580000D02*
X89470000Y-95580000D01*
X71190000Y-82325000D02*
X71410000Y-82545000D01*
D59*
X100700000Y-99080000D02*
X100700000Y-99900000D01*
D56*
X78640000Y-81090000D02*
X78611000Y-81061000D01*
X95720000Y-89920000D02*
X95425870Y-89920000D01*
X89780000Y-90460000D02*
X89040000Y-90460000D01*
X98430000Y-103560000D02*
X98430000Y-104210000D01*
D57*
X99690000Y-82555000D02*
X99690000Y-81620000D01*
D56*
X71280000Y-103935000D02*
X71280000Y-108725000D01*
X93625000Y-89950000D02*
X92815000Y-90760000D01*
X71410000Y-103705000D02*
X71180000Y-103935000D01*
X99690000Y-77305000D02*
X99990000Y-77605000D01*
X94682500Y-91480000D02*
X93670704Y-91480000D01*
D59*
X85050000Y-79460000D02*
X85970000Y-79460000D01*
X86810000Y-80170000D02*
X86860000Y-80220000D01*
D57*
X71410000Y-82545000D02*
X72205000Y-82545000D01*
X72205000Y-82545000D02*
X72210000Y-82540000D01*
D56*
X95425870Y-89920000D02*
X94840427Y-89334557D01*
X89835200Y-90460000D02*
X89780000Y-90460000D01*
D59*
X99730000Y-84095000D02*
X98445000Y-84095000D01*
D56*
X77950000Y-86240000D02*
X77950000Y-85400000D01*
X94105000Y-89950000D02*
X94840000Y-89950000D01*
D58*
X78820000Y-95580000D02*
X78820000Y-94840000D01*
D59*
X98445000Y-84095000D02*
X98430000Y-84110000D01*
X98350000Y-92380000D02*
X99480000Y-92380000D01*
X97310000Y-96580000D02*
X96197500Y-96580000D01*
D56*
X99990000Y-82255000D02*
X99690000Y-82555000D01*
D59*
X90825000Y-79430000D02*
X91780000Y-79430000D01*
X100700000Y-99900000D02*
X100690000Y-99910000D01*
X85970000Y-79460000D02*
X86810000Y-79460000D01*
X90700000Y-82220000D02*
X93350000Y-82220000D01*
D56*
X80652500Y-82570000D02*
X80652500Y-82070000D01*
X101750000Y-87690000D02*
X101750000Y-88570000D01*
X78611000Y-81061000D02*
X77569000Y-81061000D01*
X71410000Y-108955000D02*
X72285000Y-108955000D01*
D58*
X82500000Y-95580000D02*
X82500000Y-94840000D01*
D56*
X71190000Y-77515000D02*
X71190000Y-82325000D01*
D59*
X90580000Y-81330000D02*
X91360000Y-81330000D01*
D56*
X84480000Y-92020000D02*
X84830000Y-92370000D01*
X84830000Y-92920000D02*
X84830000Y-93840000D01*
D58*
X80660000Y-95580000D02*
X80660000Y-94840000D01*
D56*
X92270000Y-95580000D02*
X92270000Y-95010000D01*
D59*
X86810000Y-79460000D02*
X86810000Y-80170000D01*
D56*
X80652500Y-82070000D02*
X80140000Y-82070000D01*
X77569000Y-81061000D02*
X77350000Y-81280000D01*
D58*
X79740000Y-95580000D02*
X79740000Y-94840000D01*
X83420000Y-95580000D02*
X83420000Y-94840000D01*
D56*
X94105000Y-89950000D02*
X93625000Y-89950000D01*
X77950000Y-84560000D02*
X77950000Y-85400000D01*
D57*
X72250000Y-98640000D02*
X72250000Y-99540000D01*
D58*
X81580000Y-95580000D02*
X81580000Y-94840000D01*
X83400000Y-97920000D02*
X83400000Y-99306587D01*
D56*
X99890000Y-77605000D02*
X99890000Y-82255000D01*
D59*
X85050000Y-79460000D02*
X84130000Y-79460000D01*
D58*
X87900000Y-97920000D02*
X87900000Y-99020000D01*
D56*
X93920000Y-108360000D02*
X95020000Y-108360000D01*
X80140000Y-82070000D02*
X79890000Y-82320000D01*
D57*
X75602500Y-85667500D02*
X75600000Y-85670000D01*
D59*
X85770000Y-80420000D02*
X85970000Y-80420000D01*
X85220000Y-80420000D02*
X85770000Y-80420000D01*
D56*
X90314307Y-87310000D02*
X90514307Y-87110000D01*
X100544993Y-110414993D02*
X100600000Y-110470000D01*
D59*
X89560000Y-83210000D02*
X89560000Y-83607600D01*
D56*
X77690000Y-83800000D02*
X77350000Y-83460000D01*
D59*
X93922500Y-97530000D02*
X93922500Y-96732500D01*
D58*
X89557500Y-83310000D02*
X90570000Y-83310000D01*
D60*
X87920000Y-81882722D02*
X87920000Y-82472500D01*
D59*
X92770000Y-97530000D02*
X93922500Y-97530000D01*
D57*
X73390000Y-109330000D02*
X72360000Y-110360000D01*
D60*
X88320000Y-82472500D02*
X87920000Y-82472500D01*
D56*
X91350000Y-86890000D02*
X90810000Y-86890000D01*
X70590000Y-110360000D02*
X72360000Y-110360000D01*
D58*
X89557500Y-83710000D02*
X89557500Y-83437500D01*
D57*
X74420000Y-80570000D02*
X73900000Y-80050000D01*
D56*
X90514307Y-87110000D02*
X90590000Y-87110000D01*
D57*
X73800000Y-80050000D02*
X73800000Y-81200000D01*
D56*
X80652500Y-81570000D02*
X80652500Y-80667500D01*
D59*
X89560000Y-82470000D02*
X89560000Y-83210000D01*
D56*
X93920000Y-105820000D02*
X94620000Y-105120000D01*
D59*
X92540000Y-83180000D02*
X90270000Y-83180000D01*
D57*
X73445000Y-109330000D02*
X73390000Y-109330000D01*
D59*
X86330199Y-80980199D02*
X85770000Y-80420000D01*
X74990000Y-107750000D02*
X73830000Y-107750000D01*
X93922500Y-96732500D02*
X93920000Y-96730000D01*
D57*
X75510000Y-81420000D02*
X75510000Y-80580000D01*
D56*
X80652500Y-80667500D02*
X80720000Y-80600000D01*
D57*
X84340000Y-96880000D02*
X84340000Y-96540000D01*
D56*
X79127500Y-82570000D02*
X78750000Y-82570000D01*
D57*
X85780000Y-91180000D02*
X86730000Y-92130000D01*
X84150000Y-99020000D02*
X84150000Y-97070000D01*
D58*
X90570000Y-83310000D02*
X90700000Y-83180000D01*
D59*
X85050000Y-80420000D02*
X85220000Y-80420000D01*
D56*
X80652500Y-83070000D02*
X81080000Y-83070000D01*
X88540000Y-95530000D02*
X88540000Y-95020000D01*
D59*
X73830000Y-107750000D02*
X73445000Y-108135000D01*
X89560000Y-83607600D02*
X89557500Y-83607600D01*
D60*
X82682500Y-85310000D02*
X81738385Y-85310000D01*
D59*
X87496759Y-80980199D02*
X87699561Y-81183001D01*
D60*
X87699561Y-81662283D02*
X87920000Y-81882722D01*
D56*
X83200000Y-79450000D02*
X82500000Y-79450000D01*
D59*
X92270000Y-97030000D02*
X92770000Y-97530000D01*
D56*
X78750000Y-82570000D02*
X78170000Y-83150000D01*
X100544993Y-105439972D02*
X100544993Y-110414993D01*
D57*
X84150000Y-97070000D02*
X84340000Y-96880000D01*
D60*
X89590000Y-83180000D02*
X89560000Y-83210000D01*
X81738385Y-85310000D02*
X81609192Y-85180807D01*
D56*
X81084278Y-81570000D02*
X81086078Y-81571800D01*
X84300000Y-97920000D02*
X84050000Y-97920000D01*
X78170000Y-83150000D02*
X78170000Y-83800000D01*
D60*
X90700000Y-83180000D02*
X89590000Y-83180000D01*
D59*
X86330199Y-80980199D02*
X87496759Y-80980199D01*
D57*
X85780000Y-90600000D02*
X85780000Y-91180000D01*
X75510000Y-80580000D02*
X75520000Y-80570000D01*
D56*
X80652500Y-81570000D02*
X81084278Y-81570000D01*
D57*
X69900000Y-85155000D02*
X69900000Y-84100000D01*
D58*
X89557500Y-83437500D02*
X89557500Y-83310000D01*
D60*
X87699561Y-81183001D02*
X87699561Y-81662283D01*
D56*
X89557500Y-87310000D02*
X90314307Y-87310000D01*
X78170000Y-83800000D02*
X77690000Y-83800000D01*
X70480000Y-110470000D02*
X70590000Y-110360000D01*
D59*
X90270000Y-83180000D02*
X89560000Y-82470000D01*
D57*
X75520000Y-80570000D02*
X74420000Y-80570000D01*
D59*
X92270000Y-96540000D02*
X92270000Y-97030000D01*
D56*
X90810000Y-86890000D02*
X90590000Y-87110000D01*
D59*
X73445000Y-108135000D02*
X73445000Y-109330000D01*
D56*
X81400000Y-97920000D02*
X81400000Y-96720000D01*
D57*
X81400000Y-97920000D02*
X81400000Y-101109080D01*
D56*
X81400000Y-96720000D02*
X81580000Y-96540000D01*
D57*
X75710920Y-98640000D02*
X74550000Y-98640000D01*
X79726679Y-102782401D02*
X76903321Y-102782401D01*
X76903321Y-102782401D02*
X76217600Y-102096680D01*
X81400000Y-101109080D02*
X79726679Y-102782401D01*
X76217600Y-102096680D02*
X76217600Y-99146680D01*
X76217600Y-99146680D02*
X75710920Y-98640000D01*
X75350000Y-97710000D02*
X76620000Y-98980000D01*
X77070000Y-102380000D02*
X79560000Y-102380000D01*
X76620000Y-98980000D02*
X76620000Y-101930000D01*
D56*
X80400000Y-97920000D02*
X80400000Y-97200000D01*
D57*
X70880000Y-97710000D02*
X75350000Y-97710000D01*
D56*
X80400000Y-97200000D02*
X79740000Y-96540000D01*
D57*
X69950000Y-98640000D02*
X70880000Y-97710000D01*
X76620000Y-101930000D02*
X77070000Y-102380000D01*
X80400000Y-97920000D02*
X80400000Y-101540000D01*
X80400000Y-101540000D02*
X79560000Y-102380000D01*
D56*
X98857489Y-101280000D02*
X97597489Y-102540000D01*
X97597489Y-102540000D02*
X97490000Y-102540000D01*
X95500000Y-91880000D02*
X95500000Y-91060000D01*
X95597573Y-94472427D02*
X96105146Y-94980000D01*
X95500000Y-91060000D02*
X95780000Y-90780000D01*
X95500000Y-94374854D02*
X95500000Y-91880000D01*
X96640000Y-89920000D02*
X96680000Y-89920000D01*
D59*
X99570000Y-96830000D02*
X99570000Y-95760000D01*
X98150000Y-99262500D02*
X98150000Y-98250000D01*
X98150000Y-99262500D02*
X98150000Y-99680000D01*
D56*
X96105146Y-94980000D02*
X96991212Y-94980000D01*
X97490000Y-102540000D02*
X96550000Y-102540000D01*
D59*
X98150000Y-99680000D02*
X99750000Y-101280000D01*
D56*
X95597573Y-94472427D02*
X95500000Y-94374854D01*
X99750000Y-101280000D02*
X98857489Y-101280000D01*
X95780000Y-90780000D02*
X96640000Y-89920000D01*
D59*
X98150000Y-98250000D02*
X99570000Y-96830000D01*
D56*
X92240000Y-92700000D02*
X93825146Y-92700000D01*
X91940000Y-93000000D02*
X92240000Y-92700000D01*
X94742573Y-93617427D02*
X95597573Y-94472427D01*
X93825146Y-92700000D02*
X94742573Y-93617427D01*
X96532500Y-91480000D02*
X95900000Y-91480000D01*
X95900000Y-91480000D02*
X95500000Y-91880000D01*
X89070000Y-93812591D02*
X89070000Y-91167409D01*
X88320000Y-90417409D02*
X88320000Y-89347500D01*
X87400000Y-95482591D02*
X89070000Y-93812591D01*
X89070000Y-91167409D02*
X88320000Y-90417409D01*
X87400000Y-97920000D02*
X87400000Y-95482591D01*
X87920000Y-90441673D02*
X87920000Y-89347500D01*
X86900000Y-97920000D02*
X86900000Y-95558327D01*
X88770000Y-91291673D02*
X87920000Y-90441673D01*
X88770000Y-93688327D02*
X88770000Y-91291673D01*
X86900000Y-95558327D02*
X88770000Y-93688327D01*
X88540000Y-96550000D02*
X87880000Y-96550000D01*
X86900000Y-97920000D02*
X86900000Y-98950000D01*
X88470000Y-91415937D02*
X87520000Y-90465937D01*
X86400000Y-97920000D02*
X86400000Y-95634063D01*
X88470000Y-93564063D02*
X88470000Y-91415937D01*
X86400000Y-95634063D02*
X88470000Y-93564063D01*
X87520000Y-90465937D02*
X87520000Y-89347500D01*
X87570000Y-91788729D02*
X87570000Y-93191271D01*
X84900000Y-96960000D02*
X84900000Y-97920000D01*
X85100000Y-95661271D02*
X85100000Y-96760000D01*
X85100000Y-96760000D02*
X84900000Y-96960000D01*
X86320000Y-89347500D02*
X86320000Y-90538729D01*
X87570000Y-93191271D02*
X85100000Y-95661271D01*
X86320000Y-90538729D02*
X87570000Y-91788729D01*
X87870000Y-93315535D02*
X87870000Y-91664465D01*
X85400000Y-95785535D02*
X87870000Y-93315535D01*
X86720000Y-90514465D02*
X86720000Y-89347500D01*
X87870000Y-91664465D02*
X86720000Y-90514465D01*
X85400000Y-97920000D02*
X85400000Y-95785535D01*
X76550000Y-81197409D02*
X76501000Y-81148409D01*
X76550000Y-81860000D02*
X76550000Y-81197409D01*
X83250000Y-80420000D02*
X83200000Y-80470000D01*
X87520000Y-82472500D02*
X87520000Y-81942342D01*
X85624854Y-80950000D02*
X84660000Y-80950000D01*
X84130000Y-80420000D02*
X83250000Y-80420000D01*
X81650000Y-79950000D02*
X82170000Y-80470000D01*
X87035258Y-81457600D02*
X86132454Y-81457600D01*
X87520000Y-81942342D02*
X87035258Y-81457600D01*
X76501000Y-81148409D02*
X76501000Y-80751591D01*
X86132454Y-81457600D02*
X85624854Y-80950000D01*
X82170000Y-80470000D02*
X83200000Y-80470000D01*
X77302591Y-79950000D02*
X81650000Y-79950000D01*
X84660000Y-80950000D02*
X84130000Y-80420000D01*
X76501000Y-80751591D02*
X77302591Y-79950000D01*
X100740000Y-86760000D02*
X100730000Y-86750000D01*
X99030000Y-88620000D02*
X100740000Y-88620000D01*
X100740000Y-88620000D02*
X100740000Y-86760000D01*
X83520000Y-82350000D02*
X83230000Y-82060000D01*
X83520000Y-82472500D02*
X83520000Y-82350000D01*
X83520000Y-82472500D02*
X83520000Y-82470000D01*
D60*
X93747426Y-104612400D02*
X90400000Y-101264974D01*
X95890000Y-104820000D02*
X95682400Y-104612400D01*
X95890000Y-105962500D02*
X95890000Y-104820000D01*
D56*
X90400000Y-97920000D02*
X90400000Y-96550000D01*
D60*
X90400000Y-101264974D02*
X90400000Y-97920000D01*
X95682400Y-104612400D02*
X93747426Y-104612400D01*
X97790000Y-105962500D02*
X97790000Y-104740000D01*
D56*
X90900000Y-96990000D02*
X91340000Y-96550000D01*
D60*
X93890000Y-104260000D02*
X90900000Y-101270000D01*
D56*
X90900000Y-97920000D02*
X90900000Y-96990000D01*
D60*
X97790000Y-104740000D02*
X97310000Y-104260000D01*
X90900000Y-101270000D02*
X90900000Y-97920000D01*
X97310000Y-104260000D02*
X93890000Y-104260000D01*
X83520000Y-89347500D02*
X83520000Y-91280000D01*
D56*
X94105000Y-88990000D02*
X93185000Y-88990000D01*
X92815000Y-86764839D02*
X92815000Y-89360000D01*
X91680000Y-85629839D02*
X92815000Y-86764839D01*
X93185000Y-88990000D02*
X92815000Y-89360000D01*
X91680000Y-84080000D02*
X91680000Y-85629839D01*
X81250000Y-85710000D02*
X80240000Y-84700000D01*
X80240000Y-84700000D02*
X79050000Y-84700000D01*
X82682500Y-85710000D02*
X81250000Y-85710000D01*
X79050000Y-84700000D02*
X78910000Y-84560000D01*
X82682500Y-86110000D02*
X82672500Y-86100000D01*
X80240000Y-86100000D02*
X79050000Y-86100000D01*
X79050000Y-86100000D02*
X78910000Y-86240000D01*
X82672500Y-86100000D02*
X80240000Y-86100000D01*
X79306507Y-92710000D02*
X81060000Y-92710000D01*
X81966171Y-83923829D02*
X81579000Y-83536658D01*
X81579000Y-83000000D02*
X81579000Y-82709000D01*
X81060000Y-92710000D02*
X82040000Y-91730000D01*
X79127500Y-82070000D02*
X78230000Y-82070000D01*
X81579000Y-83536658D02*
X81579000Y-83000000D01*
X81579000Y-82709000D02*
X81330000Y-82460000D01*
X82682500Y-84110000D02*
X82152342Y-84110000D01*
X78230000Y-82070000D02*
X78170000Y-82130000D01*
X82152342Y-84110000D02*
X81966171Y-83923829D01*
X78170000Y-82130000D02*
X78170000Y-81540000D01*
X82180000Y-83710000D02*
X81920000Y-83450000D01*
X79640000Y-80660000D02*
X79700000Y-80600000D01*
X81881400Y-83411400D02*
X81881400Y-83000000D01*
X79258778Y-93600000D02*
X82890000Y-93600000D01*
X79640000Y-81557500D02*
X79640000Y-80660000D01*
X79211090Y-93552312D02*
X79258778Y-93600000D01*
X81881400Y-83000000D02*
X81881400Y-81995624D01*
X81881400Y-81995624D02*
X81695461Y-81809685D01*
X81920000Y-83450000D02*
X81881400Y-83411400D01*
X82682500Y-83710000D02*
X82180000Y-83710000D01*
X79700000Y-80600000D02*
X79070000Y-80600000D01*
D59*
X97200000Y-101137500D02*
X97997500Y-101137500D01*
X99750000Y-99080000D02*
X99750000Y-98250000D01*
D56*
X100345000Y-85345000D02*
X99730000Y-85345000D01*
X101750000Y-86750000D02*
X100345000Y-85345000D01*
D59*
X99750000Y-85365000D02*
X99730000Y-85345000D01*
X97997500Y-101137500D02*
X98000000Y-101140000D01*
X99750000Y-86100000D02*
X99750000Y-85365000D01*
D56*
X91950000Y-89875000D02*
X91065000Y-90760000D01*
X90132503Y-84510000D02*
X91950000Y-86327497D01*
X91950000Y-86327497D02*
X91950000Y-89875000D01*
X89557500Y-84510000D02*
X90132503Y-84510000D01*
X90405000Y-91420000D02*
X91065000Y-90760000D01*
X89780000Y-91420000D02*
X90405000Y-91420000D01*
D61*
X88720000Y-79435000D02*
X88725000Y-79430000D01*
X88720000Y-80375000D02*
X87975000Y-80375000D01*
X87975000Y-80375000D02*
X87820000Y-80220000D01*
X88720000Y-80375000D02*
X88720000Y-79435000D01*
D60*
X88720000Y-82472500D02*
X88720000Y-81345000D01*
D61*
X89605000Y-81345000D02*
X89620000Y-81330000D01*
X88720000Y-81345000D02*
X89605000Y-81345000D01*
D57*
X75450000Y-83792500D02*
X75450000Y-82440000D01*
X75450000Y-83792500D02*
X74810000Y-83792500D01*
X74810000Y-83792500D02*
X74810000Y-83760000D01*
X73512500Y-83792500D02*
X72150000Y-85155000D01*
X75450000Y-82440000D02*
X75510000Y-82380000D01*
X74810000Y-83760000D02*
X73900000Y-82850000D01*
X74810000Y-83792500D02*
X73512500Y-83792500D01*
X96840000Y-109590000D02*
X95390000Y-111040000D01*
X77110000Y-104950000D02*
X74990000Y-104950000D01*
X96840000Y-107837500D02*
X96840000Y-109590000D01*
D59*
X74550000Y-102925000D02*
X74995000Y-103370000D01*
X74990000Y-103375000D02*
X74995000Y-103370000D01*
D57*
X77570000Y-109700000D02*
X77570000Y-105410000D01*
X95390000Y-111040000D02*
X78910000Y-111040000D01*
D59*
X74990000Y-104950000D02*
X74990000Y-103375000D01*
X74550000Y-101940000D02*
X74550000Y-102925000D01*
D57*
X78910000Y-111040000D02*
X77570000Y-109700000D01*
X77570000Y-105410000D02*
X77110000Y-104950000D01*
D59*
X73445000Y-103370000D02*
X73445000Y-103135000D01*
X72250000Y-101940000D02*
X69950000Y-101940000D01*
X73445000Y-103135000D02*
X72250000Y-101940000D01*
D56*
X89400000Y-97920000D02*
X89400000Y-96610000D01*
X89400000Y-96610000D02*
X89470000Y-96540000D01*
X82900000Y-97920000D02*
X82900000Y-97060000D01*
X82900000Y-97060000D02*
X83420000Y-96540000D01*
X81900000Y-97140000D02*
X82500000Y-96540000D01*
X81900000Y-97920000D02*
X81900000Y-97140000D01*
X80900000Y-96780000D02*
X80660000Y-96540000D01*
X80900000Y-97920000D02*
X80900000Y-96780000D01*
D57*
X78820000Y-96540000D02*
X78820000Y-96840000D01*
X78820000Y-96840000D02*
X79900000Y-97920000D01*
D56*
X96457500Y-92017500D02*
X97090000Y-92650000D01*
X97090000Y-92650000D02*
X97090000Y-94020000D01*
X97400000Y-94330000D02*
X98350000Y-94330000D01*
X97090000Y-94020000D02*
X97400000Y-94330000D01*
X97590000Y-93680000D02*
X98350000Y-93680000D01*
X97392400Y-93482400D02*
X97590000Y-93680000D01*
X96924800Y-90942500D02*
X97392400Y-91410100D01*
X97392400Y-91410100D02*
X97392400Y-93482400D01*
X96457500Y-90942500D02*
X96924800Y-90942500D01*
D59*
X94987400Y-95172600D02*
X94987400Y-96997400D01*
X95520000Y-97530000D02*
X96197500Y-97530000D01*
X94987400Y-94537400D02*
X94987400Y-95172600D01*
X95444800Y-95630000D02*
X94987400Y-95172600D01*
X96197500Y-95630000D02*
X95444800Y-95630000D01*
X94987400Y-96997400D02*
X95520000Y-97530000D01*
X96250000Y-99262500D02*
X96250000Y-97582500D01*
X93110000Y-93730000D02*
X94180000Y-93730000D01*
X96250000Y-97582500D02*
X96197500Y-97530000D01*
X94180000Y-93730000D02*
X94987400Y-94537400D01*
D56*
X88170000Y-93439799D02*
X88170000Y-91540201D01*
X85900000Y-95709799D02*
X88170000Y-93439799D01*
X88170000Y-91540201D02*
X87120000Y-90490201D01*
X87120000Y-90490201D02*
X87120000Y-89347500D01*
X85900000Y-97920000D02*
X85900000Y-95709799D01*
X75652500Y-87170000D02*
X74150000Y-85667500D01*
X77940000Y-87170000D02*
X75652500Y-87170000D01*
X101210000Y-104860000D02*
X101210000Y-108675000D01*
X82420000Y-80910000D02*
X81850000Y-80910000D01*
X101210000Y-108675000D02*
X101490000Y-108955000D01*
X101210000Y-103985000D02*
X101210000Y-104860000D01*
X101190000Y-108655000D02*
X101490000Y-108955000D01*
X84320000Y-82472500D02*
X84320000Y-81942342D01*
X84320000Y-81942342D02*
X83526258Y-81148600D01*
X83526258Y-81148600D02*
X82658600Y-81148600D01*
X101490000Y-103705000D02*
X101210000Y-103985000D01*
D57*
X101490000Y-108955000D02*
X101490000Y-110240000D01*
X101490000Y-110240000D02*
X101720000Y-110470000D01*
D56*
X82658600Y-81148600D02*
X82420000Y-80910000D01*
X82682500Y-82912500D02*
X82540000Y-82770000D01*
X82682500Y-83310000D02*
X82682500Y-82912500D01*
X94800000Y-103560000D02*
X95610000Y-103560000D01*
X96550000Y-103560000D02*
X95610000Y-103560000D01*
X101650000Y-101280000D02*
X101650000Y-101485000D01*
X100725000Y-102410000D02*
X98560000Y-102410000D01*
X101650000Y-101485000D02*
X100725000Y-102410000D01*
X98560000Y-102410000D02*
X98430000Y-102540000D01*
X100970000Y-77625000D02*
X100970000Y-82235000D01*
X101490000Y-83760000D02*
X101490000Y-82555000D01*
X76980000Y-81830000D02*
X76950000Y-81860000D01*
X84720000Y-82472500D02*
X84720000Y-81430000D01*
X90560000Y-87770000D02*
X91210000Y-87770000D01*
X76980000Y-80950000D02*
X76980000Y-81830000D01*
X91210000Y-87770000D02*
X91350000Y-87910000D01*
X70490000Y-81230000D02*
X70010000Y-80750000D01*
D57*
X69710000Y-77295000D02*
X69950000Y-77535000D01*
D56*
X76950000Y-83460000D02*
X76950000Y-84048892D01*
X76950000Y-84048892D02*
X76554052Y-84444840D01*
X70010000Y-80750000D02*
X70010000Y-80610000D01*
X85750000Y-81760000D02*
X85420000Y-81430000D01*
D57*
X69950000Y-82305000D02*
X69710000Y-82545000D01*
D56*
X86270000Y-81760000D02*
X85750000Y-81760000D01*
X87120000Y-81970000D02*
X86970000Y-81820000D01*
X75520000Y-79550000D02*
X76320000Y-80350000D01*
X87120000Y-82472500D02*
X87120000Y-81970000D01*
X86970000Y-81820000D02*
X86910000Y-81760000D01*
X70010000Y-80610000D02*
X70010000Y-82245000D01*
X69710000Y-77295000D02*
X70010000Y-77595000D01*
X86910000Y-81760000D02*
X86270000Y-81760000D01*
X70010000Y-82245000D02*
X69710000Y-82545000D01*
X70010000Y-77595000D02*
X70010000Y-80610000D01*
X78760000Y-88420000D02*
X80000000Y-88420000D01*
X83920000Y-82472500D02*
X83920000Y-81970000D01*
X82251000Y-81451000D02*
X82250000Y-81450000D01*
X70130000Y-105220000D02*
X69810000Y-104900000D01*
X70130000Y-108635000D02*
X70130000Y-105220000D01*
X69810000Y-103705000D02*
X69810000Y-104900000D01*
X69710000Y-108955000D02*
X70060000Y-108605000D01*
X83640000Y-81690000D02*
X83401000Y-81451000D01*
X69710000Y-108955000D02*
X70030000Y-108635000D01*
X83401000Y-81451000D02*
X82700000Y-81451000D01*
X69560000Y-110470000D02*
X69560000Y-109205000D01*
X82700000Y-81451000D02*
X82251000Y-81451000D01*
X69460000Y-109205000D02*
X69710000Y-108955000D01*
X83920000Y-81970000D02*
X83640000Y-81690000D01*
X78960000Y-87170000D02*
X79620000Y-87170000D01*
X82154276Y-86510000D02*
X82682500Y-86510000D01*
X79620000Y-87170000D02*
X79982862Y-86807138D01*
X81857138Y-86807138D02*
X82154276Y-86510000D01*
X79982862Y-86807138D02*
X81857138Y-86807138D01*
X91940000Y-94020000D02*
X91000000Y-94020000D01*
X90568768Y-93588768D02*
X91000000Y-94020000D01*
X82682500Y-88110000D02*
X82050000Y-88110000D01*
X82050000Y-88110000D02*
X81640000Y-88520000D01*
X90135566Y-93588768D02*
X90568768Y-93588768D01*
X95610000Y-101840000D02*
X95610000Y-102540000D01*
X101650000Y-100030000D02*
X101650000Y-99080000D01*
X90630000Y-84110000D02*
X90660000Y-84080000D01*
X89557500Y-84110000D02*
X90630000Y-84110000D01*
X90060000Y-86110000D02*
X90430000Y-86480000D01*
X93660000Y-87560000D02*
X93660000Y-86431331D01*
X93660000Y-86431331D02*
X93011808Y-85783139D01*
X89557500Y-86110000D02*
X90060000Y-86110000D01*
X92490000Y-85300000D02*
X92510000Y-85300000D01*
X89557500Y-85710000D02*
X90425000Y-85710000D01*
X92510000Y-85300000D02*
X93160000Y-84650000D01*
X81157026Y-83970000D02*
X80070000Y-83970000D01*
X80070000Y-83970000D02*
X79640000Y-83540000D01*
X82682500Y-84910000D02*
X82097026Y-84910000D01*
X82097026Y-84910000D02*
X81157026Y-83970000D01*
X79640000Y-83540000D02*
X79640000Y-83082500D01*
X81802342Y-84187658D02*
X81282284Y-83667600D01*
X81802342Y-84187658D02*
X81592342Y-83977658D01*
X81282284Y-83667600D02*
X80327600Y-83667600D01*
X82124684Y-84510000D02*
X81802342Y-84187658D01*
X80140000Y-83480000D02*
X80140000Y-83082500D01*
X82682500Y-84510000D02*
X82124684Y-84510000D01*
X80327600Y-83667600D02*
X80140000Y-83480000D01*
X81592342Y-83977658D02*
X81325200Y-83710516D01*
X82682500Y-87310000D02*
X81091069Y-87310000D01*
X81091069Y-87310000D02*
X81087207Y-87306138D01*
X94132500Y-92017500D02*
X94130000Y-92020000D01*
X94757500Y-92017500D02*
X94132500Y-92017500D01*
X82682500Y-87710000D02*
X81478433Y-87710000D01*
X81478433Y-87710000D02*
X81170997Y-88017436D01*
X94132500Y-90942500D02*
X94130000Y-90940000D01*
X94757500Y-90942500D02*
X94132500Y-90942500D01*
M02*
