G04 #@! TF.GenerationSoftware,KiCad,Pcbnew,(5.1.8)-1*
G04 #@! TF.CreationDate,2021-12-24T21:37:01-05:00*
G04 #@! TF.ProjectId,Watchy,57617463-6879-42e6-9b69-6361645f7063,rev?*
G04 #@! TF.SameCoordinates,Original*
G04 #@! TF.FileFunction,Copper,L1,Top*
G04 #@! TF.FilePolarity,Positive*
%FSLAX46Y46*%
G04 Gerber Fmt 4.6, Leading zero omitted, Abs format (unit mm)*
G04 Created by KiCad (PCBNEW (5.1.8)-1) date 2021-12-24 21:37:01*
%MOMM*%
%LPD*%
G01*
G04 APERTURE LIST*
G04 #@! TA.AperFunction,EtchedComponent*
%ADD10C,0.100000*%
G04 #@! TD*
G04 #@! TA.AperFunction,SMDPad,CuDef*
%ADD11R,1.000000X1.800000*%
G04 #@! TD*
G04 #@! TA.AperFunction,SMDPad,CuDef*
%ADD12R,0.600000X0.400000*%
G04 #@! TD*
G04 #@! TA.AperFunction,SMDPad,CuDef*
%ADD13R,0.375000X0.350000*%
G04 #@! TD*
G04 #@! TA.AperFunction,SMDPad,CuDef*
%ADD14R,0.350000X0.375000*%
G04 #@! TD*
G04 #@! TA.AperFunction,SMDPad,CuDef*
%ADD15O,0.950000X1.250000*%
G04 #@! TD*
G04 #@! TA.AperFunction,SMDPad,CuDef*
%ADD16O,1.550000X1.000000*%
G04 #@! TD*
G04 #@! TA.AperFunction,SMDPad,CuDef*
%ADD17R,1.350000X0.400000*%
G04 #@! TD*
G04 #@! TA.AperFunction,ComponentPad*
%ADD18O,0.950000X1.250000*%
G04 #@! TD*
G04 #@! TA.AperFunction,ComponentPad*
%ADD19O,1.550000X1.000000*%
G04 #@! TD*
G04 #@! TA.AperFunction,SMDPad,CuDef*
%ADD20R,0.800000X0.750000*%
G04 #@! TD*
G04 #@! TA.AperFunction,SMDPad,CuDef*
%ADD21R,1.000000X1.400000*%
G04 #@! TD*
G04 #@! TA.AperFunction,SMDPad,CuDef*
%ADD22R,2.000000X3.000000*%
G04 #@! TD*
G04 #@! TA.AperFunction,SMDPad,CuDef*
%ADD23R,0.300000X1.300000*%
G04 #@! TD*
G04 #@! TA.AperFunction,SMDPad,CuDef*
%ADD24R,2.900000X2.100000*%
G04 #@! TD*
G04 #@! TA.AperFunction,SMDPad,CuDef*
%ADD25R,1.600000X0.500000*%
G04 #@! TD*
G04 #@! TA.AperFunction,SMDPad,CuDef*
%ADD26R,1.300000X1.300000*%
G04 #@! TD*
G04 #@! TA.AperFunction,SMDPad,CuDef*
%ADD27R,0.300000X0.850000*%
G04 #@! TD*
G04 #@! TA.AperFunction,SMDPad,CuDef*
%ADD28R,0.850000X0.300000*%
G04 #@! TD*
G04 #@! TA.AperFunction,SMDPad,CuDef*
%ADD29R,0.400000X0.600000*%
G04 #@! TD*
G04 #@! TA.AperFunction,SMDPad,CuDef*
%ADD30R,0.750000X0.800000*%
G04 #@! TD*
G04 #@! TA.AperFunction,SMDPad,CuDef*
%ADD31R,1.000000X1.250000*%
G04 #@! TD*
G04 #@! TA.AperFunction,SMDPad,CuDef*
%ADD32R,1.200000X0.900000*%
G04 #@! TD*
G04 #@! TA.AperFunction,SMDPad,CuDef*
%ADD33R,0.800000X0.800000*%
G04 #@! TD*
G04 #@! TA.AperFunction,SMDPad,CuDef*
%ADD34R,1.100000X1.100000*%
G04 #@! TD*
G04 #@! TA.AperFunction,SMDPad,CuDef*
%ADD35R,3.900000X1.200000*%
G04 #@! TD*
G04 #@! TA.AperFunction,SMDPad,CuDef*
%ADD36R,0.800000X0.900000*%
G04 #@! TD*
G04 #@! TA.AperFunction,SMDPad,CuDef*
%ADD37R,0.900000X0.800000*%
G04 #@! TD*
G04 #@! TA.AperFunction,SMDPad,CuDef*
%ADD38R,1.287500X1.287500*%
G04 #@! TD*
G04 #@! TA.AperFunction,SMDPad,CuDef*
%ADD39R,0.700000X0.250000*%
G04 #@! TD*
G04 #@! TA.AperFunction,SMDPad,CuDef*
%ADD40R,0.250000X0.700000*%
G04 #@! TD*
G04 #@! TA.AperFunction,SMDPad,CuDef*
%ADD41R,0.650000X1.060000*%
G04 #@! TD*
G04 #@! TA.AperFunction,SMDPad,CuDef*
%ADD42R,0.650000X0.400000*%
G04 #@! TD*
G04 #@! TA.AperFunction,SMDPad,CuDef*
%ADD43O,1.350000X1.500000*%
G04 #@! TD*
G04 #@! TA.AperFunction,SMDPad,CuDef*
%ADD44R,1.350000X1.500000*%
G04 #@! TD*
G04 #@! TA.AperFunction,SMDPad,CuDef*
%ADD45R,0.500000X0.500000*%
G04 #@! TD*
G04 #@! TA.AperFunction,SMDPad,CuDef*
%ADD46R,0.900000X0.500000*%
G04 #@! TD*
G04 #@! TA.AperFunction,SMDPad,CuDef*
%ADD47C,1.000000*%
G04 #@! TD*
G04 #@! TA.AperFunction,SMDPad,CuDef*
%ADD48R,2.500000X1.700000*%
G04 #@! TD*
G04 #@! TA.AperFunction,ViaPad*
%ADD49C,0.600000*%
G04 #@! TD*
G04 #@! TA.AperFunction,Conductor*
%ADD50C,0.350000*%
G04 #@! TD*
G04 #@! TA.AperFunction,Conductor*
%ADD51C,0.250000*%
G04 #@! TD*
G04 #@! TA.AperFunction,Conductor*
%ADD52C,0.900000*%
G04 #@! TD*
G04 #@! TA.AperFunction,Conductor*
%ADD53C,0.200000*%
G04 #@! TD*
G04 #@! TA.AperFunction,Conductor*
%ADD54C,0.152400*%
G04 #@! TD*
G04 #@! TA.AperFunction,Conductor*
%ADD55C,0.300000*%
G04 #@! TD*
G04 #@! TA.AperFunction,Conductor*
%ADD56C,0.500000*%
G04 #@! TD*
G04 #@! TA.AperFunction,Conductor*
%ADD57C,0.254000*%
G04 #@! TD*
G04 #@! TA.AperFunction,Conductor*
%ADD58C,0.100000*%
G04 #@! TD*
G04 APERTURE END LIST*
D10*
G36*
X88975000Y-74780000D02*
G01*
X88975000Y-79680000D01*
X88475000Y-79680000D01*
X88475000Y-74780000D01*
X88975000Y-74780000D01*
G37*
G36*
X91275000Y-74780000D02*
G01*
X91275000Y-79680000D01*
X90375000Y-79680000D01*
X90375000Y-74780000D01*
X91275000Y-74780000D01*
G37*
G36*
X91275000Y-74280000D02*
G01*
X91275000Y-74780000D01*
X86275000Y-74780000D01*
X86275000Y-74280000D01*
X91275000Y-74280000D01*
G37*
G36*
X86775000Y-74780000D02*
G01*
X86775000Y-77420000D01*
X86275000Y-77420000D01*
X86275000Y-74780000D01*
X86775000Y-74780000D01*
G37*
G36*
X86275000Y-76920000D02*
G01*
X86275000Y-77420000D01*
X84275000Y-77420000D01*
X84275000Y-76920000D01*
X86275000Y-76920000D01*
G37*
G36*
X84325000Y-74780000D02*
G01*
X84325000Y-77420000D01*
X83825000Y-77420000D01*
X83825000Y-74780000D01*
X84325000Y-74780000D01*
G37*
G36*
X84325000Y-74280000D02*
G01*
X84325000Y-74780000D01*
X81625000Y-74780000D01*
X81625000Y-74280000D01*
X84325000Y-74280000D01*
G37*
G36*
X82125000Y-74780000D02*
G01*
X82125000Y-77420000D01*
X81625000Y-77420000D01*
X81625000Y-74780000D01*
X82125000Y-74780000D01*
G37*
G36*
X81625000Y-76920000D02*
G01*
X81625000Y-77420000D01*
X79625000Y-77420000D01*
X79625000Y-76920000D01*
X81625000Y-76920000D01*
G37*
G36*
X79625000Y-74780000D02*
G01*
X79625000Y-77420000D01*
X79125000Y-77420000D01*
X79125000Y-74780000D01*
X79625000Y-74780000D01*
G37*
G36*
X79625000Y-74280000D02*
G01*
X79625000Y-74780000D01*
X76925000Y-74780000D01*
X76925000Y-74280000D01*
X79625000Y-74280000D01*
G37*
G36*
X77425000Y-74780000D02*
G01*
X77425000Y-78720000D01*
X76925000Y-78720000D01*
X76925000Y-74780000D01*
X77425000Y-74780000D01*
G37*
D11*
X81580000Y-80200000D03*
X79080000Y-80200000D03*
D12*
X78260000Y-85400000D03*
X78260000Y-84500000D03*
X77360000Y-83800000D03*
X77360000Y-82900000D03*
D13*
X80207500Y-89910000D03*
X80207500Y-90410000D03*
X81732500Y-89910000D03*
X81732500Y-90410000D03*
X80207500Y-90910000D03*
X81732500Y-90910000D03*
X80207500Y-89410000D03*
X81732500Y-89410000D03*
D14*
X80720000Y-90922500D03*
X81220000Y-90922500D03*
X81220000Y-89397500D03*
X80720000Y-89397500D03*
D12*
X78260000Y-83800000D03*
X78260000Y-82900000D03*
D15*
X98350000Y-91180000D03*
X98350000Y-96180000D03*
D16*
X101050000Y-90180000D03*
X101050000Y-97180000D03*
D17*
X98350000Y-94980000D03*
X98350000Y-94330000D03*
X98350000Y-93680000D03*
X98350000Y-93030000D03*
X98350000Y-92380000D03*
D18*
X98350000Y-96180000D03*
X98350000Y-91180000D03*
D19*
X101050000Y-97180000D03*
X101050000Y-90180000D03*
D20*
X73310000Y-78400000D03*
X74810000Y-78400000D03*
D21*
X69830000Y-82730000D03*
X69830000Y-77130000D03*
X71530000Y-82730000D03*
X71530000Y-77130000D03*
X69830000Y-109130000D03*
X69830000Y-103530000D03*
X71530000Y-109130000D03*
X71530000Y-103530000D03*
X101370000Y-77130000D03*
X101370000Y-82730000D03*
X99670000Y-77130000D03*
X99670000Y-82730000D03*
X101370000Y-103530000D03*
X101370000Y-109130000D03*
X99670000Y-103530000D03*
X99670000Y-109130000D03*
D22*
X78075000Y-99770000D03*
X92875000Y-99770000D03*
D23*
X91225000Y-97420000D03*
X90725000Y-97420000D03*
X90225000Y-97420000D03*
X89725000Y-97420000D03*
X89225000Y-97420000D03*
X88725000Y-97420000D03*
X88225000Y-97420000D03*
X87725000Y-97420000D03*
X83225000Y-97420000D03*
X82725000Y-97420000D03*
X82225000Y-97420000D03*
X80225000Y-97420000D03*
X79725000Y-97420000D03*
X80725000Y-97420000D03*
X81225000Y-97420000D03*
X81725000Y-97420000D03*
X85725000Y-97420000D03*
X85225000Y-97420000D03*
X84725000Y-97420000D03*
X83725000Y-97420000D03*
X84225000Y-97420000D03*
X86225000Y-97420000D03*
X86725000Y-97420000D03*
X87225000Y-97420000D03*
D24*
X96880000Y-87877000D03*
X96880000Y-81545000D03*
D25*
X99730000Y-84095000D03*
X99730000Y-85345000D03*
D12*
X100400000Y-88280000D03*
X100400000Y-87380000D03*
D26*
X93810000Y-91080000D03*
X93810000Y-92380000D03*
X95110000Y-91080000D03*
X95110000Y-92380000D03*
D27*
X93210000Y-89780000D03*
X93710000Y-89780000D03*
X94210000Y-89780000D03*
X94710000Y-89780000D03*
X95210000Y-89780000D03*
X95710000Y-89780000D03*
D28*
X96410000Y-90480000D03*
X96410000Y-90980000D03*
X96410000Y-91480000D03*
X96410000Y-91980000D03*
X96410000Y-92480000D03*
X96410000Y-92980000D03*
D27*
X95710000Y-93680000D03*
X95210000Y-93680000D03*
X94710000Y-93680000D03*
X94210000Y-93680000D03*
X93710000Y-93680000D03*
X93210000Y-93680000D03*
D28*
X92510000Y-92980000D03*
X92510000Y-92480000D03*
X92510000Y-91980000D03*
X92510000Y-91480000D03*
X92510000Y-90980000D03*
X92510000Y-90480000D03*
D29*
X98200000Y-103040000D03*
X97300000Y-103040000D03*
D20*
X89660000Y-92640000D03*
X91160000Y-92640000D03*
D30*
X84120000Y-81210000D03*
X84120000Y-79710000D03*
X87710000Y-93890000D03*
X87710000Y-95390000D03*
D31*
X73530000Y-103520000D03*
X75530000Y-103520000D03*
X76530000Y-109770000D03*
X74530000Y-109770000D03*
D30*
X82510000Y-93890000D03*
X82510000Y-95390000D03*
X85110000Y-95390000D03*
X85110000Y-93890000D03*
X86410000Y-95390000D03*
X86410000Y-93890000D03*
X83810000Y-93890000D03*
X83810000Y-95390000D03*
X81160000Y-95390000D03*
X81160000Y-93890000D03*
X79860000Y-93890000D03*
X79860000Y-95390000D03*
D31*
X85520000Y-80580000D03*
X87520000Y-80580000D03*
D32*
X69950000Y-101940000D03*
X69950000Y-98640000D03*
X72250000Y-101940000D03*
X72250000Y-98640000D03*
X74550000Y-98640000D03*
X74550000Y-101940000D03*
X95970000Y-95180000D03*
X95970000Y-98480000D03*
D33*
X101740000Y-84780000D03*
X101740000Y-86380000D03*
D34*
X73810000Y-82805000D03*
X73810000Y-80005000D03*
D35*
X75030000Y-108040000D03*
X75030000Y-105240000D03*
D36*
X96800000Y-108080000D03*
X95850000Y-106080000D03*
X97750000Y-106080000D03*
X98100000Y-99880000D03*
X96200000Y-99880000D03*
X97150000Y-101880000D03*
D37*
X77510000Y-81750000D03*
X77510000Y-79850000D03*
X75510000Y-80800000D03*
D29*
X85220000Y-81920000D03*
X86120000Y-81920000D03*
D12*
X91250000Y-88990000D03*
X91250000Y-89890000D03*
D29*
X93060000Y-88630000D03*
X92160000Y-88630000D03*
X95400000Y-103040000D03*
X96300000Y-103040000D03*
X97810000Y-79670000D03*
X96910000Y-79670000D03*
D12*
X75560000Y-83800000D03*
X75560000Y-82900000D03*
D29*
X98200000Y-104830000D03*
X97300000Y-104830000D03*
X95400000Y-104830000D03*
X96300000Y-104830000D03*
D12*
X73250000Y-110220000D03*
X73250000Y-109320000D03*
X99500000Y-88280000D03*
X99500000Y-87380000D03*
D29*
X97570000Y-98710000D03*
X98470000Y-98710000D03*
D12*
X101940000Y-87380000D03*
X101940000Y-88280000D03*
X76460000Y-82900000D03*
X76460000Y-83800000D03*
D38*
X88405000Y-84520000D03*
X87117500Y-84520000D03*
X85830000Y-84520000D03*
X84542500Y-84520000D03*
X88405000Y-85807500D03*
X87117500Y-85807500D03*
X85830000Y-85807500D03*
X84542500Y-85807500D03*
X88405000Y-87095000D03*
X87117500Y-87095000D03*
X85830000Y-87095000D03*
X84542500Y-87095000D03*
X88405000Y-88382500D03*
X87117500Y-88382500D03*
X85830000Y-88382500D03*
X84542500Y-88382500D03*
D39*
X89873750Y-83701250D03*
X89873750Y-84201250D03*
X89873750Y-84701250D03*
X89873750Y-85201250D03*
X89873750Y-85701250D03*
X89873750Y-86201250D03*
X89873750Y-86701250D03*
X89873750Y-87201250D03*
X89873750Y-87701250D03*
X89873750Y-88201250D03*
X89873750Y-88701250D03*
X89873750Y-89201250D03*
D40*
X89223750Y-89851250D03*
X88723750Y-89851250D03*
X88223750Y-89851250D03*
X87723750Y-89851250D03*
X87223750Y-89851250D03*
X86723750Y-89851250D03*
X86223750Y-89851250D03*
X85723750Y-89851250D03*
X85223750Y-89851250D03*
X84723750Y-89851250D03*
X84223750Y-89851250D03*
X83723750Y-89851250D03*
D39*
X83073750Y-89201250D03*
X83073750Y-88701250D03*
X83073750Y-88201250D03*
X83073750Y-87701250D03*
X83073750Y-87201250D03*
X83073750Y-86701250D03*
X83073750Y-86201250D03*
X83073750Y-85701250D03*
X83073750Y-85201250D03*
X83073750Y-84701250D03*
X83073750Y-84201250D03*
X83073750Y-83701250D03*
D40*
X83723750Y-83051250D03*
X84223750Y-83051250D03*
X84723750Y-83051250D03*
X85223750Y-83051250D03*
X85723750Y-83051250D03*
X86223750Y-83051250D03*
X86723750Y-83051250D03*
X87223750Y-83051250D03*
X87723750Y-83051250D03*
X88223750Y-83051250D03*
X88723750Y-83051250D03*
X89223750Y-83051250D03*
D41*
X94310000Y-95130000D03*
X93360000Y-95130000D03*
X92410000Y-95130000D03*
X92410000Y-97330000D03*
X94310000Y-97330000D03*
X101650000Y-101280000D03*
X99750000Y-101280000D03*
X99750000Y-99080000D03*
X100700000Y-99080000D03*
X101650000Y-99080000D03*
D42*
X89060000Y-95290000D03*
X89060000Y-93990000D03*
X90960000Y-94640000D03*
X89060000Y-94640000D03*
X90960000Y-93990000D03*
X90960000Y-95290000D03*
D43*
X71900000Y-85155000D03*
D44*
X69900000Y-85155000D03*
D45*
X88725000Y-79430000D03*
D46*
X90825000Y-79430000D03*
D47*
X86900000Y-91610000D03*
X91380000Y-105820000D03*
X91380000Y-108360000D03*
X93920000Y-105820000D03*
X93920000Y-108360000D03*
X83810000Y-92450000D03*
D12*
X77360000Y-84500000D03*
X77360000Y-85400000D03*
D48*
X80460000Y-83470000D03*
G04 #@! TA.AperFunction,SMDPad,CuDef*
G36*
G01*
X81397500Y-84520000D02*
X81522500Y-84520000D01*
G75*
G02*
X81585000Y-84582500I0J-62500D01*
G01*
X81585000Y-85282500D01*
G75*
G02*
X81522500Y-85345000I-62500J0D01*
G01*
X81397500Y-85345000D01*
G75*
G02*
X81335000Y-85282500I0J62500D01*
G01*
X81335000Y-84582500D01*
G75*
G02*
X81397500Y-84520000I62500J0D01*
G01*
G37*
G04 #@! TD.AperFunction*
G04 #@! TA.AperFunction,SMDPad,CuDef*
G36*
G01*
X80897500Y-84520000D02*
X81022500Y-84520000D01*
G75*
G02*
X81085000Y-84582500I0J-62500D01*
G01*
X81085000Y-85282500D01*
G75*
G02*
X81022500Y-85345000I-62500J0D01*
G01*
X80897500Y-85345000D01*
G75*
G02*
X80835000Y-85282500I0J62500D01*
G01*
X80835000Y-84582500D01*
G75*
G02*
X80897500Y-84520000I62500J0D01*
G01*
G37*
G04 #@! TD.AperFunction*
G04 #@! TA.AperFunction,SMDPad,CuDef*
G36*
G01*
X80397500Y-84520000D02*
X80522500Y-84520000D01*
G75*
G02*
X80585000Y-84582500I0J-62500D01*
G01*
X80585000Y-85282500D01*
G75*
G02*
X80522500Y-85345000I-62500J0D01*
G01*
X80397500Y-85345000D01*
G75*
G02*
X80335000Y-85282500I0J62500D01*
G01*
X80335000Y-84582500D01*
G75*
G02*
X80397500Y-84520000I62500J0D01*
G01*
G37*
G04 #@! TD.AperFunction*
G04 #@! TA.AperFunction,SMDPad,CuDef*
G36*
G01*
X79897500Y-84520000D02*
X80022500Y-84520000D01*
G75*
G02*
X80085000Y-84582500I0J-62500D01*
G01*
X80085000Y-85282500D01*
G75*
G02*
X80022500Y-85345000I-62500J0D01*
G01*
X79897500Y-85345000D01*
G75*
G02*
X79835000Y-85282500I0J62500D01*
G01*
X79835000Y-84582500D01*
G75*
G02*
X79897500Y-84520000I62500J0D01*
G01*
G37*
G04 #@! TD.AperFunction*
G04 #@! TA.AperFunction,SMDPad,CuDef*
G36*
G01*
X79397500Y-84520000D02*
X79522500Y-84520000D01*
G75*
G02*
X79585000Y-84582500I0J-62500D01*
G01*
X79585000Y-85282500D01*
G75*
G02*
X79522500Y-85345000I-62500J0D01*
G01*
X79397500Y-85345000D01*
G75*
G02*
X79335000Y-85282500I0J62500D01*
G01*
X79335000Y-84582500D01*
G75*
G02*
X79397500Y-84520000I62500J0D01*
G01*
G37*
G04 #@! TD.AperFunction*
G04 #@! TA.AperFunction,SMDPad,CuDef*
G36*
G01*
X79397500Y-81595000D02*
X79522500Y-81595000D01*
G75*
G02*
X79585000Y-81657500I0J-62500D01*
G01*
X79585000Y-82357500D01*
G75*
G02*
X79522500Y-82420000I-62500J0D01*
G01*
X79397500Y-82420000D01*
G75*
G02*
X79335000Y-82357500I0J62500D01*
G01*
X79335000Y-81657500D01*
G75*
G02*
X79397500Y-81595000I62500J0D01*
G01*
G37*
G04 #@! TD.AperFunction*
G04 #@! TA.AperFunction,SMDPad,CuDef*
G36*
G01*
X79897500Y-81595000D02*
X80022500Y-81595000D01*
G75*
G02*
X80085000Y-81657500I0J-62500D01*
G01*
X80085000Y-82357500D01*
G75*
G02*
X80022500Y-82420000I-62500J0D01*
G01*
X79897500Y-82420000D01*
G75*
G02*
X79835000Y-82357500I0J62500D01*
G01*
X79835000Y-81657500D01*
G75*
G02*
X79897500Y-81595000I62500J0D01*
G01*
G37*
G04 #@! TD.AperFunction*
G04 #@! TA.AperFunction,SMDPad,CuDef*
G36*
G01*
X80397500Y-81595000D02*
X80522500Y-81595000D01*
G75*
G02*
X80585000Y-81657500I0J-62500D01*
G01*
X80585000Y-82357500D01*
G75*
G02*
X80522500Y-82420000I-62500J0D01*
G01*
X80397500Y-82420000D01*
G75*
G02*
X80335000Y-82357500I0J62500D01*
G01*
X80335000Y-81657500D01*
G75*
G02*
X80397500Y-81595000I62500J0D01*
G01*
G37*
G04 #@! TD.AperFunction*
G04 #@! TA.AperFunction,SMDPad,CuDef*
G36*
G01*
X80897500Y-81595000D02*
X81022500Y-81595000D01*
G75*
G02*
X81085000Y-81657500I0J-62500D01*
G01*
X81085000Y-82357500D01*
G75*
G02*
X81022500Y-82420000I-62500J0D01*
G01*
X80897500Y-82420000D01*
G75*
G02*
X80835000Y-82357500I0J62500D01*
G01*
X80835000Y-81657500D01*
G75*
G02*
X80897500Y-81595000I62500J0D01*
G01*
G37*
G04 #@! TD.AperFunction*
G04 #@! TA.AperFunction,SMDPad,CuDef*
G36*
G01*
X81397500Y-81595000D02*
X81522500Y-81595000D01*
G75*
G02*
X81585000Y-81657500I0J-62500D01*
G01*
X81585000Y-82357500D01*
G75*
G02*
X81522500Y-82420000I-62500J0D01*
G01*
X81397500Y-82420000D01*
G75*
G02*
X81335000Y-82357500I0J62500D01*
G01*
X81335000Y-81657500D01*
G75*
G02*
X81397500Y-81595000I62500J0D01*
G01*
G37*
G04 #@! TD.AperFunction*
D49*
X78670000Y-97260000D03*
X77670000Y-97260000D03*
X90820000Y-80280000D03*
X90820000Y-81280000D03*
X91820000Y-79380000D03*
X92820000Y-79380000D03*
X92820000Y-80380000D03*
X91820000Y-80380000D03*
X92820000Y-81380000D03*
X91820000Y-81380000D03*
X92820000Y-82380000D03*
X91820000Y-82380000D03*
X92820000Y-83380000D03*
X91820000Y-83380000D03*
X89820000Y-80280000D03*
X89820000Y-81280000D03*
X72670000Y-92260000D03*
X78670000Y-92260000D03*
X77670000Y-92260000D03*
X76670000Y-92260000D03*
X74670000Y-92260000D03*
X75670000Y-92260000D03*
X73670000Y-92260000D03*
X78670000Y-93260000D03*
X77670000Y-93260000D03*
X75670000Y-93260000D03*
X72670000Y-93260000D03*
X76670000Y-93260000D03*
X73670000Y-93260000D03*
X74670000Y-93260000D03*
X77670000Y-94260000D03*
X73670000Y-94260000D03*
X74670000Y-94260000D03*
X72670000Y-94260000D03*
X75670000Y-94260000D03*
X78670000Y-94260000D03*
X76670000Y-94260000D03*
X72670000Y-95260000D03*
X77670000Y-95260000D03*
X74670000Y-95260000D03*
X76670000Y-95260000D03*
X73670000Y-95260000D03*
X78670000Y-95260000D03*
X75670000Y-95260000D03*
X77670000Y-96260000D03*
X76670000Y-96260000D03*
X78670000Y-96260000D03*
X72670000Y-96260000D03*
X73670000Y-96260000D03*
X75670000Y-96260000D03*
X74670000Y-96260000D03*
X73670000Y-97260000D03*
X75670000Y-97260000D03*
X74670000Y-97260000D03*
X72670000Y-97260000D03*
X76670000Y-97260000D03*
X79960000Y-102580000D03*
X80960000Y-102580000D03*
X81960000Y-102580000D03*
X82960000Y-102580000D03*
X83960000Y-102580000D03*
X84960000Y-102580000D03*
X85960000Y-102580000D03*
X86960000Y-102580000D03*
X78960000Y-103580000D03*
X79960000Y-103580000D03*
X80960000Y-103580000D03*
X81960000Y-103580000D03*
X82960000Y-103580000D03*
X83960000Y-103580000D03*
X84960000Y-103580000D03*
X85960000Y-103580000D03*
X86960000Y-103580000D03*
X87960000Y-103580000D03*
X88960000Y-103580000D03*
X92960000Y-103580000D03*
X78960000Y-104580000D03*
X79960000Y-104580000D03*
X87960000Y-104580000D03*
X88960000Y-104580000D03*
X89960000Y-104580000D03*
X78960000Y-105580000D03*
X79960000Y-105580000D03*
X87960000Y-105580000D03*
X88960000Y-105580000D03*
X89960000Y-105580000D03*
X78960000Y-106580000D03*
X79960000Y-106580000D03*
X80960000Y-106580000D03*
X81960000Y-106580000D03*
X82960000Y-106580000D03*
X83960000Y-106580000D03*
X84960000Y-106580000D03*
X85960000Y-106580000D03*
X86960000Y-106580000D03*
X87960000Y-106580000D03*
X88960000Y-106580000D03*
X89960000Y-106580000D03*
X81960000Y-101580000D03*
X83960000Y-101580000D03*
X82960000Y-101580000D03*
X85960000Y-101580000D03*
X84960000Y-101580000D03*
X82960000Y-100580000D03*
X83960000Y-100580000D03*
X84960000Y-100580000D03*
X81960000Y-100580000D03*
X83960000Y-99580000D03*
X81960000Y-99580000D03*
X82960000Y-99580000D03*
X81960000Y-98580000D03*
X82960000Y-98580000D03*
X83960000Y-107580000D03*
X84960000Y-107580000D03*
X85960000Y-107580000D03*
X79960000Y-107580000D03*
X80960000Y-107580000D03*
X78960000Y-107580000D03*
X81960000Y-107580000D03*
X82960000Y-107580000D03*
X86960000Y-107580000D03*
X87960000Y-107580000D03*
X88960000Y-107580000D03*
X89960000Y-107580000D03*
X84960000Y-108580000D03*
X88960000Y-108580000D03*
X79960000Y-108580000D03*
X83960000Y-108580000D03*
X89960000Y-108580000D03*
X82960000Y-108580000D03*
X78960000Y-108580000D03*
X85960000Y-108580000D03*
X86960000Y-108580000D03*
X81960000Y-108580000D03*
X80960000Y-108580000D03*
X87960000Y-108580000D03*
X84540000Y-85520000D03*
X84540000Y-86520000D03*
X85540000Y-86520000D03*
X85540000Y-85520000D03*
X86540000Y-85520000D03*
X86540000Y-86520000D03*
X87540000Y-86520000D03*
X87540000Y-85520000D03*
X88540000Y-85520000D03*
X89647600Y-99020000D03*
X80960000Y-101580000D03*
X84960000Y-110630000D03*
X80960000Y-110630000D03*
X86960000Y-110630000D03*
X85960000Y-110630000D03*
X92960000Y-110630000D03*
X90960000Y-110630000D03*
X83960000Y-110630000D03*
X81960000Y-110630000D03*
X79960000Y-110630000D03*
X78960000Y-110630000D03*
X88960000Y-110630000D03*
X82960000Y-110630000D03*
X87960000Y-110630000D03*
X89960000Y-110630000D03*
X91960000Y-110630000D03*
X101130000Y-100180000D03*
X72670000Y-92260000D03*
X69942600Y-91220000D03*
X69942600Y-93220000D03*
X69942600Y-94220000D03*
X69942600Y-95220000D03*
X69942600Y-96220000D03*
X69942600Y-92220000D03*
X69942600Y-97220000D03*
X71670000Y-97260000D03*
X71670000Y-94260000D03*
X71670000Y-95260000D03*
X71670000Y-96260000D03*
X71670000Y-93260000D03*
X93820000Y-79380000D03*
X93820000Y-80380000D03*
X93820000Y-81380000D03*
X93820000Y-82380000D03*
X93820000Y-83380000D03*
X94820000Y-81380000D03*
X94820000Y-82380000D03*
X94820000Y-80380000D03*
X94820000Y-79380000D03*
X94820000Y-83380000D03*
X93960000Y-110630000D03*
X94960000Y-110430000D03*
X95960000Y-110430000D03*
X96960000Y-110430000D03*
X97960000Y-110430000D03*
X98960000Y-110430000D03*
X99960000Y-110430000D03*
X94960000Y-111430000D03*
X98960000Y-111430000D03*
X95960000Y-111430000D03*
X97960000Y-111430000D03*
X96960000Y-111430000D03*
X99960000Y-111430000D03*
X100960000Y-111430000D03*
X77960000Y-104580000D03*
X76960000Y-103580000D03*
X77960000Y-103580000D03*
X77960000Y-110630000D03*
X71460000Y-110430000D03*
X70460000Y-110430000D03*
X69460000Y-110430000D03*
X71460000Y-111430000D03*
X70460000Y-111430000D03*
X69460000Y-111430000D03*
X72460000Y-111430000D03*
X73460000Y-111430000D03*
X74460000Y-111430000D03*
X75460000Y-111430000D03*
X76460000Y-111430000D03*
X77460000Y-111430000D03*
X95820000Y-83380000D03*
X96820000Y-83380000D03*
X97820000Y-83380000D03*
X97820000Y-84380000D03*
X96820000Y-84380000D03*
X95820000Y-84380000D03*
X93820000Y-84380000D03*
X94820000Y-84380000D03*
X92820000Y-84380000D03*
X89110931Y-92080445D03*
X93360000Y-95807988D03*
X75670000Y-92260000D03*
X100960000Y-110430000D03*
X101960000Y-111430000D03*
X101960000Y-110430000D03*
X69942600Y-90220000D03*
X69942600Y-89220000D03*
X69942600Y-88220000D03*
X69942600Y-87220000D03*
X71670000Y-92260000D03*
X71292600Y-87220000D03*
X71292600Y-89220000D03*
X71292600Y-90220000D03*
X71292600Y-88220000D03*
X72292600Y-89220000D03*
X72292600Y-87220000D03*
X72292600Y-90220000D03*
X72292600Y-88220000D03*
X73292600Y-88220000D03*
X73292600Y-87220000D03*
X73292600Y-89220000D03*
X74292600Y-89220000D03*
X74292600Y-87220000D03*
X74292600Y-88220000D03*
X75292600Y-89220000D03*
X75292600Y-87220000D03*
X75292600Y-88220000D03*
X76292600Y-89220000D03*
X74292600Y-86220000D03*
X75292600Y-86220000D03*
X75292600Y-85220000D03*
X74292600Y-85220000D03*
X73292600Y-85220000D03*
X73292600Y-86220000D03*
X96800000Y-105460000D03*
X89960000Y-103580000D03*
X92960000Y-104580000D03*
X92960000Y-103580000D03*
X77960000Y-105580000D03*
X78960000Y-102580000D03*
X77960000Y-102580000D03*
X76960000Y-102580000D03*
X85725000Y-79380000D03*
X86725000Y-79380000D03*
X87725000Y-79380000D03*
X96290000Y-102280000D03*
X98020000Y-98020000D03*
X100060000Y-94140000D03*
X78470000Y-82010000D03*
X88540000Y-86520000D03*
X86540000Y-88520000D03*
X85540000Y-88520000D03*
X87540000Y-88520000D03*
X88540000Y-88520000D03*
X84540000Y-88520000D03*
X77292600Y-89220000D03*
X81081844Y-90119609D03*
X74292600Y-84220000D03*
X73292600Y-84220000D03*
X76292600Y-87220000D03*
X76292600Y-88220000D03*
X76292600Y-86220000D03*
X76292600Y-85220000D03*
X73292600Y-90220000D03*
X88960000Y-102580000D03*
X87960000Y-102580000D03*
X86960000Y-101580000D03*
X86960000Y-105580000D03*
X85960000Y-105580000D03*
X84960000Y-105580000D03*
X83960000Y-105580000D03*
X82960000Y-105580000D03*
X81960000Y-105580000D03*
X80960000Y-105580000D03*
X86960000Y-104580000D03*
X85960000Y-104580000D03*
X84960000Y-104580000D03*
X83960000Y-104580000D03*
X82960000Y-104580000D03*
X81960000Y-104580000D03*
X80960000Y-104580000D03*
X91592241Y-96197897D03*
X85220000Y-82370000D03*
X86830000Y-81920000D03*
X90000000Y-89980000D03*
X86140165Y-95980521D03*
X92450000Y-89720000D03*
X100970000Y-81560000D03*
X69940000Y-105306554D03*
X101370000Y-105000000D03*
X69900000Y-83880000D03*
X94490000Y-99150000D03*
X94922600Y-97330000D03*
X90248362Y-82725010D03*
X90670000Y-86123850D03*
X78662620Y-89938600D03*
X82138147Y-86729850D03*
X99480000Y-94990000D03*
X101699806Y-83922208D03*
X95947624Y-96187624D03*
X92750000Y-93670000D03*
X88884536Y-99580000D03*
X88300000Y-92195817D03*
X86720000Y-96460000D03*
X85970054Y-91404401D03*
X86574935Y-98765142D03*
X86260000Y-90710001D03*
X88300000Y-100510000D03*
X89425032Y-90557400D03*
X87729735Y-99932600D03*
X88716879Y-90811619D03*
X87152335Y-99342542D03*
X87964449Y-90638606D03*
X90610000Y-91720000D03*
X97060000Y-89460000D03*
X91116337Y-91142600D03*
X97808668Y-89385134D03*
X90960000Y-95790000D03*
X96160000Y-89789999D03*
X91581192Y-94642360D03*
X94181400Y-88900000D03*
X90857283Y-102772774D03*
X90850000Y-86867840D03*
X91583281Y-88229850D03*
X79415023Y-89938600D03*
X78607734Y-88484294D03*
X90296716Y-102242201D03*
X90690000Y-88229850D03*
X79360000Y-88470000D03*
X96881775Y-97331775D03*
X82260000Y-84452403D03*
X99342799Y-86450000D03*
X82260000Y-83700000D03*
X83467896Y-82198814D03*
X75560000Y-82400000D03*
X72330000Y-82400000D03*
X98560797Y-89316102D03*
X77810000Y-82900000D03*
X80988600Y-85794099D03*
X71020000Y-104690000D03*
X71021307Y-107628693D03*
X71192599Y-91352391D03*
X79119632Y-91143167D03*
X83070000Y-89630000D03*
X84220000Y-82250000D03*
X100400000Y-86580000D03*
X79991448Y-81288090D03*
X78710000Y-83800000D03*
X82040000Y-85200000D03*
X78848437Y-85948528D03*
X76460000Y-84300000D03*
X81547590Y-87196059D03*
X77802772Y-87874783D03*
X77278046Y-86895144D03*
X80912295Y-91817659D03*
X81911938Y-88782598D03*
X80210000Y-91537402D03*
X81159952Y-88757598D03*
X83070000Y-83120000D03*
X80293410Y-86082612D03*
X78310000Y-86480000D03*
D50*
X88405000Y-84120000D02*
X88405000Y-84115000D01*
X88405000Y-84115000D02*
X88410000Y-84110000D01*
D51*
X87725000Y-96920000D02*
X87725000Y-97820000D01*
X84542500Y-84520000D02*
X84540000Y-84520000D01*
X83073750Y-87701250D02*
X84448750Y-87701250D01*
D52*
X90825000Y-80275000D02*
X90820000Y-80280000D01*
X90825000Y-79430000D02*
X90825000Y-80275000D01*
D51*
X87725000Y-97420000D02*
X87725000Y-98219322D01*
X89630199Y-99002599D02*
X89647600Y-99020000D01*
X88508277Y-99002599D02*
X89630199Y-99002599D01*
X87725000Y-98219322D02*
X88508277Y-99002599D01*
X89660000Y-92590000D02*
X89748534Y-92590000D01*
X91973185Y-90980000D02*
X91558384Y-90565199D01*
X96300000Y-104830000D02*
X96810000Y-104830000D01*
X96810000Y-104830000D02*
X97240000Y-104830000D01*
X96300000Y-103030000D02*
X96750000Y-103030000D01*
X96750000Y-103030000D02*
X97210000Y-103030000D01*
X100700000Y-99080000D02*
X100700000Y-99750000D01*
X100700000Y-99750000D02*
X101130000Y-100180000D01*
X89660000Y-92590000D02*
X89620486Y-92590000D01*
X89620486Y-92590000D02*
X89110931Y-92080445D01*
X89325634Y-92080445D02*
X89110931Y-92080445D01*
X90840880Y-90565199D02*
X89325634Y-92080445D01*
D53*
X93360000Y-95190000D02*
X93360000Y-94859322D01*
D51*
X93360000Y-95190000D02*
X93360000Y-95807988D01*
X90840880Y-90565199D02*
X91558384Y-90565199D01*
X77510000Y-79850000D02*
X77560000Y-79850000D01*
X96810000Y-105450000D02*
X96800000Y-105460000D01*
X96810000Y-104830000D02*
X96810000Y-105450000D01*
D54*
X83810000Y-93890000D02*
X83810000Y-92450000D01*
D51*
X92510000Y-90980000D02*
X91973185Y-90980000D01*
X96300000Y-102290000D02*
X96290000Y-102280000D01*
X96300000Y-103040000D02*
X96300000Y-102290000D01*
X97570000Y-98470000D02*
X98020000Y-98020000D01*
X97570000Y-98710000D02*
X97570000Y-98470000D01*
X98350000Y-92380000D02*
X99765463Y-92380000D01*
X100060000Y-92674537D02*
X100060000Y-94140000D01*
X99765463Y-92380000D02*
X100060000Y-92674537D01*
X99500000Y-87380000D02*
X98960000Y-87380000D01*
X98960000Y-87380000D02*
X98760000Y-87180000D01*
X98760000Y-87180000D02*
X98760000Y-86600000D01*
D54*
X78472500Y-82007500D02*
X78470000Y-82010000D01*
X79460000Y-82007500D02*
X78472500Y-82007500D01*
D51*
X84120000Y-79710000D02*
X84120000Y-79640000D01*
X84120000Y-79640000D02*
X84320000Y-79440000D01*
X85665000Y-79440000D02*
X85725000Y-79380000D01*
X84320000Y-79440000D02*
X85665000Y-79440000D01*
D54*
X81732500Y-90410000D02*
X81732500Y-89910000D01*
X77482600Y-89410000D02*
X77292600Y-89220000D01*
X80207500Y-89410000D02*
X77482600Y-89410000D01*
X81372235Y-90410000D02*
X81081844Y-90119609D01*
X81732500Y-90410000D02*
X81372235Y-90410000D01*
D51*
X84510000Y-81210000D02*
X85220000Y-81920000D01*
X84120000Y-81210000D02*
X84510000Y-81210000D01*
D54*
X91471537Y-96318601D02*
X91592241Y-96197897D01*
X90088601Y-96318601D02*
X91471537Y-96318601D01*
X89060000Y-95290000D02*
X90088601Y-96318601D01*
X85223750Y-82373750D02*
X85220000Y-82370000D01*
X85223750Y-83051250D02*
X85223750Y-82373750D01*
D51*
X85220000Y-82370000D02*
X85220000Y-83050000D01*
X85220000Y-81920000D02*
X85220000Y-82370000D01*
X89873750Y-89201250D02*
X89873750Y-89853750D01*
X89873750Y-84701250D02*
X90348072Y-84701250D01*
X86120000Y-81920000D02*
X86830000Y-81920000D01*
X87192500Y-81920000D02*
X86830000Y-81920000D01*
X87723750Y-82451250D02*
X87192500Y-81920000D01*
X87723750Y-83051250D02*
X87723750Y-82451250D01*
X88098750Y-83051250D02*
X88100000Y-83050000D01*
X87723750Y-83051250D02*
X88098750Y-83051250D01*
X88100000Y-83050000D02*
X88200000Y-83050000D01*
X87520000Y-81230000D02*
X86830000Y-81920000D01*
X87520000Y-80580000D02*
X87520000Y-81230000D01*
X90348072Y-84701250D02*
X90356822Y-84710000D01*
X90880000Y-85233178D02*
X90348072Y-84701250D01*
X86410000Y-95390000D02*
X86410000Y-95710686D01*
X86410000Y-95710686D02*
X86140165Y-95980521D01*
X74330000Y-109770000D02*
X74330000Y-108330000D01*
X69940000Y-103530000D02*
X69940000Y-105306554D01*
X72633446Y-108000000D02*
X73500000Y-108000000D01*
X83725000Y-97420000D02*
X84125000Y-97420000D01*
X86410000Y-95390000D02*
X86504554Y-95390000D01*
X92280000Y-89890000D02*
X92450000Y-89720000D01*
X91360000Y-89890000D02*
X92280000Y-89890000D01*
X74830000Y-108040000D02*
X76560908Y-108040000D01*
X94480000Y-98520000D02*
X94480000Y-98095736D01*
X94480000Y-98095736D02*
X94480000Y-97670000D01*
X101370000Y-81960000D02*
X100970000Y-81560000D01*
X101370000Y-82720000D02*
X101370000Y-81960000D01*
X69940000Y-105730818D02*
X72209182Y-108000000D01*
X72209182Y-108000000D02*
X72633446Y-108000000D01*
X69940000Y-105306554D02*
X69940000Y-105730818D01*
D53*
X84225000Y-96570000D02*
X84335000Y-96460000D01*
X84225000Y-97420000D02*
X84225000Y-96570000D01*
X85660686Y-96460000D02*
X86140165Y-95980521D01*
X84335000Y-96460000D02*
X85660686Y-96460000D01*
D51*
X94310000Y-97390000D02*
X94310000Y-97080000D01*
X94310000Y-97390000D02*
X94310000Y-97367359D01*
X93060000Y-88710000D02*
X93060000Y-88630000D01*
X92710000Y-89060000D02*
X93060000Y-88710000D01*
X92710000Y-89470000D02*
X92710000Y-89060000D01*
X92450000Y-89720000D02*
X92460000Y-89720000D01*
X92460000Y-89720000D02*
X92710000Y-89470000D01*
X73610000Y-79205000D02*
X73060000Y-78655000D01*
X73610000Y-80005000D02*
X73610000Y-79205000D01*
X69900000Y-83880000D02*
X69900000Y-82650000D01*
X69900000Y-85155000D02*
X69900000Y-83880000D01*
X101370000Y-105000000D02*
X101370000Y-103450000D01*
X101370000Y-105510000D02*
X101370000Y-105000000D01*
X97320189Y-109559811D02*
X101370000Y-105510000D01*
X94775139Y-109559811D02*
X97320189Y-109559811D01*
X94282351Y-110052599D02*
X94775139Y-109559811D01*
X93920000Y-105820000D02*
X95250000Y-107150000D01*
X99730000Y-107150000D02*
X101370000Y-105510000D01*
X95250000Y-107150000D02*
X99730000Y-107150000D01*
X70757401Y-80952599D02*
X73502599Y-80952599D01*
X69930000Y-81780000D02*
X70757401Y-80952599D01*
X69930000Y-82730000D02*
X69930000Y-81780000D01*
X79602599Y-110052599D02*
X78792599Y-110052599D01*
X78933507Y-110052599D02*
X79602599Y-110052599D01*
X79602599Y-110052599D02*
X94282351Y-110052599D01*
X76780000Y-108040000D02*
X75030000Y-108040000D01*
X78792599Y-110052599D02*
X76780000Y-108040000D01*
X94480000Y-99140000D02*
X94490000Y-99150000D01*
X94480000Y-98520000D02*
X94480000Y-99140000D01*
X94310000Y-97330000D02*
X94922600Y-97330000D01*
X89922122Y-83051250D02*
X90248362Y-82725010D01*
X89223750Y-83051250D02*
X89922122Y-83051250D01*
X90880000Y-83356648D02*
X90248362Y-82725010D01*
X90880000Y-85233178D02*
X90880000Y-83356648D01*
X90718750Y-86201250D02*
X90760000Y-86160000D01*
X89873750Y-86201250D02*
X90718750Y-86201250D01*
X90880000Y-85913850D02*
X90670000Y-86123850D01*
X90880000Y-85233178D02*
X90880000Y-85913850D01*
D54*
X81732500Y-91779784D02*
X81732500Y-90910000D01*
X81166024Y-92346260D02*
X81732500Y-91779784D01*
X80236528Y-92346260D02*
X81166024Y-92346260D01*
X79681399Y-91791131D02*
X80236528Y-92346260D01*
X79867600Y-90410000D02*
X79681399Y-90596201D01*
X80207500Y-90410000D02*
X79867600Y-90410000D01*
X79681399Y-90957379D02*
X78662620Y-89938600D01*
X79681399Y-91478601D02*
X79681399Y-90957379D01*
X79681399Y-90596201D02*
X79681399Y-91478601D01*
X79681399Y-91478601D02*
X79681399Y-91791131D01*
D51*
X82166747Y-86701250D02*
X82138147Y-86729850D01*
X83073750Y-86701250D02*
X82166747Y-86701250D01*
X73810000Y-80645198D02*
X73502599Y-80952599D01*
X73810000Y-80005000D02*
X73810000Y-80645198D01*
X81220000Y-100465446D02*
X81220000Y-97020000D01*
X79682849Y-102002597D02*
X81220000Y-100465446D01*
X76413504Y-102002597D02*
X79682849Y-102002597D01*
X75427401Y-101016494D02*
X76413504Y-102002597D01*
X75427401Y-99387401D02*
X75427401Y-101016494D01*
X74550000Y-98510000D02*
X75427401Y-99387401D01*
D53*
X81225000Y-96667295D02*
X81579028Y-96313268D01*
X81225000Y-97420000D02*
X81225000Y-96667295D01*
X81579028Y-96313268D02*
X82382296Y-95510000D01*
D51*
X80220000Y-100896354D02*
X79516165Y-101600189D01*
X80220000Y-97020000D02*
X80220000Y-100896354D01*
X79516165Y-101600189D02*
X79509811Y-101600189D01*
X73817401Y-97837401D02*
X73782599Y-97837401D01*
X78400189Y-101600189D02*
X79516165Y-101600189D01*
X76580189Y-101600189D02*
X78400189Y-101600189D01*
X75829811Y-98219811D02*
X75829811Y-100849811D01*
X75829811Y-100849811D02*
X76580189Y-101600189D01*
X75447401Y-97837401D02*
X75829811Y-98219811D01*
X73817401Y-97837401D02*
X75447401Y-97837401D01*
X73400000Y-98050000D02*
X73400000Y-99039322D01*
X73817401Y-97837401D02*
X73612599Y-97837401D01*
X73400000Y-99039322D02*
X73400000Y-99130000D01*
X73612599Y-97837401D02*
X73400000Y-98050000D01*
X70860000Y-99410000D02*
X70090000Y-98640000D01*
X71170000Y-99720000D02*
X70860000Y-99410000D01*
X73070000Y-99720000D02*
X71170000Y-99720000D01*
X73400000Y-99039322D02*
X73400000Y-99390000D01*
X73400000Y-99390000D02*
X73070000Y-99720000D01*
X93210000Y-93690000D02*
X93660000Y-93690000D01*
X97425000Y-94980000D02*
X96200000Y-94980000D01*
X98350000Y-94980000D02*
X97425000Y-94980000D01*
X98350000Y-94980000D02*
X97875000Y-94980000D01*
X98350000Y-94980000D02*
X98825000Y-94980000D01*
X98350000Y-94980000D02*
X99470000Y-94980000D01*
X99470000Y-94980000D02*
X99480000Y-94990000D01*
X101699806Y-83922208D02*
X101699806Y-84809806D01*
X99080000Y-100440000D02*
X99560000Y-100920000D01*
X99080000Y-100440000D02*
X98440000Y-99800000D01*
X98440000Y-99800000D02*
X98310000Y-99670000D01*
X95970000Y-95180000D02*
X95970000Y-96165248D01*
X95970000Y-96165248D02*
X95947624Y-96187624D01*
X98810000Y-98990000D02*
X98530000Y-98710000D01*
X99030000Y-99210000D02*
X98810000Y-98990000D01*
X99030000Y-99210000D02*
X99030000Y-100390000D01*
X99480000Y-96570000D02*
X99480000Y-94990000D01*
X99030000Y-99210000D02*
X99030000Y-97020001D01*
X99030000Y-97020001D02*
X99480000Y-96570000D01*
X92760000Y-93680000D02*
X92750000Y-93670000D01*
X93210000Y-93680000D02*
X92760000Y-93680000D01*
X92190000Y-93670000D02*
X92750000Y-93670000D01*
X91160000Y-92640000D02*
X92190000Y-93670000D01*
X87225000Y-96920000D02*
X87225000Y-97889092D01*
X88485000Y-99580000D02*
X88884536Y-99580000D01*
X87225000Y-97420000D02*
X87225000Y-98320000D01*
X87225000Y-98320000D02*
X88485000Y-99580000D01*
X90348072Y-88701250D02*
X90577401Y-88930579D01*
X90577401Y-90259585D02*
X89447966Y-91389020D01*
X89873750Y-88701250D02*
X90348072Y-88701250D01*
X90577401Y-88930579D02*
X90577401Y-90259585D01*
X88714235Y-91389020D02*
X89447966Y-91389020D01*
X88294729Y-91808526D02*
X88714235Y-91389020D01*
X88294729Y-92190546D02*
X88300000Y-92195817D01*
X88294729Y-91808526D02*
X88294729Y-92190546D01*
X86725000Y-96465000D02*
X86720000Y-96460000D01*
X86725000Y-97420000D02*
X86725000Y-96465000D01*
D54*
X85223750Y-90658097D02*
X85970054Y-91404401D01*
X85223750Y-89851250D02*
X85223750Y-90658097D01*
D51*
X86225000Y-98415207D02*
X86574935Y-98765142D01*
X86225000Y-96920000D02*
X86225000Y-98415207D01*
D54*
X85723750Y-90173751D02*
X86260000Y-90710001D01*
X85723750Y-89851250D02*
X85723750Y-90173751D01*
D51*
X84725000Y-96920000D02*
X84725000Y-99295000D01*
X85940000Y-100510000D02*
X88300000Y-100510000D01*
X84725000Y-99295000D02*
X85940000Y-100510000D01*
X89223750Y-89851250D02*
X89223750Y-90356118D01*
X89223750Y-90356118D02*
X89425032Y-90557400D01*
X85225000Y-96920000D02*
X85225000Y-99225908D01*
X85225000Y-99225908D02*
X85931692Y-99932600D01*
X85931692Y-99932600D02*
X87729735Y-99932600D01*
X88723750Y-89851250D02*
X88723750Y-90804748D01*
X88723750Y-90804748D02*
X88716879Y-90811619D01*
X87152335Y-99342542D02*
X86142542Y-99342542D01*
X86142542Y-99342542D02*
X85720000Y-98920000D01*
X85720000Y-98920000D02*
X85720000Y-97040000D01*
X88223750Y-89851250D02*
X88223750Y-90379305D01*
X88223750Y-90379305D02*
X87964449Y-90638606D01*
X90225000Y-100484092D02*
X90225000Y-96920000D01*
X90225000Y-101345000D02*
X90225000Y-100484092D01*
X95400000Y-104830000D02*
X95400000Y-105480000D01*
X95400000Y-105480000D02*
X95770000Y-105850000D01*
X90690000Y-101810000D02*
X91162863Y-102282864D01*
X90690000Y-101810000D02*
X90225000Y-101345000D01*
X91162863Y-102282864D02*
X93993772Y-102282864D01*
X95320907Y-104830000D02*
X95400000Y-104830000D01*
X94307590Y-103816683D02*
X95320907Y-104830000D01*
X94307590Y-102596682D02*
X94307590Y-103816683D01*
X93993772Y-102282864D02*
X94307590Y-102596682D01*
X98200000Y-105380000D02*
X97780000Y-105800000D01*
X98200000Y-104830000D02*
X98200000Y-105380000D01*
X97610000Y-104130000D02*
X97770000Y-104130000D01*
X91050189Y-101600189D02*
X91050189Y-101601097D01*
X90725000Y-101275000D02*
X91050189Y-101600189D01*
X90725000Y-96920000D02*
X90725000Y-101275000D01*
X97770000Y-104130000D02*
X97790000Y-104130000D01*
X97790000Y-104130000D02*
X98200000Y-104540000D01*
X98200000Y-104540000D02*
X98200000Y-104700000D01*
X96170000Y-104130000D02*
X97610000Y-104130000D01*
X96170000Y-104130000D02*
X95190000Y-104130000D01*
X95190000Y-104130000D02*
X94710000Y-103650000D01*
X94710000Y-103650000D02*
X94710000Y-102430000D01*
X94160454Y-101880454D02*
X91329546Y-101880454D01*
X94710000Y-102430000D02*
X94160454Y-101880454D01*
X91050189Y-101601097D02*
X91329546Y-101880454D01*
X91514322Y-91720000D02*
X91754322Y-91960000D01*
X91754322Y-91960000D02*
X92300000Y-91960000D01*
X91514322Y-91720000D02*
X90610000Y-91720000D01*
D54*
X97522600Y-94330000D02*
X97063601Y-93871001D01*
X98350000Y-94330000D02*
X97522600Y-94330000D01*
X97063601Y-89463601D02*
X97060000Y-89460000D01*
X97063601Y-93871001D02*
X97063601Y-89463601D01*
D51*
X90916336Y-91142599D02*
X90916337Y-91142600D01*
X91566692Y-91142599D02*
X91884093Y-91460000D01*
X91884093Y-91460000D02*
X92310000Y-91460000D01*
X91540601Y-91142600D02*
X91116337Y-91142600D01*
X91566692Y-91142599D02*
X91540601Y-91142600D01*
D54*
X97522600Y-93680000D02*
X97368411Y-93525811D01*
X98350000Y-93680000D02*
X97522600Y-93680000D01*
X97368411Y-90068411D02*
X97808668Y-89628154D01*
X97368411Y-93525811D02*
X97368411Y-90068411D01*
X97808668Y-89628154D02*
X97808668Y-89385134D01*
D51*
X89635000Y-94640000D02*
X90285000Y-95290000D01*
X89060000Y-94640000D02*
X89635000Y-94640000D01*
X90285000Y-95290000D02*
X90810000Y-95290000D01*
D54*
X90960000Y-95290000D02*
X90960000Y-95790000D01*
X96150001Y-89780000D02*
X96160000Y-89789999D01*
X95710000Y-89780000D02*
X96150001Y-89780000D01*
X90135080Y-93990000D02*
X90960000Y-93990000D01*
X89540000Y-93390000D02*
X90030000Y-93880000D01*
X88396257Y-92755191D02*
X89031066Y-93390000D01*
X90030000Y-93884920D02*
X90135080Y-93990000D01*
X90030000Y-93880000D02*
X90030000Y-93884920D01*
X89031066Y-93390000D02*
X89540000Y-93390000D01*
X87634809Y-92755191D02*
X87285191Y-92755191D01*
X87634809Y-92755191D02*
X88396257Y-92755191D01*
X86900000Y-92370000D02*
X86900000Y-91610000D01*
X87285191Y-92755191D02*
X86900000Y-92370000D01*
X82340000Y-90760000D02*
X82909467Y-91329467D01*
X85856256Y-92755190D02*
X87634809Y-92755191D01*
X84430533Y-91329467D02*
X85856256Y-92755190D01*
X82909467Y-91329467D02*
X84430533Y-91329467D01*
X82440539Y-90659461D02*
X82440539Y-89019461D01*
X82340000Y-90760000D02*
X82440539Y-90659461D01*
X82758750Y-88701250D02*
X83073750Y-88701250D01*
X82440539Y-89019461D02*
X82758750Y-88701250D01*
D51*
X89635000Y-93990000D02*
X90285000Y-94640000D01*
X89060000Y-93990000D02*
X89635000Y-93990000D01*
X90285000Y-94640000D02*
X90680000Y-94640000D01*
X91538832Y-94640000D02*
X91541192Y-94642360D01*
X90960000Y-94640000D02*
X91588832Y-94640000D01*
D54*
X93710000Y-89371400D02*
X93710000Y-89780000D01*
X94181400Y-88900000D02*
X93710000Y-89371400D01*
D51*
X92160000Y-88630000D02*
X92090000Y-88630000D01*
D54*
X91855000Y-107885000D02*
X91380000Y-108360000D01*
X92370000Y-107370000D02*
X91855000Y-107885000D01*
X92370000Y-104285492D02*
X92370000Y-107370000D01*
X90857283Y-102772774D02*
X92370000Y-104285492D01*
X90683410Y-86701250D02*
X90850000Y-86867840D01*
X89873750Y-86701250D02*
X90683410Y-86701250D01*
X91983431Y-88630000D02*
X91583281Y-88229850D01*
X92160000Y-88630000D02*
X91983431Y-88630000D01*
X79443623Y-89910000D02*
X79415023Y-89938600D01*
X80207500Y-89910000D02*
X79443623Y-89910000D01*
X79460000Y-87587670D02*
X78607734Y-88439936D01*
X78607734Y-88439936D02*
X78607734Y-88484294D01*
X79460000Y-84932500D02*
X79460000Y-87587670D01*
X90296716Y-102994537D02*
X91380000Y-104077821D01*
X91380000Y-104077821D02*
X91380000Y-105820000D01*
X90296716Y-102242201D02*
X90296716Y-102994537D01*
X91250000Y-88786610D02*
X90846695Y-88383305D01*
X91250000Y-88990000D02*
X91250000Y-88786610D01*
X90664640Y-88201250D02*
X90846695Y-88383305D01*
X89873750Y-88201250D02*
X90664640Y-88201250D01*
X80132400Y-88470000D02*
X79360000Y-88470000D01*
X80720000Y-89057600D02*
X80132400Y-88470000D01*
X80720000Y-89397500D02*
X80720000Y-89057600D01*
X79764809Y-88065191D02*
X79360000Y-88470000D01*
X79764809Y-85828883D02*
X79764809Y-88065191D01*
X79960000Y-85633692D02*
X79764809Y-85828883D01*
X79960000Y-84932500D02*
X79960000Y-85633692D01*
X99423610Y-103776390D02*
X99670000Y-103530000D01*
X95683990Y-103776390D02*
X99423610Y-103776390D01*
X95400000Y-103492400D02*
X95683990Y-103776390D01*
X95400000Y-103040000D02*
X95400000Y-103492400D01*
X95400000Y-103040000D02*
X95400000Y-102090000D01*
X95400000Y-102090000D02*
X96880000Y-100610000D01*
X96880000Y-98120000D02*
X96880000Y-97764615D01*
X96880000Y-100610000D02*
X96880000Y-98120000D01*
X96880000Y-97333550D02*
X96881775Y-97331775D01*
X96880000Y-97764615D02*
X96880000Y-97333550D01*
X82508847Y-84701250D02*
X82260000Y-84452403D01*
X83073750Y-84701250D02*
X82508847Y-84701250D01*
D51*
X99940000Y-80980000D02*
X99940000Y-82110000D01*
X100239999Y-79609999D02*
X100239999Y-80680001D01*
X99822599Y-79192599D02*
X100239999Y-79609999D01*
X100239999Y-80680001D02*
X99940000Y-80980000D01*
X98260000Y-79670000D02*
X98737401Y-79192599D01*
X97810000Y-79670000D02*
X98260000Y-79670000D01*
X98737401Y-79192599D02*
X99822599Y-79192599D01*
D54*
X99758518Y-82730000D02*
X100760000Y-83731482D01*
X99670000Y-82730000D02*
X99758518Y-82730000D01*
X100760000Y-83731482D02*
X100760000Y-84500000D01*
X100760000Y-84500000D02*
X100540000Y-84720000D01*
X100540000Y-84720000D02*
X98750000Y-84720000D01*
X98750000Y-84720000D02*
X98550000Y-84920000D01*
X98550000Y-85657201D02*
X99342799Y-86450000D01*
X98550000Y-84920000D02*
X98550000Y-85657201D01*
X83073750Y-84201250D02*
X82761250Y-84201250D01*
X82761250Y-84201250D02*
X82260000Y-83700000D01*
X83723750Y-82454668D02*
X83467896Y-82198814D01*
X83723750Y-83051250D02*
X83723750Y-82454668D01*
X75560000Y-82900000D02*
X75560000Y-82400000D01*
X71860000Y-82400000D02*
X71530000Y-82730000D01*
X72330000Y-82400000D02*
X71860000Y-82400000D01*
D51*
X99750000Y-99060000D02*
X99542410Y-98852410D01*
X99750000Y-99080000D02*
X99750000Y-99060000D01*
X100700000Y-101930908D02*
X100700000Y-100810000D01*
X100480719Y-102150189D02*
X100700000Y-101930908D01*
X97210189Y-102150189D02*
X100480719Y-102150189D01*
X100700000Y-100604554D02*
X99750000Y-99654554D01*
X100700000Y-100810000D02*
X100700000Y-100604554D01*
X99750000Y-99654554D02*
X99750000Y-99050000D01*
X99724546Y-89074546D02*
X99867409Y-88931682D01*
X99300000Y-89499092D02*
X99724546Y-89074546D01*
X99859546Y-88939546D02*
X99724546Y-89074546D01*
X99867410Y-88931682D02*
X99859546Y-88939546D01*
X100198318Y-88931682D02*
X99867410Y-88931682D01*
X100400000Y-88730000D02*
X100198318Y-88931682D01*
X100400000Y-88280000D02*
X100400000Y-88730000D01*
X99750000Y-85325000D02*
X100047220Y-85325000D01*
X100198318Y-88931682D02*
X100848318Y-88931682D01*
X100848318Y-88931682D02*
X101040000Y-88740000D01*
X101040000Y-88740000D02*
X101040000Y-85680000D01*
X100705000Y-85345000D02*
X99730000Y-85345000D01*
X101040000Y-85680000D02*
X100705000Y-85345000D01*
X99300000Y-89910000D02*
X99300000Y-89499092D01*
D54*
X99300000Y-90490000D02*
X99300000Y-90055305D01*
X99300000Y-90055305D02*
X98560797Y-89316102D01*
D51*
X99300000Y-90490000D02*
X99300000Y-89910000D01*
X99300000Y-91345445D02*
X99300000Y-90490000D01*
X101745180Y-93790626D02*
X99300000Y-91345445D01*
X101745180Y-95654820D02*
X101745180Y-93790626D01*
X101200000Y-96200000D02*
X101745180Y-95654820D01*
X100419093Y-96200000D02*
X101200000Y-96200000D01*
X99550000Y-97069093D02*
X100419093Y-96200000D01*
X99550000Y-99040000D02*
X99550000Y-97069093D01*
D54*
X77360000Y-82900000D02*
X77810000Y-82900000D01*
X78260000Y-82900000D02*
X77810000Y-82900000D01*
X80960000Y-85765499D02*
X80988600Y-85794099D01*
X80960000Y-84932500D02*
X80960000Y-85765499D01*
D51*
X101950000Y-87430000D02*
X101950000Y-86980000D01*
X101950000Y-86980000D02*
X101950000Y-86640000D01*
X73130000Y-109240000D02*
X72580000Y-109240000D01*
X71430000Y-104280000D02*
X71020000Y-104690000D01*
X71430000Y-103530000D02*
X71430000Y-104280000D01*
X72580000Y-109240000D02*
X71370000Y-109240000D01*
X71430000Y-108037386D02*
X71021307Y-107628693D01*
X71430000Y-109130000D02*
X71430000Y-108037386D01*
X71202428Y-91362220D02*
X71192599Y-91352391D01*
D54*
X71192599Y-91352391D02*
X71571607Y-91731399D01*
X78531400Y-91731399D02*
X79119632Y-91143167D01*
X71571607Y-91731399D02*
X78531400Y-91731399D01*
X83073750Y-89626250D02*
X83070000Y-89630000D01*
X83073750Y-89201250D02*
X83073750Y-89626250D01*
D51*
X99500000Y-88280000D02*
X100330000Y-87450000D01*
D54*
X84223750Y-82253750D02*
X84220000Y-82250000D01*
X84223750Y-83051250D02*
X84223750Y-82253750D01*
X100400000Y-86580000D02*
X100400000Y-87380000D01*
X79960000Y-81319538D02*
X79991448Y-81288090D01*
X79960000Y-82007500D02*
X79960000Y-81319538D01*
X78260000Y-83800000D02*
X78710000Y-83800000D01*
X82031250Y-85201250D02*
X82030000Y-85200000D01*
X83073750Y-85201250D02*
X82031250Y-85201250D01*
X78848437Y-83938437D02*
X78710000Y-83800000D01*
X78848437Y-85948528D02*
X78848437Y-83938437D01*
X83014575Y-87260425D02*
X83073750Y-87201250D01*
X76460000Y-83800000D02*
X76460000Y-84300000D01*
X83073750Y-87201250D02*
X83016549Y-87258451D01*
X81609982Y-87258451D02*
X81547590Y-87196059D01*
X81828451Y-87258451D02*
X81609982Y-87258451D01*
X83016549Y-87258451D02*
X81828451Y-87258451D01*
X81828451Y-87258451D02*
X81645640Y-87258451D01*
X77802772Y-87419870D02*
X77278046Y-86895144D01*
X77802772Y-87874783D02*
X77802772Y-87419870D01*
X95201399Y-89771399D02*
X95210000Y-89780000D01*
X95210000Y-89321589D02*
X95210000Y-89780000D01*
X95014810Y-89126399D02*
X95210000Y-89321589D01*
X95014809Y-88520013D02*
X95014810Y-89126399D01*
X93891236Y-87396440D02*
X95014809Y-88520013D01*
X90416440Y-87396440D02*
X93891236Y-87396440D01*
X90221250Y-87201250D02*
X90416440Y-87396440D01*
X89873750Y-87201250D02*
X90221250Y-87201250D01*
X94710000Y-88646270D02*
X93764980Y-87701250D01*
X93764980Y-87701250D02*
X89873750Y-87701250D01*
X94710000Y-89780000D02*
X94710000Y-88646270D01*
X81220000Y-91509954D02*
X80912295Y-91817659D01*
X81220000Y-90922500D02*
X81220000Y-91509954D01*
X81911938Y-88727254D02*
X81911938Y-88782598D01*
X81782601Y-88228997D02*
X81911938Y-88358334D01*
X81008997Y-88228997D02*
X81782601Y-88228997D01*
X81911938Y-88358334D02*
X81911938Y-88782598D01*
X80664810Y-87884810D02*
X81008997Y-88228997D01*
X80664810Y-87331285D02*
X80664810Y-87884810D01*
X81794845Y-86201250D02*
X80664810Y-87331285D01*
X83073750Y-86201250D02*
X81794845Y-86201250D01*
X80444998Y-91537402D02*
X80210000Y-91537402D01*
X80720000Y-91262400D02*
X80444998Y-91537402D01*
X80720000Y-90922500D02*
X80720000Y-91262400D01*
X80851064Y-88757598D02*
X81159952Y-88757598D01*
X80360000Y-88266534D02*
X80851064Y-88757598D01*
X80360000Y-87205029D02*
X80360000Y-88266534D01*
X81836428Y-85728601D02*
X80360000Y-87205029D01*
X83046399Y-85728601D02*
X81836428Y-85728601D01*
X83073750Y-85701250D02*
X83046399Y-85728601D01*
D51*
X93810000Y-91080000D02*
X95110000Y-91080000D01*
X95110000Y-91080000D02*
X95110000Y-92380000D01*
X95110000Y-92380000D02*
X93810000Y-92380000D01*
X93810000Y-92380000D02*
X93810000Y-91080000D01*
X92510000Y-92480000D02*
X92510000Y-92930000D01*
D54*
X81460000Y-80320000D02*
X81580000Y-80200000D01*
X81460000Y-82007500D02*
X81460000Y-80320000D01*
D51*
X89225000Y-96520000D02*
X89045000Y-96340000D01*
X89225000Y-97420000D02*
X89225000Y-96520000D01*
X89045000Y-96340000D02*
X88090000Y-96340000D01*
X88090000Y-96340000D02*
X87710000Y-95960000D01*
X87710000Y-95960000D02*
X87710000Y-95500000D01*
X72400000Y-101940000D02*
X73330000Y-102870000D01*
X72250000Y-101940000D02*
X72400000Y-101940000D01*
X73330000Y-102870000D02*
X73330000Y-103570000D01*
X69950000Y-101940000D02*
X72210000Y-101940000D01*
X75330000Y-103520000D02*
X75330000Y-105310000D01*
X75330000Y-102645000D02*
X74615000Y-101930000D01*
X75330000Y-103520000D02*
X75330000Y-102645000D01*
X76170000Y-105240000D02*
X74830000Y-105240000D01*
X77460000Y-106320000D02*
X76380000Y-105240000D01*
X77460000Y-108150908D02*
X77460000Y-106320000D01*
X76380000Y-105240000D02*
X75030000Y-105240000D01*
X78959281Y-109650189D02*
X77460000Y-108150908D01*
X94115669Y-109650189D02*
X78959281Y-109650189D01*
X94608457Y-109157401D02*
X94115669Y-109650189D01*
X95672599Y-109157401D02*
X94608457Y-109157401D01*
X96660000Y-108170000D02*
X95672599Y-109157401D01*
D53*
X82725000Y-96570000D02*
X82835000Y-96460000D01*
X82725000Y-97420000D02*
X82725000Y-96570000D01*
X82835000Y-96460000D02*
X83836617Y-96460000D01*
X83836617Y-96460000D02*
X84189027Y-96107590D01*
X84189027Y-96107590D02*
X84742410Y-96107590D01*
X84742410Y-96107590D02*
X85110000Y-95740000D01*
X85110000Y-95740000D02*
X85110000Y-95470000D01*
X81725000Y-96665678D02*
X82283088Y-96107590D01*
X81725000Y-97420000D02*
X81725000Y-96665678D01*
X82283088Y-96107590D02*
X83392410Y-96107590D01*
X83392410Y-96107590D02*
X83810000Y-95690000D01*
D51*
X80725000Y-97420000D02*
X80725000Y-95875000D01*
X80725000Y-95875000D02*
X80970000Y-95630000D01*
X79725000Y-97420000D02*
X79725000Y-95615000D01*
X73610000Y-82805000D02*
X73605000Y-82805000D01*
X73605000Y-82805000D02*
X71900000Y-84510000D01*
X71900000Y-84510000D02*
X71900000Y-85140000D01*
X73610000Y-82005000D02*
X74545000Y-81070000D01*
X73610000Y-82805000D02*
X73610000Y-82005000D01*
X74545000Y-81070000D02*
X75340000Y-81070000D01*
X75510000Y-80150000D02*
X74610000Y-79250000D01*
X75510000Y-80800000D02*
X75510000Y-80150000D01*
X74610000Y-79250000D02*
X74610000Y-78360000D01*
D54*
X76460000Y-82800000D02*
X77510000Y-81750000D01*
X76460000Y-82900000D02*
X76460000Y-82800000D01*
D55*
X88723750Y-83051250D02*
X88723750Y-82243750D01*
D56*
X88725000Y-82242500D02*
X88723750Y-82243750D01*
X88725000Y-79430000D02*
X88725000Y-82242500D01*
D51*
X96200000Y-99790000D02*
X96200000Y-99090000D01*
X96200000Y-99090000D02*
X96200000Y-98690000D01*
X92410000Y-95970000D02*
X92640000Y-96200000D01*
X92410000Y-95190000D02*
X92410000Y-95970000D01*
X94310000Y-95190000D02*
X94310000Y-95970000D01*
X95500000Y-96920000D02*
X95500000Y-98150000D01*
X95200000Y-96620000D02*
X95500000Y-96920000D01*
X92825388Y-96385388D02*
X92640000Y-96200000D01*
X95200000Y-96620000D02*
X94965388Y-96385388D01*
X93894612Y-96385388D02*
X94310000Y-95970000D01*
X93595388Y-96385388D02*
X92825388Y-96385388D01*
X93595388Y-96385388D02*
X93894612Y-96385388D01*
X94965388Y-96385388D02*
X93595388Y-96385388D01*
D53*
X101650000Y-101514646D02*
X100637047Y-102527599D01*
X101650000Y-101280000D02*
X101650000Y-101514646D01*
X100637047Y-102527599D02*
X98582401Y-102527599D01*
X98582401Y-102527599D02*
X98200000Y-102910000D01*
D51*
X101940000Y-88730000D02*
X101940000Y-88280000D01*
X100034092Y-89334092D02*
X101355908Y-89334092D01*
X99702410Y-89665774D02*
X100034092Y-89334092D01*
X101355908Y-89334092D02*
X101940000Y-88750000D01*
X99702410Y-91178763D02*
X99702410Y-89665774D01*
X102147590Y-93623944D02*
X99702410Y-91178763D01*
X101940000Y-88750000D02*
X101940000Y-88730000D01*
X102147590Y-97802410D02*
X102147590Y-93623944D01*
X101650000Y-98300000D02*
X102147590Y-97802410D01*
X101650000Y-99080000D02*
X101650000Y-98300000D01*
D54*
X78260000Y-84500000D02*
X77360000Y-84500000D01*
X77360000Y-83800000D02*
X77360000Y-84500000D01*
D51*
X83073750Y-83701250D02*
X82844683Y-83701250D01*
D54*
X78310000Y-85450000D02*
X78260000Y-85400000D01*
X78310000Y-86480000D02*
X78310000Y-85450000D01*
X83073750Y-83123750D02*
X83070000Y-83120000D01*
X83073750Y-83701250D02*
X83073750Y-83123750D01*
X80460000Y-85916022D02*
X80293410Y-86082612D01*
X80460000Y-84932500D02*
X80460000Y-85916022D01*
X80960000Y-81474312D02*
X79685688Y-80200000D01*
X79685688Y-80200000D02*
X79080000Y-80200000D01*
X80960000Y-82007500D02*
X80960000Y-81474312D01*
D57*
X101139800Y-106401918D02*
X101167861Y-106542991D01*
X101222905Y-106675879D01*
X101302817Y-106795475D01*
X101404525Y-106897183D01*
X101524121Y-106977095D01*
X101657009Y-107032139D01*
X101798082Y-107060200D01*
X101941918Y-107060200D01*
X102082991Y-107032139D01*
X102094800Y-107027247D01*
X102094800Y-108187328D01*
X102054337Y-108154121D01*
X101996973Y-108123460D01*
X101934730Y-108104578D01*
X101870000Y-108098203D01*
X100870000Y-108098203D01*
X100805270Y-108104578D01*
X100743027Y-108123460D01*
X100685663Y-108154121D01*
X100635384Y-108195384D01*
X100594121Y-108245663D01*
X100563460Y-108303027D01*
X100544578Y-108365270D01*
X100538203Y-108430000D01*
X100538203Y-109830000D01*
X100544578Y-109894730D01*
X100563460Y-109956973D01*
X100594121Y-110014337D01*
X100635384Y-110064616D01*
X100685663Y-110105879D01*
X100743027Y-110136540D01*
X100805270Y-110155422D01*
X100870000Y-110161797D01*
X101870000Y-110161797D01*
X101934730Y-110155422D01*
X101996973Y-110136540D01*
X102054337Y-110105879D01*
X102094800Y-110072672D01*
X102094800Y-111883000D01*
X99275335Y-111883000D01*
X99171300Y-111827683D01*
X99137320Y-111813678D01*
X99103590Y-111799221D01*
X99098186Y-111797548D01*
X98911349Y-111741139D01*
X98875310Y-111734003D01*
X98839401Y-111726370D01*
X98833775Y-111725779D01*
X98639541Y-111706734D01*
X98639539Y-111706734D01*
X98619901Y-111704800D01*
X94569814Y-111704800D01*
X94531963Y-111701089D01*
X94514615Y-111695851D01*
X94498617Y-111687345D01*
X94484569Y-111675888D01*
X94473017Y-111661924D01*
X94464398Y-111645983D01*
X94459039Y-111628669D01*
X94457120Y-111610410D01*
X94457160Y-111610000D01*
X94449337Y-111530567D01*
X94426167Y-111454187D01*
X94388541Y-111383794D01*
X94337906Y-111322094D01*
X94276206Y-111271459D01*
X94205813Y-111233833D01*
X94129433Y-111210663D01*
X94069901Y-111204800D01*
X78030099Y-111204800D01*
X77970567Y-111210663D01*
X77894187Y-111233833D01*
X77823794Y-111271459D01*
X77762094Y-111322094D01*
X77711459Y-111383794D01*
X77673833Y-111454187D01*
X77650663Y-111530567D01*
X77642840Y-111610000D01*
X77642849Y-111610088D01*
X77641089Y-111628037D01*
X77635851Y-111645385D01*
X77627345Y-111661383D01*
X77615888Y-111675431D01*
X77601924Y-111686983D01*
X77585983Y-111695602D01*
X77568669Y-111700961D01*
X77532145Y-111704800D01*
X72580099Y-111704800D01*
X72562489Y-111706534D01*
X72556293Y-111706491D01*
X72550663Y-111707044D01*
X72356566Y-111727445D01*
X72320599Y-111734828D01*
X72284517Y-111741711D01*
X72279101Y-111743346D01*
X72092663Y-111801058D01*
X72058794Y-111815295D01*
X72024756Y-111829047D01*
X72019766Y-111831701D01*
X72019761Y-111831703D01*
X72019757Y-111831706D01*
X71924890Y-111883000D01*
X69105200Y-111883000D01*
X69105200Y-110451750D01*
X72315000Y-110451750D01*
X72327594Y-110560524D01*
X72366968Y-110679249D01*
X72428748Y-110788012D01*
X72510559Y-110882631D01*
X72609258Y-110959473D01*
X72721051Y-111015582D01*
X72841643Y-111048804D01*
X72964250Y-111055000D01*
X73123000Y-110896250D01*
X73123000Y-110293000D01*
X72473750Y-110293000D01*
X72315000Y-110451750D01*
X69105200Y-110451750D01*
X69105200Y-110072672D01*
X69145663Y-110105879D01*
X69203027Y-110136540D01*
X69265270Y-110155422D01*
X69330000Y-110161797D01*
X70330000Y-110161797D01*
X70394730Y-110155422D01*
X70456973Y-110136540D01*
X70514337Y-110105879D01*
X70564616Y-110064616D01*
X70605879Y-110014337D01*
X70636540Y-109956973D01*
X70655422Y-109894730D01*
X70661797Y-109830000D01*
X70661797Y-108430000D01*
X70655422Y-108365270D01*
X70636540Y-108303027D01*
X70605879Y-108245663D01*
X70564616Y-108195384D01*
X70514337Y-108154121D01*
X70456973Y-108123460D01*
X70394730Y-108104578D01*
X70330000Y-108098203D01*
X69330000Y-108098203D01*
X69265270Y-108104578D01*
X69203027Y-108123460D01*
X69145663Y-108154121D01*
X69105200Y-108187328D01*
X69105200Y-107027248D01*
X69117009Y-107032139D01*
X69258082Y-107060200D01*
X69401918Y-107060200D01*
X69542991Y-107032139D01*
X69675879Y-106977095D01*
X69795475Y-106897183D01*
X69897183Y-106795475D01*
X69977095Y-106675879D01*
X70032139Y-106542991D01*
X70044795Y-106479363D01*
X70670555Y-107105123D01*
X70619578Y-107139185D01*
X70531799Y-107226964D01*
X70462831Y-107330181D01*
X70415325Y-107444871D01*
X70391107Y-107566624D01*
X70391107Y-107690762D01*
X70415325Y-107812515D01*
X70462831Y-107927205D01*
X70531799Y-108030422D01*
X70619578Y-108118201D01*
X70722795Y-108187169D01*
X70782000Y-108211692D01*
X70754121Y-108245663D01*
X70723460Y-108303027D01*
X70704578Y-108365270D01*
X70698203Y-108430000D01*
X70698203Y-109830000D01*
X70704578Y-109894730D01*
X70723460Y-109956973D01*
X70754121Y-110014337D01*
X70795384Y-110064616D01*
X70845663Y-110105879D01*
X70903027Y-110136540D01*
X70965270Y-110155422D01*
X71030000Y-110161797D01*
X72030000Y-110161797D01*
X72094730Y-110155422D01*
X72156973Y-110136540D01*
X72214337Y-110105879D01*
X72264616Y-110064616D01*
X72305879Y-110014337D01*
X72318143Y-109991393D01*
X72473750Y-110147000D01*
X73123000Y-110147000D01*
X73123000Y-110073000D01*
X73377000Y-110073000D01*
X73377000Y-110147000D01*
X73397000Y-110147000D01*
X73397000Y-110293000D01*
X73377000Y-110293000D01*
X73377000Y-110896250D01*
X73535750Y-111055000D01*
X73658357Y-111048804D01*
X73778949Y-111015582D01*
X73890742Y-110959473D01*
X73989441Y-110882631D01*
X74071252Y-110788012D01*
X74106024Y-110726797D01*
X75030000Y-110726797D01*
X75094730Y-110720422D01*
X75156973Y-110701540D01*
X75214337Y-110670879D01*
X75264616Y-110629616D01*
X75305879Y-110579337D01*
X75336540Y-110521973D01*
X75355422Y-110459730D01*
X75361797Y-110395000D01*
X75391928Y-110395000D01*
X75404188Y-110519482D01*
X75440498Y-110639180D01*
X75499463Y-110749494D01*
X75578815Y-110846185D01*
X75675506Y-110925537D01*
X75785820Y-110984502D01*
X75905518Y-111020812D01*
X76030000Y-111033072D01*
X76244250Y-111030000D01*
X76403000Y-110871250D01*
X76403000Y-109897000D01*
X76657000Y-109897000D01*
X76657000Y-110871250D01*
X76815750Y-111030000D01*
X77030000Y-111033072D01*
X77154482Y-111020812D01*
X77274180Y-110984502D01*
X77384494Y-110925537D01*
X77481185Y-110846185D01*
X77560537Y-110749494D01*
X77619502Y-110639180D01*
X77655812Y-110519482D01*
X77668072Y-110395000D01*
X77665000Y-110055750D01*
X77506250Y-109897000D01*
X76657000Y-109897000D01*
X76403000Y-109897000D01*
X75553750Y-109897000D01*
X75395000Y-110055750D01*
X75391928Y-110395000D01*
X75361797Y-110395000D01*
X75361797Y-109145000D01*
X75355422Y-109080270D01*
X75336540Y-109018027D01*
X75330646Y-109007000D01*
X75408289Y-109007000D01*
X75404188Y-109020518D01*
X75391928Y-109145000D01*
X75395000Y-109484250D01*
X75553750Y-109643000D01*
X76403000Y-109643000D01*
X76403000Y-109623000D01*
X76657000Y-109623000D01*
X76657000Y-109643000D01*
X77506250Y-109643000D01*
X77622750Y-109526500D01*
X78454915Y-110358665D01*
X78469167Y-110376031D01*
X78486532Y-110390282D01*
X78538480Y-110432915D01*
X78617559Y-110475183D01*
X78703364Y-110501212D01*
X78792599Y-110510001D01*
X78814956Y-110507799D01*
X94260002Y-110507799D01*
X94282351Y-110510000D01*
X94304700Y-110507799D01*
X94304708Y-110507799D01*
X94371586Y-110501212D01*
X94457391Y-110475183D01*
X94536470Y-110432915D01*
X94605783Y-110376031D01*
X94620039Y-110358660D01*
X94963689Y-110015011D01*
X97297840Y-110015011D01*
X97320189Y-110017212D01*
X97342538Y-110015011D01*
X97342546Y-110015011D01*
X97409424Y-110008424D01*
X97495229Y-109982395D01*
X97574308Y-109940127D01*
X97643621Y-109883243D01*
X97657877Y-109865872D01*
X98838203Y-108685546D01*
X98838203Y-109830000D01*
X98844578Y-109894730D01*
X98863460Y-109956973D01*
X98894121Y-110014337D01*
X98935384Y-110064616D01*
X98985663Y-110105879D01*
X99043027Y-110136540D01*
X99105270Y-110155422D01*
X99170000Y-110161797D01*
X100170000Y-110161797D01*
X100234730Y-110155422D01*
X100296973Y-110136540D01*
X100354337Y-110105879D01*
X100404616Y-110064616D01*
X100445879Y-110014337D01*
X100476540Y-109956973D01*
X100495422Y-109894730D01*
X100501797Y-109830000D01*
X100501797Y-108430000D01*
X100495422Y-108365270D01*
X100476540Y-108303027D01*
X100445879Y-108245663D01*
X100404616Y-108195384D01*
X100354337Y-108154121D01*
X100296973Y-108123460D01*
X100234730Y-108104578D01*
X100170000Y-108098203D01*
X99425546Y-108098203D01*
X100036067Y-107487683D01*
X100053432Y-107473432D01*
X100067686Y-107456064D01*
X101139800Y-106383950D01*
X101139800Y-106401918D01*
G04 #@! TA.AperFunction,Conductor*
D58*
G36*
X101139800Y-106401918D02*
G01*
X101167861Y-106542991D01*
X101222905Y-106675879D01*
X101302817Y-106795475D01*
X101404525Y-106897183D01*
X101524121Y-106977095D01*
X101657009Y-107032139D01*
X101798082Y-107060200D01*
X101941918Y-107060200D01*
X102082991Y-107032139D01*
X102094800Y-107027247D01*
X102094800Y-108187328D01*
X102054337Y-108154121D01*
X101996973Y-108123460D01*
X101934730Y-108104578D01*
X101870000Y-108098203D01*
X100870000Y-108098203D01*
X100805270Y-108104578D01*
X100743027Y-108123460D01*
X100685663Y-108154121D01*
X100635384Y-108195384D01*
X100594121Y-108245663D01*
X100563460Y-108303027D01*
X100544578Y-108365270D01*
X100538203Y-108430000D01*
X100538203Y-109830000D01*
X100544578Y-109894730D01*
X100563460Y-109956973D01*
X100594121Y-110014337D01*
X100635384Y-110064616D01*
X100685663Y-110105879D01*
X100743027Y-110136540D01*
X100805270Y-110155422D01*
X100870000Y-110161797D01*
X101870000Y-110161797D01*
X101934730Y-110155422D01*
X101996973Y-110136540D01*
X102054337Y-110105879D01*
X102094800Y-110072672D01*
X102094800Y-111883000D01*
X99275335Y-111883000D01*
X99171300Y-111827683D01*
X99137320Y-111813678D01*
X99103590Y-111799221D01*
X99098186Y-111797548D01*
X98911349Y-111741139D01*
X98875310Y-111734003D01*
X98839401Y-111726370D01*
X98833775Y-111725779D01*
X98639541Y-111706734D01*
X98639539Y-111706734D01*
X98619901Y-111704800D01*
X94569814Y-111704800D01*
X94531963Y-111701089D01*
X94514615Y-111695851D01*
X94498617Y-111687345D01*
X94484569Y-111675888D01*
X94473017Y-111661924D01*
X94464398Y-111645983D01*
X94459039Y-111628669D01*
X94457120Y-111610410D01*
X94457160Y-111610000D01*
X94449337Y-111530567D01*
X94426167Y-111454187D01*
X94388541Y-111383794D01*
X94337906Y-111322094D01*
X94276206Y-111271459D01*
X94205813Y-111233833D01*
X94129433Y-111210663D01*
X94069901Y-111204800D01*
X78030099Y-111204800D01*
X77970567Y-111210663D01*
X77894187Y-111233833D01*
X77823794Y-111271459D01*
X77762094Y-111322094D01*
X77711459Y-111383794D01*
X77673833Y-111454187D01*
X77650663Y-111530567D01*
X77642840Y-111610000D01*
X77642849Y-111610088D01*
X77641089Y-111628037D01*
X77635851Y-111645385D01*
X77627345Y-111661383D01*
X77615888Y-111675431D01*
X77601924Y-111686983D01*
X77585983Y-111695602D01*
X77568669Y-111700961D01*
X77532145Y-111704800D01*
X72580099Y-111704800D01*
X72562489Y-111706534D01*
X72556293Y-111706491D01*
X72550663Y-111707044D01*
X72356566Y-111727445D01*
X72320599Y-111734828D01*
X72284517Y-111741711D01*
X72279101Y-111743346D01*
X72092663Y-111801058D01*
X72058794Y-111815295D01*
X72024756Y-111829047D01*
X72019766Y-111831701D01*
X72019761Y-111831703D01*
X72019757Y-111831706D01*
X71924890Y-111883000D01*
X69105200Y-111883000D01*
X69105200Y-110451750D01*
X72315000Y-110451750D01*
X72327594Y-110560524D01*
X72366968Y-110679249D01*
X72428748Y-110788012D01*
X72510559Y-110882631D01*
X72609258Y-110959473D01*
X72721051Y-111015582D01*
X72841643Y-111048804D01*
X72964250Y-111055000D01*
X73123000Y-110896250D01*
X73123000Y-110293000D01*
X72473750Y-110293000D01*
X72315000Y-110451750D01*
X69105200Y-110451750D01*
X69105200Y-110072672D01*
X69145663Y-110105879D01*
X69203027Y-110136540D01*
X69265270Y-110155422D01*
X69330000Y-110161797D01*
X70330000Y-110161797D01*
X70394730Y-110155422D01*
X70456973Y-110136540D01*
X70514337Y-110105879D01*
X70564616Y-110064616D01*
X70605879Y-110014337D01*
X70636540Y-109956973D01*
X70655422Y-109894730D01*
X70661797Y-109830000D01*
X70661797Y-108430000D01*
X70655422Y-108365270D01*
X70636540Y-108303027D01*
X70605879Y-108245663D01*
X70564616Y-108195384D01*
X70514337Y-108154121D01*
X70456973Y-108123460D01*
X70394730Y-108104578D01*
X70330000Y-108098203D01*
X69330000Y-108098203D01*
X69265270Y-108104578D01*
X69203027Y-108123460D01*
X69145663Y-108154121D01*
X69105200Y-108187328D01*
X69105200Y-107027248D01*
X69117009Y-107032139D01*
X69258082Y-107060200D01*
X69401918Y-107060200D01*
X69542991Y-107032139D01*
X69675879Y-106977095D01*
X69795475Y-106897183D01*
X69897183Y-106795475D01*
X69977095Y-106675879D01*
X70032139Y-106542991D01*
X70044795Y-106479363D01*
X70670555Y-107105123D01*
X70619578Y-107139185D01*
X70531799Y-107226964D01*
X70462831Y-107330181D01*
X70415325Y-107444871D01*
X70391107Y-107566624D01*
X70391107Y-107690762D01*
X70415325Y-107812515D01*
X70462831Y-107927205D01*
X70531799Y-108030422D01*
X70619578Y-108118201D01*
X70722795Y-108187169D01*
X70782000Y-108211692D01*
X70754121Y-108245663D01*
X70723460Y-108303027D01*
X70704578Y-108365270D01*
X70698203Y-108430000D01*
X70698203Y-109830000D01*
X70704578Y-109894730D01*
X70723460Y-109956973D01*
X70754121Y-110014337D01*
X70795384Y-110064616D01*
X70845663Y-110105879D01*
X70903027Y-110136540D01*
X70965270Y-110155422D01*
X71030000Y-110161797D01*
X72030000Y-110161797D01*
X72094730Y-110155422D01*
X72156973Y-110136540D01*
X72214337Y-110105879D01*
X72264616Y-110064616D01*
X72305879Y-110014337D01*
X72318143Y-109991393D01*
X72473750Y-110147000D01*
X73123000Y-110147000D01*
X73123000Y-110073000D01*
X73377000Y-110073000D01*
X73377000Y-110147000D01*
X73397000Y-110147000D01*
X73397000Y-110293000D01*
X73377000Y-110293000D01*
X73377000Y-110896250D01*
X73535750Y-111055000D01*
X73658357Y-111048804D01*
X73778949Y-111015582D01*
X73890742Y-110959473D01*
X73989441Y-110882631D01*
X74071252Y-110788012D01*
X74106024Y-110726797D01*
X75030000Y-110726797D01*
X75094730Y-110720422D01*
X75156973Y-110701540D01*
X75214337Y-110670879D01*
X75264616Y-110629616D01*
X75305879Y-110579337D01*
X75336540Y-110521973D01*
X75355422Y-110459730D01*
X75361797Y-110395000D01*
X75391928Y-110395000D01*
X75404188Y-110519482D01*
X75440498Y-110639180D01*
X75499463Y-110749494D01*
X75578815Y-110846185D01*
X75675506Y-110925537D01*
X75785820Y-110984502D01*
X75905518Y-111020812D01*
X76030000Y-111033072D01*
X76244250Y-111030000D01*
X76403000Y-110871250D01*
X76403000Y-109897000D01*
X76657000Y-109897000D01*
X76657000Y-110871250D01*
X76815750Y-111030000D01*
X77030000Y-111033072D01*
X77154482Y-111020812D01*
X77274180Y-110984502D01*
X77384494Y-110925537D01*
X77481185Y-110846185D01*
X77560537Y-110749494D01*
X77619502Y-110639180D01*
X77655812Y-110519482D01*
X77668072Y-110395000D01*
X77665000Y-110055750D01*
X77506250Y-109897000D01*
X76657000Y-109897000D01*
X76403000Y-109897000D01*
X75553750Y-109897000D01*
X75395000Y-110055750D01*
X75391928Y-110395000D01*
X75361797Y-110395000D01*
X75361797Y-109145000D01*
X75355422Y-109080270D01*
X75336540Y-109018027D01*
X75330646Y-109007000D01*
X75408289Y-109007000D01*
X75404188Y-109020518D01*
X75391928Y-109145000D01*
X75395000Y-109484250D01*
X75553750Y-109643000D01*
X76403000Y-109643000D01*
X76403000Y-109623000D01*
X76657000Y-109623000D01*
X76657000Y-109643000D01*
X77506250Y-109643000D01*
X77622750Y-109526500D01*
X78454915Y-110358665D01*
X78469167Y-110376031D01*
X78486532Y-110390282D01*
X78538480Y-110432915D01*
X78617559Y-110475183D01*
X78703364Y-110501212D01*
X78792599Y-110510001D01*
X78814956Y-110507799D01*
X94260002Y-110507799D01*
X94282351Y-110510000D01*
X94304700Y-110507799D01*
X94304708Y-110507799D01*
X94371586Y-110501212D01*
X94457391Y-110475183D01*
X94536470Y-110432915D01*
X94605783Y-110376031D01*
X94620039Y-110358660D01*
X94963689Y-110015011D01*
X97297840Y-110015011D01*
X97320189Y-110017212D01*
X97342538Y-110015011D01*
X97342546Y-110015011D01*
X97409424Y-110008424D01*
X97495229Y-109982395D01*
X97574308Y-109940127D01*
X97643621Y-109883243D01*
X97657877Y-109865872D01*
X98838203Y-108685546D01*
X98838203Y-109830000D01*
X98844578Y-109894730D01*
X98863460Y-109956973D01*
X98894121Y-110014337D01*
X98935384Y-110064616D01*
X98985663Y-110105879D01*
X99043027Y-110136540D01*
X99105270Y-110155422D01*
X99170000Y-110161797D01*
X100170000Y-110161797D01*
X100234730Y-110155422D01*
X100296973Y-110136540D01*
X100354337Y-110105879D01*
X100404616Y-110064616D01*
X100445879Y-110014337D01*
X100476540Y-109956973D01*
X100495422Y-109894730D01*
X100501797Y-109830000D01*
X100501797Y-108430000D01*
X100495422Y-108365270D01*
X100476540Y-108303027D01*
X100445879Y-108245663D01*
X100404616Y-108195384D01*
X100354337Y-108154121D01*
X100296973Y-108123460D01*
X100234730Y-108104578D01*
X100170000Y-108098203D01*
X99425546Y-108098203D01*
X100036067Y-107487683D01*
X100053432Y-107473432D01*
X100067686Y-107456064D01*
X101139800Y-106383950D01*
X101139800Y-106401918D01*
G37*
G04 #@! TD.AperFunction*
D57*
X83243203Y-98070000D02*
X83248000Y-98118707D01*
X83248000Y-98546250D01*
X83406750Y-98705000D01*
X83509732Y-98693685D01*
X83628818Y-98655416D01*
X83738150Y-98594650D01*
X83833526Y-98513722D01*
X83911282Y-98415742D01*
X83920759Y-98397290D01*
X83939730Y-98395422D01*
X83975000Y-98384723D01*
X84010270Y-98395422D01*
X84075000Y-98401797D01*
X84269801Y-98401797D01*
X84269801Y-99272641D01*
X84267599Y-99295000D01*
X84276387Y-99384234D01*
X84300074Y-99462317D01*
X84302417Y-99470040D01*
X84344685Y-99549119D01*
X84401569Y-99618432D01*
X84418935Y-99632684D01*
X85602316Y-100816066D01*
X85616568Y-100833432D01*
X85685881Y-100890316D01*
X85764960Y-100932584D01*
X85850765Y-100958613D01*
X85917643Y-100965200D01*
X85917652Y-100965200D01*
X85939999Y-100967401D01*
X85962346Y-100965200D01*
X87863963Y-100965200D01*
X87898271Y-100999508D01*
X88001488Y-101068476D01*
X88116178Y-101115982D01*
X88237931Y-101140200D01*
X88362069Y-101140200D01*
X88483822Y-101115982D01*
X88598512Y-101068476D01*
X88701729Y-100999508D01*
X88789508Y-100911729D01*
X88858476Y-100808512D01*
X88905982Y-100693822D01*
X88930200Y-100572069D01*
X88930200Y-100447931D01*
X88905982Y-100326178D01*
X88858476Y-100211488D01*
X88857615Y-100210200D01*
X88946605Y-100210200D01*
X89068358Y-100185982D01*
X89183048Y-100138476D01*
X89286265Y-100069508D01*
X89374044Y-99981729D01*
X89443012Y-99878512D01*
X89490518Y-99763822D01*
X89514736Y-99642069D01*
X89514736Y-99517931D01*
X89490518Y-99396178D01*
X89443012Y-99281488D01*
X89374044Y-99178271D01*
X89286265Y-99090492D01*
X89183048Y-99021524D01*
X89068358Y-98974018D01*
X88946605Y-98949800D01*
X88822467Y-98949800D01*
X88700714Y-98974018D01*
X88586024Y-99021524D01*
X88576582Y-99027833D01*
X88177248Y-98628499D01*
X88238150Y-98594650D01*
X88333526Y-98513722D01*
X88411282Y-98415742D01*
X88420759Y-98397290D01*
X88439730Y-98395422D01*
X88475000Y-98384723D01*
X88510270Y-98395422D01*
X88575000Y-98401797D01*
X88875000Y-98401797D01*
X88939730Y-98395422D01*
X88975000Y-98384723D01*
X89010270Y-98395422D01*
X89075000Y-98401797D01*
X89375000Y-98401797D01*
X89439730Y-98395422D01*
X89475000Y-98384723D01*
X89510270Y-98395422D01*
X89575000Y-98401797D01*
X89769801Y-98401797D01*
X89769800Y-100506448D01*
X89769801Y-100506458D01*
X89769800Y-101322650D01*
X89767599Y-101345000D01*
X89769800Y-101367349D01*
X89769800Y-101367356D01*
X89776387Y-101434234D01*
X89802416Y-101520039D01*
X89844684Y-101599118D01*
X89901568Y-101668432D01*
X89918939Y-101682688D01*
X89951310Y-101715059D01*
X89894987Y-101752693D01*
X89807208Y-101840472D01*
X89738240Y-101943689D01*
X89690734Y-102058379D01*
X89666516Y-102180132D01*
X89666516Y-102304270D01*
X89690734Y-102426023D01*
X89738240Y-102540713D01*
X89807208Y-102643930D01*
X89890317Y-102727039D01*
X89890317Y-102974575D01*
X89888351Y-102994537D01*
X89896197Y-103074205D01*
X89919435Y-103150811D01*
X89932099Y-103174503D01*
X89957173Y-103221413D01*
X89974265Y-103242239D01*
X89995234Y-103267791D01*
X89995240Y-103267797D01*
X90007959Y-103283295D01*
X90023457Y-103296014D01*
X90973600Y-104246158D01*
X90973601Y-105093074D01*
X90850778Y-105175142D01*
X90735142Y-105290778D01*
X90644286Y-105426753D01*
X90581704Y-105577840D01*
X90549800Y-105738232D01*
X90549800Y-105901768D01*
X90581704Y-106062160D01*
X90644286Y-106213247D01*
X90735142Y-106349222D01*
X90850778Y-106464858D01*
X90986753Y-106555714D01*
X91137840Y-106618296D01*
X91298232Y-106650200D01*
X91461768Y-106650200D01*
X91622160Y-106618296D01*
X91773247Y-106555714D01*
X91909222Y-106464858D01*
X91963601Y-106410479D01*
X91963601Y-107201662D01*
X91606646Y-107558618D01*
X91461768Y-107529800D01*
X91298232Y-107529800D01*
X91137840Y-107561704D01*
X90986753Y-107624286D01*
X90850778Y-107715142D01*
X90735142Y-107830778D01*
X90644286Y-107966753D01*
X90581704Y-108117840D01*
X90549800Y-108278232D01*
X90549800Y-108441768D01*
X90581704Y-108602160D01*
X90644286Y-108753247D01*
X90735142Y-108889222D01*
X90850778Y-109004858D01*
X90986753Y-109095714D01*
X91137840Y-109158296D01*
X91298232Y-109190200D01*
X91461768Y-109190200D01*
X91622160Y-109158296D01*
X91773247Y-109095714D01*
X91909222Y-109004858D01*
X92024858Y-108889222D01*
X92115714Y-108753247D01*
X92178296Y-108602160D01*
X92210073Y-108442406D01*
X92782489Y-108442406D01*
X92820423Y-108662740D01*
X92900613Y-108871440D01*
X92928412Y-108923450D01*
X93141834Y-108958561D01*
X93740395Y-108360000D01*
X93141834Y-107761439D01*
X92928412Y-107796550D01*
X92837542Y-108000826D01*
X92788269Y-108218905D01*
X92782489Y-108442406D01*
X92210073Y-108442406D01*
X92210200Y-108441768D01*
X92210200Y-108278232D01*
X92181382Y-108133354D01*
X92643259Y-107671478D01*
X92658758Y-107658758D01*
X92671477Y-107643260D01*
X92671482Y-107643255D01*
X92700906Y-107607401D01*
X92709544Y-107596876D01*
X92717584Y-107581834D01*
X93321439Y-107581834D01*
X93920000Y-108180395D01*
X94518561Y-107581834D01*
X94483450Y-107368412D01*
X94279174Y-107277542D01*
X94061095Y-107228269D01*
X93837594Y-107222489D01*
X93617260Y-107260423D01*
X93408560Y-107340613D01*
X93356550Y-107368412D01*
X93321439Y-107581834D01*
X92717584Y-107581834D01*
X92747281Y-107526275D01*
X92770519Y-107449669D01*
X92775005Y-107404118D01*
X92776400Y-107389960D01*
X92776400Y-107389953D01*
X92778365Y-107370000D01*
X92776400Y-107350047D01*
X92776400Y-104305445D01*
X92778365Y-104285492D01*
X92776400Y-104265539D01*
X92776400Y-104265532D01*
X92770519Y-104205824D01*
X92747281Y-104129217D01*
X92709544Y-104058616D01*
X92658758Y-103996734D01*
X92643255Y-103984011D01*
X91487483Y-102828239D01*
X91487483Y-102738064D01*
X93805223Y-102738064D01*
X93852390Y-102785232D01*
X93852391Y-103794324D01*
X93850189Y-103816683D01*
X93858977Y-103905917D01*
X93879458Y-103973432D01*
X93885007Y-103991723D01*
X93927275Y-104070802D01*
X93984159Y-104140115D01*
X94001525Y-104154367D01*
X94868203Y-105021046D01*
X94868203Y-105130000D01*
X94874578Y-105194730D01*
X94893460Y-105256973D01*
X94924121Y-105314337D01*
X94944801Y-105339535D01*
X94944801Y-105457641D01*
X94942599Y-105480000D01*
X94951387Y-105569234D01*
X94973335Y-105641584D01*
X94977417Y-105655040D01*
X95019685Y-105734119D01*
X95076569Y-105803432D01*
X95093934Y-105817684D01*
X95118203Y-105841952D01*
X95118203Y-106374453D01*
X94732832Y-105989083D01*
X94750200Y-105901768D01*
X94750200Y-105738232D01*
X94718296Y-105577840D01*
X94655714Y-105426753D01*
X94564858Y-105290778D01*
X94449222Y-105175142D01*
X94313247Y-105084286D01*
X94162160Y-105021704D01*
X94001768Y-104989800D01*
X93838232Y-104989800D01*
X93677840Y-105021704D01*
X93526753Y-105084286D01*
X93390778Y-105175142D01*
X93275142Y-105290778D01*
X93184286Y-105426753D01*
X93121704Y-105577840D01*
X93089800Y-105738232D01*
X93089800Y-105901768D01*
X93121704Y-106062160D01*
X93184286Y-106213247D01*
X93275142Y-106349222D01*
X93390778Y-106464858D01*
X93526753Y-106555714D01*
X93677840Y-106618296D01*
X93838232Y-106650200D01*
X94001768Y-106650200D01*
X94089083Y-106632832D01*
X94912316Y-107456066D01*
X94926568Y-107473432D01*
X94995881Y-107530316D01*
X95074960Y-107572584D01*
X95160765Y-107598613D01*
X95227643Y-107605200D01*
X95227650Y-107605200D01*
X95249999Y-107607401D01*
X95272348Y-107605200D01*
X96070645Y-107605200D01*
X96068203Y-107630000D01*
X96068203Y-108118047D01*
X95484050Y-108702201D01*
X95006293Y-108702201D01*
X95051731Y-108501095D01*
X95057511Y-108277594D01*
X95019577Y-108057260D01*
X94939387Y-107848560D01*
X94911588Y-107796550D01*
X94698166Y-107761439D01*
X94099605Y-108360000D01*
X94113748Y-108374143D01*
X93934143Y-108553748D01*
X93920000Y-108539605D01*
X93321439Y-109138166D01*
X93330787Y-109194989D01*
X79147831Y-109194989D01*
X77915200Y-107962359D01*
X77915200Y-106342357D01*
X77917402Y-106320000D01*
X77908613Y-106230765D01*
X77882584Y-106144960D01*
X77840316Y-106065881D01*
X77797684Y-106013934D01*
X77783432Y-105996568D01*
X77766066Y-105982316D01*
X77407000Y-105623250D01*
X77407000Y-104380000D01*
X77404560Y-104355224D01*
X77397333Y-104331399D01*
X77385597Y-104309443D01*
X77369803Y-104290197D01*
X77350557Y-104274403D01*
X77328601Y-104262667D01*
X77304776Y-104255440D01*
X77280000Y-104253000D01*
X76342296Y-104253000D01*
X76355422Y-104209730D01*
X76361797Y-104145000D01*
X76361797Y-102895000D01*
X76355422Y-102830270D01*
X76336540Y-102768027D01*
X76305879Y-102710663D01*
X76264616Y-102660384D01*
X76214337Y-102619121D01*
X76156973Y-102588460D01*
X76094730Y-102569578D01*
X76030000Y-102563203D01*
X75779346Y-102563203D01*
X75778613Y-102555765D01*
X75752584Y-102469960D01*
X75710316Y-102390881D01*
X75667684Y-102338933D01*
X75667679Y-102338928D01*
X75653432Y-102321568D01*
X75636071Y-102307320D01*
X75481797Y-102153046D01*
X75481797Y-101714639D01*
X76075820Y-102308663D01*
X76090072Y-102326029D01*
X76159385Y-102382913D01*
X76238464Y-102425181D01*
X76324269Y-102451210D01*
X76391147Y-102457797D01*
X76391154Y-102457797D01*
X76413503Y-102459998D01*
X76435852Y-102457797D01*
X79660500Y-102457797D01*
X79682849Y-102459998D01*
X79705198Y-102457797D01*
X79705206Y-102457797D01*
X79772084Y-102451210D01*
X79857889Y-102425181D01*
X79936968Y-102382913D01*
X80006281Y-102326029D01*
X80020537Y-102308658D01*
X81526067Y-100803129D01*
X81543432Y-100788878D01*
X81600316Y-100719565D01*
X81642584Y-100640486D01*
X81668613Y-100554681D01*
X81675200Y-100487803D01*
X81675200Y-100487802D01*
X81677402Y-100465446D01*
X81675200Y-100443089D01*
X81675200Y-98401797D01*
X81875000Y-98401797D01*
X81939730Y-98395422D01*
X81975000Y-98384723D01*
X82010270Y-98395422D01*
X82075000Y-98401797D01*
X82375000Y-98401797D01*
X82439730Y-98395422D01*
X82475000Y-98384723D01*
X82510270Y-98395422D01*
X82529241Y-98397290D01*
X82538718Y-98415742D01*
X82616474Y-98513722D01*
X82711850Y-98594650D01*
X82821182Y-98655416D01*
X82940268Y-98693685D01*
X83043250Y-98705000D01*
X83202000Y-98546250D01*
X83202000Y-98118707D01*
X83206797Y-98070000D01*
X83206797Y-97273000D01*
X83243203Y-97273000D01*
X83243203Y-98070000D01*
G04 #@! TA.AperFunction,Conductor*
D58*
G36*
X83243203Y-98070000D02*
G01*
X83248000Y-98118707D01*
X83248000Y-98546250D01*
X83406750Y-98705000D01*
X83509732Y-98693685D01*
X83628818Y-98655416D01*
X83738150Y-98594650D01*
X83833526Y-98513722D01*
X83911282Y-98415742D01*
X83920759Y-98397290D01*
X83939730Y-98395422D01*
X83975000Y-98384723D01*
X84010270Y-98395422D01*
X84075000Y-98401797D01*
X84269801Y-98401797D01*
X84269801Y-99272641D01*
X84267599Y-99295000D01*
X84276387Y-99384234D01*
X84300074Y-99462317D01*
X84302417Y-99470040D01*
X84344685Y-99549119D01*
X84401569Y-99618432D01*
X84418935Y-99632684D01*
X85602316Y-100816066D01*
X85616568Y-100833432D01*
X85685881Y-100890316D01*
X85764960Y-100932584D01*
X85850765Y-100958613D01*
X85917643Y-100965200D01*
X85917652Y-100965200D01*
X85939999Y-100967401D01*
X85962346Y-100965200D01*
X87863963Y-100965200D01*
X87898271Y-100999508D01*
X88001488Y-101068476D01*
X88116178Y-101115982D01*
X88237931Y-101140200D01*
X88362069Y-101140200D01*
X88483822Y-101115982D01*
X88598512Y-101068476D01*
X88701729Y-100999508D01*
X88789508Y-100911729D01*
X88858476Y-100808512D01*
X88905982Y-100693822D01*
X88930200Y-100572069D01*
X88930200Y-100447931D01*
X88905982Y-100326178D01*
X88858476Y-100211488D01*
X88857615Y-100210200D01*
X88946605Y-100210200D01*
X89068358Y-100185982D01*
X89183048Y-100138476D01*
X89286265Y-100069508D01*
X89374044Y-99981729D01*
X89443012Y-99878512D01*
X89490518Y-99763822D01*
X89514736Y-99642069D01*
X89514736Y-99517931D01*
X89490518Y-99396178D01*
X89443012Y-99281488D01*
X89374044Y-99178271D01*
X89286265Y-99090492D01*
X89183048Y-99021524D01*
X89068358Y-98974018D01*
X88946605Y-98949800D01*
X88822467Y-98949800D01*
X88700714Y-98974018D01*
X88586024Y-99021524D01*
X88576582Y-99027833D01*
X88177248Y-98628499D01*
X88238150Y-98594650D01*
X88333526Y-98513722D01*
X88411282Y-98415742D01*
X88420759Y-98397290D01*
X88439730Y-98395422D01*
X88475000Y-98384723D01*
X88510270Y-98395422D01*
X88575000Y-98401797D01*
X88875000Y-98401797D01*
X88939730Y-98395422D01*
X88975000Y-98384723D01*
X89010270Y-98395422D01*
X89075000Y-98401797D01*
X89375000Y-98401797D01*
X89439730Y-98395422D01*
X89475000Y-98384723D01*
X89510270Y-98395422D01*
X89575000Y-98401797D01*
X89769801Y-98401797D01*
X89769800Y-100506448D01*
X89769801Y-100506458D01*
X89769800Y-101322650D01*
X89767599Y-101345000D01*
X89769800Y-101367349D01*
X89769800Y-101367356D01*
X89776387Y-101434234D01*
X89802416Y-101520039D01*
X89844684Y-101599118D01*
X89901568Y-101668432D01*
X89918939Y-101682688D01*
X89951310Y-101715059D01*
X89894987Y-101752693D01*
X89807208Y-101840472D01*
X89738240Y-101943689D01*
X89690734Y-102058379D01*
X89666516Y-102180132D01*
X89666516Y-102304270D01*
X89690734Y-102426023D01*
X89738240Y-102540713D01*
X89807208Y-102643930D01*
X89890317Y-102727039D01*
X89890317Y-102974575D01*
X89888351Y-102994537D01*
X89896197Y-103074205D01*
X89919435Y-103150811D01*
X89932099Y-103174503D01*
X89957173Y-103221413D01*
X89974265Y-103242239D01*
X89995234Y-103267791D01*
X89995240Y-103267797D01*
X90007959Y-103283295D01*
X90023457Y-103296014D01*
X90973600Y-104246158D01*
X90973601Y-105093074D01*
X90850778Y-105175142D01*
X90735142Y-105290778D01*
X90644286Y-105426753D01*
X90581704Y-105577840D01*
X90549800Y-105738232D01*
X90549800Y-105901768D01*
X90581704Y-106062160D01*
X90644286Y-106213247D01*
X90735142Y-106349222D01*
X90850778Y-106464858D01*
X90986753Y-106555714D01*
X91137840Y-106618296D01*
X91298232Y-106650200D01*
X91461768Y-106650200D01*
X91622160Y-106618296D01*
X91773247Y-106555714D01*
X91909222Y-106464858D01*
X91963601Y-106410479D01*
X91963601Y-107201662D01*
X91606646Y-107558618D01*
X91461768Y-107529800D01*
X91298232Y-107529800D01*
X91137840Y-107561704D01*
X90986753Y-107624286D01*
X90850778Y-107715142D01*
X90735142Y-107830778D01*
X90644286Y-107966753D01*
X90581704Y-108117840D01*
X90549800Y-108278232D01*
X90549800Y-108441768D01*
X90581704Y-108602160D01*
X90644286Y-108753247D01*
X90735142Y-108889222D01*
X90850778Y-109004858D01*
X90986753Y-109095714D01*
X91137840Y-109158296D01*
X91298232Y-109190200D01*
X91461768Y-109190200D01*
X91622160Y-109158296D01*
X91773247Y-109095714D01*
X91909222Y-109004858D01*
X92024858Y-108889222D01*
X92115714Y-108753247D01*
X92178296Y-108602160D01*
X92210073Y-108442406D01*
X92782489Y-108442406D01*
X92820423Y-108662740D01*
X92900613Y-108871440D01*
X92928412Y-108923450D01*
X93141834Y-108958561D01*
X93740395Y-108360000D01*
X93141834Y-107761439D01*
X92928412Y-107796550D01*
X92837542Y-108000826D01*
X92788269Y-108218905D01*
X92782489Y-108442406D01*
X92210073Y-108442406D01*
X92210200Y-108441768D01*
X92210200Y-108278232D01*
X92181382Y-108133354D01*
X92643259Y-107671478D01*
X92658758Y-107658758D01*
X92671477Y-107643260D01*
X92671482Y-107643255D01*
X92700906Y-107607401D01*
X92709544Y-107596876D01*
X92717584Y-107581834D01*
X93321439Y-107581834D01*
X93920000Y-108180395D01*
X94518561Y-107581834D01*
X94483450Y-107368412D01*
X94279174Y-107277542D01*
X94061095Y-107228269D01*
X93837594Y-107222489D01*
X93617260Y-107260423D01*
X93408560Y-107340613D01*
X93356550Y-107368412D01*
X93321439Y-107581834D01*
X92717584Y-107581834D01*
X92747281Y-107526275D01*
X92770519Y-107449669D01*
X92775005Y-107404118D01*
X92776400Y-107389960D01*
X92776400Y-107389953D01*
X92778365Y-107370000D01*
X92776400Y-107350047D01*
X92776400Y-104305445D01*
X92778365Y-104285492D01*
X92776400Y-104265539D01*
X92776400Y-104265532D01*
X92770519Y-104205824D01*
X92747281Y-104129217D01*
X92709544Y-104058616D01*
X92658758Y-103996734D01*
X92643255Y-103984011D01*
X91487483Y-102828239D01*
X91487483Y-102738064D01*
X93805223Y-102738064D01*
X93852390Y-102785232D01*
X93852391Y-103794324D01*
X93850189Y-103816683D01*
X93858977Y-103905917D01*
X93879458Y-103973432D01*
X93885007Y-103991723D01*
X93927275Y-104070802D01*
X93984159Y-104140115D01*
X94001525Y-104154367D01*
X94868203Y-105021046D01*
X94868203Y-105130000D01*
X94874578Y-105194730D01*
X94893460Y-105256973D01*
X94924121Y-105314337D01*
X94944801Y-105339535D01*
X94944801Y-105457641D01*
X94942599Y-105480000D01*
X94951387Y-105569234D01*
X94973335Y-105641584D01*
X94977417Y-105655040D01*
X95019685Y-105734119D01*
X95076569Y-105803432D01*
X95093934Y-105817684D01*
X95118203Y-105841952D01*
X95118203Y-106374453D01*
X94732832Y-105989083D01*
X94750200Y-105901768D01*
X94750200Y-105738232D01*
X94718296Y-105577840D01*
X94655714Y-105426753D01*
X94564858Y-105290778D01*
X94449222Y-105175142D01*
X94313247Y-105084286D01*
X94162160Y-105021704D01*
X94001768Y-104989800D01*
X93838232Y-104989800D01*
X93677840Y-105021704D01*
X93526753Y-105084286D01*
X93390778Y-105175142D01*
X93275142Y-105290778D01*
X93184286Y-105426753D01*
X93121704Y-105577840D01*
X93089800Y-105738232D01*
X93089800Y-105901768D01*
X93121704Y-106062160D01*
X93184286Y-106213247D01*
X93275142Y-106349222D01*
X93390778Y-106464858D01*
X93526753Y-106555714D01*
X93677840Y-106618296D01*
X93838232Y-106650200D01*
X94001768Y-106650200D01*
X94089083Y-106632832D01*
X94912316Y-107456066D01*
X94926568Y-107473432D01*
X94995881Y-107530316D01*
X95074960Y-107572584D01*
X95160765Y-107598613D01*
X95227643Y-107605200D01*
X95227650Y-107605200D01*
X95249999Y-107607401D01*
X95272348Y-107605200D01*
X96070645Y-107605200D01*
X96068203Y-107630000D01*
X96068203Y-108118047D01*
X95484050Y-108702201D01*
X95006293Y-108702201D01*
X95051731Y-108501095D01*
X95057511Y-108277594D01*
X95019577Y-108057260D01*
X94939387Y-107848560D01*
X94911588Y-107796550D01*
X94698166Y-107761439D01*
X94099605Y-108360000D01*
X94113748Y-108374143D01*
X93934143Y-108553748D01*
X93920000Y-108539605D01*
X93321439Y-109138166D01*
X93330787Y-109194989D01*
X79147831Y-109194989D01*
X77915200Y-107962359D01*
X77915200Y-106342357D01*
X77917402Y-106320000D01*
X77908613Y-106230765D01*
X77882584Y-106144960D01*
X77840316Y-106065881D01*
X77797684Y-106013934D01*
X77783432Y-105996568D01*
X77766066Y-105982316D01*
X77407000Y-105623250D01*
X77407000Y-104380000D01*
X77404560Y-104355224D01*
X77397333Y-104331399D01*
X77385597Y-104309443D01*
X77369803Y-104290197D01*
X77350557Y-104274403D01*
X77328601Y-104262667D01*
X77304776Y-104255440D01*
X77280000Y-104253000D01*
X76342296Y-104253000D01*
X76355422Y-104209730D01*
X76361797Y-104145000D01*
X76361797Y-102895000D01*
X76355422Y-102830270D01*
X76336540Y-102768027D01*
X76305879Y-102710663D01*
X76264616Y-102660384D01*
X76214337Y-102619121D01*
X76156973Y-102588460D01*
X76094730Y-102569578D01*
X76030000Y-102563203D01*
X75779346Y-102563203D01*
X75778613Y-102555765D01*
X75752584Y-102469960D01*
X75710316Y-102390881D01*
X75667684Y-102338933D01*
X75667679Y-102338928D01*
X75653432Y-102321568D01*
X75636071Y-102307320D01*
X75481797Y-102153046D01*
X75481797Y-101714639D01*
X76075820Y-102308663D01*
X76090072Y-102326029D01*
X76159385Y-102382913D01*
X76238464Y-102425181D01*
X76324269Y-102451210D01*
X76391147Y-102457797D01*
X76391154Y-102457797D01*
X76413503Y-102459998D01*
X76435852Y-102457797D01*
X79660500Y-102457797D01*
X79682849Y-102459998D01*
X79705198Y-102457797D01*
X79705206Y-102457797D01*
X79772084Y-102451210D01*
X79857889Y-102425181D01*
X79936968Y-102382913D01*
X80006281Y-102326029D01*
X80020537Y-102308658D01*
X81526067Y-100803129D01*
X81543432Y-100788878D01*
X81600316Y-100719565D01*
X81642584Y-100640486D01*
X81668613Y-100554681D01*
X81675200Y-100487803D01*
X81675200Y-100487802D01*
X81677402Y-100465446D01*
X81675200Y-100443089D01*
X81675200Y-98401797D01*
X81875000Y-98401797D01*
X81939730Y-98395422D01*
X81975000Y-98384723D01*
X82010270Y-98395422D01*
X82075000Y-98401797D01*
X82375000Y-98401797D01*
X82439730Y-98395422D01*
X82475000Y-98384723D01*
X82510270Y-98395422D01*
X82529241Y-98397290D01*
X82538718Y-98415742D01*
X82616474Y-98513722D01*
X82711850Y-98594650D01*
X82821182Y-98655416D01*
X82940268Y-98693685D01*
X83043250Y-98705000D01*
X83202000Y-98546250D01*
X83202000Y-98118707D01*
X83206797Y-98070000D01*
X83206797Y-97273000D01*
X83243203Y-97273000D01*
X83243203Y-98070000D01*
G37*
G04 #@! TD.AperFunction*
D57*
X96373000Y-104703000D02*
X97227000Y-104703000D01*
X97227000Y-104683000D01*
X97373000Y-104683000D01*
X97373000Y-104703000D01*
X97447000Y-104703000D01*
X97447000Y-104957000D01*
X97373000Y-104957000D01*
X97373000Y-104977000D01*
X97227000Y-104977000D01*
X97227000Y-104957000D01*
X96373000Y-104957000D01*
X96373000Y-104977000D01*
X96227000Y-104977000D01*
X96227000Y-104957000D01*
X96153000Y-104957000D01*
X96153000Y-104703000D01*
X96227000Y-104703000D01*
X96227000Y-104683000D01*
X96373000Y-104683000D01*
X96373000Y-104703000D01*
G04 #@! TA.AperFunction,Conductor*
D58*
G36*
X96373000Y-104703000D02*
G01*
X97227000Y-104703000D01*
X97227000Y-104683000D01*
X97373000Y-104683000D01*
X97373000Y-104703000D01*
X97447000Y-104703000D01*
X97447000Y-104957000D01*
X97373000Y-104957000D01*
X97373000Y-104977000D01*
X97227000Y-104977000D01*
X97227000Y-104957000D01*
X96373000Y-104957000D01*
X96373000Y-104977000D01*
X96227000Y-104977000D01*
X96227000Y-104957000D01*
X96153000Y-104957000D01*
X96153000Y-104703000D01*
X96227000Y-104703000D01*
X96227000Y-104683000D01*
X96373000Y-104683000D01*
X96373000Y-104703000D01*
G37*
G04 #@! TD.AperFunction*
D57*
X96418203Y-102218547D02*
X96373000Y-102263750D01*
X96373000Y-102913000D01*
X97227000Y-102913000D01*
X97227000Y-102893000D01*
X97373000Y-102893000D01*
X97373000Y-102913000D01*
X97447000Y-102913000D01*
X97447000Y-103167000D01*
X97373000Y-103167000D01*
X97373000Y-103187000D01*
X97227000Y-103187000D01*
X97227000Y-103167000D01*
X96373000Y-103167000D01*
X96373000Y-103187000D01*
X96227000Y-103187000D01*
X96227000Y-103167000D01*
X96153000Y-103167000D01*
X96153000Y-102913000D01*
X96227000Y-102913000D01*
X96227000Y-102263750D01*
X96068250Y-102105000D01*
X95959476Y-102117594D01*
X95941022Y-102123714D01*
X96418203Y-101646533D01*
X96418203Y-102218547D01*
G04 #@! TA.AperFunction,Conductor*
D58*
G36*
X96418203Y-102218547D02*
G01*
X96373000Y-102263750D01*
X96373000Y-102913000D01*
X97227000Y-102913000D01*
X97227000Y-102893000D01*
X97373000Y-102893000D01*
X97373000Y-102913000D01*
X97447000Y-102913000D01*
X97447000Y-103167000D01*
X97373000Y-103167000D01*
X97373000Y-103187000D01*
X97227000Y-103187000D01*
X97227000Y-103167000D01*
X96373000Y-103167000D01*
X96373000Y-103187000D01*
X96227000Y-103187000D01*
X96227000Y-103167000D01*
X96153000Y-103167000D01*
X96153000Y-102913000D01*
X96227000Y-102913000D01*
X96227000Y-102263750D01*
X96068250Y-102105000D01*
X95959476Y-102117594D01*
X95941022Y-102123714D01*
X96418203Y-101646533D01*
X96418203Y-102218547D01*
G37*
G04 #@! TD.AperFunction*
D57*
X74625000Y-83568250D02*
X74783750Y-83727000D01*
X75433000Y-83727000D01*
X75433000Y-83653000D01*
X75687000Y-83653000D01*
X75687000Y-83727000D01*
X75707000Y-83727000D01*
X75707000Y-83873000D01*
X75687000Y-83873000D01*
X75687000Y-84476250D01*
X75845750Y-84635000D01*
X75923287Y-84631082D01*
X75970492Y-84701729D01*
X76058271Y-84789508D01*
X76161488Y-84858476D01*
X76276178Y-84905982D01*
X76397931Y-84930200D01*
X76482961Y-84930200D01*
X76476968Y-84940751D01*
X76437594Y-85059476D01*
X76425000Y-85168250D01*
X76583750Y-85327000D01*
X77233000Y-85327000D01*
X77233000Y-85253000D01*
X77487000Y-85253000D01*
X77487000Y-85327000D01*
X77507000Y-85327000D01*
X77507000Y-85473000D01*
X77487000Y-85473000D01*
X77487000Y-86076250D01*
X77645750Y-86235000D01*
X77731146Y-86230684D01*
X77704018Y-86296178D01*
X77681836Y-86407697D01*
X77679775Y-86405636D01*
X77576558Y-86336668D01*
X77461868Y-86289162D01*
X77340115Y-86264944D01*
X77215977Y-86264944D01*
X77094224Y-86289162D01*
X76979534Y-86336668D01*
X76876317Y-86405636D01*
X76788538Y-86493415D01*
X76719570Y-86596632D01*
X76672064Y-86711322D01*
X76647846Y-86833075D01*
X76647846Y-86957213D01*
X76672064Y-87078966D01*
X76719570Y-87193656D01*
X76788538Y-87296873D01*
X76876317Y-87384652D01*
X76979534Y-87453620D01*
X77094224Y-87501126D01*
X77215977Y-87525344D01*
X77278325Y-87525344D01*
X77244296Y-87576271D01*
X77196790Y-87690961D01*
X77172572Y-87812714D01*
X77172572Y-87936852D01*
X77196790Y-88058605D01*
X77244296Y-88173295D01*
X77313264Y-88276512D01*
X77401043Y-88364291D01*
X77504260Y-88433259D01*
X77618950Y-88480765D01*
X77740703Y-88504983D01*
X77864841Y-88504983D01*
X77977534Y-88482567D01*
X77977534Y-88546363D01*
X78001752Y-88668116D01*
X78049258Y-88782806D01*
X78118226Y-88886023D01*
X78206005Y-88973802D01*
X78309222Y-89042770D01*
X78423912Y-89090276D01*
X78545665Y-89114494D01*
X78669803Y-89114494D01*
X78791556Y-89090276D01*
X78906246Y-89042770D01*
X78994563Y-88983758D01*
X79061488Y-89028476D01*
X79176178Y-89075982D01*
X79297931Y-89100200D01*
X79397301Y-89100200D01*
X79385000Y-89203250D01*
X79464748Y-89282998D01*
X79385000Y-89282998D01*
X79385000Y-89308400D01*
X79352954Y-89308400D01*
X79231201Y-89332618D01*
X79116511Y-89380124D01*
X79038822Y-89432035D01*
X78961132Y-89380124D01*
X78846442Y-89332618D01*
X78724689Y-89308400D01*
X78600551Y-89308400D01*
X78478798Y-89332618D01*
X78364108Y-89380124D01*
X78260891Y-89449092D01*
X78173112Y-89536871D01*
X78104144Y-89640088D01*
X78056638Y-89754778D01*
X78032420Y-89876531D01*
X78032420Y-90000669D01*
X78056638Y-90122422D01*
X78104144Y-90237112D01*
X78173112Y-90340329D01*
X78260891Y-90428108D01*
X78364108Y-90497076D01*
X78478798Y-90544582D01*
X78600551Y-90568800D01*
X78718084Y-90568800D01*
X78768881Y-90619597D01*
X78717903Y-90653659D01*
X78630124Y-90741438D01*
X78561156Y-90844655D01*
X78513650Y-90959345D01*
X78489432Y-91081098D01*
X78489432Y-91198631D01*
X78363064Y-91324999D01*
X71822799Y-91324999D01*
X71822799Y-91290322D01*
X71798581Y-91168569D01*
X71751075Y-91053879D01*
X71682107Y-90950662D01*
X71594328Y-90862883D01*
X71491111Y-90793915D01*
X71376421Y-90746409D01*
X71254668Y-90722191D01*
X71130530Y-90722191D01*
X71008777Y-90746409D01*
X70894087Y-90793915D01*
X70790870Y-90862883D01*
X70703091Y-90950662D01*
X70634123Y-91053879D01*
X70586617Y-91168569D01*
X70562399Y-91290322D01*
X70562399Y-91414460D01*
X70586617Y-91536213D01*
X70634123Y-91650903D01*
X70703091Y-91754120D01*
X70790870Y-91841899D01*
X70894087Y-91910867D01*
X71008777Y-91958373D01*
X71130530Y-91982591D01*
X71248063Y-91982591D01*
X71270125Y-92004653D01*
X71282849Y-92020157D01*
X71344731Y-92070943D01*
X71415332Y-92108680D01*
X71458350Y-92121729D01*
X71491938Y-92131918D01*
X71499942Y-92132706D01*
X71551647Y-92137799D01*
X71551653Y-92137799D01*
X71571606Y-92139764D01*
X71591559Y-92137799D01*
X78511447Y-92137799D01*
X78531400Y-92139764D01*
X78551353Y-92137799D01*
X78551360Y-92137799D01*
X78611068Y-92131918D01*
X78687675Y-92108680D01*
X78758276Y-92070943D01*
X78820158Y-92020157D01*
X78832882Y-92004653D01*
X79064168Y-91773367D01*
X79181701Y-91773367D01*
X79274999Y-91754809D01*
X79274999Y-91771178D01*
X79273034Y-91791131D01*
X79274999Y-91811084D01*
X79274999Y-91811091D01*
X79280880Y-91870799D01*
X79304118Y-91947406D01*
X79341856Y-92018007D01*
X79348470Y-92026066D01*
X79379917Y-92064385D01*
X79379923Y-92064391D01*
X79392642Y-92079889D01*
X79408140Y-92092608D01*
X79935050Y-92619519D01*
X79947770Y-92635018D01*
X79963268Y-92647737D01*
X79963273Y-92647742D01*
X79984274Y-92664977D01*
X80009652Y-92685804D01*
X80063290Y-92714474D01*
X80080253Y-92723541D01*
X80156859Y-92746779D01*
X80164132Y-92747495D01*
X80216568Y-92752660D01*
X80216575Y-92752660D01*
X80236528Y-92754625D01*
X80256481Y-92752660D01*
X81146071Y-92752660D01*
X81166024Y-92754625D01*
X81185977Y-92752660D01*
X81185984Y-92752660D01*
X81245692Y-92746779D01*
X81322299Y-92723541D01*
X81392900Y-92685804D01*
X81454782Y-92635018D01*
X81467506Y-92619514D01*
X82005760Y-92081260D01*
X82021258Y-92068542D01*
X82033977Y-92053044D01*
X82033982Y-92053039D01*
X82055425Y-92026910D01*
X82072044Y-92006660D01*
X82109781Y-91936059D01*
X82117542Y-91910473D01*
X82133019Y-91859453D01*
X82133999Y-91849498D01*
X82138900Y-91799744D01*
X82138900Y-91799738D01*
X82140865Y-91779785D01*
X82138900Y-91759832D01*
X82138900Y-91332514D01*
X82154616Y-91319616D01*
X82195879Y-91269337D01*
X82223299Y-91218036D01*
X82607989Y-91602726D01*
X82620709Y-91618225D01*
X82636207Y-91630944D01*
X82636212Y-91630949D01*
X82651065Y-91643138D01*
X82682591Y-91669011D01*
X82747583Y-91703750D01*
X82753192Y-91706748D01*
X82829798Y-91729986D01*
X82837071Y-91730702D01*
X82889507Y-91735867D01*
X82889514Y-91735867D01*
X82909467Y-91737832D01*
X82917439Y-91737047D01*
X83031831Y-91851439D01*
X82818412Y-91886550D01*
X82727542Y-92090826D01*
X82678269Y-92308905D01*
X82672489Y-92532406D01*
X82710423Y-92752740D01*
X82762493Y-92888257D01*
X82637000Y-93013750D01*
X82637000Y-93763000D01*
X83683000Y-93763000D01*
X83683000Y-93743000D01*
X83937000Y-93743000D01*
X83937000Y-93763000D01*
X84983000Y-93763000D01*
X84983000Y-93013750D01*
X84857349Y-92888099D01*
X84892458Y-92809174D01*
X84941731Y-92591095D01*
X84946160Y-92419831D01*
X85388540Y-92862210D01*
X85237000Y-93013750D01*
X85237000Y-93763000D01*
X86283000Y-93763000D01*
X86283000Y-93743000D01*
X86537000Y-93743000D01*
X86537000Y-93763000D01*
X87583000Y-93763000D01*
X87583000Y-93743000D01*
X87837000Y-93743000D01*
X87837000Y-93763000D01*
X87857000Y-93763000D01*
X87857000Y-94017000D01*
X87837000Y-94017000D01*
X87837000Y-94037000D01*
X87583000Y-94037000D01*
X87583000Y-94017000D01*
X86537000Y-94017000D01*
X86537000Y-94037000D01*
X86283000Y-94037000D01*
X86283000Y-94017000D01*
X85237000Y-94017000D01*
X85237000Y-94037000D01*
X84983000Y-94037000D01*
X84983000Y-94017000D01*
X83937000Y-94017000D01*
X83937000Y-94037000D01*
X83683000Y-94037000D01*
X83683000Y-94017000D01*
X82637000Y-94017000D01*
X82637000Y-94037000D01*
X82383000Y-94037000D01*
X82383000Y-94017000D01*
X81287000Y-94017000D01*
X81287000Y-94037000D01*
X81033000Y-94037000D01*
X81033000Y-94017000D01*
X79987000Y-94017000D01*
X79987000Y-94037000D01*
X79733000Y-94037000D01*
X79733000Y-94017000D01*
X79008750Y-94017000D01*
X78850000Y-94175750D01*
X78846928Y-94290000D01*
X78859188Y-94414482D01*
X78895498Y-94534180D01*
X78954463Y-94644494D01*
X79033815Y-94741185D01*
X79130506Y-94820537D01*
X79185468Y-94849915D01*
X79178460Y-94863027D01*
X79159578Y-94925270D01*
X79153203Y-94990000D01*
X79153203Y-95790000D01*
X79159578Y-95854730D01*
X79178460Y-95916973D01*
X79209121Y-95974337D01*
X79250384Y-96024616D01*
X79269801Y-96040551D01*
X79269800Y-96640519D01*
X79268460Y-96643027D01*
X79249578Y-96705270D01*
X79243203Y-96770000D01*
X79243203Y-96997042D01*
X79228476Y-96961488D01*
X79159508Y-96858271D01*
X79071729Y-96770492D01*
X78968512Y-96701524D01*
X78853822Y-96654018D01*
X78732069Y-96629800D01*
X78607931Y-96629800D01*
X78486178Y-96654018D01*
X78371488Y-96701524D01*
X78268271Y-96770492D01*
X78180492Y-96858271D01*
X78170000Y-96873973D01*
X78159508Y-96858271D01*
X78071729Y-96770492D01*
X77968512Y-96701524D01*
X77853822Y-96654018D01*
X77732069Y-96629800D01*
X77607931Y-96629800D01*
X77486178Y-96654018D01*
X77371488Y-96701524D01*
X77268271Y-96770492D01*
X77180492Y-96858271D01*
X77111524Y-96961488D01*
X77064018Y-97076178D01*
X77039800Y-97197931D01*
X77039800Y-97322069D01*
X77064018Y-97443822D01*
X77111524Y-97558512D01*
X77180492Y-97661729D01*
X77268271Y-97749508D01*
X77371488Y-97818476D01*
X77486178Y-97865982D01*
X77607931Y-97890200D01*
X77732069Y-97890200D01*
X77853822Y-97865982D01*
X77968512Y-97818476D01*
X78071729Y-97749508D01*
X78159508Y-97661729D01*
X78170000Y-97646027D01*
X78180492Y-97661729D01*
X78268271Y-97749508D01*
X78371488Y-97818476D01*
X78486178Y-97865982D01*
X78607931Y-97890200D01*
X78732069Y-97890200D01*
X78853822Y-97865982D01*
X78968512Y-97818476D01*
X79071729Y-97749508D01*
X79159508Y-97661729D01*
X79228476Y-97558512D01*
X79243203Y-97522958D01*
X79243203Y-97985497D01*
X79201973Y-97963460D01*
X79139730Y-97944578D01*
X79075000Y-97938203D01*
X77075000Y-97938203D01*
X77010270Y-97944578D01*
X76948027Y-97963460D01*
X76890663Y-97994121D01*
X76840384Y-98035384D01*
X76799121Y-98085663D01*
X76768460Y-98143027D01*
X76749578Y-98205270D01*
X76743203Y-98270000D01*
X76743203Y-101119453D01*
X76285011Y-100661262D01*
X76285011Y-98242159D01*
X76287212Y-98219810D01*
X76285011Y-98197461D01*
X76285011Y-98197454D01*
X76278424Y-98130576D01*
X76276815Y-98125270D01*
X76268365Y-98097416D01*
X76252395Y-98044771D01*
X76210127Y-97965692D01*
X76153243Y-97896379D01*
X76135878Y-97882128D01*
X75785089Y-97531340D01*
X75770833Y-97513969D01*
X75701520Y-97457085D01*
X75622441Y-97414817D01*
X75536636Y-97388788D01*
X75469758Y-97382201D01*
X75469750Y-97382201D01*
X75447401Y-97380000D01*
X75425052Y-97382201D01*
X73634947Y-97382201D01*
X73612598Y-97380000D01*
X73590249Y-97382201D01*
X73590242Y-97382201D01*
X73538127Y-97387334D01*
X73523363Y-97388788D01*
X73497334Y-97396684D01*
X73437559Y-97414817D01*
X73358480Y-97457085D01*
X73289167Y-97513969D01*
X73274911Y-97531340D01*
X73166889Y-97639362D01*
X73094180Y-97600498D01*
X72974482Y-97564188D01*
X72850000Y-97551928D01*
X72535750Y-97555000D01*
X72377000Y-97713750D01*
X72377000Y-98513000D01*
X72397000Y-98513000D01*
X72397000Y-98767000D01*
X72377000Y-98767000D01*
X72377000Y-98787000D01*
X72123000Y-98787000D01*
X72123000Y-98767000D01*
X71173750Y-98767000D01*
X71017250Y-98923500D01*
X70881797Y-98788047D01*
X70881797Y-98190000D01*
X71011928Y-98190000D01*
X71015000Y-98354250D01*
X71173750Y-98513000D01*
X72123000Y-98513000D01*
X72123000Y-97713750D01*
X71964250Y-97555000D01*
X71650000Y-97551928D01*
X71525518Y-97564188D01*
X71405820Y-97600498D01*
X71295506Y-97659463D01*
X71198815Y-97738815D01*
X71119463Y-97835506D01*
X71060498Y-97945820D01*
X71024188Y-98065518D01*
X71011928Y-98190000D01*
X70881797Y-98190000D01*
X70875422Y-98125270D01*
X70856540Y-98063027D01*
X70825879Y-98005663D01*
X70784616Y-97955384D01*
X70734337Y-97914121D01*
X70676973Y-97883460D01*
X70614730Y-97864578D01*
X70550000Y-97858203D01*
X69350000Y-97858203D01*
X69285270Y-97864578D01*
X69223027Y-97883460D01*
X69165663Y-97914121D01*
X69115384Y-97955384D01*
X69105200Y-97967793D01*
X69105200Y-93490000D01*
X78846928Y-93490000D01*
X78850000Y-93604250D01*
X79008750Y-93763000D01*
X79733000Y-93763000D01*
X79733000Y-93013750D01*
X79987000Y-93013750D01*
X79987000Y-93763000D01*
X81033000Y-93763000D01*
X81033000Y-93013750D01*
X81287000Y-93013750D01*
X81287000Y-93763000D01*
X82383000Y-93763000D01*
X82383000Y-93013750D01*
X82224250Y-92855000D01*
X82135000Y-92851928D01*
X82010518Y-92864188D01*
X81890820Y-92900498D01*
X81835000Y-92930335D01*
X81779180Y-92900498D01*
X81659482Y-92864188D01*
X81535000Y-92851928D01*
X81445750Y-92855000D01*
X81287000Y-93013750D01*
X81033000Y-93013750D01*
X80874250Y-92855000D01*
X80785000Y-92851928D01*
X80660518Y-92864188D01*
X80540820Y-92900498D01*
X80510000Y-92916972D01*
X80479180Y-92900498D01*
X80359482Y-92864188D01*
X80235000Y-92851928D01*
X80145750Y-92855000D01*
X79987000Y-93013750D01*
X79733000Y-93013750D01*
X79574250Y-92855000D01*
X79485000Y-92851928D01*
X79360518Y-92864188D01*
X79240820Y-92900498D01*
X79130506Y-92959463D01*
X79033815Y-93038815D01*
X78954463Y-93135506D01*
X78895498Y-93245820D01*
X78859188Y-93365518D01*
X78846928Y-93490000D01*
X69105200Y-93490000D01*
X69105200Y-86213716D01*
X69160270Y-86230422D01*
X69225000Y-86236797D01*
X70575000Y-86236797D01*
X70639730Y-86230422D01*
X70701973Y-86211540D01*
X70759337Y-86180879D01*
X70809616Y-86139616D01*
X70850879Y-86089337D01*
X70881540Y-86031973D01*
X70900422Y-85969730D01*
X70906797Y-85905000D01*
X70906797Y-85401184D01*
X70909345Y-85427054D01*
X70966823Y-85616534D01*
X71060163Y-85791161D01*
X71185778Y-85944222D01*
X71338840Y-86069837D01*
X71513467Y-86163177D01*
X71702947Y-86220655D01*
X71900000Y-86240063D01*
X72097054Y-86220655D01*
X72286534Y-86163177D01*
X72461161Y-86069837D01*
X72614222Y-85944222D01*
X72739837Y-85791161D01*
X72825043Y-85631750D01*
X76425000Y-85631750D01*
X76437594Y-85740524D01*
X76476968Y-85859249D01*
X76538748Y-85968012D01*
X76620559Y-86062631D01*
X76719258Y-86139473D01*
X76831051Y-86195582D01*
X76951643Y-86228804D01*
X77074250Y-86235000D01*
X77233000Y-86076250D01*
X77233000Y-85473000D01*
X76583750Y-85473000D01*
X76425000Y-85631750D01*
X72825043Y-85631750D01*
X72833177Y-85616534D01*
X72890655Y-85427053D01*
X72905200Y-85279374D01*
X72905200Y-85030625D01*
X72890655Y-84882946D01*
X72833177Y-84693466D01*
X72739837Y-84518839D01*
X72647465Y-84406284D01*
X73021999Y-84031750D01*
X74625000Y-84031750D01*
X74637594Y-84140524D01*
X74676968Y-84259249D01*
X74738748Y-84368012D01*
X74820559Y-84462631D01*
X74919258Y-84539473D01*
X75031051Y-84595582D01*
X75151643Y-84628804D01*
X75274250Y-84635000D01*
X75433000Y-84476250D01*
X75433000Y-83873000D01*
X74783750Y-83873000D01*
X74625000Y-84031750D01*
X73021999Y-84031750D01*
X73366953Y-83686797D01*
X74360000Y-83686797D01*
X74424730Y-83680422D01*
X74486973Y-83661540D01*
X74544337Y-83630879D01*
X74594616Y-83589616D01*
X74627111Y-83550021D01*
X74625000Y-83568250D01*
G04 #@! TA.AperFunction,Conductor*
D58*
G36*
X74625000Y-83568250D02*
G01*
X74783750Y-83727000D01*
X75433000Y-83727000D01*
X75433000Y-83653000D01*
X75687000Y-83653000D01*
X75687000Y-83727000D01*
X75707000Y-83727000D01*
X75707000Y-83873000D01*
X75687000Y-83873000D01*
X75687000Y-84476250D01*
X75845750Y-84635000D01*
X75923287Y-84631082D01*
X75970492Y-84701729D01*
X76058271Y-84789508D01*
X76161488Y-84858476D01*
X76276178Y-84905982D01*
X76397931Y-84930200D01*
X76482961Y-84930200D01*
X76476968Y-84940751D01*
X76437594Y-85059476D01*
X76425000Y-85168250D01*
X76583750Y-85327000D01*
X77233000Y-85327000D01*
X77233000Y-85253000D01*
X77487000Y-85253000D01*
X77487000Y-85327000D01*
X77507000Y-85327000D01*
X77507000Y-85473000D01*
X77487000Y-85473000D01*
X77487000Y-86076250D01*
X77645750Y-86235000D01*
X77731146Y-86230684D01*
X77704018Y-86296178D01*
X77681836Y-86407697D01*
X77679775Y-86405636D01*
X77576558Y-86336668D01*
X77461868Y-86289162D01*
X77340115Y-86264944D01*
X77215977Y-86264944D01*
X77094224Y-86289162D01*
X76979534Y-86336668D01*
X76876317Y-86405636D01*
X76788538Y-86493415D01*
X76719570Y-86596632D01*
X76672064Y-86711322D01*
X76647846Y-86833075D01*
X76647846Y-86957213D01*
X76672064Y-87078966D01*
X76719570Y-87193656D01*
X76788538Y-87296873D01*
X76876317Y-87384652D01*
X76979534Y-87453620D01*
X77094224Y-87501126D01*
X77215977Y-87525344D01*
X77278325Y-87525344D01*
X77244296Y-87576271D01*
X77196790Y-87690961D01*
X77172572Y-87812714D01*
X77172572Y-87936852D01*
X77196790Y-88058605D01*
X77244296Y-88173295D01*
X77313264Y-88276512D01*
X77401043Y-88364291D01*
X77504260Y-88433259D01*
X77618950Y-88480765D01*
X77740703Y-88504983D01*
X77864841Y-88504983D01*
X77977534Y-88482567D01*
X77977534Y-88546363D01*
X78001752Y-88668116D01*
X78049258Y-88782806D01*
X78118226Y-88886023D01*
X78206005Y-88973802D01*
X78309222Y-89042770D01*
X78423912Y-89090276D01*
X78545665Y-89114494D01*
X78669803Y-89114494D01*
X78791556Y-89090276D01*
X78906246Y-89042770D01*
X78994563Y-88983758D01*
X79061488Y-89028476D01*
X79176178Y-89075982D01*
X79297931Y-89100200D01*
X79397301Y-89100200D01*
X79385000Y-89203250D01*
X79464748Y-89282998D01*
X79385000Y-89282998D01*
X79385000Y-89308400D01*
X79352954Y-89308400D01*
X79231201Y-89332618D01*
X79116511Y-89380124D01*
X79038822Y-89432035D01*
X78961132Y-89380124D01*
X78846442Y-89332618D01*
X78724689Y-89308400D01*
X78600551Y-89308400D01*
X78478798Y-89332618D01*
X78364108Y-89380124D01*
X78260891Y-89449092D01*
X78173112Y-89536871D01*
X78104144Y-89640088D01*
X78056638Y-89754778D01*
X78032420Y-89876531D01*
X78032420Y-90000669D01*
X78056638Y-90122422D01*
X78104144Y-90237112D01*
X78173112Y-90340329D01*
X78260891Y-90428108D01*
X78364108Y-90497076D01*
X78478798Y-90544582D01*
X78600551Y-90568800D01*
X78718084Y-90568800D01*
X78768881Y-90619597D01*
X78717903Y-90653659D01*
X78630124Y-90741438D01*
X78561156Y-90844655D01*
X78513650Y-90959345D01*
X78489432Y-91081098D01*
X78489432Y-91198631D01*
X78363064Y-91324999D01*
X71822799Y-91324999D01*
X71822799Y-91290322D01*
X71798581Y-91168569D01*
X71751075Y-91053879D01*
X71682107Y-90950662D01*
X71594328Y-90862883D01*
X71491111Y-90793915D01*
X71376421Y-90746409D01*
X71254668Y-90722191D01*
X71130530Y-90722191D01*
X71008777Y-90746409D01*
X70894087Y-90793915D01*
X70790870Y-90862883D01*
X70703091Y-90950662D01*
X70634123Y-91053879D01*
X70586617Y-91168569D01*
X70562399Y-91290322D01*
X70562399Y-91414460D01*
X70586617Y-91536213D01*
X70634123Y-91650903D01*
X70703091Y-91754120D01*
X70790870Y-91841899D01*
X70894087Y-91910867D01*
X71008777Y-91958373D01*
X71130530Y-91982591D01*
X71248063Y-91982591D01*
X71270125Y-92004653D01*
X71282849Y-92020157D01*
X71344731Y-92070943D01*
X71415332Y-92108680D01*
X71458350Y-92121729D01*
X71491938Y-92131918D01*
X71499942Y-92132706D01*
X71551647Y-92137799D01*
X71551653Y-92137799D01*
X71571606Y-92139764D01*
X71591559Y-92137799D01*
X78511447Y-92137799D01*
X78531400Y-92139764D01*
X78551353Y-92137799D01*
X78551360Y-92137799D01*
X78611068Y-92131918D01*
X78687675Y-92108680D01*
X78758276Y-92070943D01*
X78820158Y-92020157D01*
X78832882Y-92004653D01*
X79064168Y-91773367D01*
X79181701Y-91773367D01*
X79274999Y-91754809D01*
X79274999Y-91771178D01*
X79273034Y-91791131D01*
X79274999Y-91811084D01*
X79274999Y-91811091D01*
X79280880Y-91870799D01*
X79304118Y-91947406D01*
X79341856Y-92018007D01*
X79348470Y-92026066D01*
X79379917Y-92064385D01*
X79379923Y-92064391D01*
X79392642Y-92079889D01*
X79408140Y-92092608D01*
X79935050Y-92619519D01*
X79947770Y-92635018D01*
X79963268Y-92647737D01*
X79963273Y-92647742D01*
X79984274Y-92664977D01*
X80009652Y-92685804D01*
X80063290Y-92714474D01*
X80080253Y-92723541D01*
X80156859Y-92746779D01*
X80164132Y-92747495D01*
X80216568Y-92752660D01*
X80216575Y-92752660D01*
X80236528Y-92754625D01*
X80256481Y-92752660D01*
X81146071Y-92752660D01*
X81166024Y-92754625D01*
X81185977Y-92752660D01*
X81185984Y-92752660D01*
X81245692Y-92746779D01*
X81322299Y-92723541D01*
X81392900Y-92685804D01*
X81454782Y-92635018D01*
X81467506Y-92619514D01*
X82005760Y-92081260D01*
X82021258Y-92068542D01*
X82033977Y-92053044D01*
X82033982Y-92053039D01*
X82055425Y-92026910D01*
X82072044Y-92006660D01*
X82109781Y-91936059D01*
X82117542Y-91910473D01*
X82133019Y-91859453D01*
X82133999Y-91849498D01*
X82138900Y-91799744D01*
X82138900Y-91799738D01*
X82140865Y-91779785D01*
X82138900Y-91759832D01*
X82138900Y-91332514D01*
X82154616Y-91319616D01*
X82195879Y-91269337D01*
X82223299Y-91218036D01*
X82607989Y-91602726D01*
X82620709Y-91618225D01*
X82636207Y-91630944D01*
X82636212Y-91630949D01*
X82651065Y-91643138D01*
X82682591Y-91669011D01*
X82747583Y-91703750D01*
X82753192Y-91706748D01*
X82829798Y-91729986D01*
X82837071Y-91730702D01*
X82889507Y-91735867D01*
X82889514Y-91735867D01*
X82909467Y-91737832D01*
X82917439Y-91737047D01*
X83031831Y-91851439D01*
X82818412Y-91886550D01*
X82727542Y-92090826D01*
X82678269Y-92308905D01*
X82672489Y-92532406D01*
X82710423Y-92752740D01*
X82762493Y-92888257D01*
X82637000Y-93013750D01*
X82637000Y-93763000D01*
X83683000Y-93763000D01*
X83683000Y-93743000D01*
X83937000Y-93743000D01*
X83937000Y-93763000D01*
X84983000Y-93763000D01*
X84983000Y-93013750D01*
X84857349Y-92888099D01*
X84892458Y-92809174D01*
X84941731Y-92591095D01*
X84946160Y-92419831D01*
X85388540Y-92862210D01*
X85237000Y-93013750D01*
X85237000Y-93763000D01*
X86283000Y-93763000D01*
X86283000Y-93743000D01*
X86537000Y-93743000D01*
X86537000Y-93763000D01*
X87583000Y-93763000D01*
X87583000Y-93743000D01*
X87837000Y-93743000D01*
X87837000Y-93763000D01*
X87857000Y-93763000D01*
X87857000Y-94017000D01*
X87837000Y-94017000D01*
X87837000Y-94037000D01*
X87583000Y-94037000D01*
X87583000Y-94017000D01*
X86537000Y-94017000D01*
X86537000Y-94037000D01*
X86283000Y-94037000D01*
X86283000Y-94017000D01*
X85237000Y-94017000D01*
X85237000Y-94037000D01*
X84983000Y-94037000D01*
X84983000Y-94017000D01*
X83937000Y-94017000D01*
X83937000Y-94037000D01*
X83683000Y-94037000D01*
X83683000Y-94017000D01*
X82637000Y-94017000D01*
X82637000Y-94037000D01*
X82383000Y-94037000D01*
X82383000Y-94017000D01*
X81287000Y-94017000D01*
X81287000Y-94037000D01*
X81033000Y-94037000D01*
X81033000Y-94017000D01*
X79987000Y-94017000D01*
X79987000Y-94037000D01*
X79733000Y-94037000D01*
X79733000Y-94017000D01*
X79008750Y-94017000D01*
X78850000Y-94175750D01*
X78846928Y-94290000D01*
X78859188Y-94414482D01*
X78895498Y-94534180D01*
X78954463Y-94644494D01*
X79033815Y-94741185D01*
X79130506Y-94820537D01*
X79185468Y-94849915D01*
X79178460Y-94863027D01*
X79159578Y-94925270D01*
X79153203Y-94990000D01*
X79153203Y-95790000D01*
X79159578Y-95854730D01*
X79178460Y-95916973D01*
X79209121Y-95974337D01*
X79250384Y-96024616D01*
X79269801Y-96040551D01*
X79269800Y-96640519D01*
X79268460Y-96643027D01*
X79249578Y-96705270D01*
X79243203Y-96770000D01*
X79243203Y-96997042D01*
X79228476Y-96961488D01*
X79159508Y-96858271D01*
X79071729Y-96770492D01*
X78968512Y-96701524D01*
X78853822Y-96654018D01*
X78732069Y-96629800D01*
X78607931Y-96629800D01*
X78486178Y-96654018D01*
X78371488Y-96701524D01*
X78268271Y-96770492D01*
X78180492Y-96858271D01*
X78170000Y-96873973D01*
X78159508Y-96858271D01*
X78071729Y-96770492D01*
X77968512Y-96701524D01*
X77853822Y-96654018D01*
X77732069Y-96629800D01*
X77607931Y-96629800D01*
X77486178Y-96654018D01*
X77371488Y-96701524D01*
X77268271Y-96770492D01*
X77180492Y-96858271D01*
X77111524Y-96961488D01*
X77064018Y-97076178D01*
X77039800Y-97197931D01*
X77039800Y-97322069D01*
X77064018Y-97443822D01*
X77111524Y-97558512D01*
X77180492Y-97661729D01*
X77268271Y-97749508D01*
X77371488Y-97818476D01*
X77486178Y-97865982D01*
X77607931Y-97890200D01*
X77732069Y-97890200D01*
X77853822Y-97865982D01*
X77968512Y-97818476D01*
X78071729Y-97749508D01*
X78159508Y-97661729D01*
X78170000Y-97646027D01*
X78180492Y-97661729D01*
X78268271Y-97749508D01*
X78371488Y-97818476D01*
X78486178Y-97865982D01*
X78607931Y-97890200D01*
X78732069Y-97890200D01*
X78853822Y-97865982D01*
X78968512Y-97818476D01*
X79071729Y-97749508D01*
X79159508Y-97661729D01*
X79228476Y-97558512D01*
X79243203Y-97522958D01*
X79243203Y-97985497D01*
X79201973Y-97963460D01*
X79139730Y-97944578D01*
X79075000Y-97938203D01*
X77075000Y-97938203D01*
X77010270Y-97944578D01*
X76948027Y-97963460D01*
X76890663Y-97994121D01*
X76840384Y-98035384D01*
X76799121Y-98085663D01*
X76768460Y-98143027D01*
X76749578Y-98205270D01*
X76743203Y-98270000D01*
X76743203Y-101119453D01*
X76285011Y-100661262D01*
X76285011Y-98242159D01*
X76287212Y-98219810D01*
X76285011Y-98197461D01*
X76285011Y-98197454D01*
X76278424Y-98130576D01*
X76276815Y-98125270D01*
X76268365Y-98097416D01*
X76252395Y-98044771D01*
X76210127Y-97965692D01*
X76153243Y-97896379D01*
X76135878Y-97882128D01*
X75785089Y-97531340D01*
X75770833Y-97513969D01*
X75701520Y-97457085D01*
X75622441Y-97414817D01*
X75536636Y-97388788D01*
X75469758Y-97382201D01*
X75469750Y-97382201D01*
X75447401Y-97380000D01*
X75425052Y-97382201D01*
X73634947Y-97382201D01*
X73612598Y-97380000D01*
X73590249Y-97382201D01*
X73590242Y-97382201D01*
X73538127Y-97387334D01*
X73523363Y-97388788D01*
X73497334Y-97396684D01*
X73437559Y-97414817D01*
X73358480Y-97457085D01*
X73289167Y-97513969D01*
X73274911Y-97531340D01*
X73166889Y-97639362D01*
X73094180Y-97600498D01*
X72974482Y-97564188D01*
X72850000Y-97551928D01*
X72535750Y-97555000D01*
X72377000Y-97713750D01*
X72377000Y-98513000D01*
X72397000Y-98513000D01*
X72397000Y-98767000D01*
X72377000Y-98767000D01*
X72377000Y-98787000D01*
X72123000Y-98787000D01*
X72123000Y-98767000D01*
X71173750Y-98767000D01*
X71017250Y-98923500D01*
X70881797Y-98788047D01*
X70881797Y-98190000D01*
X71011928Y-98190000D01*
X71015000Y-98354250D01*
X71173750Y-98513000D01*
X72123000Y-98513000D01*
X72123000Y-97713750D01*
X71964250Y-97555000D01*
X71650000Y-97551928D01*
X71525518Y-97564188D01*
X71405820Y-97600498D01*
X71295506Y-97659463D01*
X71198815Y-97738815D01*
X71119463Y-97835506D01*
X71060498Y-97945820D01*
X71024188Y-98065518D01*
X71011928Y-98190000D01*
X70881797Y-98190000D01*
X70875422Y-98125270D01*
X70856540Y-98063027D01*
X70825879Y-98005663D01*
X70784616Y-97955384D01*
X70734337Y-97914121D01*
X70676973Y-97883460D01*
X70614730Y-97864578D01*
X70550000Y-97858203D01*
X69350000Y-97858203D01*
X69285270Y-97864578D01*
X69223027Y-97883460D01*
X69165663Y-97914121D01*
X69115384Y-97955384D01*
X69105200Y-97967793D01*
X69105200Y-93490000D01*
X78846928Y-93490000D01*
X78850000Y-93604250D01*
X79008750Y-93763000D01*
X79733000Y-93763000D01*
X79733000Y-93013750D01*
X79987000Y-93013750D01*
X79987000Y-93763000D01*
X81033000Y-93763000D01*
X81033000Y-93013750D01*
X81287000Y-93013750D01*
X81287000Y-93763000D01*
X82383000Y-93763000D01*
X82383000Y-93013750D01*
X82224250Y-92855000D01*
X82135000Y-92851928D01*
X82010518Y-92864188D01*
X81890820Y-92900498D01*
X81835000Y-92930335D01*
X81779180Y-92900498D01*
X81659482Y-92864188D01*
X81535000Y-92851928D01*
X81445750Y-92855000D01*
X81287000Y-93013750D01*
X81033000Y-93013750D01*
X80874250Y-92855000D01*
X80785000Y-92851928D01*
X80660518Y-92864188D01*
X80540820Y-92900498D01*
X80510000Y-92916972D01*
X80479180Y-92900498D01*
X80359482Y-92864188D01*
X80235000Y-92851928D01*
X80145750Y-92855000D01*
X79987000Y-93013750D01*
X79733000Y-93013750D01*
X79574250Y-92855000D01*
X79485000Y-92851928D01*
X79360518Y-92864188D01*
X79240820Y-92900498D01*
X79130506Y-92959463D01*
X79033815Y-93038815D01*
X78954463Y-93135506D01*
X78895498Y-93245820D01*
X78859188Y-93365518D01*
X78846928Y-93490000D01*
X69105200Y-93490000D01*
X69105200Y-86213716D01*
X69160270Y-86230422D01*
X69225000Y-86236797D01*
X70575000Y-86236797D01*
X70639730Y-86230422D01*
X70701973Y-86211540D01*
X70759337Y-86180879D01*
X70809616Y-86139616D01*
X70850879Y-86089337D01*
X70881540Y-86031973D01*
X70900422Y-85969730D01*
X70906797Y-85905000D01*
X70906797Y-85401184D01*
X70909345Y-85427054D01*
X70966823Y-85616534D01*
X71060163Y-85791161D01*
X71185778Y-85944222D01*
X71338840Y-86069837D01*
X71513467Y-86163177D01*
X71702947Y-86220655D01*
X71900000Y-86240063D01*
X72097054Y-86220655D01*
X72286534Y-86163177D01*
X72461161Y-86069837D01*
X72614222Y-85944222D01*
X72739837Y-85791161D01*
X72825043Y-85631750D01*
X76425000Y-85631750D01*
X76437594Y-85740524D01*
X76476968Y-85859249D01*
X76538748Y-85968012D01*
X76620559Y-86062631D01*
X76719258Y-86139473D01*
X76831051Y-86195582D01*
X76951643Y-86228804D01*
X77074250Y-86235000D01*
X77233000Y-86076250D01*
X77233000Y-85473000D01*
X76583750Y-85473000D01*
X76425000Y-85631750D01*
X72825043Y-85631750D01*
X72833177Y-85616534D01*
X72890655Y-85427053D01*
X72905200Y-85279374D01*
X72905200Y-85030625D01*
X72890655Y-84882946D01*
X72833177Y-84693466D01*
X72739837Y-84518839D01*
X72647465Y-84406284D01*
X73021999Y-84031750D01*
X74625000Y-84031750D01*
X74637594Y-84140524D01*
X74676968Y-84259249D01*
X74738748Y-84368012D01*
X74820559Y-84462631D01*
X74919258Y-84539473D01*
X75031051Y-84595582D01*
X75151643Y-84628804D01*
X75274250Y-84635000D01*
X75433000Y-84476250D01*
X75433000Y-83873000D01*
X74783750Y-83873000D01*
X74625000Y-84031750D01*
X73021999Y-84031750D01*
X73366953Y-83686797D01*
X74360000Y-83686797D01*
X74424730Y-83680422D01*
X74486973Y-83661540D01*
X74544337Y-83630879D01*
X74594616Y-83589616D01*
X74627111Y-83550021D01*
X74625000Y-83568250D01*
G37*
G04 #@! TD.AperFunction*
D57*
X102094800Y-100441284D02*
X102039730Y-100424578D01*
X101975000Y-100418203D01*
X101325000Y-100418203D01*
X101260270Y-100424578D01*
X101198027Y-100443460D01*
X101140663Y-100474121D01*
X101137022Y-100477109D01*
X101122584Y-100429514D01*
X101080316Y-100350435D01*
X101037683Y-100298487D01*
X101023432Y-100281122D01*
X101006066Y-100266870D01*
X100827002Y-100087806D01*
X100827002Y-100086252D01*
X100985750Y-100245000D01*
X101025000Y-100248072D01*
X101149482Y-100235812D01*
X101269180Y-100199502D01*
X101379494Y-100140537D01*
X101476185Y-100061185D01*
X101555537Y-99964494D01*
X101567669Y-99941797D01*
X101975000Y-99941797D01*
X102039730Y-99935422D01*
X102094800Y-99918716D01*
X102094800Y-100441284D01*
G04 #@! TA.AperFunction,Conductor*
D58*
G36*
X102094800Y-100441284D02*
G01*
X102039730Y-100424578D01*
X101975000Y-100418203D01*
X101325000Y-100418203D01*
X101260270Y-100424578D01*
X101198027Y-100443460D01*
X101140663Y-100474121D01*
X101137022Y-100477109D01*
X101122584Y-100429514D01*
X101080316Y-100350435D01*
X101037683Y-100298487D01*
X101023432Y-100281122D01*
X101006066Y-100266870D01*
X100827002Y-100087806D01*
X100827002Y-100086252D01*
X100985750Y-100245000D01*
X101025000Y-100248072D01*
X101149482Y-100235812D01*
X101269180Y-100199502D01*
X101379494Y-100140537D01*
X101476185Y-100061185D01*
X101555537Y-99964494D01*
X101567669Y-99941797D01*
X101975000Y-99941797D01*
X102039730Y-99935422D01*
X102094800Y-99918716D01*
X102094800Y-100441284D01*
G37*
G04 #@! TD.AperFunction*
D57*
X100827000Y-98953000D02*
X100847000Y-98953000D01*
X100847000Y-99207000D01*
X100827000Y-99207000D01*
X100827000Y-99227000D01*
X100573000Y-99227000D01*
X100573000Y-99207000D01*
X100553000Y-99207000D01*
X100553000Y-98953000D01*
X100573000Y-98953000D01*
X100573000Y-98933000D01*
X100827000Y-98933000D01*
X100827000Y-98953000D01*
G04 #@! TA.AperFunction,Conductor*
D58*
G36*
X100827000Y-98953000D02*
G01*
X100847000Y-98953000D01*
X100847000Y-99207000D01*
X100827000Y-99207000D01*
X100827000Y-99227000D01*
X100573000Y-99227000D01*
X100573000Y-99207000D01*
X100553000Y-99207000D01*
X100553000Y-98953000D01*
X100573000Y-98953000D01*
X100573000Y-98933000D01*
X100827000Y-98933000D01*
X100827000Y-98953000D01*
G37*
G04 #@! TD.AperFunction*
D57*
X97490663Y-95455879D02*
X97548027Y-95486540D01*
X97610270Y-95505422D01*
X97675000Y-95511797D01*
X97733636Y-95511797D01*
X97677261Y-95580490D01*
X97602493Y-95720372D01*
X97556451Y-95872153D01*
X97544800Y-95990444D01*
X97544800Y-96369555D01*
X97556451Y-96487846D01*
X97602493Y-96639627D01*
X97677261Y-96779509D01*
X97777883Y-96902117D01*
X97900490Y-97002739D01*
X98040372Y-97077507D01*
X98192153Y-97123549D01*
X98350000Y-97139096D01*
X98507846Y-97123549D01*
X98574801Y-97103239D01*
X98574801Y-98078203D01*
X98313963Y-98078203D01*
X98309473Y-98069258D01*
X98232631Y-97970559D01*
X98138012Y-97888748D01*
X98029249Y-97826968D01*
X97910524Y-97787594D01*
X97801750Y-97775000D01*
X97643000Y-97933750D01*
X97643000Y-98583000D01*
X97717000Y-98583000D01*
X97717000Y-98837000D01*
X97643000Y-98837000D01*
X97643000Y-98857000D01*
X97497000Y-98857000D01*
X97497000Y-98837000D01*
X97423000Y-98837000D01*
X97423000Y-98583000D01*
X97497000Y-98583000D01*
X97497000Y-97933750D01*
X97338250Y-97775000D01*
X97328679Y-97776108D01*
X97371283Y-97733504D01*
X97440251Y-97630287D01*
X97487757Y-97515597D01*
X97511975Y-97393844D01*
X97511975Y-97269706D01*
X97487757Y-97147953D01*
X97440251Y-97033263D01*
X97371283Y-96930046D01*
X97283504Y-96842267D01*
X97180287Y-96773299D01*
X97065597Y-96725793D01*
X96943844Y-96701575D01*
X96819706Y-96701575D01*
X96697953Y-96725793D01*
X96583263Y-96773299D01*
X96480046Y-96842267D01*
X96392267Y-96930046D01*
X96323299Y-97033263D01*
X96275793Y-97147953D01*
X96251575Y-97269706D01*
X96251575Y-97393844D01*
X96275793Y-97515597D01*
X96323299Y-97630287D01*
X96368679Y-97698203D01*
X95955200Y-97698203D01*
X95955200Y-96942348D01*
X95957401Y-96919999D01*
X95955200Y-96897650D01*
X95955200Y-96897643D01*
X95948613Y-96830765D01*
X95944687Y-96817824D01*
X96009693Y-96817824D01*
X96131446Y-96793606D01*
X96246136Y-96746100D01*
X96349353Y-96677132D01*
X96437132Y-96589353D01*
X96506100Y-96486136D01*
X96553606Y-96371446D01*
X96577824Y-96249693D01*
X96577824Y-96125555D01*
X96553606Y-96003802D01*
X96536207Y-95961797D01*
X96570000Y-95961797D01*
X96634730Y-95955422D01*
X96696973Y-95936540D01*
X96754337Y-95905879D01*
X96804616Y-95864616D01*
X96845879Y-95814337D01*
X96876540Y-95756973D01*
X96895422Y-95694730D01*
X96901797Y-95630000D01*
X96901797Y-95435200D01*
X97465466Y-95435200D01*
X97490663Y-95455879D01*
G04 #@! TA.AperFunction,Conductor*
D58*
G36*
X97490663Y-95455879D02*
G01*
X97548027Y-95486540D01*
X97610270Y-95505422D01*
X97675000Y-95511797D01*
X97733636Y-95511797D01*
X97677261Y-95580490D01*
X97602493Y-95720372D01*
X97556451Y-95872153D01*
X97544800Y-95990444D01*
X97544800Y-96369555D01*
X97556451Y-96487846D01*
X97602493Y-96639627D01*
X97677261Y-96779509D01*
X97777883Y-96902117D01*
X97900490Y-97002739D01*
X98040372Y-97077507D01*
X98192153Y-97123549D01*
X98350000Y-97139096D01*
X98507846Y-97123549D01*
X98574801Y-97103239D01*
X98574801Y-98078203D01*
X98313963Y-98078203D01*
X98309473Y-98069258D01*
X98232631Y-97970559D01*
X98138012Y-97888748D01*
X98029249Y-97826968D01*
X97910524Y-97787594D01*
X97801750Y-97775000D01*
X97643000Y-97933750D01*
X97643000Y-98583000D01*
X97717000Y-98583000D01*
X97717000Y-98837000D01*
X97643000Y-98837000D01*
X97643000Y-98857000D01*
X97497000Y-98857000D01*
X97497000Y-98837000D01*
X97423000Y-98837000D01*
X97423000Y-98583000D01*
X97497000Y-98583000D01*
X97497000Y-97933750D01*
X97338250Y-97775000D01*
X97328679Y-97776108D01*
X97371283Y-97733504D01*
X97440251Y-97630287D01*
X97487757Y-97515597D01*
X97511975Y-97393844D01*
X97511975Y-97269706D01*
X97487757Y-97147953D01*
X97440251Y-97033263D01*
X97371283Y-96930046D01*
X97283504Y-96842267D01*
X97180287Y-96773299D01*
X97065597Y-96725793D01*
X96943844Y-96701575D01*
X96819706Y-96701575D01*
X96697953Y-96725793D01*
X96583263Y-96773299D01*
X96480046Y-96842267D01*
X96392267Y-96930046D01*
X96323299Y-97033263D01*
X96275793Y-97147953D01*
X96251575Y-97269706D01*
X96251575Y-97393844D01*
X96275793Y-97515597D01*
X96323299Y-97630287D01*
X96368679Y-97698203D01*
X95955200Y-97698203D01*
X95955200Y-96942348D01*
X95957401Y-96919999D01*
X95955200Y-96897650D01*
X95955200Y-96897643D01*
X95948613Y-96830765D01*
X95944687Y-96817824D01*
X96009693Y-96817824D01*
X96131446Y-96793606D01*
X96246136Y-96746100D01*
X96349353Y-96677132D01*
X96437132Y-96589353D01*
X96506100Y-96486136D01*
X96553606Y-96371446D01*
X96577824Y-96249693D01*
X96577824Y-96125555D01*
X96553606Y-96003802D01*
X96536207Y-95961797D01*
X96570000Y-95961797D01*
X96634730Y-95955422D01*
X96696973Y-95936540D01*
X96754337Y-95905879D01*
X96804616Y-95864616D01*
X96845879Y-95814337D01*
X96876540Y-95756973D01*
X96895422Y-95694730D01*
X96901797Y-95630000D01*
X96901797Y-95435200D01*
X97465466Y-95435200D01*
X97490663Y-95455879D01*
G37*
G04 #@! TD.AperFunction*
D57*
X87743203Y-97567000D02*
X87706797Y-97567000D01*
X87706797Y-97273000D01*
X87743203Y-97273000D01*
X87743203Y-97567000D01*
G04 #@! TA.AperFunction,Conductor*
D58*
G36*
X87743203Y-97567000D02*
G01*
X87706797Y-97567000D01*
X87706797Y-97273000D01*
X87743203Y-97273000D01*
X87743203Y-97567000D01*
G37*
G04 #@! TD.AperFunction*
D57*
X98477000Y-92307000D02*
X99501250Y-92307000D01*
X99559528Y-92248722D01*
X101289981Y-93979177D01*
X101289980Y-95466270D01*
X101011451Y-95744800D01*
X100441441Y-95744800D01*
X100419092Y-95742599D01*
X100396743Y-95744800D01*
X100396736Y-95744800D01*
X100329858Y-95751387D01*
X100244053Y-95777416D01*
X100164974Y-95819684D01*
X100095661Y-95876568D01*
X100081409Y-95893934D01*
X99935200Y-96040143D01*
X99935200Y-95426037D01*
X99969508Y-95391729D01*
X100038476Y-95288512D01*
X100085982Y-95173822D01*
X100110200Y-95052069D01*
X100110200Y-94927931D01*
X100085982Y-94806178D01*
X100038476Y-94691488D01*
X99969508Y-94588271D01*
X99881729Y-94500492D01*
X99778512Y-94431524D01*
X99663822Y-94384018D01*
X99542069Y-94359800D01*
X99417931Y-94359800D01*
X99356797Y-94371960D01*
X99356797Y-94130000D01*
X99350422Y-94065270D01*
X99332139Y-94005000D01*
X99350422Y-93944730D01*
X99356797Y-93880000D01*
X99356797Y-93480000D01*
X99350422Y-93415270D01*
X99332139Y-93355000D01*
X99350422Y-93294730D01*
X99356797Y-93230000D01*
X99356797Y-93123423D01*
X99370964Y-93116139D01*
X99468912Y-93038343D01*
X99549800Y-92942933D01*
X99610521Y-92833576D01*
X99648741Y-92714474D01*
X99660000Y-92611750D01*
X99501250Y-92453000D01*
X98477000Y-92453000D01*
X98477000Y-92498203D01*
X98223000Y-92498203D01*
X98223000Y-92453000D01*
X98203000Y-92453000D01*
X98203000Y-92307000D01*
X98223000Y-92307000D01*
X98223000Y-92233000D01*
X98477000Y-92233000D01*
X98477000Y-92307000D01*
G04 #@! TA.AperFunction,Conductor*
D58*
G36*
X98477000Y-92307000D02*
G01*
X99501250Y-92307000D01*
X99559528Y-92248722D01*
X101289981Y-93979177D01*
X101289980Y-95466270D01*
X101011451Y-95744800D01*
X100441441Y-95744800D01*
X100419092Y-95742599D01*
X100396743Y-95744800D01*
X100396736Y-95744800D01*
X100329858Y-95751387D01*
X100244053Y-95777416D01*
X100164974Y-95819684D01*
X100095661Y-95876568D01*
X100081409Y-95893934D01*
X99935200Y-96040143D01*
X99935200Y-95426037D01*
X99969508Y-95391729D01*
X100038476Y-95288512D01*
X100085982Y-95173822D01*
X100110200Y-95052069D01*
X100110200Y-94927931D01*
X100085982Y-94806178D01*
X100038476Y-94691488D01*
X99969508Y-94588271D01*
X99881729Y-94500492D01*
X99778512Y-94431524D01*
X99663822Y-94384018D01*
X99542069Y-94359800D01*
X99417931Y-94359800D01*
X99356797Y-94371960D01*
X99356797Y-94130000D01*
X99350422Y-94065270D01*
X99332139Y-94005000D01*
X99350422Y-93944730D01*
X99356797Y-93880000D01*
X99356797Y-93480000D01*
X99350422Y-93415270D01*
X99332139Y-93355000D01*
X99350422Y-93294730D01*
X99356797Y-93230000D01*
X99356797Y-93123423D01*
X99370964Y-93116139D01*
X99468912Y-93038343D01*
X99549800Y-92942933D01*
X99610521Y-92833576D01*
X99648741Y-92714474D01*
X99660000Y-92611750D01*
X99501250Y-92453000D01*
X98477000Y-92453000D01*
X98477000Y-92498203D01*
X98223000Y-92498203D01*
X98223000Y-92453000D01*
X98203000Y-92453000D01*
X98203000Y-92307000D01*
X98223000Y-92307000D01*
X98223000Y-92233000D01*
X98477000Y-92233000D01*
X98477000Y-92307000D01*
G37*
G04 #@! TD.AperFunction*
D57*
X93487000Y-95003000D02*
X93507000Y-95003000D01*
X93507000Y-95257000D01*
X93487000Y-95257000D01*
X93487000Y-95277000D01*
X93233000Y-95277000D01*
X93233000Y-95257000D01*
X93213000Y-95257000D01*
X93213000Y-95003000D01*
X93233000Y-95003000D01*
X93233000Y-94983000D01*
X93487000Y-94983000D01*
X93487000Y-95003000D01*
G04 #@! TA.AperFunction,Conductor*
D58*
G36*
X93487000Y-95003000D02*
G01*
X93507000Y-95003000D01*
X93507000Y-95257000D01*
X93487000Y-95257000D01*
X93487000Y-95277000D01*
X93233000Y-95277000D01*
X93233000Y-95257000D01*
X93213000Y-95257000D01*
X93213000Y-95003000D01*
X93233000Y-95003000D01*
X93233000Y-94983000D01*
X93487000Y-94983000D01*
X93487000Y-95003000D01*
G37*
G04 #@! TD.AperFunction*
D57*
X89787000Y-92513000D02*
X89807000Y-92513000D01*
X89807000Y-92767000D01*
X89787000Y-92767000D01*
X89787000Y-92787000D01*
X89533000Y-92787000D01*
X89533000Y-92767000D01*
X89513000Y-92767000D01*
X89513000Y-92513000D01*
X89533000Y-92513000D01*
X89533000Y-92493000D01*
X89787000Y-92493000D01*
X89787000Y-92513000D01*
G04 #@! TA.AperFunction,Conductor*
D58*
G36*
X89787000Y-92513000D02*
G01*
X89807000Y-92513000D01*
X89807000Y-92767000D01*
X89787000Y-92767000D01*
X89787000Y-92787000D01*
X89533000Y-92787000D01*
X89533000Y-92767000D01*
X89513000Y-92767000D01*
X89513000Y-92513000D01*
X89533000Y-92513000D01*
X89533000Y-92493000D01*
X89787000Y-92493000D01*
X89787000Y-92513000D01*
G37*
G04 #@! TD.AperFunction*
D57*
X84003748Y-92435858D02*
X83989605Y-92450000D01*
X84003748Y-92464143D01*
X83824143Y-92643748D01*
X83810000Y-92629605D01*
X83795858Y-92643748D01*
X83616253Y-92464143D01*
X83630395Y-92450000D01*
X83616253Y-92435858D01*
X83795858Y-92256253D01*
X83810000Y-92270395D01*
X83824143Y-92256253D01*
X84003748Y-92435858D01*
G04 #@! TA.AperFunction,Conductor*
D58*
G36*
X84003748Y-92435858D02*
G01*
X83989605Y-92450000D01*
X84003748Y-92464143D01*
X83824143Y-92643748D01*
X83810000Y-92629605D01*
X83795858Y-92643748D01*
X83616253Y-92464143D01*
X83630395Y-92450000D01*
X83616253Y-92435858D01*
X83795858Y-92256253D01*
X83810000Y-92270395D01*
X83824143Y-92256253D01*
X84003748Y-92435858D01*
G37*
G04 #@! TD.AperFunction*
D57*
X92657000Y-90998203D02*
X92363000Y-90998203D01*
X92363000Y-90961797D01*
X92657000Y-90961797D01*
X92657000Y-90998203D01*
G04 #@! TA.AperFunction,Conductor*
D58*
G36*
X92657000Y-90998203D02*
G01*
X92363000Y-90998203D01*
X92363000Y-90961797D01*
X92657000Y-90961797D01*
X92657000Y-90998203D01*
G37*
G04 #@! TD.AperFunction*
D57*
X91562161Y-90464247D02*
X91500853Y-90573275D01*
X91482526Y-90629345D01*
X91414849Y-90584124D01*
X91300159Y-90536618D01*
X91178406Y-90512400D01*
X91054268Y-90512400D01*
X90940160Y-90535097D01*
X90957717Y-90513704D01*
X90999985Y-90434625D01*
X91003876Y-90421797D01*
X91550000Y-90421797D01*
X91603020Y-90416575D01*
X91562161Y-90464247D01*
G04 #@! TA.AperFunction,Conductor*
D58*
G36*
X91562161Y-90464247D02*
G01*
X91500853Y-90573275D01*
X91482526Y-90629345D01*
X91414849Y-90584124D01*
X91300159Y-90536618D01*
X91178406Y-90512400D01*
X91054268Y-90512400D01*
X90940160Y-90535097D01*
X90957717Y-90513704D01*
X90999985Y-90434625D01*
X91003876Y-90421797D01*
X91550000Y-90421797D01*
X91603020Y-90416575D01*
X91562161Y-90464247D01*
G37*
G04 #@! TD.AperFunction*
D57*
X80213203Y-89403203D02*
X80060500Y-89403203D01*
X80060500Y-89362000D01*
X80147000Y-89362000D01*
X80147000Y-89263000D01*
X80213203Y-89263000D01*
X80213203Y-89403203D01*
G04 #@! TA.AperFunction,Conductor*
D58*
G36*
X80213203Y-89403203D02*
G01*
X80060500Y-89403203D01*
X80060500Y-89362000D01*
X80147000Y-89362000D01*
X80147000Y-89263000D01*
X80213203Y-89263000D01*
X80213203Y-89403203D01*
G37*
G04 #@! TD.AperFunction*
D57*
X84669500Y-84393000D02*
X85703000Y-84393000D01*
X85703000Y-84373000D01*
X85957000Y-84373000D01*
X85957000Y-84393000D01*
X86990500Y-84393000D01*
X86990500Y-84373000D01*
X87244500Y-84373000D01*
X87244500Y-84393000D01*
X88278000Y-84393000D01*
X88278000Y-84373000D01*
X88532000Y-84373000D01*
X88532000Y-84393000D01*
X88552000Y-84393000D01*
X88552000Y-84647000D01*
X88532000Y-84647000D01*
X88532000Y-85680500D01*
X88552000Y-85680500D01*
X88552000Y-85934500D01*
X88532000Y-85934500D01*
X88532000Y-86968000D01*
X88552000Y-86968000D01*
X88552000Y-87222000D01*
X88532000Y-87222000D01*
X88532000Y-88255500D01*
X88552000Y-88255500D01*
X88552000Y-88509500D01*
X88532000Y-88509500D01*
X88532000Y-88529500D01*
X88278000Y-88529500D01*
X88278000Y-88509500D01*
X87244500Y-88509500D01*
X87244500Y-88529500D01*
X86990500Y-88529500D01*
X86990500Y-88509500D01*
X85957000Y-88509500D01*
X85957000Y-88529500D01*
X85703000Y-88529500D01*
X85703000Y-88509500D01*
X84669500Y-88509500D01*
X84669500Y-88529500D01*
X84415500Y-88529500D01*
X84415500Y-88509500D01*
X84395500Y-88509500D01*
X84395500Y-88255500D01*
X84415500Y-88255500D01*
X84415500Y-87738750D01*
X84548178Y-87738750D01*
X84551250Y-88096750D01*
X84669500Y-88215000D01*
X84669500Y-88255500D01*
X84710000Y-88255500D01*
X84828250Y-88373750D01*
X85186250Y-88376822D01*
X85544250Y-88373750D01*
X85662500Y-88255500D01*
X85703000Y-88255500D01*
X85703000Y-88215000D01*
X85821250Y-88096750D01*
X85824322Y-87738750D01*
X85835678Y-87738750D01*
X85838750Y-88096750D01*
X85957000Y-88215000D01*
X85957000Y-88255500D01*
X85997500Y-88255500D01*
X86115750Y-88373750D01*
X86473750Y-88376822D01*
X86831750Y-88373750D01*
X86950000Y-88255500D01*
X86990500Y-88255500D01*
X86990500Y-88215000D01*
X87108750Y-88096750D01*
X87111822Y-87738750D01*
X87123178Y-87738750D01*
X87126250Y-88096750D01*
X87244500Y-88215000D01*
X87244500Y-88255500D01*
X87285000Y-88255500D01*
X87403250Y-88373750D01*
X87761250Y-88376822D01*
X88119250Y-88373750D01*
X88237500Y-88255500D01*
X88278000Y-88255500D01*
X88278000Y-88215000D01*
X88396250Y-88096750D01*
X88399322Y-87738750D01*
X88396250Y-87380750D01*
X88278000Y-87262500D01*
X88278000Y-87222000D01*
X88237500Y-87222000D01*
X88119250Y-87103750D01*
X87761250Y-87100678D01*
X87403250Y-87103750D01*
X87285000Y-87222000D01*
X87244500Y-87222000D01*
X87244500Y-87262500D01*
X87126250Y-87380750D01*
X87123178Y-87738750D01*
X87111822Y-87738750D01*
X87108750Y-87380750D01*
X86990500Y-87262500D01*
X86990500Y-87222000D01*
X86950000Y-87222000D01*
X86831750Y-87103750D01*
X86473750Y-87100678D01*
X86115750Y-87103750D01*
X85997500Y-87222000D01*
X85957000Y-87222000D01*
X85957000Y-87262500D01*
X85838750Y-87380750D01*
X85835678Y-87738750D01*
X85824322Y-87738750D01*
X85821250Y-87380750D01*
X85703000Y-87262500D01*
X85703000Y-87222000D01*
X85662500Y-87222000D01*
X85544250Y-87103750D01*
X85186250Y-87100678D01*
X84828250Y-87103750D01*
X84710000Y-87222000D01*
X84669500Y-87222000D01*
X84669500Y-87262500D01*
X84551250Y-87380750D01*
X84548178Y-87738750D01*
X84415500Y-87738750D01*
X84415500Y-87222000D01*
X84395500Y-87222000D01*
X84395500Y-86968000D01*
X84415500Y-86968000D01*
X84415500Y-86451250D01*
X84548178Y-86451250D01*
X84551250Y-86809250D01*
X84669500Y-86927500D01*
X84669500Y-86968000D01*
X84710000Y-86968000D01*
X84828250Y-87086250D01*
X85186250Y-87089322D01*
X85544250Y-87086250D01*
X85662500Y-86968000D01*
X85703000Y-86968000D01*
X85703000Y-86927500D01*
X85821250Y-86809250D01*
X85824322Y-86451250D01*
X85835678Y-86451250D01*
X85838750Y-86809250D01*
X85957000Y-86927500D01*
X85957000Y-86968000D01*
X85997500Y-86968000D01*
X86115750Y-87086250D01*
X86473750Y-87089322D01*
X86831750Y-87086250D01*
X86950000Y-86968000D01*
X86990500Y-86968000D01*
X86990500Y-86927500D01*
X87108750Y-86809250D01*
X87111822Y-86451250D01*
X87123178Y-86451250D01*
X87126250Y-86809250D01*
X87244500Y-86927500D01*
X87244500Y-86968000D01*
X87285000Y-86968000D01*
X87403250Y-87086250D01*
X87761250Y-87089322D01*
X88119250Y-87086250D01*
X88237500Y-86968000D01*
X88278000Y-86968000D01*
X88278000Y-86927500D01*
X88396250Y-86809250D01*
X88399322Y-86451250D01*
X88396250Y-86093250D01*
X88278000Y-85975000D01*
X88278000Y-85934500D01*
X88237500Y-85934500D01*
X88119250Y-85816250D01*
X87761250Y-85813178D01*
X87403250Y-85816250D01*
X87285000Y-85934500D01*
X87244500Y-85934500D01*
X87244500Y-85975000D01*
X87126250Y-86093250D01*
X87123178Y-86451250D01*
X87111822Y-86451250D01*
X87108750Y-86093250D01*
X86990500Y-85975000D01*
X86990500Y-85934500D01*
X86950000Y-85934500D01*
X86831750Y-85816250D01*
X86473750Y-85813178D01*
X86115750Y-85816250D01*
X85997500Y-85934500D01*
X85957000Y-85934500D01*
X85957000Y-85975000D01*
X85838750Y-86093250D01*
X85835678Y-86451250D01*
X85824322Y-86451250D01*
X85821250Y-86093250D01*
X85703000Y-85975000D01*
X85703000Y-85934500D01*
X85662500Y-85934500D01*
X85544250Y-85816250D01*
X85186250Y-85813178D01*
X84828250Y-85816250D01*
X84710000Y-85934500D01*
X84669500Y-85934500D01*
X84669500Y-85975000D01*
X84551250Y-86093250D01*
X84548178Y-86451250D01*
X84415500Y-86451250D01*
X84415500Y-85934500D01*
X84395500Y-85934500D01*
X84395500Y-85680500D01*
X84415500Y-85680500D01*
X84415500Y-85163750D01*
X84548178Y-85163750D01*
X84551250Y-85521750D01*
X84669500Y-85640000D01*
X84669500Y-85680500D01*
X84710000Y-85680500D01*
X84828250Y-85798750D01*
X85186250Y-85801822D01*
X85544250Y-85798750D01*
X85662500Y-85680500D01*
X85703000Y-85680500D01*
X85703000Y-85640000D01*
X85821250Y-85521750D01*
X85824322Y-85163750D01*
X85835678Y-85163750D01*
X85838750Y-85521750D01*
X85957000Y-85640000D01*
X85957000Y-85680500D01*
X85997500Y-85680500D01*
X86115750Y-85798750D01*
X86473750Y-85801822D01*
X86831750Y-85798750D01*
X86950000Y-85680500D01*
X86990500Y-85680500D01*
X86990500Y-85640000D01*
X87108750Y-85521750D01*
X87111822Y-85163750D01*
X87123178Y-85163750D01*
X87126250Y-85521750D01*
X87244500Y-85640000D01*
X87244500Y-85680500D01*
X87285000Y-85680500D01*
X87403250Y-85798750D01*
X87761250Y-85801822D01*
X88119250Y-85798750D01*
X88237500Y-85680500D01*
X88278000Y-85680500D01*
X88278000Y-85640000D01*
X88396250Y-85521750D01*
X88399322Y-85163750D01*
X88396250Y-84805750D01*
X88278000Y-84687500D01*
X88278000Y-84647000D01*
X88237500Y-84647000D01*
X88119250Y-84528750D01*
X87761250Y-84525678D01*
X87403250Y-84528750D01*
X87285000Y-84647000D01*
X87244500Y-84647000D01*
X87244500Y-84687500D01*
X87126250Y-84805750D01*
X87123178Y-85163750D01*
X87111822Y-85163750D01*
X87108750Y-84805750D01*
X86990500Y-84687500D01*
X86990500Y-84647000D01*
X86950000Y-84647000D01*
X86831750Y-84528750D01*
X86473750Y-84525678D01*
X86115750Y-84528750D01*
X85997500Y-84647000D01*
X85957000Y-84647000D01*
X85957000Y-84687500D01*
X85838750Y-84805750D01*
X85835678Y-85163750D01*
X85824322Y-85163750D01*
X85821250Y-84805750D01*
X85703000Y-84687500D01*
X85703000Y-84647000D01*
X85662500Y-84647000D01*
X85544250Y-84528750D01*
X85186250Y-84525678D01*
X84828250Y-84528750D01*
X84710000Y-84647000D01*
X84669500Y-84647000D01*
X84669500Y-84687500D01*
X84551250Y-84805750D01*
X84548178Y-85163750D01*
X84415500Y-85163750D01*
X84415500Y-84647000D01*
X84395500Y-84647000D01*
X84395500Y-84393000D01*
X84415500Y-84393000D01*
X84415500Y-84373000D01*
X84669500Y-84373000D01*
X84669500Y-84393000D01*
G04 #@! TA.AperFunction,Conductor*
D58*
G36*
X84669500Y-84393000D02*
G01*
X85703000Y-84393000D01*
X85703000Y-84373000D01*
X85957000Y-84373000D01*
X85957000Y-84393000D01*
X86990500Y-84393000D01*
X86990500Y-84373000D01*
X87244500Y-84373000D01*
X87244500Y-84393000D01*
X88278000Y-84393000D01*
X88278000Y-84373000D01*
X88532000Y-84373000D01*
X88532000Y-84393000D01*
X88552000Y-84393000D01*
X88552000Y-84647000D01*
X88532000Y-84647000D01*
X88532000Y-85680500D01*
X88552000Y-85680500D01*
X88552000Y-85934500D01*
X88532000Y-85934500D01*
X88532000Y-86968000D01*
X88552000Y-86968000D01*
X88552000Y-87222000D01*
X88532000Y-87222000D01*
X88532000Y-88255500D01*
X88552000Y-88255500D01*
X88552000Y-88509500D01*
X88532000Y-88509500D01*
X88532000Y-88529500D01*
X88278000Y-88529500D01*
X88278000Y-88509500D01*
X87244500Y-88509500D01*
X87244500Y-88529500D01*
X86990500Y-88529500D01*
X86990500Y-88509500D01*
X85957000Y-88509500D01*
X85957000Y-88529500D01*
X85703000Y-88529500D01*
X85703000Y-88509500D01*
X84669500Y-88509500D01*
X84669500Y-88529500D01*
X84415500Y-88529500D01*
X84415500Y-88509500D01*
X84395500Y-88509500D01*
X84395500Y-88255500D01*
X84415500Y-88255500D01*
X84415500Y-87738750D01*
X84548178Y-87738750D01*
X84551250Y-88096750D01*
X84669500Y-88215000D01*
X84669500Y-88255500D01*
X84710000Y-88255500D01*
X84828250Y-88373750D01*
X85186250Y-88376822D01*
X85544250Y-88373750D01*
X85662500Y-88255500D01*
X85703000Y-88255500D01*
X85703000Y-88215000D01*
X85821250Y-88096750D01*
X85824322Y-87738750D01*
X85835678Y-87738750D01*
X85838750Y-88096750D01*
X85957000Y-88215000D01*
X85957000Y-88255500D01*
X85997500Y-88255500D01*
X86115750Y-88373750D01*
X86473750Y-88376822D01*
X86831750Y-88373750D01*
X86950000Y-88255500D01*
X86990500Y-88255500D01*
X86990500Y-88215000D01*
X87108750Y-88096750D01*
X87111822Y-87738750D01*
X87123178Y-87738750D01*
X87126250Y-88096750D01*
X87244500Y-88215000D01*
X87244500Y-88255500D01*
X87285000Y-88255500D01*
X87403250Y-88373750D01*
X87761250Y-88376822D01*
X88119250Y-88373750D01*
X88237500Y-88255500D01*
X88278000Y-88255500D01*
X88278000Y-88215000D01*
X88396250Y-88096750D01*
X88399322Y-87738750D01*
X88396250Y-87380750D01*
X88278000Y-87262500D01*
X88278000Y-87222000D01*
X88237500Y-87222000D01*
X88119250Y-87103750D01*
X87761250Y-87100678D01*
X87403250Y-87103750D01*
X87285000Y-87222000D01*
X87244500Y-87222000D01*
X87244500Y-87262500D01*
X87126250Y-87380750D01*
X87123178Y-87738750D01*
X87111822Y-87738750D01*
X87108750Y-87380750D01*
X86990500Y-87262500D01*
X86990500Y-87222000D01*
X86950000Y-87222000D01*
X86831750Y-87103750D01*
X86473750Y-87100678D01*
X86115750Y-87103750D01*
X85997500Y-87222000D01*
X85957000Y-87222000D01*
X85957000Y-87262500D01*
X85838750Y-87380750D01*
X85835678Y-87738750D01*
X85824322Y-87738750D01*
X85821250Y-87380750D01*
X85703000Y-87262500D01*
X85703000Y-87222000D01*
X85662500Y-87222000D01*
X85544250Y-87103750D01*
X85186250Y-87100678D01*
X84828250Y-87103750D01*
X84710000Y-87222000D01*
X84669500Y-87222000D01*
X84669500Y-87262500D01*
X84551250Y-87380750D01*
X84548178Y-87738750D01*
X84415500Y-87738750D01*
X84415500Y-87222000D01*
X84395500Y-87222000D01*
X84395500Y-86968000D01*
X84415500Y-86968000D01*
X84415500Y-86451250D01*
X84548178Y-86451250D01*
X84551250Y-86809250D01*
X84669500Y-86927500D01*
X84669500Y-86968000D01*
X84710000Y-86968000D01*
X84828250Y-87086250D01*
X85186250Y-87089322D01*
X85544250Y-87086250D01*
X85662500Y-86968000D01*
X85703000Y-86968000D01*
X85703000Y-86927500D01*
X85821250Y-86809250D01*
X85824322Y-86451250D01*
X85835678Y-86451250D01*
X85838750Y-86809250D01*
X85957000Y-86927500D01*
X85957000Y-86968000D01*
X85997500Y-86968000D01*
X86115750Y-87086250D01*
X86473750Y-87089322D01*
X86831750Y-87086250D01*
X86950000Y-86968000D01*
X86990500Y-86968000D01*
X86990500Y-86927500D01*
X87108750Y-86809250D01*
X87111822Y-86451250D01*
X87123178Y-86451250D01*
X87126250Y-86809250D01*
X87244500Y-86927500D01*
X87244500Y-86968000D01*
X87285000Y-86968000D01*
X87403250Y-87086250D01*
X87761250Y-87089322D01*
X88119250Y-87086250D01*
X88237500Y-86968000D01*
X88278000Y-86968000D01*
X88278000Y-86927500D01*
X88396250Y-86809250D01*
X88399322Y-86451250D01*
X88396250Y-86093250D01*
X88278000Y-85975000D01*
X88278000Y-85934500D01*
X88237500Y-85934500D01*
X88119250Y-85816250D01*
X87761250Y-85813178D01*
X87403250Y-85816250D01*
X87285000Y-85934500D01*
X87244500Y-85934500D01*
X87244500Y-85975000D01*
X87126250Y-86093250D01*
X87123178Y-86451250D01*
X87111822Y-86451250D01*
X87108750Y-86093250D01*
X86990500Y-85975000D01*
X86990500Y-85934500D01*
X86950000Y-85934500D01*
X86831750Y-85816250D01*
X86473750Y-85813178D01*
X86115750Y-85816250D01*
X85997500Y-85934500D01*
X85957000Y-85934500D01*
X85957000Y-85975000D01*
X85838750Y-86093250D01*
X85835678Y-86451250D01*
X85824322Y-86451250D01*
X85821250Y-86093250D01*
X85703000Y-85975000D01*
X85703000Y-85934500D01*
X85662500Y-85934500D01*
X85544250Y-85816250D01*
X85186250Y-85813178D01*
X84828250Y-85816250D01*
X84710000Y-85934500D01*
X84669500Y-85934500D01*
X84669500Y-85975000D01*
X84551250Y-86093250D01*
X84548178Y-86451250D01*
X84415500Y-86451250D01*
X84415500Y-85934500D01*
X84395500Y-85934500D01*
X84395500Y-85680500D01*
X84415500Y-85680500D01*
X84415500Y-85163750D01*
X84548178Y-85163750D01*
X84551250Y-85521750D01*
X84669500Y-85640000D01*
X84669500Y-85680500D01*
X84710000Y-85680500D01*
X84828250Y-85798750D01*
X85186250Y-85801822D01*
X85544250Y-85798750D01*
X85662500Y-85680500D01*
X85703000Y-85680500D01*
X85703000Y-85640000D01*
X85821250Y-85521750D01*
X85824322Y-85163750D01*
X85835678Y-85163750D01*
X85838750Y-85521750D01*
X85957000Y-85640000D01*
X85957000Y-85680500D01*
X85997500Y-85680500D01*
X86115750Y-85798750D01*
X86473750Y-85801822D01*
X86831750Y-85798750D01*
X86950000Y-85680500D01*
X86990500Y-85680500D01*
X86990500Y-85640000D01*
X87108750Y-85521750D01*
X87111822Y-85163750D01*
X87123178Y-85163750D01*
X87126250Y-85521750D01*
X87244500Y-85640000D01*
X87244500Y-85680500D01*
X87285000Y-85680500D01*
X87403250Y-85798750D01*
X87761250Y-85801822D01*
X88119250Y-85798750D01*
X88237500Y-85680500D01*
X88278000Y-85680500D01*
X88278000Y-85640000D01*
X88396250Y-85521750D01*
X88399322Y-85163750D01*
X88396250Y-84805750D01*
X88278000Y-84687500D01*
X88278000Y-84647000D01*
X88237500Y-84647000D01*
X88119250Y-84528750D01*
X87761250Y-84525678D01*
X87403250Y-84528750D01*
X87285000Y-84647000D01*
X87244500Y-84647000D01*
X87244500Y-84687500D01*
X87126250Y-84805750D01*
X87123178Y-85163750D01*
X87111822Y-85163750D01*
X87108750Y-84805750D01*
X86990500Y-84687500D01*
X86990500Y-84647000D01*
X86950000Y-84647000D01*
X86831750Y-84528750D01*
X86473750Y-84525678D01*
X86115750Y-84528750D01*
X85997500Y-84647000D01*
X85957000Y-84647000D01*
X85957000Y-84687500D01*
X85838750Y-84805750D01*
X85835678Y-85163750D01*
X85824322Y-85163750D01*
X85821250Y-84805750D01*
X85703000Y-84687500D01*
X85703000Y-84647000D01*
X85662500Y-84647000D01*
X85544250Y-84528750D01*
X85186250Y-84525678D01*
X84828250Y-84528750D01*
X84710000Y-84647000D01*
X84669500Y-84647000D01*
X84669500Y-84687500D01*
X84551250Y-84805750D01*
X84548178Y-85163750D01*
X84415500Y-85163750D01*
X84415500Y-84647000D01*
X84395500Y-84647000D01*
X84395500Y-84393000D01*
X84415500Y-84393000D01*
X84415500Y-84373000D01*
X84669500Y-84373000D01*
X84669500Y-84393000D01*
G37*
G04 #@! TD.AperFunction*
D57*
X89898750Y-79307000D02*
X90044800Y-79307000D01*
X90044800Y-79553000D01*
X89898750Y-79553000D01*
X89740000Y-79711750D01*
X89751896Y-79817397D01*
X89790674Y-79936318D01*
X89851907Y-80045389D01*
X89933242Y-80140419D01*
X90031553Y-80217755D01*
X90143063Y-80274425D01*
X90263486Y-80308252D01*
X90388195Y-80317936D01*
X90539250Y-80315000D01*
X90698000Y-80156250D01*
X90698000Y-80010200D01*
X90952000Y-80010200D01*
X90952000Y-80156250D01*
X91110750Y-80315000D01*
X91261805Y-80317936D01*
X91386514Y-80308252D01*
X91506937Y-80274425D01*
X91618447Y-80217755D01*
X91716758Y-80140419D01*
X91798093Y-80045389D01*
X91859326Y-79936318D01*
X91898104Y-79817397D01*
X91910000Y-79711750D01*
X91751250Y-79553000D01*
X91605200Y-79553000D01*
X91605200Y-79307000D01*
X91751250Y-79307000D01*
X91901250Y-79157000D01*
X96110024Y-79157000D01*
X96081196Y-79261643D01*
X96075000Y-79384250D01*
X96233750Y-79543000D01*
X96837000Y-79543000D01*
X96837000Y-79523000D01*
X96983000Y-79523000D01*
X96983000Y-79543000D01*
X97057000Y-79543000D01*
X97057000Y-79797000D01*
X96983000Y-79797000D01*
X96983000Y-79817000D01*
X96837000Y-79817000D01*
X96837000Y-79797000D01*
X96233750Y-79797000D01*
X96075000Y-79955750D01*
X96081196Y-80078357D01*
X96104570Y-80163203D01*
X95430000Y-80163203D01*
X95365270Y-80169578D01*
X95303027Y-80188460D01*
X95245663Y-80219121D01*
X95195384Y-80260384D01*
X95154121Y-80310663D01*
X95123460Y-80368027D01*
X95104578Y-80430270D01*
X95098203Y-80495000D01*
X95098203Y-82595000D01*
X95104578Y-82659730D01*
X95123460Y-82721973D01*
X95154121Y-82779337D01*
X95195384Y-82829616D01*
X95245663Y-82870879D01*
X95303027Y-82901540D01*
X95365270Y-82920422D01*
X95430000Y-82926797D01*
X98330000Y-82926797D01*
X98394730Y-82920422D01*
X98456973Y-82901540D01*
X98514337Y-82870879D01*
X98564616Y-82829616D01*
X98605879Y-82779337D01*
X98636540Y-82721973D01*
X98655422Y-82659730D01*
X98661797Y-82595000D01*
X98661797Y-80495000D01*
X98655422Y-80430270D01*
X98636540Y-80368027D01*
X98605879Y-80310663D01*
X98564616Y-80260384D01*
X98514337Y-80219121D01*
X98456973Y-80188460D01*
X98394730Y-80169578D01*
X98330000Y-80163203D01*
X98278603Y-80163203D01*
X98285879Y-80154337D01*
X98302514Y-80123215D01*
X98349235Y-80118613D01*
X98435040Y-80092584D01*
X98514119Y-80050316D01*
X98544472Y-80025406D01*
X98567861Y-80142991D01*
X98622905Y-80275879D01*
X98702817Y-80395475D01*
X98804525Y-80497183D01*
X98924121Y-80577095D01*
X99057009Y-80632139D01*
X99198082Y-80660200D01*
X99341918Y-80660200D01*
X99482991Y-80632139D01*
X99615879Y-80577095D01*
X99735475Y-80497183D01*
X99784800Y-80447858D01*
X99784800Y-80491451D01*
X99633939Y-80642312D01*
X99616568Y-80656568D01*
X99559684Y-80725882D01*
X99517416Y-80804961D01*
X99491387Y-80890766D01*
X99484800Y-80957644D01*
X99484800Y-80957651D01*
X99482599Y-80980000D01*
X99484800Y-81002350D01*
X99484801Y-81698203D01*
X99170000Y-81698203D01*
X99105270Y-81704578D01*
X99043027Y-81723460D01*
X98985663Y-81754121D01*
X98935384Y-81795384D01*
X98894121Y-81845663D01*
X98863460Y-81903027D01*
X98844578Y-81965270D01*
X98838203Y-82030000D01*
X98838203Y-83215481D01*
X98814420Y-83217483D01*
X98694219Y-83252089D01*
X98583078Y-83309481D01*
X98485269Y-83387452D01*
X98404551Y-83483006D01*
X98344026Y-83592472D01*
X98306020Y-83711642D01*
X98295000Y-83813250D01*
X98453750Y-83972000D01*
X99603000Y-83972000D01*
X99603000Y-83948000D01*
X99857000Y-83948000D01*
X99857000Y-83972000D01*
X99877000Y-83972000D01*
X99877000Y-84218000D01*
X99857000Y-84218000D01*
X99857000Y-84242000D01*
X99603000Y-84242000D01*
X99603000Y-84218000D01*
X98453750Y-84218000D01*
X98295000Y-84376750D01*
X98306020Y-84478358D01*
X98332833Y-84562431D01*
X98276746Y-84618518D01*
X98261242Y-84631242D01*
X98248519Y-84646745D01*
X98248518Y-84646746D01*
X98244373Y-84651797D01*
X98210456Y-84693125D01*
X98192416Y-84726876D01*
X98172719Y-84763726D01*
X98153534Y-84826973D01*
X98149481Y-84840333D01*
X98143600Y-84900041D01*
X98143600Y-84900047D01*
X98141635Y-84920000D01*
X98143600Y-84939953D01*
X98143601Y-85637239D01*
X98141635Y-85657201D01*
X98149481Y-85736869D01*
X98172719Y-85813475D01*
X98185063Y-85836569D01*
X98210457Y-85884077D01*
X98224789Y-85901540D01*
X98248518Y-85930455D01*
X98248524Y-85930461D01*
X98261243Y-85945959D01*
X98276741Y-85958678D01*
X98712599Y-86394536D01*
X98712599Y-86512069D01*
X98736817Y-86633822D01*
X98768774Y-86710973D01*
X98760559Y-86717369D01*
X98678748Y-86811988D01*
X98661797Y-86841830D01*
X98661797Y-86827000D01*
X98655422Y-86762270D01*
X98636540Y-86700027D01*
X98605879Y-86642663D01*
X98564616Y-86592384D01*
X98514337Y-86551121D01*
X98456973Y-86520460D01*
X98394730Y-86501578D01*
X98330000Y-86495203D01*
X95430000Y-86495203D01*
X95365270Y-86501578D01*
X95303027Y-86520460D01*
X95245663Y-86551121D01*
X95195384Y-86592384D01*
X95154121Y-86642663D01*
X95123460Y-86700027D01*
X95104578Y-86762270D01*
X95098203Y-86827000D01*
X95098203Y-88028671D01*
X94192718Y-87123186D01*
X94179994Y-87107682D01*
X94118112Y-87056896D01*
X94047511Y-87019159D01*
X93970904Y-86995921D01*
X93911196Y-86990040D01*
X93911189Y-86990040D01*
X93891236Y-86988075D01*
X93871283Y-86990040D01*
X91468239Y-86990040D01*
X91480200Y-86929909D01*
X91480200Y-86805771D01*
X91455982Y-86684018D01*
X91408476Y-86569328D01*
X91339508Y-86466111D01*
X91251729Y-86378332D01*
X91247801Y-86375707D01*
X91275982Y-86307672D01*
X91300200Y-86185919D01*
X91300200Y-86093350D01*
X91302584Y-86088890D01*
X91328613Y-86003085D01*
X91335200Y-85936207D01*
X91337402Y-85913850D01*
X91335200Y-85891493D01*
X91335200Y-85255534D01*
X91337402Y-85233178D01*
X91335200Y-85210821D01*
X91335200Y-83378996D01*
X91337401Y-83356647D01*
X91335200Y-83334298D01*
X91335200Y-83334291D01*
X91328613Y-83267413D01*
X91302584Y-83181608D01*
X91260316Y-83102529D01*
X91203432Y-83033216D01*
X91186066Y-83018964D01*
X90878562Y-82711461D01*
X90878562Y-82662941D01*
X90854344Y-82541188D01*
X90806838Y-82426498D01*
X90737870Y-82323281D01*
X90650091Y-82235502D01*
X90546874Y-82166534D01*
X90432184Y-82119028D01*
X90310431Y-82094810D01*
X90186293Y-82094810D01*
X90064540Y-82119028D01*
X89949850Y-82166534D01*
X89846633Y-82235502D01*
X89758854Y-82323281D01*
X89689886Y-82426498D01*
X89642380Y-82541188D01*
X89641085Y-82547700D01*
X89624629Y-82516913D01*
X89583366Y-82466634D01*
X89533087Y-82425371D01*
X89475723Y-82394710D01*
X89413480Y-82375828D01*
X89348750Y-82369453D01*
X89292797Y-82369453D01*
X89296805Y-82356239D01*
X89305200Y-82271001D01*
X89305200Y-82270991D01*
X89308006Y-82242500D01*
X89305200Y-82214009D01*
X89305200Y-79696215D01*
X89306797Y-79680000D01*
X89306797Y-79180000D01*
X89305200Y-79163785D01*
X89305200Y-79157000D01*
X89748750Y-79157000D01*
X89898750Y-79307000D01*
G04 #@! TA.AperFunction,Conductor*
D58*
G36*
X89898750Y-79307000D02*
G01*
X90044800Y-79307000D01*
X90044800Y-79553000D01*
X89898750Y-79553000D01*
X89740000Y-79711750D01*
X89751896Y-79817397D01*
X89790674Y-79936318D01*
X89851907Y-80045389D01*
X89933242Y-80140419D01*
X90031553Y-80217755D01*
X90143063Y-80274425D01*
X90263486Y-80308252D01*
X90388195Y-80317936D01*
X90539250Y-80315000D01*
X90698000Y-80156250D01*
X90698000Y-80010200D01*
X90952000Y-80010200D01*
X90952000Y-80156250D01*
X91110750Y-80315000D01*
X91261805Y-80317936D01*
X91386514Y-80308252D01*
X91506937Y-80274425D01*
X91618447Y-80217755D01*
X91716758Y-80140419D01*
X91798093Y-80045389D01*
X91859326Y-79936318D01*
X91898104Y-79817397D01*
X91910000Y-79711750D01*
X91751250Y-79553000D01*
X91605200Y-79553000D01*
X91605200Y-79307000D01*
X91751250Y-79307000D01*
X91901250Y-79157000D01*
X96110024Y-79157000D01*
X96081196Y-79261643D01*
X96075000Y-79384250D01*
X96233750Y-79543000D01*
X96837000Y-79543000D01*
X96837000Y-79523000D01*
X96983000Y-79523000D01*
X96983000Y-79543000D01*
X97057000Y-79543000D01*
X97057000Y-79797000D01*
X96983000Y-79797000D01*
X96983000Y-79817000D01*
X96837000Y-79817000D01*
X96837000Y-79797000D01*
X96233750Y-79797000D01*
X96075000Y-79955750D01*
X96081196Y-80078357D01*
X96104570Y-80163203D01*
X95430000Y-80163203D01*
X95365270Y-80169578D01*
X95303027Y-80188460D01*
X95245663Y-80219121D01*
X95195384Y-80260384D01*
X95154121Y-80310663D01*
X95123460Y-80368027D01*
X95104578Y-80430270D01*
X95098203Y-80495000D01*
X95098203Y-82595000D01*
X95104578Y-82659730D01*
X95123460Y-82721973D01*
X95154121Y-82779337D01*
X95195384Y-82829616D01*
X95245663Y-82870879D01*
X95303027Y-82901540D01*
X95365270Y-82920422D01*
X95430000Y-82926797D01*
X98330000Y-82926797D01*
X98394730Y-82920422D01*
X98456973Y-82901540D01*
X98514337Y-82870879D01*
X98564616Y-82829616D01*
X98605879Y-82779337D01*
X98636540Y-82721973D01*
X98655422Y-82659730D01*
X98661797Y-82595000D01*
X98661797Y-80495000D01*
X98655422Y-80430270D01*
X98636540Y-80368027D01*
X98605879Y-80310663D01*
X98564616Y-80260384D01*
X98514337Y-80219121D01*
X98456973Y-80188460D01*
X98394730Y-80169578D01*
X98330000Y-80163203D01*
X98278603Y-80163203D01*
X98285879Y-80154337D01*
X98302514Y-80123215D01*
X98349235Y-80118613D01*
X98435040Y-80092584D01*
X98514119Y-80050316D01*
X98544472Y-80025406D01*
X98567861Y-80142991D01*
X98622905Y-80275879D01*
X98702817Y-80395475D01*
X98804525Y-80497183D01*
X98924121Y-80577095D01*
X99057009Y-80632139D01*
X99198082Y-80660200D01*
X99341918Y-80660200D01*
X99482991Y-80632139D01*
X99615879Y-80577095D01*
X99735475Y-80497183D01*
X99784800Y-80447858D01*
X99784800Y-80491451D01*
X99633939Y-80642312D01*
X99616568Y-80656568D01*
X99559684Y-80725882D01*
X99517416Y-80804961D01*
X99491387Y-80890766D01*
X99484800Y-80957644D01*
X99484800Y-80957651D01*
X99482599Y-80980000D01*
X99484800Y-81002350D01*
X99484801Y-81698203D01*
X99170000Y-81698203D01*
X99105270Y-81704578D01*
X99043027Y-81723460D01*
X98985663Y-81754121D01*
X98935384Y-81795384D01*
X98894121Y-81845663D01*
X98863460Y-81903027D01*
X98844578Y-81965270D01*
X98838203Y-82030000D01*
X98838203Y-83215481D01*
X98814420Y-83217483D01*
X98694219Y-83252089D01*
X98583078Y-83309481D01*
X98485269Y-83387452D01*
X98404551Y-83483006D01*
X98344026Y-83592472D01*
X98306020Y-83711642D01*
X98295000Y-83813250D01*
X98453750Y-83972000D01*
X99603000Y-83972000D01*
X99603000Y-83948000D01*
X99857000Y-83948000D01*
X99857000Y-83972000D01*
X99877000Y-83972000D01*
X99877000Y-84218000D01*
X99857000Y-84218000D01*
X99857000Y-84242000D01*
X99603000Y-84242000D01*
X99603000Y-84218000D01*
X98453750Y-84218000D01*
X98295000Y-84376750D01*
X98306020Y-84478358D01*
X98332833Y-84562431D01*
X98276746Y-84618518D01*
X98261242Y-84631242D01*
X98248519Y-84646745D01*
X98248518Y-84646746D01*
X98244373Y-84651797D01*
X98210456Y-84693125D01*
X98192416Y-84726876D01*
X98172719Y-84763726D01*
X98153534Y-84826973D01*
X98149481Y-84840333D01*
X98143600Y-84900041D01*
X98143600Y-84900047D01*
X98141635Y-84920000D01*
X98143600Y-84939953D01*
X98143601Y-85637239D01*
X98141635Y-85657201D01*
X98149481Y-85736869D01*
X98172719Y-85813475D01*
X98185063Y-85836569D01*
X98210457Y-85884077D01*
X98224789Y-85901540D01*
X98248518Y-85930455D01*
X98248524Y-85930461D01*
X98261243Y-85945959D01*
X98276741Y-85958678D01*
X98712599Y-86394536D01*
X98712599Y-86512069D01*
X98736817Y-86633822D01*
X98768774Y-86710973D01*
X98760559Y-86717369D01*
X98678748Y-86811988D01*
X98661797Y-86841830D01*
X98661797Y-86827000D01*
X98655422Y-86762270D01*
X98636540Y-86700027D01*
X98605879Y-86642663D01*
X98564616Y-86592384D01*
X98514337Y-86551121D01*
X98456973Y-86520460D01*
X98394730Y-86501578D01*
X98330000Y-86495203D01*
X95430000Y-86495203D01*
X95365270Y-86501578D01*
X95303027Y-86520460D01*
X95245663Y-86551121D01*
X95195384Y-86592384D01*
X95154121Y-86642663D01*
X95123460Y-86700027D01*
X95104578Y-86762270D01*
X95098203Y-86827000D01*
X95098203Y-88028671D01*
X94192718Y-87123186D01*
X94179994Y-87107682D01*
X94118112Y-87056896D01*
X94047511Y-87019159D01*
X93970904Y-86995921D01*
X93911196Y-86990040D01*
X93911189Y-86990040D01*
X93891236Y-86988075D01*
X93871283Y-86990040D01*
X91468239Y-86990040D01*
X91480200Y-86929909D01*
X91480200Y-86805771D01*
X91455982Y-86684018D01*
X91408476Y-86569328D01*
X91339508Y-86466111D01*
X91251729Y-86378332D01*
X91247801Y-86375707D01*
X91275982Y-86307672D01*
X91300200Y-86185919D01*
X91300200Y-86093350D01*
X91302584Y-86088890D01*
X91328613Y-86003085D01*
X91335200Y-85936207D01*
X91337402Y-85913850D01*
X91335200Y-85891493D01*
X91335200Y-85255534D01*
X91337402Y-85233178D01*
X91335200Y-85210821D01*
X91335200Y-83378996D01*
X91337401Y-83356647D01*
X91335200Y-83334298D01*
X91335200Y-83334291D01*
X91328613Y-83267413D01*
X91302584Y-83181608D01*
X91260316Y-83102529D01*
X91203432Y-83033216D01*
X91186066Y-83018964D01*
X90878562Y-82711461D01*
X90878562Y-82662941D01*
X90854344Y-82541188D01*
X90806838Y-82426498D01*
X90737870Y-82323281D01*
X90650091Y-82235502D01*
X90546874Y-82166534D01*
X90432184Y-82119028D01*
X90310431Y-82094810D01*
X90186293Y-82094810D01*
X90064540Y-82119028D01*
X89949850Y-82166534D01*
X89846633Y-82235502D01*
X89758854Y-82323281D01*
X89689886Y-82426498D01*
X89642380Y-82541188D01*
X89641085Y-82547700D01*
X89624629Y-82516913D01*
X89583366Y-82466634D01*
X89533087Y-82425371D01*
X89475723Y-82394710D01*
X89413480Y-82375828D01*
X89348750Y-82369453D01*
X89292797Y-82369453D01*
X89296805Y-82356239D01*
X89305200Y-82271001D01*
X89305200Y-82270991D01*
X89308006Y-82242500D01*
X89305200Y-82214009D01*
X89305200Y-79696215D01*
X89306797Y-79680000D01*
X89306797Y-79180000D01*
X89305200Y-79163785D01*
X89305200Y-79157000D01*
X89748750Y-79157000D01*
X89898750Y-79307000D01*
G37*
G04 #@! TD.AperFunction*
D57*
X83200750Y-87744453D02*
X82946750Y-87744453D01*
X82946750Y-87664851D01*
X82974579Y-87664851D01*
X83014575Y-87668790D01*
X83094243Y-87660944D01*
X83103793Y-87658047D01*
X83200750Y-87658047D01*
X83200750Y-87744453D01*
G04 #@! TA.AperFunction,Conductor*
D58*
G36*
X83200750Y-87744453D02*
G01*
X82946750Y-87744453D01*
X82946750Y-87664851D01*
X82974579Y-87664851D01*
X83014575Y-87668790D01*
X83094243Y-87660944D01*
X83103793Y-87658047D01*
X83200750Y-87658047D01*
X83200750Y-87744453D01*
G37*
G04 #@! TD.AperFunction*
D57*
X99627000Y-87307000D02*
X99647000Y-87307000D01*
X99647000Y-87453000D01*
X99627000Y-87453000D01*
X99627000Y-87509250D01*
X99609250Y-87527000D01*
X99373000Y-87527000D01*
X99373000Y-87453000D01*
X99353000Y-87453000D01*
X99353000Y-87307000D01*
X99373000Y-87307000D01*
X99373000Y-87233000D01*
X99627000Y-87233000D01*
X99627000Y-87307000D01*
G04 #@! TA.AperFunction,Conductor*
D58*
G36*
X99627000Y-87307000D02*
G01*
X99647000Y-87307000D01*
X99647000Y-87453000D01*
X99627000Y-87453000D01*
X99627000Y-87509250D01*
X99609250Y-87527000D01*
X99373000Y-87527000D01*
X99373000Y-87453000D01*
X99353000Y-87453000D01*
X99353000Y-87307000D01*
X99373000Y-87307000D01*
X99373000Y-87233000D01*
X99627000Y-87233000D01*
X99627000Y-87307000D01*
G37*
G04 #@! TD.AperFunction*
D57*
X98669748Y-87252998D02*
X98661797Y-87252998D01*
X98661797Y-87245047D01*
X98669748Y-87252998D01*
G04 #@! TA.AperFunction,Conductor*
D58*
G36*
X98669748Y-87252998D02*
G01*
X98661797Y-87252998D01*
X98661797Y-87245047D01*
X98669748Y-87252998D01*
G37*
G04 #@! TD.AperFunction*
D57*
X76470498Y-79205820D02*
X76434188Y-79325518D01*
X76421928Y-79450000D01*
X76425000Y-79564250D01*
X76583750Y-79723000D01*
X77383000Y-79723000D01*
X77383000Y-79703000D01*
X77637000Y-79703000D01*
X77637000Y-79723000D01*
X77657000Y-79723000D01*
X77657000Y-79977000D01*
X77637000Y-79977000D01*
X77637000Y-80726250D01*
X77795750Y-80885000D01*
X77960000Y-80888072D01*
X78084482Y-80875812D01*
X78204180Y-80839502D01*
X78248203Y-80815971D01*
X78248203Y-81100000D01*
X78254578Y-81164730D01*
X78273460Y-81226973D01*
X78304121Y-81284337D01*
X78345384Y-81334616D01*
X78395663Y-81375879D01*
X78453027Y-81406540D01*
X78515270Y-81425422D01*
X78580000Y-81431797D01*
X78721288Y-81431797D01*
X78706479Y-81485014D01*
X78697098Y-81609746D01*
X78700000Y-81721750D01*
X78858750Y-81880500D01*
X79503203Y-81880500D01*
X79503203Y-82134500D01*
X78858750Y-82134500D01*
X78700000Y-82293250D01*
X78697261Y-82398959D01*
X78686973Y-82393460D01*
X78624730Y-82374578D01*
X78560000Y-82368203D01*
X78208086Y-82368203D01*
X78235879Y-82334337D01*
X78266540Y-82276973D01*
X78285422Y-82214730D01*
X78291797Y-82150000D01*
X78291797Y-81350000D01*
X78285422Y-81285270D01*
X78266540Y-81223027D01*
X78235879Y-81165663D01*
X78194616Y-81115384D01*
X78144337Y-81074121D01*
X78086973Y-81043460D01*
X78024730Y-81024578D01*
X77960000Y-81018203D01*
X77060000Y-81018203D01*
X76995270Y-81024578D01*
X76933027Y-81043460D01*
X76875663Y-81074121D01*
X76825384Y-81115384D01*
X76784121Y-81165663D01*
X76753460Y-81223027D01*
X76734578Y-81285270D01*
X76728203Y-81350000D01*
X76728203Y-81957061D01*
X76317061Y-82368203D01*
X76190200Y-82368203D01*
X76190200Y-82337931D01*
X76165982Y-82216178D01*
X76118476Y-82101488D01*
X76049508Y-81998271D01*
X75961729Y-81910492D01*
X75858512Y-81841524D01*
X75743822Y-81794018D01*
X75622069Y-81769800D01*
X75497931Y-81769800D01*
X75376178Y-81794018D01*
X75261488Y-81841524D01*
X75158271Y-81910492D01*
X75070492Y-81998271D01*
X75001524Y-82101488D01*
X74954018Y-82216178D01*
X74929800Y-82337931D01*
X74929800Y-82462069D01*
X74952500Y-82576191D01*
X74934578Y-82635270D01*
X74928203Y-82700000D01*
X74928203Y-83056037D01*
X74919258Y-83060527D01*
X74820559Y-83137369D01*
X74738748Y-83231988D01*
X74691797Y-83314645D01*
X74691797Y-82255000D01*
X74685422Y-82190270D01*
X74666540Y-82128027D01*
X74635879Y-82070663D01*
X74594616Y-82020384D01*
X74544337Y-81979121D01*
X74486973Y-81948460D01*
X74424730Y-81929578D01*
X74360000Y-81923203D01*
X74335546Y-81923203D01*
X74733550Y-81525200D01*
X74994538Y-81525200D01*
X74995270Y-81525422D01*
X75060000Y-81531797D01*
X75960000Y-81531797D01*
X76024730Y-81525422D01*
X76086973Y-81506540D01*
X76144337Y-81475879D01*
X76194616Y-81434616D01*
X76235879Y-81384337D01*
X76266540Y-81326973D01*
X76285422Y-81264730D01*
X76291797Y-81200000D01*
X76291797Y-80400000D01*
X76285422Y-80335270D01*
X76266540Y-80273027D01*
X76254233Y-80250000D01*
X76421928Y-80250000D01*
X76434188Y-80374482D01*
X76470498Y-80494180D01*
X76529463Y-80604494D01*
X76608815Y-80701185D01*
X76705506Y-80780537D01*
X76815820Y-80839502D01*
X76935518Y-80875812D01*
X77060000Y-80888072D01*
X77224250Y-80885000D01*
X77383000Y-80726250D01*
X77383000Y-79977000D01*
X76583750Y-79977000D01*
X76425000Y-80135750D01*
X76421928Y-80250000D01*
X76254233Y-80250000D01*
X76235879Y-80215663D01*
X76194616Y-80165384D01*
X76144337Y-80124121D01*
X76086973Y-80093460D01*
X76024730Y-80074578D01*
X75960000Y-80068203D01*
X75959346Y-80068203D01*
X75958613Y-80060765D01*
X75932584Y-79974960D01*
X75890316Y-79895881D01*
X75833432Y-79826568D01*
X75816066Y-79812316D01*
X75160749Y-79157000D01*
X76496593Y-79157000D01*
X76470498Y-79205820D01*
G04 #@! TA.AperFunction,Conductor*
D58*
G36*
X76470498Y-79205820D02*
G01*
X76434188Y-79325518D01*
X76421928Y-79450000D01*
X76425000Y-79564250D01*
X76583750Y-79723000D01*
X77383000Y-79723000D01*
X77383000Y-79703000D01*
X77637000Y-79703000D01*
X77637000Y-79723000D01*
X77657000Y-79723000D01*
X77657000Y-79977000D01*
X77637000Y-79977000D01*
X77637000Y-80726250D01*
X77795750Y-80885000D01*
X77960000Y-80888072D01*
X78084482Y-80875812D01*
X78204180Y-80839502D01*
X78248203Y-80815971D01*
X78248203Y-81100000D01*
X78254578Y-81164730D01*
X78273460Y-81226973D01*
X78304121Y-81284337D01*
X78345384Y-81334616D01*
X78395663Y-81375879D01*
X78453027Y-81406540D01*
X78515270Y-81425422D01*
X78580000Y-81431797D01*
X78721288Y-81431797D01*
X78706479Y-81485014D01*
X78697098Y-81609746D01*
X78700000Y-81721750D01*
X78858750Y-81880500D01*
X79503203Y-81880500D01*
X79503203Y-82134500D01*
X78858750Y-82134500D01*
X78700000Y-82293250D01*
X78697261Y-82398959D01*
X78686973Y-82393460D01*
X78624730Y-82374578D01*
X78560000Y-82368203D01*
X78208086Y-82368203D01*
X78235879Y-82334337D01*
X78266540Y-82276973D01*
X78285422Y-82214730D01*
X78291797Y-82150000D01*
X78291797Y-81350000D01*
X78285422Y-81285270D01*
X78266540Y-81223027D01*
X78235879Y-81165663D01*
X78194616Y-81115384D01*
X78144337Y-81074121D01*
X78086973Y-81043460D01*
X78024730Y-81024578D01*
X77960000Y-81018203D01*
X77060000Y-81018203D01*
X76995270Y-81024578D01*
X76933027Y-81043460D01*
X76875663Y-81074121D01*
X76825384Y-81115384D01*
X76784121Y-81165663D01*
X76753460Y-81223027D01*
X76734578Y-81285270D01*
X76728203Y-81350000D01*
X76728203Y-81957061D01*
X76317061Y-82368203D01*
X76190200Y-82368203D01*
X76190200Y-82337931D01*
X76165982Y-82216178D01*
X76118476Y-82101488D01*
X76049508Y-81998271D01*
X75961729Y-81910492D01*
X75858512Y-81841524D01*
X75743822Y-81794018D01*
X75622069Y-81769800D01*
X75497931Y-81769800D01*
X75376178Y-81794018D01*
X75261488Y-81841524D01*
X75158271Y-81910492D01*
X75070492Y-81998271D01*
X75001524Y-82101488D01*
X74954018Y-82216178D01*
X74929800Y-82337931D01*
X74929800Y-82462069D01*
X74952500Y-82576191D01*
X74934578Y-82635270D01*
X74928203Y-82700000D01*
X74928203Y-83056037D01*
X74919258Y-83060527D01*
X74820559Y-83137369D01*
X74738748Y-83231988D01*
X74691797Y-83314645D01*
X74691797Y-82255000D01*
X74685422Y-82190270D01*
X74666540Y-82128027D01*
X74635879Y-82070663D01*
X74594616Y-82020384D01*
X74544337Y-81979121D01*
X74486973Y-81948460D01*
X74424730Y-81929578D01*
X74360000Y-81923203D01*
X74335546Y-81923203D01*
X74733550Y-81525200D01*
X74994538Y-81525200D01*
X74995270Y-81525422D01*
X75060000Y-81531797D01*
X75960000Y-81531797D01*
X76024730Y-81525422D01*
X76086973Y-81506540D01*
X76144337Y-81475879D01*
X76194616Y-81434616D01*
X76235879Y-81384337D01*
X76266540Y-81326973D01*
X76285422Y-81264730D01*
X76291797Y-81200000D01*
X76291797Y-80400000D01*
X76285422Y-80335270D01*
X76266540Y-80273027D01*
X76254233Y-80250000D01*
X76421928Y-80250000D01*
X76434188Y-80374482D01*
X76470498Y-80494180D01*
X76529463Y-80604494D01*
X76608815Y-80701185D01*
X76705506Y-80780537D01*
X76815820Y-80839502D01*
X76935518Y-80875812D01*
X77060000Y-80888072D01*
X77224250Y-80885000D01*
X77383000Y-80726250D01*
X77383000Y-79977000D01*
X76583750Y-79977000D01*
X76425000Y-80135750D01*
X76421928Y-80250000D01*
X76254233Y-80250000D01*
X76235879Y-80215663D01*
X76194616Y-80165384D01*
X76144337Y-80124121D01*
X76086973Y-80093460D01*
X76024730Y-80074578D01*
X75960000Y-80068203D01*
X75959346Y-80068203D01*
X75958613Y-80060765D01*
X75932584Y-79974960D01*
X75890316Y-79895881D01*
X75833432Y-79826568D01*
X75816066Y-79812316D01*
X75160749Y-79157000D01*
X76496593Y-79157000D01*
X76470498Y-79205820D01*
G37*
G04 #@! TD.AperFunction*
D57*
X83119188Y-79185518D02*
X83106928Y-79310000D01*
X83110000Y-79424250D01*
X83268750Y-79583000D01*
X83993000Y-79583000D01*
X83993000Y-79563000D01*
X84247000Y-79563000D01*
X84247000Y-79583000D01*
X84267000Y-79583000D01*
X84267000Y-79837000D01*
X84247000Y-79837000D01*
X84247000Y-79857000D01*
X83993000Y-79857000D01*
X83993000Y-79837000D01*
X83268750Y-79837000D01*
X83110000Y-79995750D01*
X83106928Y-80110000D01*
X83119188Y-80234482D01*
X83155498Y-80354180D01*
X83214463Y-80464494D01*
X83293815Y-80561185D01*
X83390506Y-80640537D01*
X83445468Y-80669915D01*
X83438460Y-80683027D01*
X83419578Y-80745270D01*
X83413203Y-80810000D01*
X83413203Y-81568614D01*
X83405827Y-81568614D01*
X83284074Y-81592832D01*
X83169384Y-81640338D01*
X83066167Y-81709306D01*
X82978388Y-81797085D01*
X82909420Y-81900302D01*
X82861914Y-82014992D01*
X82837696Y-82136745D01*
X82837696Y-82260883D01*
X82861914Y-82382636D01*
X82909420Y-82497326D01*
X82916538Y-82507979D01*
X82886178Y-82514018D01*
X82771488Y-82561524D01*
X82668271Y-82630492D01*
X82580492Y-82718271D01*
X82511524Y-82821488D01*
X82464018Y-82936178D01*
X82439800Y-83057931D01*
X82439800Y-83093218D01*
X82322069Y-83069800D01*
X82197931Y-83069800D01*
X82076178Y-83094018D01*
X82041797Y-83108259D01*
X82041797Y-82620000D01*
X82035422Y-82555270D01*
X82016540Y-82493027D01*
X81985879Y-82435663D01*
X81944616Y-82385384D01*
X81916337Y-82362176D01*
X81916797Y-82357500D01*
X81916797Y-81657500D01*
X81909221Y-81580576D01*
X81886783Y-81506609D01*
X81866400Y-81468475D01*
X81866400Y-81431797D01*
X82080000Y-81431797D01*
X82144730Y-81425422D01*
X82206973Y-81406540D01*
X82264337Y-81375879D01*
X82314616Y-81334616D01*
X82355879Y-81284337D01*
X82386540Y-81226973D01*
X82405422Y-81164730D01*
X82411797Y-81100000D01*
X82411797Y-79300000D01*
X82405422Y-79235270D01*
X82386540Y-79173027D01*
X82377974Y-79157000D01*
X83127839Y-79157000D01*
X83119188Y-79185518D01*
G04 #@! TA.AperFunction,Conductor*
D58*
G36*
X83119188Y-79185518D02*
G01*
X83106928Y-79310000D01*
X83110000Y-79424250D01*
X83268750Y-79583000D01*
X83993000Y-79583000D01*
X83993000Y-79563000D01*
X84247000Y-79563000D01*
X84247000Y-79583000D01*
X84267000Y-79583000D01*
X84267000Y-79837000D01*
X84247000Y-79837000D01*
X84247000Y-79857000D01*
X83993000Y-79857000D01*
X83993000Y-79837000D01*
X83268750Y-79837000D01*
X83110000Y-79995750D01*
X83106928Y-80110000D01*
X83119188Y-80234482D01*
X83155498Y-80354180D01*
X83214463Y-80464494D01*
X83293815Y-80561185D01*
X83390506Y-80640537D01*
X83445468Y-80669915D01*
X83438460Y-80683027D01*
X83419578Y-80745270D01*
X83413203Y-80810000D01*
X83413203Y-81568614D01*
X83405827Y-81568614D01*
X83284074Y-81592832D01*
X83169384Y-81640338D01*
X83066167Y-81709306D01*
X82978388Y-81797085D01*
X82909420Y-81900302D01*
X82861914Y-82014992D01*
X82837696Y-82136745D01*
X82837696Y-82260883D01*
X82861914Y-82382636D01*
X82909420Y-82497326D01*
X82916538Y-82507979D01*
X82886178Y-82514018D01*
X82771488Y-82561524D01*
X82668271Y-82630492D01*
X82580492Y-82718271D01*
X82511524Y-82821488D01*
X82464018Y-82936178D01*
X82439800Y-83057931D01*
X82439800Y-83093218D01*
X82322069Y-83069800D01*
X82197931Y-83069800D01*
X82076178Y-83094018D01*
X82041797Y-83108259D01*
X82041797Y-82620000D01*
X82035422Y-82555270D01*
X82016540Y-82493027D01*
X81985879Y-82435663D01*
X81944616Y-82385384D01*
X81916337Y-82362176D01*
X81916797Y-82357500D01*
X81916797Y-81657500D01*
X81909221Y-81580576D01*
X81886783Y-81506609D01*
X81866400Y-81468475D01*
X81866400Y-81431797D01*
X82080000Y-81431797D01*
X82144730Y-81425422D01*
X82206973Y-81406540D01*
X82264337Y-81375879D01*
X82314616Y-81334616D01*
X82355879Y-81284337D01*
X82386540Y-81226973D01*
X82405422Y-81164730D01*
X82411797Y-81100000D01*
X82411797Y-79300000D01*
X82405422Y-79235270D01*
X82386540Y-79173027D01*
X82377974Y-79157000D01*
X83127839Y-79157000D01*
X83119188Y-79185518D01*
G37*
G04 #@! TD.AperFunction*
D57*
X88144800Y-79163785D02*
X88143203Y-79180000D01*
X88143203Y-79647316D01*
X88084730Y-79629578D01*
X88020000Y-79623203D01*
X87020000Y-79623203D01*
X86955270Y-79629578D01*
X86893027Y-79648460D01*
X86835663Y-79679121D01*
X86785384Y-79720384D01*
X86744121Y-79770663D01*
X86713460Y-79828027D01*
X86694578Y-79890270D01*
X86688203Y-79955000D01*
X86688203Y-81205000D01*
X86694578Y-81269730D01*
X86704494Y-81302418D01*
X86647358Y-81313783D01*
X86658072Y-81205000D01*
X86655000Y-80865750D01*
X86496250Y-80707000D01*
X85647000Y-80707000D01*
X85647000Y-80727000D01*
X85393000Y-80727000D01*
X85393000Y-80707000D01*
X85373000Y-80707000D01*
X85373000Y-80453000D01*
X85393000Y-80453000D01*
X85393000Y-79478750D01*
X85647000Y-79478750D01*
X85647000Y-80453000D01*
X86496250Y-80453000D01*
X86655000Y-80294250D01*
X86658072Y-79955000D01*
X86645812Y-79830518D01*
X86609502Y-79710820D01*
X86550537Y-79600506D01*
X86471185Y-79503815D01*
X86374494Y-79424463D01*
X86264180Y-79365498D01*
X86144482Y-79329188D01*
X86020000Y-79316928D01*
X85805750Y-79320000D01*
X85647000Y-79478750D01*
X85393000Y-79478750D01*
X85234250Y-79320000D01*
X85132842Y-79318546D01*
X85133072Y-79310000D01*
X85120812Y-79185518D01*
X85112161Y-79157000D01*
X88144800Y-79157000D01*
X88144800Y-79163785D01*
G04 #@! TA.AperFunction,Conductor*
D58*
G36*
X88144800Y-79163785D02*
G01*
X88143203Y-79180000D01*
X88143203Y-79647316D01*
X88084730Y-79629578D01*
X88020000Y-79623203D01*
X87020000Y-79623203D01*
X86955270Y-79629578D01*
X86893027Y-79648460D01*
X86835663Y-79679121D01*
X86785384Y-79720384D01*
X86744121Y-79770663D01*
X86713460Y-79828027D01*
X86694578Y-79890270D01*
X86688203Y-79955000D01*
X86688203Y-81205000D01*
X86694578Y-81269730D01*
X86704494Y-81302418D01*
X86647358Y-81313783D01*
X86658072Y-81205000D01*
X86655000Y-80865750D01*
X86496250Y-80707000D01*
X85647000Y-80707000D01*
X85647000Y-80727000D01*
X85393000Y-80727000D01*
X85393000Y-80707000D01*
X85373000Y-80707000D01*
X85373000Y-80453000D01*
X85393000Y-80453000D01*
X85393000Y-79478750D01*
X85647000Y-79478750D01*
X85647000Y-80453000D01*
X86496250Y-80453000D01*
X86655000Y-80294250D01*
X86658072Y-79955000D01*
X86645812Y-79830518D01*
X86609502Y-79710820D01*
X86550537Y-79600506D01*
X86471185Y-79503815D01*
X86374494Y-79424463D01*
X86264180Y-79365498D01*
X86144482Y-79329188D01*
X86020000Y-79316928D01*
X85805750Y-79320000D01*
X85647000Y-79478750D01*
X85393000Y-79478750D01*
X85234250Y-79320000D01*
X85132842Y-79318546D01*
X85133072Y-79310000D01*
X85120812Y-79185518D01*
X85112161Y-79157000D01*
X88144800Y-79157000D01*
X88144800Y-79163785D01*
G37*
G04 #@! TD.AperFunction*
M02*
