M48
; DRILL file {KiCad 7.0.6} date Wed Apr 10 23:04:13 2024
; FORMAT={-:-/ absolute / inch / decimal}
; #@! TF.CreationDate,2024-04-10T23:04:13-04:00
; #@! TF.GenerationSoftware,Kicad,Pcbnew,7.0.6
; #@! TF.FileFunction,Plated,1,4,PTH
FMAT,2
INCH
; #@! TA.AperFunction,Plated,PTH,ViaDrill
T1C0.0118
; #@! TA.AperFunction,Plated,PTH,ViaDrill
T2C0.0157
; #@! TA.AperFunction,Plated,PTH,ComponentDrill
T3C0.0197
; #@! TA.AperFunction,Plated,PTH,ComponentDrill
T4C0.0217
%
G90
G05
T1
X2.7484Y-4.1299
X2.7752Y-3.198
X2.8461Y-4.2898
X3.0031Y-3.161
X3.0139Y-3.3246
X3.0307Y-3.187
X3.0689Y-3.3622
X3.0776Y-3.2102
X3.0776Y-3.2992
X3.0961Y-3.1925
X3.1008Y-3.4811
X3.113Y-3.1732
X3.1185Y-3.6832
X3.1223Y-3.65
X3.1453Y-3.2409
X3.1921Y-3.2705
X3.1924Y-3.2115
X3.1924Y-3.4372
X3.1957Y-3.4653
X3.202Y-3.2465
X3.2142Y-3.485
X3.2164Y-3.2209
X3.2224Y-3.1854
X3.2382Y-3.2067
X3.248Y-3.128
X3.2496Y-3.2587
X3.2768Y-3.2307
X3.3354Y-3.2059
X3.363Y-3.2059
X3.4177Y-3.1283
X3.4213Y-3.8957
X3.4413Y-3.1283
X3.4598Y-3.8012
X3.465Y-3.1283
X3.4858Y-3.7409
X3.5055Y-3.5614
X3.5319Y-3.1205
X3.5319Y-3.1441
X3.5319Y-3.1677
X3.5486Y-3.6846
X3.56Y-3.3744
X3.5602Y-3.4047
X3.5654Y-3.4555
X3.5665Y-3.4295
X3.5827Y-3.6257
X3.6327Y-3.7406
X3.6413Y-3.3583
X3.6619Y-3.3773
X3.6877Y-3.6017
X3.7059Y-3.5803
X3.7059Y-3.6228
X3.7252Y-4.1386
X3.7323Y-4.0772
X3.7339Y-3.5413
X3.7339Y-3.5171
X3.7409Y-4.2661
X3.7642Y-4.0094
X3.8752Y-4.1028
X3.8988Y-3.489
X3.9585Y-4.1512
X3.9846Y-4.1283
X3.9957Y-3.2976
X4.002Y-3.9382
X4.0039Y-3.5102
T2
X2.752Y-3.311
X2.8445Y-3.9189
X2.8469Y-3.2496
X2.8488Y-4.3449
X2.9055Y-3.1969
X2.9764Y-3.3728
X2.9961Y-4.3043
X3.1031Y-3.7339
X3.1394Y-3.7339
X3.1756Y-3.7339
X3.2118Y-3.7339
X3.213Y-3.3536
X3.248Y-3.7339
X3.2834Y-3.9098
X3.2843Y-3.7339
X3.3118Y-3.3823
X3.3118Y-3.461
X3.313Y-3.8984
X3.3205Y-3.7339
X3.3512Y-3.3429
X3.3512Y-3.4217
X3.3543Y-3.7091
X3.3772Y-3.5669
X3.3906Y-3.3823
X3.3906Y-3.461
X3.4299Y-3.3429
X3.4299Y-3.4217
X3.4527Y-3.1962
X3.4606Y-3.8984
X3.4693Y-3.3823
X3.4693Y-3.461
X3.526Y-3.2469
X3.5969Y-3.202
X3.6134Y-3.1272
X3.6752Y-3.237
X3.6976Y-3.8083
X3.8311Y-3.8024
X3.8583Y-3.9819
X3.8752Y-3.3114
X3.911Y-3.1996
X3.9165Y-3.637
X3.9272Y-3.3898
X3.9272Y-3.8681
X3.9642Y-3.9335
T3
G00X3.9911Y-3.5504
M15
G01X3.9656Y-3.5504
M16
G05
G00X3.9911Y-3.826
M15
G01X3.9656Y-3.826
M16
G05
T4
G00X3.872Y-3.5957
M15
G01X3.872Y-3.5839
M16
G05
G00X3.872Y-3.7925
M15
G01X3.872Y-3.7807
M16
G05
T0
M30
