M48
; DRILL file {KiCad (5.1.8)-1} date 12/20/20 18:41:42
; FORMAT={-:-/ absolute / inch / decimal}
; #@! TF.CreationDate,2020-12-20T18:41:42-05:00
; #@! TF.GenerationSoftware,Kicad,Pcbnew,(5.1.8)-1
; #@! TF.FileFunction,Plated,1,2,PTH
FMAT,2
INCH
T1C0.0157
T2C0.0197
T3C0.0217
%
G90
G05
T1
X2.7346Y-4.3476
X2.7346Y-4.387
X2.752Y-3.3024
X2.7535Y-4.1459
X2.7536Y-3.4339
X2.7536Y-3.4732
X2.7536Y-3.5126
X2.7536Y-3.552
X2.7536Y-3.5913
X2.7536Y-3.6307
X2.7536Y-3.6701
X2.7536Y-3.7094
X2.7536Y-3.7488
X2.7536Y-3.7882
X2.7536Y-3.8276
X2.774Y-4.3476
X2.774Y-4.387
X2.7961Y-4.1217
X2.7961Y-4.2374
X2.8029Y-3.5966
X2.8068Y-3.4339
X2.8068Y-3.4732
X2.8068Y-3.5126
X2.8068Y-3.552
X2.8122Y-3.2098
X2.8134Y-4.3476
X2.8134Y-4.387
X2.8217Y-3.6323
X2.8217Y-3.6717
X2.8217Y-3.711
X2.8217Y-3.7504
X2.8217Y-3.7898
X2.8217Y-3.8291
X2.8462Y-3.4339
X2.8462Y-3.4732
X2.8462Y-3.5126
X2.8462Y-3.552
X2.8528Y-4.387
X2.861Y-3.6323
X2.861Y-3.6323
X2.861Y-3.6717
X2.861Y-3.711
X2.861Y-3.7504
X2.861Y-3.7898
X2.861Y-3.8291
X2.8855Y-3.3551
X2.8855Y-3.3945
X2.8855Y-3.4339
X2.8855Y-3.4732
X2.8855Y-3.5126
X2.8855Y-3.552
X2.8878Y-3.3024
X2.8921Y-4.387
X2.898Y-3.1913
X2.9004Y-3.6323
X2.9004Y-3.6717
X2.9004Y-3.711
X2.9004Y-3.7504
X2.9004Y-3.7898
X2.9004Y-3.8291
X2.9249Y-3.3551
X2.9249Y-3.3945
X2.9249Y-3.4339
X2.9249Y-3.4732
X2.9249Y-3.5126
X2.9249Y-3.552
X2.9315Y-4.387
X2.9398Y-3.6323
X2.9398Y-3.6717
X2.9398Y-3.711
X2.9398Y-3.7504
X2.9398Y-3.7898
X2.9398Y-3.8291
X2.9643Y-3.3551
X2.9643Y-3.3945
X2.9643Y-3.4339
X2.9643Y-3.4732
X2.9643Y-3.5126
X2.9643Y-3.552
X2.9709Y-4.387
X2.9791Y-3.6323
X2.9791Y-3.6323
X2.9791Y-3.6717
X2.9791Y-3.711
X2.9791Y-3.7504
X2.9791Y-3.7898
X2.9791Y-3.8291
X3.0036Y-3.4339
X3.0036Y-3.4732
X3.0036Y-3.5126
X3.0036Y-3.552
X3.0102Y-4.387
X3.015Y-3.1811
X3.0185Y-3.6323
X3.0185Y-3.6717
X3.0185Y-3.711
X3.0185Y-3.7504
X3.0185Y-3.7898
X3.0185Y-3.8291
X3.0299Y-4.078
X3.0335Y-3.3024
X3.0496Y-4.387
X3.056Y-3.4241
X3.0579Y-3.6323
X3.0579Y-3.6717
X3.0579Y-3.711
X3.0579Y-3.7504
X3.0579Y-3.7898
X3.0579Y-3.8291
X3.0693Y-4.078
X3.0693Y-4.1173
X3.0693Y-4.3555
X3.0716Y-3.3683
X3.0894Y-3.1413
X3.0926Y-3.3473
X3.0972Y-3.6323
X3.0972Y-3.6717
X3.0972Y-3.711
X3.0972Y-3.7504
X3.0972Y-3.7898
X3.0972Y-3.8291
X3.1016Y-3.4039
X3.1087Y-4.078
X3.1087Y-4.1173
X3.1087Y-4.1567
X3.1087Y-4.1961
X3.1087Y-4.2354
X3.1087Y-4.2748
X3.1087Y-4.3555
X3.1156Y-3.3243
X3.1157Y-3.2707
X3.1366Y-3.6323
X3.148Y-4.0386
X3.148Y-4.078
X3.148Y-4.1173
X3.148Y-4.1567
X3.148Y-4.1961
X3.148Y-4.2354
X3.148Y-4.2748
X3.148Y-4.3555
X3.1629Y-3.4494
X3.176Y-3.6323
X3.176Y-3.6323
X3.1787Y-3.2283
X3.1804Y-3.5742
X3.1854Y-3.1708
X3.1874Y-3.9992
X3.1874Y-4.0386
X3.1874Y-4.078
X3.1874Y-4.1173
X3.1874Y-4.1567
X3.1874Y-4.1961
X3.1874Y-4.2354
X3.1874Y-4.2748
X3.1874Y-4.3555
X3.1874Y-3.3968
X3.1995Y-3.1971
X3.2054Y-3.3729
X3.2258Y-3.5839
X3.2268Y-3.8811
X3.2268Y-3.9205
X3.2268Y-3.9598
X3.2268Y-3.9992
X3.2268Y-4.0386
X3.2268Y-4.078
X3.2268Y-4.1173
X3.2268Y-4.1567
X3.2268Y-4.1961
X3.2268Y-4.2354
X3.2268Y-4.2748
X3.2268Y-4.3555
X3.2367Y-3.1697
X3.2545Y-3.5971
X3.2613Y-3.1532
X3.2657Y-3.5425
X3.2661Y-3.8811
X3.2661Y-3.9205
X3.2661Y-3.9598
X3.2661Y-3.9992
X3.2661Y-4.0386
X3.2661Y-4.078
X3.2661Y-4.1173
X3.2661Y-4.1567
X3.2661Y-4.1961
X3.2661Y-4.2354
X3.2661Y-4.2748
X3.2661Y-4.3555
X3.2709Y-3.2705
X3.2772Y-3.1782
X3.2772Y-3.2078
X3.2772Y-3.2374
X3.2963Y-3.1252
X3.3055Y-3.8811
X3.3055Y-3.9205
X3.3055Y-3.9598
X3.3055Y-3.9992
X3.3055Y-4.0386
X3.3055Y-4.078
X3.3055Y-4.1173
X3.3055Y-4.1567
X3.3055Y-4.1961
X3.3055Y-4.2354
X3.3055Y-4.2748
X3.3055Y-4.3555
X3.3283Y-3.3276
X3.3283Y-3.3669
X3.3283Y-3.4063
X3.3356Y-3.1252
X3.3406Y-3.5713
X3.3449Y-3.9598
X3.3449Y-3.9992
X3.3449Y-4.0386
X3.3449Y-4.078
X3.3449Y-4.1173
X3.3449Y-4.1567
X3.3449Y-4.1961
X3.3449Y-4.2354
X3.3449Y-4.2748
X3.3449Y-4.3555
X3.3677Y-3.3276
X3.3677Y-3.3669
X3.3677Y-3.4063
X3.3726Y-3.5713
X3.375Y-3.1252
X3.3843Y-3.9992
X3.3843Y-4.0386
X3.3843Y-4.078
X3.3843Y-4.1173
X3.3843Y-4.1567
X3.3843Y-4.1961
X3.3843Y-4.2354
X3.3843Y-4.2748
X3.3843Y-4.3555
X3.3913Y-3.7788
X3.4071Y-3.3276
X3.4071Y-3.3669
X3.4071Y-3.4063
X3.4085Y-3.8884
X3.4142Y-3.7976
X3.4144Y-3.1252
X3.4185Y-3.2252
X3.4236Y-3.9992
X3.4236Y-4.0386
X3.4236Y-4.078
X3.4236Y-4.1173
X3.4236Y-4.1567
X3.4236Y-4.1961
X3.4236Y-4.2354
X3.4236Y-4.2748
X3.4236Y-4.3555
X3.4303Y-3.6298
X3.4312Y-3.9111
X3.4465Y-3.3276
X3.4465Y-3.3669
X3.4465Y-3.4063
X3.4537Y-3.1252
X3.4539Y-3.9344
X3.463Y-4.0386
X3.463Y-4.078
X3.463Y-4.1173
X3.463Y-4.1567
X3.463Y-4.1961
X3.463Y-4.2354
X3.463Y-4.2748
X3.463Y-4.3555
X3.4632Y-3.5684
X3.4764Y-3.9571
X3.4858Y-3.3276
X3.4858Y-3.3669
X3.4928Y-3.5753
X3.4994Y-3.9205
X3.5024Y-4.0386
X3.5024Y-4.078
X3.5024Y-4.1173
X3.5024Y-4.1567
X3.5024Y-4.1961
X3.5024Y-4.2354
X3.5024Y-4.2748
X3.5024Y-4.3555
X3.5083Y-3.6252
X3.5207Y-3.5653
X3.5294Y-3.8984
X3.5362Y-3.1606
X3.5362Y-3.2
X3.5417Y-4.0386
X3.5417Y-4.078
X3.5417Y-4.1173
X3.5417Y-4.1567
X3.5417Y-4.1961
X3.5417Y-4.2354
X3.5417Y-4.2748
X3.5417Y-4.3555
X3.5433Y-3.5425
X3.56Y-3.2638
X3.5657Y-3.6492
X3.5673Y-3.611
X3.5756Y-3.1606
X3.5756Y-3.2
X3.5765Y-3.4755
X3.5807Y-3.3907
X3.5811Y-3.7823
X3.5811Y-4.078
X3.5811Y-4.1173
X3.5811Y-4.1567
X3.5811Y-4.1961
X3.5811Y-4.2354
X3.5811Y-4.2748
X3.5811Y-4.3555
X3.5873Y-3.5883
X3.599Y-3.414
X3.6056Y-3.7261
X3.6087Y-3.4755
X3.615Y-3.1252
X3.615Y-3.1646
X3.615Y-3.2039
X3.615Y-3.2433
X3.615Y-3.2827
X3.6205Y-4.078
X3.6205Y-4.1173
X3.6205Y-4.1567
X3.6205Y-4.1961
X3.6205Y-4.2354
X3.6205Y-4.2748
X3.6205Y-4.3555
X3.6398Y-3.5323
X3.6543Y-3.1252
X3.6543Y-3.1646
X3.6543Y-3.2039
X3.6543Y-3.2433
X3.6543Y-3.2827
X3.6543Y-3.322
X3.6598Y-4.078
X3.6598Y-4.1173
X3.6598Y-4.1567
X3.6598Y-4.1961
X3.6598Y-4.2354
X3.6598Y-4.2748
X3.6598Y-4.3555
X3.6756Y-3.772
X3.6767Y-3.8174
X3.6921Y-3.4984
X3.6937Y-3.1252
X3.6937Y-3.1646
X3.6937Y-3.2039
X3.6937Y-3.2433
X3.6937Y-3.2827
X3.6937Y-3.322
X3.6937Y-3.3614
X3.6992Y-4.1567
X3.6992Y-4.1961
X3.6992Y-4.2354
X3.6992Y-4.2748
X3.6992Y-4.3555
X3.7197Y-3.8787
X3.7331Y-3.1252
X3.7331Y-3.1646
X3.7331Y-3.2039
X3.7331Y-3.2433
X3.7331Y-3.2827
X3.7331Y-3.322
X3.7331Y-3.3614
X3.7386Y-4.2354
X3.7386Y-4.2748
X3.7386Y-4.3476
X3.7386Y-4.387
X3.7559Y-3.9798
X3.7724Y-3.2827
X3.7724Y-3.322
X3.7724Y-3.3614
X3.7724Y-3.3614
X3.7775Y-3.7869
X3.778Y-4.3476
X3.778Y-4.387
X3.785Y-4.0026
X3.7917Y-3.535
X3.7993Y-3.6882
X3.8091Y-4.0769
X3.8118Y-3.2827
X3.8118Y-3.322
X3.8118Y-3.3614
X3.8118Y-3.3614
X3.8173Y-4.3476
X3.8173Y-4.387
X3.8185Y-3.7109
X3.8232Y-3.5299
X3.8445Y-3.8508
X3.8512Y-3.2827
X3.8512Y-3.322
X3.8512Y-3.3614
X3.8512Y-3.3614
X3.8567Y-4.3476
X3.8567Y-4.387
X3.8961Y-4.3476
X3.8961Y-4.387
X3.9165Y-3.7398
X3.9165Y-3.637
X3.9201Y-4.1264
X3.9346Y-3.1882
X3.9354Y-4.3476
X3.9354Y-4.387
X3.9607Y-3.3811
X3.9748Y-4.3476
X3.9748Y-4.387
X3.9752Y-3.211
X3.981Y-3.4943
X3.9815Y-3.9441
X3.9909Y-4.1339
X4.0039Y-3.304
X4.0142Y-4.3476
X4.0142Y-4.387
T2
G00X3.9911Y-3.5504
M15
G01X3.9656Y-3.5504
M16
G05
G00X3.9911Y-3.826
M15
G01X3.9656Y-3.826
M16
G05
T3
G00X3.872Y-3.5957
M15
G01X3.872Y-3.5839
M16
G05
G00X3.872Y-3.7925
M15
G01X3.872Y-3.7807
M16
G05
T0
M30
