G04 #@! TF.GenerationSoftware,KiCad,Pcbnew,7.0.6*
G04 #@! TF.CreationDate,2024-04-10T23:04:11-04:00*
G04 #@! TF.ProjectId,Watchy,57617463-6879-42e6-9b69-6361645f7063,rev?*
G04 #@! TF.SameCoordinates,Original*
G04 #@! TF.FileFunction,Copper,L4,Bot*
G04 #@! TF.FilePolarity,Positive*
%FSLAX46Y46*%
G04 Gerber Fmt 4.6, Leading zero omitted, Abs format (unit mm)*
G04 Created by KiCad (PCBNEW 7.0.6) date 2024-04-10 23:04:11*
%MOMM*%
%LPD*%
G01*
G04 APERTURE LIST*
G04 #@! TA.AperFunction,ComponentPad*
%ADD10O,1.550000X1.000000*%
G04 #@! TD*
G04 #@! TA.AperFunction,ComponentPad*
%ADD11O,0.950000X1.250000*%
G04 #@! TD*
G04 #@! TA.AperFunction,ViaPad*
%ADD12C,0.600000*%
G04 #@! TD*
G04 #@! TA.AperFunction,ViaPad*
%ADD13C,0.450000*%
G04 #@! TD*
G04 #@! TA.AperFunction,Conductor*
%ADD14C,0.150000*%
G04 #@! TD*
G04 APERTURE END LIST*
D10*
X101050000Y-97180000D03*
D11*
X98350000Y-96180000D03*
X98350000Y-91180000D03*
D10*
X101050000Y-90180000D03*
D12*
X84340000Y-94840000D03*
D13*
X77950000Y-85400000D03*
D12*
X72310000Y-82540000D03*
X85120000Y-86910000D03*
D13*
X89040000Y-90460000D03*
D12*
X84120000Y-87910000D03*
D13*
X89710000Y-79260000D03*
D12*
X87120000Y-84910000D03*
D13*
X86810000Y-79460000D03*
D12*
X86120000Y-87910000D03*
D13*
X93666761Y-91483943D03*
D12*
X91360000Y-81330000D03*
X97310000Y-96580000D03*
X87900000Y-99020000D03*
X72250000Y-99540000D03*
X85200000Y-94210000D03*
D13*
X78640000Y-81090000D03*
D12*
X76100000Y-109330000D03*
X99340000Y-81270000D03*
X82500000Y-94840000D03*
D13*
X92270000Y-95010000D03*
D12*
X78820000Y-94840000D03*
D13*
X72290000Y-108960000D03*
D12*
X84120000Y-85910000D03*
X75600000Y-85670000D03*
X93350000Y-82220000D03*
X100690000Y-99910000D03*
X86120000Y-85910000D03*
D13*
X94840427Y-89334557D03*
X79890000Y-82320000D03*
X89710000Y-80460000D03*
D12*
X99480000Y-92380000D03*
D13*
X88010000Y-79460000D03*
D12*
X98430000Y-84110000D03*
D13*
X95020000Y-108360000D03*
X89710000Y-79860000D03*
D12*
X88120000Y-87910000D03*
X87120000Y-86910000D03*
D13*
X87410000Y-79460000D03*
D12*
X83398187Y-99308400D03*
X81580000Y-94840000D03*
X80660000Y-94840000D03*
X88120000Y-85910000D03*
D13*
X91000000Y-92093100D03*
D12*
X83420000Y-94840000D03*
X85120000Y-84910000D03*
D13*
X101700000Y-89160000D03*
X94840000Y-89950000D03*
D12*
X91780000Y-79430000D03*
D13*
X98430000Y-104210000D03*
D12*
X79740000Y-94840000D03*
D13*
X82500000Y-79450000D03*
D12*
X93920000Y-96730000D03*
X69900000Y-84100000D03*
D13*
X90590000Y-87110000D03*
D12*
X87699561Y-81183001D03*
D13*
X81080000Y-83070000D03*
D12*
X89560000Y-82470000D03*
X73800000Y-81200000D03*
D13*
X78170000Y-83800000D03*
X100544993Y-105439972D03*
D12*
X85780000Y-90600000D03*
D13*
X94620000Y-105120000D03*
D12*
X72360000Y-110360000D03*
D13*
X88540000Y-95020000D03*
D12*
X84150000Y-99020000D03*
X81609192Y-85180807D03*
D13*
X81086078Y-81571800D03*
X86900000Y-98950000D03*
X87880000Y-96550000D03*
X99030000Y-88620000D03*
X83230000Y-82060000D03*
X81330000Y-82460000D03*
X78170000Y-81540000D03*
X79306507Y-92710000D03*
X81695461Y-81809685D03*
X79211090Y-93552312D03*
X79070000Y-80600000D03*
D12*
X98000000Y-101140000D03*
X99750000Y-86100000D03*
X99750000Y-98250000D03*
D13*
X81850000Y-80910000D03*
X101210000Y-104860000D03*
X94800000Y-103560000D03*
X82540000Y-82770000D03*
X76980000Y-80950000D03*
X84720000Y-81430000D03*
X101490000Y-83760000D03*
X90560000Y-87770000D03*
X78760000Y-88420000D03*
X76554052Y-84444840D03*
X76280000Y-80290000D03*
X85420000Y-81430000D03*
X70490000Y-81230000D03*
X69810000Y-104900000D03*
X82250000Y-81450000D03*
X90135566Y-93588768D03*
X81640000Y-88520000D03*
X101650000Y-100030000D03*
X95610000Y-101840000D03*
X93011808Y-85783139D03*
X90430000Y-86480000D03*
X92490000Y-85300000D03*
X90425000Y-85710000D03*
X81087207Y-87306138D03*
X94130000Y-92020000D03*
X94130000Y-90940000D03*
X81170997Y-88017436D03*
D14*
X86900000Y-97530000D02*
X87880000Y-96550000D01*
X86800000Y-98950000D02*
X86800000Y-97530000D01*
X83341400Y-83101951D02*
X82158192Y-84285159D01*
X82158192Y-84285159D02*
X82158192Y-87477183D01*
X83230000Y-82060000D02*
X83341400Y-82171400D01*
X83442409Y-88761400D02*
X88806258Y-88761400D01*
X82158192Y-87477183D02*
X83442409Y-88761400D01*
X88806258Y-88761400D02*
X89267658Y-88300000D01*
X89267658Y-88300000D02*
X98710000Y-88300000D01*
X83341400Y-82171400D02*
X83341400Y-83101951D01*
X98710000Y-88300000D02*
X99030000Y-88620000D01*
X79681007Y-92335500D02*
X79681007Y-83763300D01*
X79306507Y-92710000D02*
X79681007Y-92335500D01*
X81268585Y-82460000D02*
X80869293Y-82060707D01*
X81330000Y-82460000D02*
X81268585Y-82460000D01*
X79681007Y-83763300D02*
X80869293Y-82575014D01*
X80869293Y-82575014D02*
X80869293Y-82060707D01*
X80869293Y-82060707D02*
X80629585Y-81821000D01*
X80629585Y-81821000D02*
X78451000Y-81821000D01*
X78451000Y-81821000D02*
X78170000Y-81540000D01*
X79378607Y-91932207D02*
X78807507Y-92503307D01*
X81695461Y-81475490D02*
X81292771Y-81072800D01*
X79542800Y-81072800D02*
X79070000Y-80600000D01*
X77671000Y-81333307D02*
X77671000Y-81746693D01*
X77671000Y-81746693D02*
X79378607Y-83454300D01*
X81695461Y-81809685D02*
X81695461Y-81475490D01*
X79061000Y-80591000D02*
X78413307Y-80591000D01*
X78807507Y-93148729D02*
X79211090Y-93552312D01*
X81292771Y-81072800D02*
X79542800Y-81072800D01*
X79070000Y-80600000D02*
X79061000Y-80591000D01*
X79378607Y-83454300D02*
X79378607Y-91932207D01*
X78807507Y-92503307D02*
X78807507Y-93148729D01*
X78413307Y-80591000D02*
X77671000Y-81333307D01*
X82780749Y-83232846D02*
X80588207Y-85425388D01*
X96805693Y-104860000D02*
X101210000Y-104860000D01*
X82746693Y-82271000D02*
X83039000Y-82563307D01*
X83039000Y-82976693D02*
X82782847Y-83232846D01*
X82749000Y-81243307D02*
X82749000Y-82241000D01*
X82746693Y-82243307D02*
X82746693Y-82271000D01*
X82749000Y-82241000D02*
X82746693Y-82243307D01*
X93806600Y-94216600D02*
X95102400Y-95512400D01*
X80588207Y-88173900D02*
X86630907Y-94216600D01*
X83039000Y-82563307D02*
X83039000Y-82976693D01*
X81850000Y-80910000D02*
X82415693Y-80910000D01*
X95102400Y-103156707D02*
X96805693Y-104860000D01*
X86630907Y-94216600D02*
X93806600Y-94216600D01*
X80588207Y-85425388D02*
X80588207Y-88173900D01*
X82415693Y-80910000D02*
X82749000Y-81243307D01*
X82782847Y-83232846D02*
X82780749Y-83232846D01*
X95102400Y-95512400D02*
X95102400Y-103156707D01*
X94800000Y-95634264D02*
X94800000Y-103560000D01*
X86505649Y-94519000D02*
X93684736Y-94519000D01*
X82513351Y-82770000D02*
X80285807Y-84997543D01*
X93684736Y-94519000D02*
X94800000Y-95634264D01*
X82540000Y-82770000D02*
X82513351Y-82770000D01*
X80285807Y-88299158D02*
X86505649Y-94519000D01*
X80285807Y-84997543D02*
X80285807Y-88299158D01*
X82460592Y-84410417D02*
X83643800Y-83227209D01*
X84720000Y-81430000D02*
X83363351Y-81430000D01*
X101490000Y-85136404D02*
X101490000Y-83760000D01*
X84720000Y-81435693D02*
X84720000Y-81430000D01*
X90560000Y-87770000D02*
X98856404Y-87770000D01*
X83643800Y-83227209D02*
X83643800Y-82511893D01*
X90560000Y-87770000D02*
X89370000Y-87770000D01*
X77829000Y-80101000D02*
X76980000Y-80950000D01*
X79000000Y-80101000D02*
X77829000Y-80101000D01*
X82460592Y-87351925D02*
X82460592Y-84410417D01*
X88681000Y-88459000D02*
X83567667Y-88459000D01*
X82816675Y-80883324D02*
X82034351Y-80101000D01*
X82034351Y-80101000D02*
X79000000Y-80101000D01*
X83643800Y-82511893D02*
X84720000Y-81435693D01*
X89370000Y-87770000D02*
X88681000Y-88459000D01*
X83363351Y-81430000D02*
X82816675Y-80883324D01*
X98856404Y-87770000D02*
X101490000Y-85136404D01*
X83567667Y-88459000D02*
X82460592Y-87351925D01*
X76301000Y-85956693D02*
X76301000Y-85961000D01*
X75503591Y-81749000D02*
X73510000Y-81749000D01*
X76280000Y-80290000D02*
X76962591Y-80290000D01*
X77453991Y-79798600D02*
X82159609Y-79798600D01*
X85420000Y-81424307D02*
X85420000Y-81430000D01*
X76962591Y-80290000D02*
X77453991Y-79798600D01*
X73510000Y-81749000D02*
X71009000Y-81749000D01*
X82159609Y-79798600D02*
X83292009Y-80931000D01*
X76471000Y-82321000D02*
X76471000Y-80781591D01*
X76554052Y-84444840D02*
X76301000Y-84697892D01*
X76950000Y-82800000D02*
X76471000Y-82321000D01*
X76950000Y-84048892D02*
X76950000Y-82800000D01*
X76554052Y-84444840D02*
X76950000Y-84048892D01*
X83292009Y-80931000D02*
X84926693Y-80931000D01*
X84926693Y-80931000D02*
X85420000Y-81424307D01*
X71009000Y-81749000D02*
X70490000Y-81230000D01*
X76301000Y-84697892D02*
X76301000Y-85956693D01*
X76301000Y-85961000D02*
X78760000Y-88420000D01*
X76471000Y-80781591D02*
X77453991Y-79798600D01*
X76471000Y-80781591D02*
X75503591Y-81749000D01*
X79983407Y-93626593D02*
X79450000Y-94160000D01*
X81952846Y-82902847D02*
X79983407Y-84872285D01*
X82250000Y-81450000D02*
X82250000Y-81990000D01*
X81952846Y-82287154D02*
X81952846Y-82902847D01*
X69810000Y-102728119D02*
X69810000Y-104900000D01*
X82250000Y-81990000D02*
X81952846Y-82287154D01*
X79450000Y-94160000D02*
X78378119Y-94160000D01*
X79983407Y-84872285D02*
X79983407Y-93626593D01*
X78378119Y-94160000D02*
X69810000Y-102728119D01*
X89534800Y-93374800D02*
X89921598Y-93374800D01*
X86772835Y-93374800D02*
X89534800Y-93374800D01*
X81640000Y-88520000D02*
X81918035Y-88520000D01*
X89921598Y-93374800D02*
X90135566Y-93588768D01*
X81918035Y-88520000D02*
X86772835Y-93374800D01*
X99840000Y-101840000D02*
X101650000Y-100030000D01*
X99840000Y-101840000D02*
X95610000Y-101840000D01*
X90430000Y-86480000D02*
X92314947Y-86480000D01*
X92314947Y-86480000D02*
X93011808Y-85783139D01*
X90425000Y-85710000D02*
X92080000Y-85710000D01*
X92080000Y-85710000D02*
X92490000Y-85300000D01*
X88261600Y-92488422D02*
X88261600Y-92618800D01*
X89168800Y-92618800D02*
X89168800Y-92488422D01*
X87023351Y-92770000D02*
X81559489Y-87306138D01*
X94130000Y-92020000D02*
X93380000Y-92770000D01*
X93380000Y-92770000D02*
X89320000Y-92770000D01*
X87959200Y-92618800D02*
X87959200Y-92488422D01*
X88564000Y-92618800D02*
X88564000Y-92488422D01*
X87656800Y-92488422D02*
X87656800Y-92618800D01*
X87455600Y-92770000D02*
X87023351Y-92770000D01*
X88866400Y-92488422D02*
X88866400Y-92618800D01*
X81559489Y-87306138D02*
X81087207Y-87306138D01*
X87505600Y-92770000D02*
X87455600Y-92770000D01*
X89168778Y-92488422D02*
G75*
G03*
X89017600Y-92337222I-151178J22D01*
G01*
X88715200Y-92770000D02*
G75*
G03*
X88866400Y-92618800I0J151200D01*
G01*
X87959200Y-92618800D02*
G75*
G03*
X88110400Y-92770000I151200J0D01*
G01*
X89168800Y-92618800D02*
G75*
G03*
X89320000Y-92770000I151200J0D01*
G01*
X87959178Y-92488422D02*
G75*
G03*
X87808000Y-92337222I-151178J22D01*
G01*
X88563978Y-92488422D02*
G75*
G03*
X88412800Y-92337222I-151178J22D01*
G01*
X88564000Y-92618800D02*
G75*
G03*
X88715200Y-92770000I151200J0D01*
G01*
X88110400Y-92770000D02*
G75*
G03*
X88261600Y-92618800I0J151200D01*
G01*
X87505600Y-92770000D02*
G75*
G03*
X87656800Y-92618800I0J151200D01*
G01*
X88412800Y-92337200D02*
G75*
G03*
X88261600Y-92488422I0J-151200D01*
G01*
X87808000Y-92337200D02*
G75*
G03*
X87656800Y-92488422I0J-151200D01*
G01*
X89017600Y-92337200D02*
G75*
G03*
X88866400Y-92488422I0J-151200D01*
G01*
X81843129Y-88017436D02*
X86898093Y-93072400D01*
X81170997Y-88017436D02*
X81843129Y-88017436D01*
X93783293Y-93072400D02*
X94629000Y-92226693D01*
X94629000Y-92226693D02*
X94629000Y-91439000D01*
X94629000Y-91439000D02*
X94130000Y-90940000D01*
X86898093Y-93072400D02*
X93783293Y-93072400D01*
M02*
