G04 #@! TF.GenerationSoftware,KiCad,Pcbnew,(5.1.8)-1*
G04 #@! TF.CreationDate,2021-12-27T23:44:40-05:00*
G04 #@! TF.ProjectId,Watchy,57617463-6879-42e6-9b69-6361645f7063,rev?*
G04 #@! TF.SameCoordinates,Original*
G04 #@! TF.FileFunction,Paste,Top*
G04 #@! TF.FilePolarity,Positive*
%FSLAX46Y46*%
G04 Gerber Fmt 4.6, Leading zero omitted, Abs format (unit mm)*
G04 Created by KiCad (PCBNEW (5.1.8)-1) date 2021-12-27 23:44:40*
%MOMM*%
%LPD*%
G01*
G04 APERTURE LIST*
%ADD10R,1.000000X1.800000*%
%ADD11R,0.600000X0.400000*%
%ADD12R,0.375000X0.350000*%
%ADD13R,0.350000X0.375000*%
%ADD14O,0.950000X1.250000*%
%ADD15O,1.550000X1.000000*%
%ADD16R,1.350000X0.400000*%
%ADD17R,1.000000X1.400000*%
%ADD18R,2.000000X3.000000*%
%ADD19R,0.300000X1.300000*%
%ADD20R,2.900000X2.100000*%
%ADD21R,1.600000X0.500000*%
%ADD22R,0.780000X0.780000*%
%ADD23R,0.300000X0.850000*%
%ADD24R,0.850000X0.300000*%
%ADD25R,0.400000X0.600000*%
%ADD26R,1.000000X1.250000*%
%ADD27R,1.200000X0.900000*%
%ADD28R,0.800000X0.800000*%
%ADD29R,1.100000X1.100000*%
%ADD30R,3.900000X1.200000*%
%ADD31R,0.800000X0.900000*%
%ADD32R,0.900000X0.800000*%
%ADD33R,0.772500X0.772500*%
%ADD34R,0.700000X0.250000*%
%ADD35R,0.250000X0.700000*%
%ADD36R,0.650000X1.060000*%
%ADD37R,0.650000X0.400000*%
%ADD38O,1.350000X1.500000*%
%ADD39R,1.350000X1.500000*%
%ADD40R,0.500000X0.500000*%
%ADD41R,0.900000X0.500000*%
G04 APERTURE END LIST*
D10*
X81580000Y-80200000D03*
X79080000Y-80200000D03*
D11*
X78260000Y-85400000D03*
X78260000Y-84500000D03*
X77360000Y-83800000D03*
X77360000Y-82900000D03*
D12*
X80207500Y-89910000D03*
X80207500Y-90410000D03*
X81732500Y-89910000D03*
X81732500Y-90410000D03*
X80207500Y-90910000D03*
X81732500Y-90910000D03*
X80207500Y-89410000D03*
X81732500Y-89410000D03*
D13*
X80720000Y-90922500D03*
X81220000Y-90922500D03*
X81220000Y-89397500D03*
X80720000Y-89397500D03*
D11*
X78260000Y-83800000D03*
X78260000Y-82900000D03*
D14*
X98350000Y-91180000D03*
X98350000Y-96180000D03*
D15*
X101050000Y-90180000D03*
X101050000Y-97180000D03*
D16*
X98350000Y-94980000D03*
X98350000Y-94330000D03*
X98350000Y-93680000D03*
X98350000Y-93030000D03*
X98350000Y-92380000D03*
D17*
X69830000Y-82730000D03*
X69830000Y-77130000D03*
X71530000Y-82730000D03*
X71530000Y-77130000D03*
X69830000Y-109130000D03*
X69830000Y-103530000D03*
X71530000Y-109130000D03*
X71530000Y-103530000D03*
X101370000Y-77130000D03*
X101370000Y-82730000D03*
X99670000Y-77130000D03*
X99670000Y-82730000D03*
X101370000Y-103530000D03*
X101370000Y-109130000D03*
X99670000Y-103530000D03*
X99670000Y-109130000D03*
D18*
X78075000Y-99770000D03*
X92875000Y-99770000D03*
D19*
X91225000Y-97420000D03*
X90725000Y-97420000D03*
X90225000Y-97420000D03*
X89725000Y-97420000D03*
X89225000Y-97420000D03*
X88725000Y-97420000D03*
X88225000Y-97420000D03*
X87725000Y-97420000D03*
X83225000Y-97420000D03*
X82725000Y-97420000D03*
X82225000Y-97420000D03*
X80225000Y-97420000D03*
X79725000Y-97420000D03*
X80725000Y-97420000D03*
X81225000Y-97420000D03*
X81725000Y-97420000D03*
X85725000Y-97420000D03*
X85225000Y-97420000D03*
X84725000Y-97420000D03*
X83725000Y-97420000D03*
X84225000Y-97420000D03*
X86225000Y-97420000D03*
X86725000Y-97420000D03*
X87225000Y-97420000D03*
D20*
X96880000Y-87877000D03*
X96880000Y-81545000D03*
D21*
X99730000Y-84095000D03*
X99730000Y-85345000D03*
D11*
X100400000Y-88280000D03*
X100400000Y-87380000D03*
D22*
X93810000Y-91080000D03*
X93810000Y-92380000D03*
X95110000Y-91080000D03*
X95110000Y-92380000D03*
D23*
X93210000Y-89780000D03*
X93710000Y-89780000D03*
X94210000Y-89780000D03*
X94710000Y-89780000D03*
X95210000Y-89780000D03*
X95710000Y-89780000D03*
D24*
X96410000Y-90480000D03*
X96410000Y-90980000D03*
X96410000Y-91480000D03*
X96410000Y-91980000D03*
X96410000Y-92480000D03*
X96410000Y-92980000D03*
D23*
X95710000Y-93680000D03*
X95210000Y-93680000D03*
X94710000Y-93680000D03*
X94210000Y-93680000D03*
X93710000Y-93680000D03*
X93210000Y-93680000D03*
D24*
X92510000Y-92980000D03*
X92510000Y-92480000D03*
X92510000Y-91980000D03*
X92510000Y-91480000D03*
X92510000Y-90980000D03*
X92510000Y-90480000D03*
D25*
X98200000Y-103040000D03*
X97300000Y-103040000D03*
D26*
X73530000Y-103520000D03*
X75530000Y-103520000D03*
X76530000Y-109770000D03*
X74530000Y-109770000D03*
X85520000Y-80580000D03*
X87520000Y-80580000D03*
D27*
X69950000Y-101940000D03*
X69950000Y-98640000D03*
X72250000Y-101940000D03*
X72250000Y-98640000D03*
X74550000Y-98640000D03*
X74550000Y-101940000D03*
X95970000Y-95180000D03*
X95970000Y-98480000D03*
D28*
X101740000Y-84780000D03*
X101740000Y-86380000D03*
D29*
X73810000Y-82805000D03*
X73810000Y-80005000D03*
D30*
X75030000Y-108040000D03*
X75030000Y-105240000D03*
D31*
X96800000Y-108080000D03*
X95850000Y-106080000D03*
X97750000Y-106080000D03*
X98100000Y-99880000D03*
X96200000Y-99880000D03*
X97150000Y-101880000D03*
D32*
X77510000Y-81750000D03*
X77510000Y-79850000D03*
X75510000Y-80800000D03*
D25*
X85220000Y-81920000D03*
X86120000Y-81920000D03*
D11*
X91250000Y-88990000D03*
X91250000Y-89890000D03*
D25*
X93060000Y-88630000D03*
X92160000Y-88630000D03*
X95400000Y-103040000D03*
X96300000Y-103040000D03*
X97810000Y-79670000D03*
X96910000Y-79670000D03*
D11*
X75560000Y-83800000D03*
X75560000Y-82900000D03*
D25*
X98200000Y-104830000D03*
X97300000Y-104830000D03*
X95400000Y-104830000D03*
X96300000Y-104830000D03*
D11*
X73250000Y-110220000D03*
X73250000Y-109320000D03*
X99500000Y-88280000D03*
X99500000Y-87380000D03*
D25*
X97570000Y-98710000D03*
X98470000Y-98710000D03*
D11*
X101940000Y-87380000D03*
X101940000Y-88280000D03*
X76460000Y-82900000D03*
X76460000Y-83800000D03*
D33*
X88405000Y-84520000D03*
X87117500Y-84520000D03*
X85830000Y-84520000D03*
X84542500Y-84520000D03*
X88405000Y-85807500D03*
X87117500Y-85807500D03*
X85830000Y-85807500D03*
X84542500Y-85807500D03*
X88405000Y-87095000D03*
X87117500Y-87095000D03*
X85830000Y-87095000D03*
X84542500Y-87095000D03*
X88405000Y-88382500D03*
X87117500Y-88382500D03*
X85830000Y-88382500D03*
X84542500Y-88382500D03*
D34*
X89873750Y-83701250D03*
X89873750Y-84201250D03*
X89873750Y-84701250D03*
X89873750Y-85201250D03*
X89873750Y-85701250D03*
X89873750Y-86201250D03*
X89873750Y-86701250D03*
X89873750Y-87201250D03*
X89873750Y-87701250D03*
X89873750Y-88201250D03*
X89873750Y-88701250D03*
X89873750Y-89201250D03*
D35*
X89223750Y-89851250D03*
X88723750Y-89851250D03*
X88223750Y-89851250D03*
X87723750Y-89851250D03*
X87223750Y-89851250D03*
X86723750Y-89851250D03*
X86223750Y-89851250D03*
X85723750Y-89851250D03*
X85223750Y-89851250D03*
X84723750Y-89851250D03*
X84223750Y-89851250D03*
X83723750Y-89851250D03*
D34*
X83073750Y-89201250D03*
X83073750Y-88701250D03*
X83073750Y-88201250D03*
X83073750Y-87701250D03*
X83073750Y-87201250D03*
X83073750Y-86701250D03*
X83073750Y-86201250D03*
X83073750Y-85701250D03*
X83073750Y-85201250D03*
X83073750Y-84701250D03*
X83073750Y-84201250D03*
X83073750Y-83701250D03*
D35*
X83723750Y-83051250D03*
X84223750Y-83051250D03*
X84723750Y-83051250D03*
X85223750Y-83051250D03*
X85723750Y-83051250D03*
X86223750Y-83051250D03*
X86723750Y-83051250D03*
X87223750Y-83051250D03*
X87723750Y-83051250D03*
X88223750Y-83051250D03*
X88723750Y-83051250D03*
X89223750Y-83051250D03*
D36*
X94310000Y-95130000D03*
X93360000Y-95130000D03*
X92410000Y-95130000D03*
X92410000Y-97330000D03*
X94310000Y-97330000D03*
X101650000Y-101280000D03*
X99750000Y-101280000D03*
X99750000Y-99080000D03*
X100700000Y-99080000D03*
X101650000Y-99080000D03*
D37*
X89060000Y-95290000D03*
X89060000Y-93990000D03*
X90960000Y-94640000D03*
X89060000Y-94640000D03*
X90960000Y-93990000D03*
X90960000Y-95290000D03*
D38*
X71900000Y-85155000D03*
D39*
X69900000Y-85155000D03*
D40*
X88725000Y-79430000D03*
D41*
X90825000Y-79430000D03*
D11*
X77360000Y-84500000D03*
X77360000Y-85400000D03*
G36*
G01*
X79502500Y-83550000D02*
X80167500Y-83550000D01*
G75*
G02*
X80340000Y-83722500I0J-172500D01*
G01*
X80340000Y-84067500D01*
G75*
G02*
X80167500Y-84240000I-172500J0D01*
G01*
X79502500Y-84240000D01*
G75*
G02*
X79330000Y-84067500I0J172500D01*
G01*
X79330000Y-83722500D01*
G75*
G02*
X79502500Y-83550000I172500J0D01*
G01*
G37*
G36*
G01*
X80752500Y-83550000D02*
X81417500Y-83550000D01*
G75*
G02*
X81590000Y-83722500I0J-172500D01*
G01*
X81590000Y-84067500D01*
G75*
G02*
X81417500Y-84240000I-172500J0D01*
G01*
X80752500Y-84240000D01*
G75*
G02*
X80580000Y-84067500I0J172500D01*
G01*
X80580000Y-83722500D01*
G75*
G02*
X80752500Y-83550000I172500J0D01*
G01*
G37*
G36*
G01*
X79502500Y-82700000D02*
X80167500Y-82700000D01*
G75*
G02*
X80340000Y-82872500I0J-172500D01*
G01*
X80340000Y-83217500D01*
G75*
G02*
X80167500Y-83390000I-172500J0D01*
G01*
X79502500Y-83390000D01*
G75*
G02*
X79330000Y-83217500I0J172500D01*
G01*
X79330000Y-82872500D01*
G75*
G02*
X79502500Y-82700000I172500J0D01*
G01*
G37*
G36*
G01*
X80752500Y-82700000D02*
X81417500Y-82700000D01*
G75*
G02*
X81590000Y-82872500I0J-172500D01*
G01*
X81590000Y-83217500D01*
G75*
G02*
X81417500Y-83390000I-172500J0D01*
G01*
X80752500Y-83390000D01*
G75*
G02*
X80580000Y-83217500I0J172500D01*
G01*
X80580000Y-82872500D01*
G75*
G02*
X80752500Y-82700000I172500J0D01*
G01*
G37*
G36*
G01*
X81397500Y-84520000D02*
X81522500Y-84520000D01*
G75*
G02*
X81585000Y-84582500I0J-62500D01*
G01*
X81585000Y-85282500D01*
G75*
G02*
X81522500Y-85345000I-62500J0D01*
G01*
X81397500Y-85345000D01*
G75*
G02*
X81335000Y-85282500I0J62500D01*
G01*
X81335000Y-84582500D01*
G75*
G02*
X81397500Y-84520000I62500J0D01*
G01*
G37*
G36*
G01*
X80897500Y-84520000D02*
X81022500Y-84520000D01*
G75*
G02*
X81085000Y-84582500I0J-62500D01*
G01*
X81085000Y-85282500D01*
G75*
G02*
X81022500Y-85345000I-62500J0D01*
G01*
X80897500Y-85345000D01*
G75*
G02*
X80835000Y-85282500I0J62500D01*
G01*
X80835000Y-84582500D01*
G75*
G02*
X80897500Y-84520000I62500J0D01*
G01*
G37*
G36*
G01*
X80397500Y-84520000D02*
X80522500Y-84520000D01*
G75*
G02*
X80585000Y-84582500I0J-62500D01*
G01*
X80585000Y-85282500D01*
G75*
G02*
X80522500Y-85345000I-62500J0D01*
G01*
X80397500Y-85345000D01*
G75*
G02*
X80335000Y-85282500I0J62500D01*
G01*
X80335000Y-84582500D01*
G75*
G02*
X80397500Y-84520000I62500J0D01*
G01*
G37*
G36*
G01*
X79897500Y-84520000D02*
X80022500Y-84520000D01*
G75*
G02*
X80085000Y-84582500I0J-62500D01*
G01*
X80085000Y-85282500D01*
G75*
G02*
X80022500Y-85345000I-62500J0D01*
G01*
X79897500Y-85345000D01*
G75*
G02*
X79835000Y-85282500I0J62500D01*
G01*
X79835000Y-84582500D01*
G75*
G02*
X79897500Y-84520000I62500J0D01*
G01*
G37*
G36*
G01*
X79397500Y-84520000D02*
X79522500Y-84520000D01*
G75*
G02*
X79585000Y-84582500I0J-62500D01*
G01*
X79585000Y-85282500D01*
G75*
G02*
X79522500Y-85345000I-62500J0D01*
G01*
X79397500Y-85345000D01*
G75*
G02*
X79335000Y-85282500I0J62500D01*
G01*
X79335000Y-84582500D01*
G75*
G02*
X79397500Y-84520000I62500J0D01*
G01*
G37*
G36*
G01*
X79397500Y-81595000D02*
X79522500Y-81595000D01*
G75*
G02*
X79585000Y-81657500I0J-62500D01*
G01*
X79585000Y-82357500D01*
G75*
G02*
X79522500Y-82420000I-62500J0D01*
G01*
X79397500Y-82420000D01*
G75*
G02*
X79335000Y-82357500I0J62500D01*
G01*
X79335000Y-81657500D01*
G75*
G02*
X79397500Y-81595000I62500J0D01*
G01*
G37*
G36*
G01*
X79897500Y-81595000D02*
X80022500Y-81595000D01*
G75*
G02*
X80085000Y-81657500I0J-62500D01*
G01*
X80085000Y-82357500D01*
G75*
G02*
X80022500Y-82420000I-62500J0D01*
G01*
X79897500Y-82420000D01*
G75*
G02*
X79835000Y-82357500I0J62500D01*
G01*
X79835000Y-81657500D01*
G75*
G02*
X79897500Y-81595000I62500J0D01*
G01*
G37*
G36*
G01*
X80397500Y-81595000D02*
X80522500Y-81595000D01*
G75*
G02*
X80585000Y-81657500I0J-62500D01*
G01*
X80585000Y-82357500D01*
G75*
G02*
X80522500Y-82420000I-62500J0D01*
G01*
X80397500Y-82420000D01*
G75*
G02*
X80335000Y-82357500I0J62500D01*
G01*
X80335000Y-81657500D01*
G75*
G02*
X80397500Y-81595000I62500J0D01*
G01*
G37*
G36*
G01*
X80897500Y-81595000D02*
X81022500Y-81595000D01*
G75*
G02*
X81085000Y-81657500I0J-62500D01*
G01*
X81085000Y-82357500D01*
G75*
G02*
X81022500Y-82420000I-62500J0D01*
G01*
X80897500Y-82420000D01*
G75*
G02*
X80835000Y-82357500I0J62500D01*
G01*
X80835000Y-81657500D01*
G75*
G02*
X80897500Y-81595000I62500J0D01*
G01*
G37*
G36*
G01*
X81397500Y-81595000D02*
X81522500Y-81595000D01*
G75*
G02*
X81585000Y-81657500I0J-62500D01*
G01*
X81585000Y-82357500D01*
G75*
G02*
X81522500Y-82420000I-62500J0D01*
G01*
X81397500Y-82420000D01*
G75*
G02*
X81335000Y-82357500I0J62500D01*
G01*
X81335000Y-81657500D01*
G75*
G02*
X81397500Y-81595000I62500J0D01*
G01*
G37*
G36*
G01*
X84370000Y-80135000D02*
X83870000Y-80135000D01*
G75*
G02*
X83645000Y-79910000I0J225000D01*
G01*
X83645000Y-79460000D01*
G75*
G02*
X83870000Y-79235000I225000J0D01*
G01*
X84370000Y-79235000D01*
G75*
G02*
X84595000Y-79460000I0J-225000D01*
G01*
X84595000Y-79910000D01*
G75*
G02*
X84370000Y-80135000I-225000J0D01*
G01*
G37*
G36*
G01*
X84370000Y-81685000D02*
X83870000Y-81685000D01*
G75*
G02*
X83645000Y-81460000I0J225000D01*
G01*
X83645000Y-81010000D01*
G75*
G02*
X83870000Y-80785000I225000J0D01*
G01*
X84370000Y-80785000D01*
G75*
G02*
X84595000Y-81010000I0J-225000D01*
G01*
X84595000Y-81460000D01*
G75*
G02*
X84370000Y-81685000I-225000J0D01*
G01*
G37*
G36*
G01*
X87960000Y-94315000D02*
X87460000Y-94315000D01*
G75*
G02*
X87235000Y-94090000I0J225000D01*
G01*
X87235000Y-93640000D01*
G75*
G02*
X87460000Y-93415000I225000J0D01*
G01*
X87960000Y-93415000D01*
G75*
G02*
X88185000Y-93640000I0J-225000D01*
G01*
X88185000Y-94090000D01*
G75*
G02*
X87960000Y-94315000I-225000J0D01*
G01*
G37*
G36*
G01*
X87960000Y-95865000D02*
X87460000Y-95865000D01*
G75*
G02*
X87235000Y-95640000I0J225000D01*
G01*
X87235000Y-95190000D01*
G75*
G02*
X87460000Y-94965000I225000J0D01*
G01*
X87960000Y-94965000D01*
G75*
G02*
X88185000Y-95190000I0J-225000D01*
G01*
X88185000Y-95640000D01*
G75*
G02*
X87960000Y-95865000I-225000J0D01*
G01*
G37*
G36*
G01*
X82760000Y-95865000D02*
X82260000Y-95865000D01*
G75*
G02*
X82035000Y-95640000I0J225000D01*
G01*
X82035000Y-95190000D01*
G75*
G02*
X82260000Y-94965000I225000J0D01*
G01*
X82760000Y-94965000D01*
G75*
G02*
X82985000Y-95190000I0J-225000D01*
G01*
X82985000Y-95640000D01*
G75*
G02*
X82760000Y-95865000I-225000J0D01*
G01*
G37*
G36*
G01*
X82760000Y-94315000D02*
X82260000Y-94315000D01*
G75*
G02*
X82035000Y-94090000I0J225000D01*
G01*
X82035000Y-93640000D01*
G75*
G02*
X82260000Y-93415000I225000J0D01*
G01*
X82760000Y-93415000D01*
G75*
G02*
X82985000Y-93640000I0J-225000D01*
G01*
X82985000Y-94090000D01*
G75*
G02*
X82760000Y-94315000I-225000J0D01*
G01*
G37*
G36*
G01*
X85360000Y-95865000D02*
X84860000Y-95865000D01*
G75*
G02*
X84635000Y-95640000I0J225000D01*
G01*
X84635000Y-95190000D01*
G75*
G02*
X84860000Y-94965000I225000J0D01*
G01*
X85360000Y-94965000D01*
G75*
G02*
X85585000Y-95190000I0J-225000D01*
G01*
X85585000Y-95640000D01*
G75*
G02*
X85360000Y-95865000I-225000J0D01*
G01*
G37*
G36*
G01*
X85360000Y-94315000D02*
X84860000Y-94315000D01*
G75*
G02*
X84635000Y-94090000I0J225000D01*
G01*
X84635000Y-93640000D01*
G75*
G02*
X84860000Y-93415000I225000J0D01*
G01*
X85360000Y-93415000D01*
G75*
G02*
X85585000Y-93640000I0J-225000D01*
G01*
X85585000Y-94090000D01*
G75*
G02*
X85360000Y-94315000I-225000J0D01*
G01*
G37*
G36*
G01*
X86660000Y-94315000D02*
X86160000Y-94315000D01*
G75*
G02*
X85935000Y-94090000I0J225000D01*
G01*
X85935000Y-93640000D01*
G75*
G02*
X86160000Y-93415000I225000J0D01*
G01*
X86660000Y-93415000D01*
G75*
G02*
X86885000Y-93640000I0J-225000D01*
G01*
X86885000Y-94090000D01*
G75*
G02*
X86660000Y-94315000I-225000J0D01*
G01*
G37*
G36*
G01*
X86660000Y-95865000D02*
X86160000Y-95865000D01*
G75*
G02*
X85935000Y-95640000I0J225000D01*
G01*
X85935000Y-95190000D01*
G75*
G02*
X86160000Y-94965000I225000J0D01*
G01*
X86660000Y-94965000D01*
G75*
G02*
X86885000Y-95190000I0J-225000D01*
G01*
X86885000Y-95640000D01*
G75*
G02*
X86660000Y-95865000I-225000J0D01*
G01*
G37*
G36*
G01*
X84060000Y-95865000D02*
X83560000Y-95865000D01*
G75*
G02*
X83335000Y-95640000I0J225000D01*
G01*
X83335000Y-95190000D01*
G75*
G02*
X83560000Y-94965000I225000J0D01*
G01*
X84060000Y-94965000D01*
G75*
G02*
X84285000Y-95190000I0J-225000D01*
G01*
X84285000Y-95640000D01*
G75*
G02*
X84060000Y-95865000I-225000J0D01*
G01*
G37*
G36*
G01*
X84060000Y-94315000D02*
X83560000Y-94315000D01*
G75*
G02*
X83335000Y-94090000I0J225000D01*
G01*
X83335000Y-93640000D01*
G75*
G02*
X83560000Y-93415000I225000J0D01*
G01*
X84060000Y-93415000D01*
G75*
G02*
X84285000Y-93640000I0J-225000D01*
G01*
X84285000Y-94090000D01*
G75*
G02*
X84060000Y-94315000I-225000J0D01*
G01*
G37*
G36*
G01*
X81410000Y-94315000D02*
X80910000Y-94315000D01*
G75*
G02*
X80685000Y-94090000I0J225000D01*
G01*
X80685000Y-93640000D01*
G75*
G02*
X80910000Y-93415000I225000J0D01*
G01*
X81410000Y-93415000D01*
G75*
G02*
X81635000Y-93640000I0J-225000D01*
G01*
X81635000Y-94090000D01*
G75*
G02*
X81410000Y-94315000I-225000J0D01*
G01*
G37*
G36*
G01*
X81410000Y-95865000D02*
X80910000Y-95865000D01*
G75*
G02*
X80685000Y-95640000I0J225000D01*
G01*
X80685000Y-95190000D01*
G75*
G02*
X80910000Y-94965000I225000J0D01*
G01*
X81410000Y-94965000D01*
G75*
G02*
X81635000Y-95190000I0J-225000D01*
G01*
X81635000Y-95640000D01*
G75*
G02*
X81410000Y-95865000I-225000J0D01*
G01*
G37*
G36*
G01*
X80110000Y-95865000D02*
X79610000Y-95865000D01*
G75*
G02*
X79385000Y-95640000I0J225000D01*
G01*
X79385000Y-95190000D01*
G75*
G02*
X79610000Y-94965000I225000J0D01*
G01*
X80110000Y-94965000D01*
G75*
G02*
X80335000Y-95190000I0J-225000D01*
G01*
X80335000Y-95640000D01*
G75*
G02*
X80110000Y-95865000I-225000J0D01*
G01*
G37*
G36*
G01*
X80110000Y-94315000D02*
X79610000Y-94315000D01*
G75*
G02*
X79385000Y-94090000I0J225000D01*
G01*
X79385000Y-93640000D01*
G75*
G02*
X79610000Y-93415000I225000J0D01*
G01*
X80110000Y-93415000D01*
G75*
G02*
X80335000Y-93640000I0J-225000D01*
G01*
X80335000Y-94090000D01*
G75*
G02*
X80110000Y-94315000I-225000J0D01*
G01*
G37*
G36*
G01*
X74385000Y-78650000D02*
X74385000Y-78150000D01*
G75*
G02*
X74610000Y-77925000I225000J0D01*
G01*
X75060000Y-77925000D01*
G75*
G02*
X75285000Y-78150000I0J-225000D01*
G01*
X75285000Y-78650000D01*
G75*
G02*
X75060000Y-78875000I-225000J0D01*
G01*
X74610000Y-78875000D01*
G75*
G02*
X74385000Y-78650000I0J225000D01*
G01*
G37*
G36*
G01*
X72835000Y-78650000D02*
X72835000Y-78150000D01*
G75*
G02*
X73060000Y-77925000I225000J0D01*
G01*
X73510000Y-77925000D01*
G75*
G02*
X73735000Y-78150000I0J-225000D01*
G01*
X73735000Y-78650000D01*
G75*
G02*
X73510000Y-78875000I-225000J0D01*
G01*
X73060000Y-78875000D01*
G75*
G02*
X72835000Y-78650000I0J225000D01*
G01*
G37*
X84760000Y-90950000D03*
X84760000Y-91850000D03*
G36*
G01*
X89770000Y-91690000D02*
X89770000Y-92030000D01*
G75*
G02*
X89630000Y-92170000I-140000J0D01*
G01*
X89350000Y-92170000D01*
G75*
G02*
X89210000Y-92030000I0J140000D01*
G01*
X89210000Y-91690000D01*
G75*
G02*
X89350000Y-91550000I140000J0D01*
G01*
X89630000Y-91550000D01*
G75*
G02*
X89770000Y-91690000I0J-140000D01*
G01*
G37*
G36*
G01*
X90730000Y-91690000D02*
X90730000Y-92030000D01*
G75*
G02*
X90590000Y-92170000I-140000J0D01*
G01*
X90310000Y-92170000D01*
G75*
G02*
X90170000Y-92030000I0J140000D01*
G01*
X90170000Y-91690000D01*
G75*
G02*
X90310000Y-91550000I140000J0D01*
G01*
X90590000Y-91550000D01*
G75*
G02*
X90730000Y-91690000I0J-140000D01*
G01*
G37*
G36*
G01*
X89210000Y-92950000D02*
X89210000Y-92610000D01*
G75*
G02*
X89350000Y-92470000I140000J0D01*
G01*
X89630000Y-92470000D01*
G75*
G02*
X89770000Y-92610000I0J-140000D01*
G01*
X89770000Y-92950000D01*
G75*
G02*
X89630000Y-93090000I-140000J0D01*
G01*
X89350000Y-93090000D01*
G75*
G02*
X89210000Y-92950000I0J140000D01*
G01*
G37*
G36*
G01*
X90170000Y-92950000D02*
X90170000Y-92610000D01*
G75*
G02*
X90310000Y-92470000I140000J0D01*
G01*
X90590000Y-92470000D01*
G75*
G02*
X90730000Y-92610000I0J-140000D01*
G01*
X90730000Y-92950000D01*
G75*
G02*
X90590000Y-93090000I-140000J0D01*
G01*
X90310000Y-93090000D01*
G75*
G02*
X90170000Y-92950000I0J140000D01*
G01*
G37*
M02*
