M48
; DRILL file {KiCad (5.1.8)-1} date 12/27/21 23:44:42
; FORMAT={-:-/ absolute / inch / decimal}
; #@! TF.CreationDate,2021-12-27T23:44:42-05:00
; #@! TF.GenerationSoftware,Kicad,Pcbnew,(5.1.8)-1
; #@! TF.FileFunction,Plated,1,2,PTH
FMAT,2
INCH
T1C0.0157
T2C0.0197
T3C0.0217
%
G90
G05
T1
X2.7346Y-4.3476
X2.7346Y-4.387
X2.752Y-3.3024
X2.7535Y-4.1459
X2.7536Y-3.4339
X2.7536Y-3.4732
X2.7536Y-3.5126
X2.7536Y-3.552
X2.7536Y-3.5913
X2.7536Y-3.6307
X2.7536Y-3.6701
X2.7536Y-3.7094
X2.7536Y-3.7488
X2.7536Y-3.7882
X2.7536Y-3.8276
X2.774Y-4.3476
X2.774Y-4.387
X2.7961Y-4.1217
X2.7961Y-4.2374
X2.8029Y-3.5966
X2.8068Y-3.4339
X2.8068Y-3.4732
X2.8068Y-3.5126
X2.8068Y-3.552
X2.8134Y-4.3476
X2.8134Y-4.387
X2.8217Y-3.6323
X2.8217Y-3.6717
X2.8217Y-3.711
X2.8217Y-3.7504
X2.8217Y-3.7898
X2.8217Y-3.8291
X2.8462Y-3.4339
X2.8462Y-3.4732
X2.8462Y-3.5126
X2.8462Y-3.552
X2.8476Y-3.2441
X2.8528Y-4.387
X2.861Y-3.6323
X2.861Y-3.6323
X2.861Y-3.6717
X2.861Y-3.711
X2.861Y-3.7504
X2.861Y-3.7898
X2.861Y-3.8291
X2.8855Y-3.3157
X2.8855Y-3.3551
X2.8855Y-3.3945
X2.8855Y-3.4339
X2.8855Y-3.4732
X2.8855Y-3.5126
X2.8855Y-3.552
X2.8921Y-4.387
X2.9004Y-3.6323
X2.9004Y-3.6717
X2.9004Y-3.711
X2.9004Y-3.7504
X2.9004Y-3.7898
X2.9004Y-3.8291
X2.9249Y-3.3157
X2.9249Y-3.3551
X2.9249Y-3.3945
X2.9249Y-3.4339
X2.9249Y-3.4732
X2.9249Y-3.5126
X2.9315Y-4.387
X2.9398Y-3.6323
X2.9398Y-3.6717
X2.9398Y-3.711
X2.9398Y-3.7504
X2.9398Y-3.7898
X2.9398Y-3.8291
X2.9643Y-3.3551
X2.9643Y-3.3945
X2.9643Y-3.4339
X2.9643Y-3.4732
X2.9643Y-3.5126
X2.9709Y-4.387
X2.9748Y-3.2441
X2.9791Y-3.6323
X2.9791Y-3.6323
X2.9791Y-3.6717
X2.9791Y-3.711
X2.9791Y-3.7504
X2.9791Y-3.7898
X2.9791Y-3.8291
X3.0036Y-3.3551
X3.0036Y-3.3945
X3.0036Y-3.4339
X3.0036Y-3.4732
X3.0036Y-3.5126
X3.0102Y-3.3189
X3.0102Y-4.387
X3.0185Y-3.6323
X3.0185Y-3.6717
X3.0185Y-3.711
X3.0185Y-3.7504
X3.0185Y-3.7898
X3.0185Y-3.8291
X3.0299Y-4.0386
X3.0299Y-4.078
X3.0424Y-3.4211
X3.043Y-3.5126
X3.0496Y-4.387
X3.0579Y-3.6323
X3.0579Y-3.6717
X3.0579Y-3.711
X3.0579Y-3.7504
X3.0579Y-3.7898
X3.0579Y-3.8291
X3.0631Y-3.4596
X3.0634Y-3.2638
X3.0693Y-4.0386
X3.0693Y-4.078
X3.0693Y-4.1173
X3.0693Y-4.1567
X3.0693Y-4.3555
X3.0831Y-3.4047
X3.0894Y-3.2287
X3.0948Y-3.4836
X3.097Y-3.5409
X3.0972Y-3.6323
X3.0972Y-3.6717
X3.0972Y-3.711
X3.0972Y-3.7504
X3.0972Y-3.7898
X3.0972Y-3.8291
X3.0988Y-3.2992
X3.1043Y-3.3838
X3.1087Y-4.0386
X3.1087Y-4.078
X3.1087Y-4.1173
X3.1087Y-4.1567
X3.1087Y-4.1961
X3.1087Y-4.2354
X3.1087Y-4.2748
X3.1087Y-4.3555
X3.1149Y-3.5883
X3.1244Y-3.4831
X3.1266Y-3.5409
X3.148Y-4.0386
X3.148Y-4.078
X3.148Y-4.1173
X3.148Y-4.1567
X3.148Y-4.1961
X3.148Y-4.2354
X3.148Y-4.2748
X3.148Y-4.3555
X3.1493Y-3.2003
X3.1579Y-3.6038
X3.1612Y-3.3891
X3.1855Y-3.6149
X3.1874Y-3.9992
X3.1874Y-4.0386
X3.1874Y-4.078
X3.1874Y-4.1173
X3.1874Y-4.1567
X3.1874Y-4.1961
X3.1874Y-4.2354
X3.1874Y-4.2748
X3.1874Y-4.3555
X3.1885Y-3.3777
X3.1922Y-3.548
X3.1953Y-3.4944
X3.2105Y-3.4329
X3.2249Y-3.4954
X3.2268Y-3.8811
X3.2268Y-3.9205
X3.2268Y-3.9598
X3.2268Y-3.9992
X3.2268Y-4.0386
X3.2268Y-4.078
X3.2268Y-4.1173
X3.2268Y-4.1567
X3.2268Y-4.1961
X3.2268Y-4.2354
X3.2268Y-4.2748
X3.2268Y-4.3555
X3.2299Y-3.3543
X3.2338Y-3.4146
X3.2386Y-3.2953
X3.2386Y-3.3249
X3.2437Y-3.2449
X3.2626Y-3.222
X3.2661Y-3.8811
X3.2661Y-3.9205
X3.2661Y-3.9598
X3.2661Y-3.9992
X3.2661Y-4.0386
X3.2661Y-4.078
X3.2661Y-4.1173
X3.2661Y-4.2748
X3.2661Y-4.3555
X3.2705Y-3.2724
X3.2705Y-3.5287
X3.3055Y-3.9205
X3.3055Y-3.9598
X3.3055Y-3.9992
X3.3055Y-4.0386
X3.3055Y-4.3555
X3.3283Y-3.3669
X3.3283Y-3.4063
X3.3283Y-3.485
X3.3449Y-3.9598
X3.3449Y-3.9992
X3.3449Y-4.0386
X3.3449Y-4.3555
X3.3551Y-3.2429
X3.3619Y-3.6155
X3.3677Y-3.3669
X3.3677Y-3.4063
X3.3677Y-3.485
X3.375Y-3.1252
X3.3843Y-3.9992
X3.3843Y-4.0386
X3.3843Y-4.3555
X3.3846Y-3.6346
X3.3913Y-3.7788
X3.3961Y-3.5713
X3.4071Y-3.3669
X3.4071Y-3.4063
X3.4071Y-3.485
X3.4085Y-3.8884
X3.4142Y-3.7976
X3.4144Y-3.1252
X3.4185Y-3.2252
X3.4236Y-3.9992
X3.4236Y-4.0386
X3.4236Y-4.3555
X3.4312Y-3.9111
X3.4465Y-3.3669
X3.4465Y-3.4063
X3.4465Y-3.485
X3.4537Y-3.1252
X3.4539Y-3.9344
X3.4623Y-3.631
X3.463Y-4.0386
X3.463Y-4.078
X3.463Y-4.1173
X3.463Y-4.2748
X3.463Y-4.3555
X3.4631Y-3.5752
X3.4764Y-3.9571
X3.4858Y-3.3669
X3.4858Y-3.4063
X3.4858Y-3.485
X3.4927Y-3.5753
X3.4937Y-3.6516
X3.4994Y-3.9205
X3.5024Y-4.0386
X3.5024Y-4.078
X3.5024Y-4.1173
X3.5024Y-4.1567
X3.5024Y-4.1961
X3.5024Y-4.2354
X3.5024Y-4.2748
X3.5024Y-4.3555
X3.5207Y-3.5653
X3.5294Y-3.8984
X3.5362Y-3.1606
X3.5362Y-3.2
X3.5417Y-4.078
X3.5417Y-4.1173
X3.5417Y-4.1567
X3.5417Y-4.1961
X3.5417Y-4.2354
X3.5417Y-4.2748
X3.5417Y-4.3555
X3.5433Y-3.5425
X3.5531Y-3.2569
X3.555Y-4.0253
X3.5697Y-3.3907
X3.5705Y-3.4736
X3.5756Y-3.1606
X3.5756Y-3.2
X3.5768Y-3.42
X3.5771Y-4.0462
X3.5811Y-3.7713
X3.5811Y-4.3555
X3.591Y-3.5991
X3.6056Y-3.7261
X3.6056Y-3.4736
X3.606Y-3.7873
X3.6074Y-3.6237
X3.615Y-3.1252
X3.615Y-3.1646
X3.615Y-3.2039
X3.615Y-3.2433
X3.615Y-3.2827
X3.6205Y-4.3555
X3.6398Y-3.5323
X3.6516Y-3.6878
X3.6543Y-3.1252
X3.6543Y-3.1646
X3.6543Y-3.2039
X3.6543Y-3.2433
X3.6543Y-3.2827
X3.6543Y-3.322
X3.6598Y-4.078
X3.6598Y-4.078
X3.6598Y-4.1173
X3.6598Y-4.3555
X3.6756Y-3.772
X3.6937Y-3.1252
X3.6937Y-3.1646
X3.6937Y-3.2039
X3.6937Y-3.2433
X3.6937Y-3.2827
X3.6937Y-3.322
X3.6992Y-4.3555
X3.7079Y-3.5
X3.7201Y-3.9035
X3.7331Y-3.1252
X3.7331Y-3.1646
X3.7331Y-3.2039
X3.7331Y-3.2433
X3.7331Y-3.2827
X3.7331Y-3.322
X3.7371Y-3.8319
X3.7386Y-4.3476
X3.7386Y-4.387
X3.7724Y-3.2827
X3.7724Y-3.322
X3.7775Y-3.7869
X3.778Y-4.3476
X3.778Y-4.387
X3.7858Y-3.535
X3.7909Y-4.0268
X3.811Y-4.152
X3.8118Y-3.2827
X3.8118Y-3.322
X3.8142Y-3.832
X3.8173Y-4.3476
X3.8173Y-4.387
X3.8213Y-3.522
X3.8507Y-3.5191
X3.8512Y-3.2827
X3.8512Y-3.322
X3.8567Y-4.3476
X3.8567Y-4.387
X3.8591Y-3.8591
X3.8803Y-3.5164
X3.8961Y-4.3476
X3.8961Y-4.387
X3.9111Y-3.4035
X3.9165Y-3.7398
X3.9354Y-4.3476
X3.9354Y-4.387
X3.9394Y-3.7063
X3.9528Y-3.4087
X3.9748Y-4.3476
X3.9748Y-4.387
X3.9752Y-3.211
X3.9815Y-3.9441
X3.9909Y-4.1339
X4.0039Y-3.304
X4.0142Y-4.3476
X4.0142Y-4.387
T2
G00X3.9911Y-3.5504
M15
G01X3.9656Y-3.5504
M16
G05
G00X3.9911Y-3.826
M15
G01X3.9656Y-3.826
M16
G05
T3
G00X3.872Y-3.5957
M15
G01X3.872Y-3.5839
M16
G05
G00X3.872Y-3.7925
M15
G01X3.872Y-3.7807
M16
G05
T0
M30
