G04 #@! TF.GenerationSoftware,KiCad,Pcbnew,7.0.6*
G04 #@! TF.CreationDate,2024-04-10T23:04:11-04:00*
G04 #@! TF.ProjectId,Watchy,57617463-6879-42e6-9b69-6361645f7063,rev?*
G04 #@! TF.SameCoordinates,Original*
G04 #@! TF.FileFunction,Copper,L2,Inr*
G04 #@! TF.FilePolarity,Positive*
%FSLAX46Y46*%
G04 Gerber Fmt 4.6, Leading zero omitted, Abs format (unit mm)*
G04 Created by KiCad (PCBNEW 7.0.6) date 2024-04-10 23:04:11*
%MOMM*%
%LPD*%
G01*
G04 APERTURE LIST*
G04 #@! TA.AperFunction,ComponentPad*
%ADD10O,1.550000X1.000000*%
G04 #@! TD*
G04 #@! TA.AperFunction,ComponentPad*
%ADD11O,0.950000X1.250000*%
G04 #@! TD*
G04 #@! TA.AperFunction,ViaPad*
%ADD12C,0.600000*%
G04 #@! TD*
G04 #@! TA.AperFunction,ViaPad*
%ADD13C,0.450000*%
G04 #@! TD*
G04 APERTURE END LIST*
D10*
X101050000Y-97180000D03*
D11*
X98350000Y-96180000D03*
X98350000Y-91180000D03*
D10*
X101050000Y-90180000D03*
D12*
X84340000Y-94840000D03*
D13*
X77950000Y-85400000D03*
D12*
X72310000Y-82540000D03*
X85120000Y-86910000D03*
D13*
X89040000Y-90460000D03*
D12*
X84120000Y-87910000D03*
D13*
X89710000Y-79260000D03*
D12*
X87120000Y-84910000D03*
D13*
X86810000Y-79460000D03*
D12*
X86120000Y-87910000D03*
D13*
X93666761Y-91483943D03*
D12*
X91360000Y-81330000D03*
X97310000Y-96580000D03*
X87900000Y-99020000D03*
X72250000Y-99540000D03*
X85200000Y-94210000D03*
D13*
X78640000Y-81090000D03*
D12*
X76100000Y-109330000D03*
X99340000Y-81270000D03*
X82500000Y-94840000D03*
D13*
X92270000Y-95010000D03*
D12*
X78820000Y-94840000D03*
D13*
X72290000Y-108960000D03*
D12*
X84120000Y-85910000D03*
X75600000Y-85670000D03*
X93350000Y-82220000D03*
X100690000Y-99910000D03*
X86120000Y-85910000D03*
D13*
X94840427Y-89334557D03*
X79890000Y-82320000D03*
X89710000Y-80460000D03*
D12*
X99480000Y-92380000D03*
D13*
X88010000Y-79460000D03*
D12*
X98430000Y-84110000D03*
D13*
X95020000Y-108360000D03*
X89710000Y-79860000D03*
D12*
X88120000Y-87910000D03*
X87120000Y-86910000D03*
D13*
X87410000Y-79460000D03*
D12*
X83398187Y-99308400D03*
X81580000Y-94840000D03*
X80660000Y-94840000D03*
X88120000Y-85910000D03*
D13*
X91000000Y-92093100D03*
D12*
X83420000Y-94840000D03*
X85120000Y-84910000D03*
D13*
X101700000Y-89160000D03*
X94840000Y-89950000D03*
D12*
X91780000Y-79430000D03*
D13*
X98430000Y-104210000D03*
D12*
X79740000Y-94840000D03*
D13*
X82500000Y-79450000D03*
D12*
X93920000Y-96730000D03*
X69900000Y-84100000D03*
D13*
X90590000Y-87110000D03*
D12*
X87699561Y-81183001D03*
D13*
X81080000Y-83070000D03*
D12*
X89560000Y-82470000D03*
X73800000Y-81200000D03*
D13*
X78170000Y-83800000D03*
X100544993Y-105439972D03*
D12*
X85780000Y-90600000D03*
D13*
X94620000Y-105120000D03*
D12*
X72360000Y-110360000D03*
D13*
X88540000Y-95020000D03*
D12*
X84150000Y-99020000D03*
X81609192Y-85180807D03*
D13*
X81086078Y-81571800D03*
X86900000Y-98950000D03*
X87880000Y-96550000D03*
X99030000Y-88620000D03*
X83230000Y-82060000D03*
X81330000Y-82460000D03*
X78170000Y-81540000D03*
X79306507Y-92710000D03*
X81695461Y-81809685D03*
X79211090Y-93552312D03*
X79070000Y-80600000D03*
D12*
X98000000Y-101140000D03*
X99750000Y-86100000D03*
X99750000Y-98250000D03*
D13*
X81850000Y-80910000D03*
X101210000Y-104860000D03*
X94800000Y-103560000D03*
X82540000Y-82770000D03*
X76980000Y-80950000D03*
X84720000Y-81430000D03*
X101490000Y-83760000D03*
X90560000Y-87770000D03*
X78760000Y-88420000D03*
X76554052Y-84444840D03*
X76280000Y-80290000D03*
X85420000Y-81430000D03*
X70490000Y-81230000D03*
X69810000Y-104900000D03*
X82250000Y-81450000D03*
X90135566Y-93588768D03*
X81640000Y-88520000D03*
X101650000Y-100030000D03*
X95610000Y-101840000D03*
X93011808Y-85783139D03*
X90430000Y-86480000D03*
X92490000Y-85300000D03*
X90425000Y-85710000D03*
X81087207Y-87306138D03*
X94130000Y-92020000D03*
X94130000Y-90940000D03*
X81170997Y-88017436D03*
G04 #@! TA.AperFunction,Conductor*
G36*
X82092579Y-79050002D02*
G01*
X82139072Y-79103658D01*
X82149176Y-79173932D01*
X82139072Y-79208342D01*
X82084436Y-79327978D01*
X82084434Y-79327985D01*
X82066892Y-79449996D01*
X82066892Y-79450003D01*
X82084434Y-79572014D01*
X82084436Y-79572021D01*
X82135646Y-79684156D01*
X82216375Y-79777321D01*
X82320080Y-79843969D01*
X82420783Y-79873538D01*
X82438358Y-79878699D01*
X82438359Y-79878699D01*
X82438362Y-79878700D01*
X82438365Y-79878700D01*
X82561635Y-79878700D01*
X82561638Y-79878700D01*
X82679920Y-79843969D01*
X82783625Y-79777321D01*
X82864354Y-79684156D01*
X82915564Y-79572021D01*
X82930597Y-79467465D01*
X82933108Y-79450003D01*
X82933108Y-79449996D01*
X82915565Y-79327985D01*
X82915564Y-79327984D01*
X82915564Y-79327979D01*
X82864354Y-79215844D01*
X82864353Y-79215843D01*
X82860928Y-79208342D01*
X82850825Y-79138068D01*
X82880318Y-79073487D01*
X82940044Y-79035104D01*
X82975542Y-79030000D01*
X88134000Y-79030000D01*
X88202121Y-79050002D01*
X88248614Y-79103658D01*
X88260000Y-79156000D01*
X88260000Y-80722790D01*
X88239998Y-80790911D01*
X88186342Y-80837404D01*
X88116068Y-80847508D01*
X88051488Y-80818014D01*
X88038778Y-80805305D01*
X88032808Y-80798415D01*
X88032805Y-80798413D01*
X87910961Y-80720109D01*
X87910958Y-80720107D01*
X87910957Y-80720107D01*
X87906165Y-80718700D01*
X87771982Y-80679301D01*
X87627140Y-80679301D01*
X87488167Y-80720106D01*
X87488160Y-80720109D01*
X87366316Y-80798413D01*
X87271464Y-80907879D01*
X87211294Y-81039632D01*
X87201467Y-81107985D01*
X87190681Y-81183001D01*
X87211294Y-81326369D01*
X87271464Y-81458122D01*
X87360347Y-81560700D01*
X87366316Y-81567588D01*
X87488160Y-81645892D01*
X87488165Y-81645895D01*
X87627140Y-81686701D01*
X87771982Y-81686701D01*
X87910957Y-81645895D01*
X88032807Y-81567587D01*
X88038774Y-81560700D01*
X88098500Y-81522315D01*
X88169497Y-81522315D01*
X88229224Y-81560698D01*
X88258717Y-81625278D01*
X88260000Y-81643210D01*
X88260000Y-81850000D01*
X88560000Y-81850000D01*
X88560000Y-79156000D01*
X88580002Y-79087879D01*
X88633658Y-79041386D01*
X88686000Y-79030000D01*
X88754000Y-79030000D01*
X88822121Y-79050002D01*
X88868614Y-79103658D01*
X88880000Y-79156000D01*
X88880000Y-81840000D01*
X89179509Y-81840000D01*
X89180000Y-81840144D01*
X89180000Y-79890159D01*
X98531749Y-79890159D01*
X98541735Y-80048890D01*
X98541735Y-80048892D01*
X98590885Y-80200158D01*
X98590887Y-80200162D01*
X98676105Y-80334445D01*
X98792048Y-80443324D01*
X98792050Y-80443326D01*
X98892352Y-80498466D01*
X98931424Y-80519946D01*
X98931426Y-80519947D01*
X99071965Y-80556031D01*
X99085476Y-80559500D01*
X99085479Y-80559500D01*
X99204600Y-80559500D01*
X99204603Y-80559500D01*
X99232063Y-80556031D01*
X99322789Y-80544570D01*
X99322789Y-80544569D01*
X99322794Y-80544569D01*
X99470674Y-80486019D01*
X99599347Y-80392533D01*
X99700729Y-80269984D01*
X99705437Y-80259980D01*
X99768448Y-80126072D01*
X99798250Y-79969847D01*
X99798251Y-79969836D01*
X99790332Y-79843969D01*
X99788264Y-79811106D01*
X99739115Y-79659842D01*
X99694804Y-79590019D01*
X99653894Y-79525554D01*
X99537951Y-79416675D01*
X99537949Y-79416673D01*
X99398578Y-79340055D01*
X99398573Y-79340052D01*
X99244531Y-79300501D01*
X99244525Y-79300500D01*
X99244524Y-79300500D01*
X99125397Y-79300500D01*
X99125394Y-79300500D01*
X99125381Y-79300501D01*
X99007210Y-79315429D01*
X99007208Y-79315430D01*
X98859325Y-79373981D01*
X98859322Y-79373982D01*
X98730654Y-79467465D01*
X98730653Y-79467466D01*
X98629275Y-79590009D01*
X98629268Y-79590019D01*
X98561551Y-79733927D01*
X98531749Y-79890152D01*
X98531749Y-79890159D01*
X89180000Y-79890159D01*
X89180000Y-79156000D01*
X89200002Y-79087879D01*
X89253658Y-79041386D01*
X89306000Y-79030000D01*
X102119500Y-79030000D01*
X102187621Y-79050002D01*
X102234114Y-79103658D01*
X102245500Y-79156000D01*
X102245500Y-79202501D01*
X102225498Y-79270622D01*
X102171842Y-79317115D01*
X102101568Y-79327219D01*
X102088165Y-79324543D01*
X101994524Y-79300500D01*
X101875397Y-79300500D01*
X101875394Y-79300500D01*
X101875381Y-79300501D01*
X101757210Y-79315429D01*
X101757208Y-79315430D01*
X101609325Y-79373981D01*
X101609322Y-79373982D01*
X101480654Y-79467465D01*
X101480653Y-79467466D01*
X101379275Y-79590009D01*
X101379268Y-79590019D01*
X101311551Y-79733927D01*
X101281749Y-79890152D01*
X101281749Y-79890159D01*
X101291735Y-80048890D01*
X101291735Y-80048892D01*
X101340885Y-80200158D01*
X101340887Y-80200162D01*
X101426105Y-80334445D01*
X101542048Y-80443324D01*
X101542050Y-80443326D01*
X101642352Y-80498466D01*
X101681424Y-80519946D01*
X101681426Y-80519947D01*
X101821965Y-80556031D01*
X101835476Y-80559500D01*
X101835479Y-80559500D01*
X101954600Y-80559500D01*
X101954603Y-80559500D01*
X101982063Y-80556031D01*
X102072789Y-80544570D01*
X102072790Y-80544569D01*
X102072794Y-80544569D01*
X102073114Y-80544442D01*
X102073384Y-80544417D01*
X102080470Y-80542598D01*
X102080763Y-80543740D01*
X102143815Y-80537961D01*
X102206795Y-80570733D01*
X102242060Y-80632352D01*
X102245500Y-80661593D01*
X102245500Y-89936444D01*
X102225498Y-90004565D01*
X102171842Y-90051058D01*
X102101568Y-90061162D01*
X102036988Y-90031668D01*
X101998604Y-89971942D01*
X101997162Y-89966598D01*
X101987806Y-89928641D01*
X101987803Y-89928633D01*
X101987803Y-89928632D01*
X101908387Y-89777317D01*
X101795066Y-89649405D01*
X101795064Y-89649403D01*
X101654430Y-89552331D01*
X101654429Y-89552330D01*
X101654427Y-89552329D01*
X101632410Y-89543979D01*
X101494640Y-89491728D01*
X101367569Y-89476300D01*
X101367563Y-89476300D01*
X100732437Y-89476300D01*
X100732430Y-89476300D01*
X100605359Y-89491728D01*
X100445575Y-89552328D01*
X100445569Y-89552331D01*
X100304935Y-89649403D01*
X100304932Y-89649406D01*
X100191612Y-89777317D01*
X100191612Y-89777318D01*
X100112196Y-89928633D01*
X100112196Y-89928634D01*
X100071300Y-90094553D01*
X100071300Y-90265446D01*
X100112196Y-90431365D01*
X100112196Y-90431366D01*
X100112196Y-90431367D01*
X100112197Y-90431368D01*
X100191613Y-90582683D01*
X100304934Y-90710595D01*
X100445573Y-90807671D01*
X100566773Y-90853636D01*
X100605359Y-90868271D01*
X100711411Y-90881147D01*
X100732437Y-90883700D01*
X100732441Y-90883700D01*
X101367559Y-90883700D01*
X101367563Y-90883700D01*
X101405594Y-90879082D01*
X101494640Y-90868271D01*
X101499613Y-90866385D01*
X101654427Y-90807671D01*
X101795066Y-90710595D01*
X101908387Y-90582683D01*
X101987803Y-90431368D01*
X101997161Y-90393400D01*
X102032885Y-90332047D01*
X102096108Y-90299745D01*
X102166758Y-90306753D01*
X102222404Y-90350844D01*
X102245378Y-90418021D01*
X102245500Y-90423555D01*
X102245500Y-96936444D01*
X102225498Y-97004565D01*
X102171842Y-97051058D01*
X102101568Y-97061162D01*
X102036988Y-97031668D01*
X101998604Y-96971942D01*
X101997162Y-96966598D01*
X101987806Y-96928641D01*
X101987803Y-96928633D01*
X101987803Y-96928632D01*
X101908387Y-96777317D01*
X101795067Y-96649406D01*
X101795064Y-96649403D01*
X101654430Y-96552331D01*
X101654429Y-96552330D01*
X101654427Y-96552329D01*
X101632410Y-96543979D01*
X101494640Y-96491728D01*
X101367569Y-96476300D01*
X101367563Y-96476300D01*
X100732437Y-96476300D01*
X100732430Y-96476300D01*
X100605359Y-96491728D01*
X100445575Y-96552328D01*
X100445569Y-96552331D01*
X100304935Y-96649403D01*
X100304932Y-96649406D01*
X100191612Y-96777317D01*
X100191612Y-96777318D01*
X100112196Y-96928633D01*
X100112196Y-96928634D01*
X100071300Y-97094553D01*
X100071300Y-97265446D01*
X100112196Y-97431365D01*
X100112196Y-97431366D01*
X100112196Y-97431367D01*
X100112197Y-97431368D01*
X100191613Y-97582683D01*
X100304934Y-97710595D01*
X100445573Y-97807671D01*
X100566773Y-97853636D01*
X100605359Y-97868271D01*
X100711411Y-97881147D01*
X100732437Y-97883700D01*
X100732441Y-97883700D01*
X101367559Y-97883700D01*
X101367563Y-97883700D01*
X101405594Y-97879082D01*
X101494640Y-97868271D01*
X101494643Y-97868270D01*
X101654427Y-97807671D01*
X101795066Y-97710595D01*
X101908387Y-97582683D01*
X101987803Y-97431368D01*
X101997161Y-97393400D01*
X102032885Y-97332047D01*
X102096108Y-97299745D01*
X102166758Y-97306753D01*
X102222404Y-97350844D01*
X102245378Y-97418021D01*
X102245500Y-97423555D01*
X102245500Y-99726397D01*
X102225498Y-99794518D01*
X102171842Y-99841011D01*
X102101568Y-99851115D01*
X102036988Y-99821621D01*
X102020425Y-99802508D01*
X102020256Y-99802655D01*
X101933624Y-99702678D01*
X101881772Y-99669355D01*
X101829920Y-99636031D01*
X101800349Y-99627348D01*
X101711641Y-99601300D01*
X101711638Y-99601300D01*
X101588362Y-99601300D01*
X101588358Y-99601300D01*
X101470080Y-99636031D01*
X101470078Y-99636032D01*
X101366375Y-99702678D01*
X101285646Y-99795843D01*
X101234436Y-99907978D01*
X101234434Y-99907985D01*
X101216892Y-100029996D01*
X101216892Y-100030003D01*
X101234434Y-100152014D01*
X101234436Y-100152021D01*
X101285646Y-100264156D01*
X101366375Y-100357321D01*
X101470080Y-100423969D01*
X101570783Y-100453538D01*
X101588358Y-100458699D01*
X101588359Y-100458699D01*
X101588362Y-100458700D01*
X101588365Y-100458700D01*
X101711635Y-100458700D01*
X101711638Y-100458700D01*
X101829920Y-100423969D01*
X101933625Y-100357321D01*
X102014354Y-100264156D01*
X102014353Y-100264156D01*
X102020256Y-100257345D01*
X102021574Y-100258487D01*
X102067151Y-100218991D01*
X102137425Y-100208884D01*
X102202007Y-100238373D01*
X102240394Y-100298097D01*
X102245500Y-100333602D01*
X102245500Y-105602501D01*
X102225498Y-105670622D01*
X102171842Y-105717115D01*
X102101568Y-105727219D01*
X102088165Y-105724543D01*
X101994524Y-105700500D01*
X101875397Y-105700500D01*
X101875394Y-105700500D01*
X101875381Y-105700501D01*
X101757210Y-105715429D01*
X101757208Y-105715430D01*
X101609325Y-105773981D01*
X101609322Y-105773982D01*
X101480654Y-105867465D01*
X101480653Y-105867466D01*
X101379275Y-105990009D01*
X101379268Y-105990019D01*
X101311551Y-106133927D01*
X101281749Y-106290152D01*
X101281749Y-106290159D01*
X101291735Y-106448890D01*
X101291735Y-106448892D01*
X101340885Y-106600158D01*
X101340887Y-106600162D01*
X101426105Y-106734445D01*
X101542048Y-106843324D01*
X101542050Y-106843326D01*
X101642352Y-106898466D01*
X101681424Y-106919946D01*
X101681426Y-106919947D01*
X101835468Y-106959498D01*
X101835476Y-106959500D01*
X101835479Y-106959500D01*
X101954600Y-106959500D01*
X101954603Y-106959500D01*
X101980842Y-106956185D01*
X102072789Y-106944570D01*
X102072790Y-106944569D01*
X102072794Y-106944569D01*
X102073114Y-106944442D01*
X102073384Y-106944417D01*
X102080470Y-106942598D01*
X102080763Y-106943740D01*
X102143815Y-106937961D01*
X102206795Y-106970733D01*
X102242060Y-107032352D01*
X102245500Y-107061593D01*
X102245500Y-112108456D01*
X102245424Y-112111548D01*
X102227615Y-112474030D01*
X102227009Y-112480186D01*
X102173985Y-112837646D01*
X102172779Y-112843713D01*
X102084973Y-113194252D01*
X102083178Y-113200172D01*
X101961434Y-113540424D01*
X101959066Y-113546140D01*
X101804559Y-113872817D01*
X101801643Y-113878273D01*
X101615859Y-114188235D01*
X101612426Y-114193372D01*
X101508421Y-114333608D01*
X101397160Y-114483627D01*
X101393235Y-114488409D01*
X101150546Y-114756172D01*
X101146172Y-114760546D01*
X100878409Y-115003235D01*
X100873627Y-115007159D01*
X100583372Y-115222426D01*
X100578235Y-115225859D01*
X100268273Y-115411643D01*
X100262817Y-115414559D01*
X99936140Y-115569066D01*
X99930424Y-115571434D01*
X99590172Y-115693178D01*
X99584252Y-115694973D01*
X99233713Y-115782779D01*
X99227646Y-115783985D01*
X98870186Y-115837009D01*
X98864030Y-115837615D01*
X98535729Y-115853744D01*
X98501544Y-115855424D01*
X98498457Y-115855500D01*
X72701543Y-115855500D01*
X72698455Y-115855424D01*
X72662596Y-115853662D01*
X72335969Y-115837615D01*
X72329813Y-115837009D01*
X71972353Y-115783985D01*
X71966290Y-115782779D01*
X71856562Y-115755294D01*
X71615747Y-115694973D01*
X71609827Y-115693178D01*
X71269575Y-115571434D01*
X71263859Y-115569066D01*
X70937182Y-115414559D01*
X70931726Y-115411643D01*
X70889991Y-115386628D01*
X70621757Y-115225854D01*
X70616636Y-115222432D01*
X70326361Y-115007151D01*
X70321590Y-115003235D01*
X70053827Y-114760546D01*
X70049453Y-114756172D01*
X69806764Y-114488409D01*
X69802850Y-114483640D01*
X69587563Y-114193359D01*
X69584148Y-114188247D01*
X69398351Y-113878264D01*
X69395440Y-113872817D01*
X69380474Y-113841175D01*
X69262416Y-113591562D01*
X69240933Y-113546140D01*
X69238565Y-113540424D01*
X69189667Y-113403763D01*
X69119883Y-113208731D01*
X71345500Y-113208731D01*
X71375048Y-113395290D01*
X71376391Y-113403768D01*
X71437407Y-113591556D01*
X71437409Y-113591561D01*
X71527056Y-113767501D01*
X71643121Y-113927252D01*
X71643123Y-113927254D01*
X71643125Y-113927257D01*
X71782742Y-114066874D01*
X71782745Y-114066876D01*
X71782748Y-114066879D01*
X71942499Y-114182944D01*
X72118439Y-114272591D01*
X72306237Y-114333610D01*
X72501269Y-114364500D01*
X72501272Y-114364500D01*
X98698728Y-114364500D01*
X98698731Y-114364500D01*
X98893763Y-114333610D01*
X99081561Y-114272591D01*
X99257501Y-114182944D01*
X99417252Y-114066879D01*
X99556879Y-113927252D01*
X99672944Y-113767501D01*
X99762591Y-113591561D01*
X99823610Y-113403763D01*
X99854500Y-113208731D01*
X99854500Y-113110000D01*
X99854500Y-113065125D01*
X99854500Y-113011269D01*
X99823610Y-112816237D01*
X99762591Y-112628439D01*
X99672944Y-112452499D01*
X99556879Y-112292748D01*
X99556876Y-112292745D01*
X99556874Y-112292742D01*
X99417257Y-112153125D01*
X99417254Y-112153123D01*
X99417254Y-112153122D01*
X99417252Y-112153121D01*
X99257501Y-112037056D01*
X99081561Y-111947409D01*
X99081558Y-111947408D01*
X99081556Y-111947407D01*
X98893768Y-111886391D01*
X98893764Y-111886390D01*
X98893763Y-111886390D01*
X98698731Y-111855500D01*
X98698728Y-111855500D01*
X95559919Y-111855500D01*
X95540207Y-111853948D01*
X95493843Y-111846604D01*
X95456353Y-111834423D01*
X95423479Y-111817673D01*
X95391586Y-111794501D01*
X95365498Y-111768413D01*
X95342326Y-111736520D01*
X95325576Y-111703646D01*
X95313394Y-111666154D01*
X95310230Y-111646177D01*
X95310699Y-111622413D01*
X95309486Y-111622413D01*
X95309486Y-111609998D01*
X95306921Y-111597103D01*
X95304500Y-111572523D01*
X95304500Y-111565126D01*
X95304499Y-111565123D01*
X95299110Y-111550319D01*
X95293929Y-111531793D01*
X95289734Y-111510700D01*
X95289734Y-111510699D01*
X95287096Y-111506751D01*
X95274907Y-111482700D01*
X95273801Y-111480784D01*
X95256098Y-111459686D01*
X95251982Y-111454200D01*
X95233484Y-111426516D01*
X95233483Y-111426515D01*
X95233481Y-111426512D01*
X95226717Y-111419748D01*
X95225183Y-111418373D01*
X95224557Y-111419120D01*
X95216115Y-111412036D01*
X95216113Y-111412034D01*
X95202698Y-111404289D01*
X95186244Y-111394788D01*
X95182744Y-111392611D01*
X95149301Y-111370266D01*
X95146770Y-111369217D01*
X95141156Y-111367647D01*
X95113678Y-111362801D01*
X95096939Y-111359850D01*
X95091507Y-111358769D01*
X95075065Y-111355499D01*
X95071115Y-111355110D01*
X95066352Y-111354457D01*
X95050002Y-111351574D01*
X95050000Y-111351574D01*
X95038589Y-111353586D01*
X95016710Y-111355500D01*
X77083290Y-111355500D01*
X77061411Y-111353586D01*
X77050000Y-111351574D01*
X77049997Y-111351574D01*
X77033647Y-111354457D01*
X77028887Y-111355110D01*
X77024941Y-111355498D01*
X77003060Y-111359850D01*
X76958857Y-111367644D01*
X76953227Y-111369219D01*
X76950695Y-111370267D01*
X76917258Y-111392609D01*
X76913760Y-111394784D01*
X76883885Y-111412034D01*
X76875442Y-111419119D01*
X76874819Y-111418377D01*
X76873223Y-111419807D01*
X76866515Y-111426515D01*
X76848022Y-111454190D01*
X76843901Y-111459684D01*
X76826198Y-111480783D01*
X76825103Y-111482680D01*
X76812909Y-111506743D01*
X76810266Y-111510697D01*
X76810264Y-111510703D01*
X76806067Y-111531803D01*
X76800890Y-111550313D01*
X76795500Y-111565122D01*
X76795500Y-111572523D01*
X76793079Y-111597105D01*
X76790514Y-111609999D01*
X76790514Y-111622406D01*
X76789305Y-111622406D01*
X76789769Y-111646170D01*
X76786605Y-111666151D01*
X76774423Y-111703646D01*
X76757673Y-111736520D01*
X76734501Y-111768413D01*
X76708413Y-111794501D01*
X76676520Y-111817673D01*
X76643646Y-111834423D01*
X76606157Y-111846604D01*
X76559794Y-111853948D01*
X76540081Y-111855500D01*
X72644875Y-111855500D01*
X72600000Y-111855500D01*
X72501269Y-111855500D01*
X72306237Y-111886390D01*
X72306231Y-111886391D01*
X72118443Y-111947407D01*
X72118437Y-111947410D01*
X71942495Y-112037058D01*
X71782745Y-112153123D01*
X71782742Y-112153125D01*
X71643125Y-112292742D01*
X71643123Y-112292745D01*
X71527058Y-112452495D01*
X71437410Y-112628437D01*
X71437407Y-112628443D01*
X71376391Y-112816231D01*
X71376390Y-112816236D01*
X71376390Y-112816237D01*
X71345500Y-113011269D01*
X71345500Y-113065125D01*
X71345500Y-113110000D01*
X71345500Y-113208731D01*
X69119883Y-113208731D01*
X69116817Y-113200161D01*
X69115026Y-113194252D01*
X69093922Y-113109999D01*
X69027216Y-112843694D01*
X69026014Y-112837646D01*
X69022838Y-112816237D01*
X68972989Y-112480178D01*
X68972384Y-112474030D01*
X68956619Y-112153125D01*
X68954575Y-112111545D01*
X68954500Y-112108456D01*
X68954500Y-110360000D01*
X71851120Y-110360000D01*
X71871733Y-110503368D01*
X71931903Y-110635121D01*
X72026755Y-110744587D01*
X72148599Y-110822891D01*
X72148604Y-110822894D01*
X72287579Y-110863700D01*
X72432421Y-110863700D01*
X72571396Y-110822894D01*
X72693246Y-110744586D01*
X72788097Y-110635121D01*
X72848267Y-110503368D01*
X72868880Y-110360000D01*
X72848267Y-110216632D01*
X72788097Y-110084879D01*
X72693246Y-109975414D01*
X72693245Y-109975413D01*
X72693244Y-109975412D01*
X72571400Y-109897108D01*
X72571397Y-109897106D01*
X72571396Y-109897106D01*
X72432421Y-109856300D01*
X72287579Y-109856300D01*
X72148606Y-109897105D01*
X72148599Y-109897108D01*
X72026755Y-109975412D01*
X71931903Y-110084878D01*
X71871733Y-110216631D01*
X71851120Y-110360000D01*
X68954500Y-110360000D01*
X68954500Y-107057498D01*
X68974502Y-106989377D01*
X69028158Y-106942884D01*
X69098432Y-106932780D01*
X69111831Y-106935456D01*
X69205476Y-106959500D01*
X69205479Y-106959500D01*
X69324600Y-106959500D01*
X69324603Y-106959500D01*
X69350842Y-106956185D01*
X69442789Y-106944570D01*
X69442789Y-106944569D01*
X69442794Y-106944569D01*
X69590674Y-106886019D01*
X69719347Y-106792533D01*
X69820729Y-106669984D01*
X69888448Y-106526072D01*
X69918251Y-106369841D01*
X69913238Y-106290159D01*
X71401749Y-106290159D01*
X71411735Y-106448890D01*
X71411735Y-106448892D01*
X71460885Y-106600158D01*
X71460887Y-106600162D01*
X71546105Y-106734445D01*
X71662048Y-106843324D01*
X71662050Y-106843326D01*
X71762352Y-106898466D01*
X71801424Y-106919946D01*
X71801426Y-106919947D01*
X71955468Y-106959498D01*
X71955476Y-106959500D01*
X71955479Y-106959500D01*
X72074600Y-106959500D01*
X72074603Y-106959500D01*
X72100842Y-106956185D01*
X72192789Y-106944570D01*
X72192789Y-106944569D01*
X72192794Y-106944569D01*
X72340674Y-106886019D01*
X72469347Y-106792533D01*
X72516916Y-106735032D01*
X72575749Y-106695294D01*
X72646727Y-106693672D01*
X72707315Y-106730682D01*
X72738275Y-106794572D01*
X72740000Y-106815347D01*
X72740000Y-108590000D01*
X77240000Y-108590000D01*
X77240000Y-106290159D01*
X98531749Y-106290159D01*
X98541735Y-106448890D01*
X98541735Y-106448892D01*
X98590885Y-106600158D01*
X98590887Y-106600162D01*
X98676105Y-106734445D01*
X98792048Y-106843324D01*
X98792050Y-106843326D01*
X98892352Y-106898466D01*
X98931424Y-106919946D01*
X98931426Y-106919947D01*
X99085468Y-106959498D01*
X99085476Y-106959500D01*
X99085479Y-106959500D01*
X99204600Y-106959500D01*
X99204603Y-106959500D01*
X99230842Y-106956185D01*
X99322789Y-106944570D01*
X99322789Y-106944569D01*
X99322794Y-106944569D01*
X99470674Y-106886019D01*
X99599347Y-106792533D01*
X99700729Y-106669984D01*
X99768448Y-106526072D01*
X99798251Y-106369841D01*
X99788264Y-106211106D01*
X99739115Y-106059842D01*
X99694804Y-105990019D01*
X99653894Y-105925554D01*
X99537951Y-105816675D01*
X99537949Y-105816673D01*
X99398578Y-105740055D01*
X99398573Y-105740052D01*
X99244531Y-105700501D01*
X99244525Y-105700500D01*
X99244524Y-105700500D01*
X99125397Y-105700500D01*
X99125394Y-105700500D01*
X99125381Y-105700501D01*
X99007210Y-105715429D01*
X99007208Y-105715430D01*
X98859325Y-105773981D01*
X98859322Y-105773982D01*
X98730654Y-105867465D01*
X98730653Y-105867466D01*
X98629275Y-105990009D01*
X98629268Y-105990019D01*
X98561551Y-106133927D01*
X98531749Y-106290152D01*
X98531749Y-106290159D01*
X77240000Y-106290159D01*
X77240000Y-105120003D01*
X94186892Y-105120003D01*
X94204434Y-105242014D01*
X94204436Y-105242021D01*
X94255646Y-105354156D01*
X94336375Y-105447321D01*
X94440080Y-105513969D01*
X94540783Y-105543538D01*
X94558358Y-105548699D01*
X94558359Y-105548699D01*
X94558362Y-105548700D01*
X94558365Y-105548700D01*
X94681635Y-105548700D01*
X94681638Y-105548700D01*
X94799920Y-105513969D01*
X94903625Y-105447321D01*
X94909990Y-105439975D01*
X100111885Y-105439975D01*
X100129427Y-105561986D01*
X100129429Y-105561993D01*
X100180639Y-105674128D01*
X100261368Y-105767293D01*
X100365073Y-105833941D01*
X100465776Y-105863510D01*
X100483351Y-105868671D01*
X100483352Y-105868671D01*
X100483355Y-105868672D01*
X100483358Y-105868672D01*
X100606628Y-105868672D01*
X100606631Y-105868672D01*
X100724913Y-105833941D01*
X100828618Y-105767293D01*
X100909347Y-105674128D01*
X100960557Y-105561993D01*
X100967462Y-105513967D01*
X100978101Y-105439975D01*
X100978101Y-105439973D01*
X100978100Y-105439968D01*
X100975790Y-105423900D01*
X100985892Y-105353629D01*
X101032383Y-105299972D01*
X101100504Y-105279968D01*
X101136005Y-105285072D01*
X101143525Y-105287279D01*
X101148362Y-105288700D01*
X101148365Y-105288700D01*
X101271635Y-105288700D01*
X101271638Y-105288700D01*
X101389920Y-105253969D01*
X101493625Y-105187321D01*
X101574354Y-105094156D01*
X101625564Y-104982021D01*
X101630693Y-104946346D01*
X101643108Y-104860003D01*
X101643108Y-104859996D01*
X101625565Y-104737985D01*
X101625564Y-104737984D01*
X101625564Y-104737979D01*
X101574354Y-104625844D01*
X101493625Y-104532679D01*
X101493624Y-104532678D01*
X101441772Y-104499355D01*
X101389920Y-104466031D01*
X101360349Y-104457348D01*
X101271641Y-104431300D01*
X101271638Y-104431300D01*
X101148362Y-104431300D01*
X101148358Y-104431300D01*
X101030080Y-104466031D01*
X101030078Y-104466032D01*
X100926375Y-104532678D01*
X100845646Y-104625843D01*
X100794436Y-104737978D01*
X100794434Y-104737985D01*
X100776892Y-104859996D01*
X100776892Y-104859997D01*
X100776892Y-104860000D01*
X100779203Y-104876072D01*
X100769098Y-104946346D01*
X100722605Y-105000001D01*
X100654484Y-105020003D01*
X100618991Y-105014900D01*
X100606639Y-105011273D01*
X100606632Y-105011272D01*
X100606631Y-105011272D01*
X100483355Y-105011272D01*
X100483351Y-105011272D01*
X100365073Y-105046003D01*
X100365071Y-105046004D01*
X100261368Y-105112650D01*
X100180639Y-105205815D01*
X100129429Y-105317950D01*
X100129427Y-105317957D01*
X100111885Y-105439968D01*
X100111885Y-105439975D01*
X94909990Y-105439975D01*
X94984354Y-105354156D01*
X95035564Y-105242021D01*
X95053108Y-105120000D01*
X95053108Y-105119996D01*
X95035565Y-104997985D01*
X95035564Y-104997984D01*
X95035564Y-104997979D01*
X94984354Y-104885844D01*
X94903625Y-104792679D01*
X94903624Y-104792678D01*
X94851772Y-104759355D01*
X94799920Y-104726031D01*
X94770349Y-104717348D01*
X94681641Y-104691300D01*
X94681638Y-104691300D01*
X94558362Y-104691300D01*
X94558358Y-104691300D01*
X94440080Y-104726031D01*
X94440078Y-104726032D01*
X94336375Y-104792678D01*
X94255646Y-104885843D01*
X94204436Y-104997978D01*
X94204434Y-104997985D01*
X94186892Y-105119996D01*
X94186892Y-105120003D01*
X77240000Y-105120003D01*
X77240000Y-104090000D01*
X72740000Y-104090000D01*
X72740000Y-105837322D01*
X72719998Y-105905443D01*
X72666342Y-105951936D01*
X72596068Y-105962040D01*
X72531488Y-105932546D01*
X72527747Y-105929172D01*
X72407951Y-105816675D01*
X72407949Y-105816673D01*
X72268578Y-105740055D01*
X72268573Y-105740052D01*
X72114531Y-105700501D01*
X72114525Y-105700500D01*
X72114524Y-105700500D01*
X71995397Y-105700500D01*
X71995394Y-105700500D01*
X71995381Y-105700501D01*
X71877210Y-105715429D01*
X71877208Y-105715430D01*
X71729325Y-105773981D01*
X71729322Y-105773982D01*
X71600654Y-105867465D01*
X71600653Y-105867466D01*
X71499275Y-105990009D01*
X71499268Y-105990019D01*
X71431551Y-106133927D01*
X71401749Y-106290152D01*
X71401749Y-106290159D01*
X69913238Y-106290159D01*
X69908264Y-106211106D01*
X69859115Y-106059842D01*
X69814804Y-105990019D01*
X69773894Y-105925554D01*
X69657951Y-105816675D01*
X69657949Y-105816673D01*
X69518578Y-105740055D01*
X69518573Y-105740052D01*
X69364531Y-105700501D01*
X69364525Y-105700500D01*
X69364524Y-105700500D01*
X69245397Y-105700500D01*
X69245394Y-105700500D01*
X69245381Y-105700501D01*
X69127210Y-105715429D01*
X69127197Y-105715433D01*
X69126872Y-105715562D01*
X69126598Y-105715587D01*
X69119530Y-105717402D01*
X69119237Y-105716261D01*
X69056171Y-105722035D01*
X68993194Y-105689256D01*
X68957937Y-105627633D01*
X68954500Y-105598406D01*
X68954500Y-104900003D01*
X69376892Y-104900003D01*
X69394434Y-105022014D01*
X69394436Y-105022021D01*
X69445646Y-105134156D01*
X69526375Y-105227321D01*
X69630080Y-105293969D01*
X69730783Y-105323538D01*
X69748358Y-105328699D01*
X69748359Y-105328699D01*
X69748362Y-105328700D01*
X69748365Y-105328700D01*
X69871635Y-105328700D01*
X69871638Y-105328700D01*
X69989920Y-105293969D01*
X70093625Y-105227321D01*
X70174354Y-105134156D01*
X70225564Y-105022021D01*
X70227109Y-105011273D01*
X70243108Y-104900003D01*
X70243108Y-104899996D01*
X70225565Y-104777985D01*
X70225564Y-104777984D01*
X70225564Y-104777979D01*
X70174354Y-104665844D01*
X70093625Y-104572679D01*
X70093624Y-104572678D01*
X70041772Y-104539355D01*
X69989920Y-104506031D01*
X69960349Y-104497348D01*
X69871641Y-104471300D01*
X69871638Y-104471300D01*
X69748362Y-104471300D01*
X69748358Y-104471300D01*
X69630080Y-104506031D01*
X69630078Y-104506032D01*
X69526375Y-104572678D01*
X69445646Y-104665843D01*
X69394436Y-104777978D01*
X69394434Y-104777985D01*
X69376892Y-104899996D01*
X69376892Y-104900003D01*
X68954500Y-104900003D01*
X68954500Y-103560003D01*
X94366892Y-103560003D01*
X94384434Y-103682014D01*
X94384436Y-103682021D01*
X94435646Y-103794156D01*
X94516375Y-103887321D01*
X94620080Y-103953969D01*
X94720783Y-103983538D01*
X94738358Y-103988699D01*
X94738359Y-103988699D01*
X94738362Y-103988700D01*
X94738365Y-103988700D01*
X94861635Y-103988700D01*
X94861638Y-103988700D01*
X94979920Y-103953969D01*
X95083625Y-103887321D01*
X95164354Y-103794156D01*
X95215564Y-103682021D01*
X95233108Y-103560000D01*
X95233108Y-103559996D01*
X95215565Y-103437985D01*
X95215564Y-103437984D01*
X95215564Y-103437979D01*
X95164354Y-103325844D01*
X95083625Y-103232679D01*
X95083624Y-103232678D01*
X95031772Y-103199355D01*
X94979920Y-103166031D01*
X94950349Y-103157348D01*
X94861641Y-103131300D01*
X94861638Y-103131300D01*
X94738362Y-103131300D01*
X94738358Y-103131300D01*
X94620080Y-103166031D01*
X94620078Y-103166032D01*
X94516375Y-103232678D01*
X94435646Y-103325843D01*
X94384436Y-103437978D01*
X94384434Y-103437985D01*
X94366892Y-103559996D01*
X94366892Y-103560003D01*
X68954500Y-103560003D01*
X68954500Y-101840003D01*
X95176892Y-101840003D01*
X95194434Y-101962014D01*
X95194436Y-101962021D01*
X95245646Y-102074156D01*
X95326375Y-102167321D01*
X95430080Y-102233969D01*
X95530783Y-102263538D01*
X95548358Y-102268699D01*
X95548359Y-102268699D01*
X95548362Y-102268700D01*
X95548365Y-102268700D01*
X95671635Y-102268700D01*
X95671638Y-102268700D01*
X95789920Y-102233969D01*
X95893625Y-102167321D01*
X95974354Y-102074156D01*
X96025564Y-101962021D01*
X96043108Y-101840000D01*
X96043108Y-101839996D01*
X96025565Y-101717985D01*
X96025564Y-101717984D01*
X96025564Y-101717979D01*
X95974354Y-101605844D01*
X95893625Y-101512679D01*
X95893624Y-101512678D01*
X95841772Y-101479355D01*
X95789920Y-101446031D01*
X95760349Y-101437348D01*
X95671641Y-101411300D01*
X95671638Y-101411300D01*
X95548362Y-101411300D01*
X95548358Y-101411300D01*
X95430080Y-101446031D01*
X95430078Y-101446032D01*
X95326375Y-101512678D01*
X95245646Y-101605843D01*
X95194436Y-101717978D01*
X95194434Y-101717985D01*
X95176892Y-101839996D01*
X95176892Y-101840003D01*
X68954500Y-101840003D01*
X68954500Y-101140000D01*
X97491120Y-101140000D01*
X97511733Y-101283368D01*
X97571903Y-101415121D01*
X97666755Y-101524587D01*
X97788599Y-101602891D01*
X97788604Y-101602894D01*
X97927579Y-101643700D01*
X98072421Y-101643700D01*
X98211396Y-101602894D01*
X98333246Y-101524586D01*
X98428097Y-101415121D01*
X98488267Y-101283368D01*
X98508880Y-101140000D01*
X98488267Y-100996632D01*
X98428097Y-100864879D01*
X98333246Y-100755414D01*
X98333245Y-100755413D01*
X98333244Y-100755412D01*
X98211400Y-100677108D01*
X98211397Y-100677106D01*
X98211396Y-100677106D01*
X98072421Y-100636300D01*
X97927579Y-100636300D01*
X97788606Y-100677105D01*
X97788599Y-100677108D01*
X97666755Y-100755412D01*
X97571903Y-100864878D01*
X97511733Y-100996631D01*
X97491120Y-101140000D01*
X68954500Y-101140000D01*
X68954500Y-99020000D01*
X83641120Y-99020000D01*
X83661733Y-99163368D01*
X83721903Y-99295121D01*
X83816755Y-99404587D01*
X83938599Y-99482891D01*
X83938604Y-99482894D01*
X84077579Y-99523700D01*
X84222421Y-99523700D01*
X84361396Y-99482894D01*
X84483246Y-99404586D01*
X84578097Y-99295121D01*
X84638267Y-99163368D01*
X84658880Y-99020000D01*
X84648816Y-98950003D01*
X86466892Y-98950003D01*
X86484434Y-99072014D01*
X86484436Y-99072021D01*
X86535646Y-99184156D01*
X86616375Y-99277321D01*
X86720080Y-99343969D01*
X86820783Y-99373538D01*
X86838358Y-99378699D01*
X86838359Y-99378699D01*
X86838362Y-99378700D01*
X86838365Y-99378700D01*
X86961635Y-99378700D01*
X86961638Y-99378700D01*
X87079920Y-99343969D01*
X87183625Y-99277321D01*
X87264354Y-99184156D01*
X87315564Y-99072021D01*
X87333108Y-98950000D01*
X87333108Y-98949996D01*
X87315565Y-98827985D01*
X87315564Y-98827984D01*
X87315564Y-98827979D01*
X87264354Y-98715844D01*
X87183625Y-98622679D01*
X87183624Y-98622678D01*
X87131772Y-98589355D01*
X87079920Y-98556031D01*
X87050349Y-98547348D01*
X86961641Y-98521300D01*
X86961638Y-98521300D01*
X86838362Y-98521300D01*
X86838358Y-98521300D01*
X86720080Y-98556031D01*
X86720078Y-98556032D01*
X86616375Y-98622678D01*
X86535646Y-98715843D01*
X86484436Y-98827978D01*
X86484434Y-98827985D01*
X86466892Y-98949996D01*
X86466892Y-98950003D01*
X84648816Y-98950003D01*
X84638267Y-98876632D01*
X84578097Y-98744879D01*
X84483246Y-98635414D01*
X84483245Y-98635413D01*
X84483244Y-98635412D01*
X84361400Y-98557108D01*
X84361397Y-98557106D01*
X84361396Y-98557106D01*
X84357738Y-98556032D01*
X84222421Y-98516300D01*
X84077579Y-98516300D01*
X83938606Y-98557105D01*
X83938599Y-98557108D01*
X83816755Y-98635412D01*
X83721903Y-98744878D01*
X83661733Y-98876631D01*
X83641120Y-99020000D01*
X68954500Y-99020000D01*
X68954500Y-98250000D01*
X99241120Y-98250000D01*
X99261733Y-98393368D01*
X99321903Y-98525121D01*
X99416755Y-98634587D01*
X99418039Y-98635412D01*
X99538604Y-98712894D01*
X99677579Y-98753700D01*
X99822421Y-98753700D01*
X99961396Y-98712894D01*
X100083246Y-98634586D01*
X100178097Y-98525121D01*
X100238267Y-98393368D01*
X100258880Y-98250000D01*
X100238267Y-98106632D01*
X100178097Y-97974879D01*
X100083246Y-97865414D01*
X100083245Y-97865413D01*
X100083244Y-97865412D01*
X99961400Y-97787108D01*
X99961397Y-97787106D01*
X99961396Y-97787106D01*
X99822421Y-97746300D01*
X99677579Y-97746300D01*
X99538606Y-97787105D01*
X99538599Y-97787108D01*
X99416755Y-97865412D01*
X99321903Y-97974878D01*
X99261733Y-98106631D01*
X99241120Y-98250000D01*
X68954500Y-98250000D01*
X68954500Y-96550003D01*
X87446892Y-96550003D01*
X87464434Y-96672014D01*
X87464436Y-96672021D01*
X87515646Y-96784156D01*
X87596375Y-96877321D01*
X87700080Y-96943969D01*
X87786206Y-96969258D01*
X87818358Y-96978699D01*
X87818359Y-96978699D01*
X87818362Y-96978700D01*
X87818365Y-96978700D01*
X87941635Y-96978700D01*
X87941638Y-96978700D01*
X88059920Y-96943969D01*
X88163625Y-96877321D01*
X88244354Y-96784156D01*
X88269086Y-96730000D01*
X93411120Y-96730000D01*
X93431733Y-96873368D01*
X93491903Y-97005121D01*
X93569395Y-97094553D01*
X93586755Y-97114587D01*
X93708599Y-97192891D01*
X93708604Y-97192894D01*
X93847579Y-97233700D01*
X93992421Y-97233700D01*
X94131396Y-97192894D01*
X94253246Y-97114586D01*
X94348097Y-97005121D01*
X94408267Y-96873368D01*
X94428880Y-96730000D01*
X94408267Y-96586632D01*
X94348097Y-96454879D01*
X94275469Y-96371061D01*
X97671300Y-96371061D01*
X97686180Y-96493614D01*
X97744628Y-96647726D01*
X97838252Y-96783365D01*
X97838255Y-96783368D01*
X97961617Y-96892657D01*
X97961626Y-96892664D01*
X98030158Y-96928632D01*
X98107562Y-96969257D01*
X98107563Y-96969257D01*
X98107565Y-96969258D01*
X98145870Y-96978699D01*
X98267591Y-97008700D01*
X98267593Y-97008700D01*
X98432407Y-97008700D01*
X98432409Y-97008700D01*
X98592438Y-96969257D01*
X98738377Y-96892662D01*
X98861746Y-96783367D01*
X98955373Y-96647724D01*
X99013818Y-96493617D01*
X99013818Y-96493616D01*
X99013819Y-96493614D01*
X99028699Y-96371061D01*
X99028700Y-96371051D01*
X99028700Y-95988948D01*
X99028699Y-95988938D01*
X99013819Y-95866385D01*
X99001030Y-95832665D01*
X98955373Y-95712276D01*
X98861746Y-95576633D01*
X98738377Y-95467338D01*
X98738376Y-95467337D01*
X98738373Y-95467335D01*
X98592442Y-95390745D01*
X98592434Y-95390741D01*
X98432411Y-95351300D01*
X98432409Y-95351300D01*
X98267591Y-95351300D01*
X98267588Y-95351300D01*
X98107565Y-95390741D01*
X98107557Y-95390745D01*
X97961626Y-95467335D01*
X97961617Y-95467342D01*
X97838255Y-95576631D01*
X97838252Y-95576634D01*
X97744628Y-95712273D01*
X97686180Y-95866385D01*
X97671300Y-95988938D01*
X97671300Y-96371061D01*
X94275469Y-96371061D01*
X94253246Y-96345414D01*
X94253245Y-96345413D01*
X94253244Y-96345412D01*
X94131400Y-96267108D01*
X94131397Y-96267106D01*
X94131396Y-96267106D01*
X93992421Y-96226300D01*
X93847579Y-96226300D01*
X93708606Y-96267105D01*
X93708599Y-96267108D01*
X93586755Y-96345412D01*
X93491903Y-96454878D01*
X93431733Y-96586631D01*
X93419457Y-96672014D01*
X93411120Y-96730000D01*
X88269086Y-96730000D01*
X88295564Y-96672021D01*
X88307841Y-96586632D01*
X88313108Y-96550003D01*
X88313108Y-96549996D01*
X88295565Y-96427985D01*
X88295564Y-96427984D01*
X88295564Y-96427979D01*
X88244354Y-96315844D01*
X88163625Y-96222679D01*
X88163624Y-96222678D01*
X88111772Y-96189355D01*
X88059920Y-96156031D01*
X88030349Y-96147348D01*
X87941641Y-96121300D01*
X87941638Y-96121300D01*
X87818362Y-96121300D01*
X87818358Y-96121300D01*
X87700080Y-96156031D01*
X87700078Y-96156032D01*
X87596375Y-96222678D01*
X87515646Y-96315843D01*
X87464436Y-96427978D01*
X87464434Y-96427985D01*
X87446892Y-96549996D01*
X87446892Y-96550003D01*
X68954500Y-96550003D01*
X68954500Y-95020003D01*
X88106892Y-95020003D01*
X88124434Y-95142014D01*
X88124436Y-95142021D01*
X88175646Y-95254156D01*
X88256375Y-95347321D01*
X88360080Y-95413969D01*
X88460783Y-95443538D01*
X88478358Y-95448699D01*
X88478359Y-95448699D01*
X88478362Y-95448700D01*
X88478365Y-95448700D01*
X88601635Y-95448700D01*
X88601638Y-95448700D01*
X88719920Y-95413969D01*
X88823625Y-95347321D01*
X88904354Y-95254156D01*
X88955564Y-95142021D01*
X88973108Y-95020000D01*
X88973108Y-95019996D01*
X88955565Y-94897985D01*
X88955564Y-94897984D01*
X88955564Y-94897979D01*
X88904354Y-94785844D01*
X88823625Y-94692679D01*
X88823624Y-94692678D01*
X88771772Y-94659355D01*
X88719920Y-94626031D01*
X88690349Y-94617348D01*
X88601641Y-94591300D01*
X88601638Y-94591300D01*
X88478362Y-94591300D01*
X88478358Y-94591300D01*
X88360080Y-94626031D01*
X88360078Y-94626032D01*
X88256375Y-94692678D01*
X88175646Y-94785843D01*
X88124436Y-94897978D01*
X88124434Y-94897985D01*
X88106892Y-95019996D01*
X88106892Y-95020003D01*
X68954500Y-95020003D01*
X68954500Y-93552315D01*
X78777982Y-93552315D01*
X78795524Y-93674326D01*
X78795526Y-93674333D01*
X78846736Y-93786468D01*
X78927465Y-93879633D01*
X79031170Y-93946281D01*
X79131873Y-93975850D01*
X79149448Y-93981011D01*
X79149449Y-93981011D01*
X79149452Y-93981012D01*
X79149455Y-93981012D01*
X79272725Y-93981012D01*
X79272728Y-93981012D01*
X79391010Y-93946281D01*
X79494715Y-93879633D01*
X79575444Y-93786468D01*
X79626654Y-93674333D01*
X79638956Y-93588771D01*
X89702458Y-93588771D01*
X89720000Y-93710782D01*
X89720002Y-93710789D01*
X89771212Y-93822924D01*
X89851941Y-93916089D01*
X89955646Y-93982737D01*
X90056349Y-94012306D01*
X90073924Y-94017467D01*
X90073925Y-94017467D01*
X90073928Y-94017468D01*
X90073931Y-94017468D01*
X90197201Y-94017468D01*
X90197204Y-94017468D01*
X90315486Y-93982737D01*
X90419191Y-93916089D01*
X90499920Y-93822924D01*
X90551130Y-93710789D01*
X90568674Y-93588768D01*
X90568674Y-93588764D01*
X90551131Y-93466753D01*
X90551130Y-93466752D01*
X90551130Y-93466747D01*
X90499920Y-93354612D01*
X90419191Y-93261447D01*
X90419190Y-93261446D01*
X90362465Y-93224991D01*
X90315486Y-93194799D01*
X90285915Y-93186116D01*
X90197207Y-93160068D01*
X90197204Y-93160068D01*
X90073928Y-93160068D01*
X90073924Y-93160068D01*
X89955646Y-93194799D01*
X89955644Y-93194800D01*
X89851941Y-93261446D01*
X89771212Y-93354611D01*
X89720002Y-93466746D01*
X89720000Y-93466753D01*
X89702458Y-93588764D01*
X89702458Y-93588771D01*
X79638956Y-93588771D01*
X79644198Y-93552315D01*
X79644198Y-93552308D01*
X79626655Y-93430297D01*
X79626654Y-93430296D01*
X79626654Y-93430291D01*
X79575444Y-93318156D01*
X79519618Y-93253730D01*
X79490125Y-93189149D01*
X79500228Y-93118875D01*
X79546719Y-93065221D01*
X79590132Y-93037321D01*
X79670861Y-92944156D01*
X79722071Y-92832021D01*
X79739615Y-92710000D01*
X79739615Y-92709996D01*
X79722072Y-92587985D01*
X79722071Y-92587984D01*
X79722071Y-92587979D01*
X79670861Y-92475844D01*
X79590132Y-92382679D01*
X79590131Y-92382678D01*
X79535115Y-92347321D01*
X79486427Y-92316031D01*
X79456856Y-92307348D01*
X79368148Y-92281300D01*
X79368145Y-92281300D01*
X79244869Y-92281300D01*
X79244865Y-92281300D01*
X79126587Y-92316031D01*
X79126585Y-92316032D01*
X79022882Y-92382678D01*
X78942153Y-92475843D01*
X78890943Y-92587978D01*
X78890941Y-92587985D01*
X78873399Y-92709996D01*
X78873399Y-92710003D01*
X78890941Y-92832014D01*
X78890943Y-92832021D01*
X78942153Y-92944156D01*
X78997978Y-93008581D01*
X79027471Y-93073162D01*
X79017368Y-93143436D01*
X78970876Y-93197091D01*
X78927466Y-93224989D01*
X78927465Y-93224990D01*
X78846736Y-93318155D01*
X78795526Y-93430290D01*
X78795524Y-93430297D01*
X78777982Y-93552308D01*
X78777982Y-93552315D01*
X68954500Y-93552315D01*
X68954500Y-92020003D01*
X93696892Y-92020003D01*
X93714434Y-92142014D01*
X93714436Y-92142021D01*
X93765646Y-92254156D01*
X93846375Y-92347321D01*
X93950080Y-92413969D01*
X94050783Y-92443538D01*
X94068358Y-92448699D01*
X94068359Y-92448699D01*
X94068362Y-92448700D01*
X94068365Y-92448700D01*
X94191635Y-92448700D01*
X94191638Y-92448700D01*
X94309920Y-92413969D01*
X94413625Y-92347321D01*
X94494354Y-92254156D01*
X94545564Y-92142021D01*
X94563108Y-92020000D01*
X94563108Y-92019996D01*
X94545565Y-91897985D01*
X94545564Y-91897984D01*
X94545564Y-91897979D01*
X94494354Y-91785844D01*
X94413625Y-91692679D01*
X94413624Y-91692678D01*
X94361772Y-91659355D01*
X94309920Y-91626031D01*
X94224317Y-91600895D01*
X94164592Y-91562512D01*
X94135099Y-91497931D01*
X94145204Y-91427657D01*
X94191697Y-91374002D01*
X94198136Y-91371061D01*
X97671300Y-91371061D01*
X97686180Y-91493614D01*
X97744628Y-91647726D01*
X97838252Y-91783365D01*
X97838255Y-91783368D01*
X97961617Y-91892657D01*
X97961626Y-91892664D01*
X98039116Y-91933333D01*
X98107562Y-91969257D01*
X98107563Y-91969257D01*
X98107565Y-91969258D01*
X98187576Y-91988978D01*
X98267591Y-92008700D01*
X98267593Y-92008700D01*
X98432407Y-92008700D01*
X98432409Y-92008700D01*
X98592438Y-91969257D01*
X98738377Y-91892662D01*
X98861746Y-91783367D01*
X98955373Y-91647724D01*
X99013818Y-91493617D01*
X99013818Y-91493616D01*
X99013819Y-91493614D01*
X99028699Y-91371061D01*
X99028700Y-91371051D01*
X99028700Y-90988948D01*
X99028699Y-90988938D01*
X99013819Y-90866385D01*
X98995460Y-90817978D01*
X98955373Y-90712276D01*
X98865922Y-90582683D01*
X98861747Y-90576634D01*
X98861744Y-90576631D01*
X98738382Y-90467342D01*
X98738373Y-90467335D01*
X98592442Y-90390745D01*
X98592434Y-90390741D01*
X98432411Y-90351300D01*
X98432409Y-90351300D01*
X98267591Y-90351300D01*
X98267588Y-90351300D01*
X98107565Y-90390741D01*
X98107557Y-90390745D01*
X97961626Y-90467335D01*
X97961617Y-90467342D01*
X97838255Y-90576631D01*
X97838252Y-90576634D01*
X97744628Y-90712273D01*
X97686180Y-90866385D01*
X97671300Y-90988938D01*
X97671300Y-91371061D01*
X94198136Y-91371061D01*
X94224316Y-91359104D01*
X94309920Y-91333969D01*
X94413625Y-91267321D01*
X94494354Y-91174156D01*
X94545564Y-91062021D01*
X94545823Y-91060216D01*
X94563108Y-90940003D01*
X94563108Y-90939996D01*
X94545565Y-90817985D01*
X94545564Y-90817984D01*
X94545564Y-90817979D01*
X94494354Y-90705844D01*
X94413625Y-90612679D01*
X94413624Y-90612678D01*
X94357534Y-90576631D01*
X94309920Y-90546031D01*
X94280349Y-90537348D01*
X94191641Y-90511300D01*
X94191638Y-90511300D01*
X94068362Y-90511300D01*
X94068358Y-90511300D01*
X93950080Y-90546031D01*
X93950078Y-90546032D01*
X93846375Y-90612678D01*
X93765646Y-90705843D01*
X93714436Y-90817978D01*
X93714434Y-90817985D01*
X93696892Y-90939996D01*
X93696892Y-90940003D01*
X93714434Y-91062014D01*
X93714436Y-91062021D01*
X93765646Y-91174156D01*
X93846375Y-91267321D01*
X93950080Y-91333969D01*
X94035681Y-91359104D01*
X94095406Y-91397486D01*
X94124899Y-91462067D01*
X94114796Y-91532341D01*
X94068303Y-91585997D01*
X94035682Y-91600895D01*
X93950079Y-91626031D01*
X93950078Y-91626032D01*
X93846375Y-91692678D01*
X93765646Y-91785843D01*
X93714436Y-91897978D01*
X93714434Y-91897985D01*
X93696892Y-92019996D01*
X93696892Y-92020003D01*
X68954500Y-92020003D01*
X68954500Y-90600000D01*
X85271120Y-90600000D01*
X85291733Y-90743368D01*
X85351903Y-90875121D01*
X85446755Y-90984587D01*
X85568599Y-91062891D01*
X85568604Y-91062894D01*
X85707579Y-91103700D01*
X85852421Y-91103700D01*
X85991396Y-91062894D01*
X86113246Y-90984586D01*
X86208097Y-90875121D01*
X86268267Y-90743368D01*
X86288880Y-90600000D01*
X86268267Y-90456632D01*
X86208097Y-90324879D01*
X86113246Y-90215414D01*
X86113245Y-90215413D01*
X86113244Y-90215412D01*
X85991400Y-90137108D01*
X85991397Y-90137106D01*
X85991396Y-90137106D01*
X85852421Y-90096300D01*
X85707579Y-90096300D01*
X85568606Y-90137105D01*
X85568599Y-90137108D01*
X85446755Y-90215412D01*
X85351903Y-90324878D01*
X85291733Y-90456631D01*
X85271120Y-90600000D01*
X68954500Y-90600000D01*
X68954500Y-88420003D01*
X78326892Y-88420003D01*
X78344434Y-88542014D01*
X78344436Y-88542021D01*
X78395646Y-88654156D01*
X78476375Y-88747321D01*
X78580080Y-88813969D01*
X78680783Y-88843538D01*
X78698358Y-88848699D01*
X78698359Y-88848699D01*
X78698362Y-88848700D01*
X78698365Y-88848700D01*
X78821635Y-88848700D01*
X78821638Y-88848700D01*
X78939920Y-88813969D01*
X79043625Y-88747321D01*
X79124354Y-88654156D01*
X79175564Y-88542021D01*
X79178731Y-88519996D01*
X79193108Y-88420003D01*
X79193108Y-88419996D01*
X79175565Y-88297985D01*
X79175564Y-88297984D01*
X79175564Y-88297979D01*
X79124354Y-88185844D01*
X79043625Y-88092679D01*
X79043624Y-88092678D01*
X78991772Y-88059355D01*
X78939920Y-88026031D01*
X78910349Y-88017348D01*
X78821641Y-87991300D01*
X78821638Y-87991300D01*
X78698362Y-87991300D01*
X78698358Y-87991300D01*
X78580080Y-88026031D01*
X78580078Y-88026032D01*
X78476375Y-88092678D01*
X78395646Y-88185843D01*
X78344436Y-88297978D01*
X78344434Y-88297985D01*
X78326892Y-88419996D01*
X78326892Y-88420003D01*
X68954500Y-88420003D01*
X68954500Y-87306141D01*
X80654099Y-87306141D01*
X80671641Y-87428152D01*
X80671643Y-87428159D01*
X80722853Y-87540294D01*
X80798853Y-87628002D01*
X80828346Y-87692583D01*
X80818243Y-87762857D01*
X80809629Y-87778632D01*
X80806645Y-87783274D01*
X80755433Y-87895414D01*
X80755431Y-87895421D01*
X80737889Y-88017432D01*
X80737889Y-88017439D01*
X80755431Y-88139450D01*
X80755433Y-88139457D01*
X80806643Y-88251592D01*
X80887372Y-88344757D01*
X80991077Y-88411405D01*
X81109359Y-88446136D01*
X81118006Y-88448675D01*
X81117267Y-88451191D01*
X81169325Y-88474966D01*
X81207708Y-88534693D01*
X81211529Y-88552258D01*
X81224434Y-88642014D01*
X81224436Y-88642021D01*
X81275646Y-88754156D01*
X81356375Y-88847321D01*
X81460080Y-88913969D01*
X81560783Y-88943538D01*
X81578358Y-88948699D01*
X81578359Y-88948699D01*
X81578362Y-88948700D01*
X81578365Y-88948700D01*
X81701635Y-88948700D01*
X81701638Y-88948700D01*
X81819920Y-88913969D01*
X81923625Y-88847321D01*
X82004354Y-88754156D01*
X82055564Y-88642021D01*
X82058730Y-88620003D01*
X98596892Y-88620003D01*
X98614434Y-88742014D01*
X98614436Y-88742021D01*
X98665646Y-88854156D01*
X98746375Y-88947321D01*
X98850080Y-89013969D01*
X98950783Y-89043538D01*
X98968358Y-89048699D01*
X98968359Y-89048699D01*
X98968362Y-89048700D01*
X98968365Y-89048700D01*
X99091635Y-89048700D01*
X99091638Y-89048700D01*
X99209920Y-89013969D01*
X99313625Y-88947321D01*
X99394354Y-88854156D01*
X99445564Y-88742021D01*
X99463108Y-88620000D01*
X99463108Y-88619996D01*
X99445565Y-88497985D01*
X99445564Y-88497984D01*
X99445564Y-88497979D01*
X99394354Y-88385844D01*
X99313625Y-88292679D01*
X99313624Y-88292678D01*
X99249693Y-88251592D01*
X99209920Y-88226031D01*
X99180349Y-88217348D01*
X99091641Y-88191300D01*
X99091638Y-88191300D01*
X98968362Y-88191300D01*
X98968358Y-88191300D01*
X98850080Y-88226031D01*
X98850078Y-88226032D01*
X98746375Y-88292678D01*
X98665646Y-88385843D01*
X98614436Y-88497978D01*
X98614434Y-88497985D01*
X98596892Y-88619996D01*
X98596892Y-88620003D01*
X82058730Y-88620003D01*
X82069943Y-88542014D01*
X82073108Y-88520003D01*
X82073108Y-88519996D01*
X82055565Y-88397985D01*
X82055564Y-88397984D01*
X82055564Y-88397979D01*
X82004354Y-88285844D01*
X81923625Y-88192679D01*
X81923624Y-88192678D01*
X81840800Y-88139450D01*
X81819920Y-88126031D01*
X81701638Y-88091300D01*
X81692991Y-88088761D01*
X81693728Y-88086248D01*
X81641652Y-88062453D01*
X81603281Y-88002719D01*
X81599468Y-87985185D01*
X81586561Y-87895415D01*
X81535351Y-87783280D01*
X81459350Y-87695571D01*
X81429857Y-87630990D01*
X81439960Y-87560716D01*
X81448580Y-87544930D01*
X81451553Y-87540302D01*
X81451561Y-87540294D01*
X81502771Y-87428159D01*
X81510444Y-87374795D01*
X81520315Y-87306141D01*
X81520315Y-87306134D01*
X81502772Y-87184123D01*
X81502771Y-87184122D01*
X81502771Y-87184117D01*
X81451561Y-87071982D01*
X81370832Y-86978817D01*
X81370831Y-86978816D01*
X81290419Y-86927138D01*
X81267127Y-86912169D01*
X81237556Y-86903486D01*
X81148848Y-86877438D01*
X81148845Y-86877438D01*
X81025569Y-86877438D01*
X81025565Y-86877438D01*
X80907287Y-86912169D01*
X80907285Y-86912170D01*
X80803582Y-86978816D01*
X80722853Y-87071981D01*
X80671643Y-87184116D01*
X80671641Y-87184123D01*
X80654099Y-87306134D01*
X80654099Y-87306141D01*
X68954500Y-87306141D01*
X68954500Y-85710003D01*
X89991892Y-85710003D01*
X90009434Y-85832014D01*
X90009436Y-85832021D01*
X90060646Y-85944156D01*
X90122355Y-86015372D01*
X90151848Y-86079953D01*
X90141745Y-86150227D01*
X90122355Y-86180397D01*
X90065649Y-86245839D01*
X90065646Y-86245843D01*
X90014436Y-86357978D01*
X90014434Y-86357985D01*
X89996892Y-86479996D01*
X89996892Y-86480003D01*
X90014434Y-86602014D01*
X90014436Y-86602021D01*
X90065646Y-86714156D01*
X90146375Y-86807321D01*
X90153187Y-86813224D01*
X90150924Y-86815834D01*
X90186490Y-86856865D01*
X90196604Y-86927138D01*
X90186498Y-86961566D01*
X90174437Y-86987975D01*
X90174434Y-86987985D01*
X90156892Y-87109996D01*
X90156892Y-87110003D01*
X90174434Y-87232014D01*
X90174436Y-87232021D01*
X90225646Y-87344156D01*
X90225648Y-87344158D01*
X90230516Y-87351732D01*
X90228165Y-87353242D01*
X90251691Y-87404762D01*
X90241584Y-87475035D01*
X90222199Y-87505199D01*
X90195646Y-87535843D01*
X90144436Y-87647978D01*
X90144434Y-87647985D01*
X90126892Y-87769996D01*
X90126892Y-87770003D01*
X90144434Y-87892014D01*
X90144436Y-87892021D01*
X90195646Y-88004156D01*
X90276375Y-88097321D01*
X90380080Y-88163969D01*
X90473160Y-88191300D01*
X90498358Y-88198699D01*
X90498359Y-88198699D01*
X90498362Y-88198700D01*
X90498365Y-88198700D01*
X90621635Y-88198700D01*
X90621638Y-88198700D01*
X90739920Y-88163969D01*
X90843625Y-88097321D01*
X90924354Y-88004156D01*
X90975564Y-87892021D01*
X90991199Y-87783279D01*
X90993108Y-87770003D01*
X90993108Y-87769996D01*
X90975565Y-87647985D01*
X90975564Y-87647984D01*
X90975564Y-87647979D01*
X90924354Y-87535844D01*
X90924353Y-87535843D01*
X90924353Y-87535842D01*
X90919482Y-87528263D01*
X90921832Y-87526752D01*
X90898308Y-87475240D01*
X90908413Y-87404966D01*
X90927801Y-87374798D01*
X90954354Y-87344156D01*
X91005564Y-87232021D01*
X91023108Y-87110000D01*
X91023108Y-87109996D01*
X91005565Y-86987985D01*
X91005564Y-86987984D01*
X91005564Y-86987979D01*
X90954354Y-86875844D01*
X90873625Y-86782679D01*
X90873624Y-86782678D01*
X90866813Y-86776776D01*
X90869072Y-86774168D01*
X90833498Y-86733110D01*
X90823398Y-86662835D01*
X90833501Y-86628434D01*
X90845564Y-86602021D01*
X90851190Y-86562891D01*
X90863108Y-86480003D01*
X90863108Y-86479996D01*
X90845565Y-86357985D01*
X90845564Y-86357984D01*
X90845564Y-86357979D01*
X90794354Y-86245844D01*
X90732643Y-86174627D01*
X90703151Y-86110048D01*
X90713254Y-86039774D01*
X90732644Y-86009602D01*
X90778543Y-85956632D01*
X90789354Y-85944156D01*
X90840564Y-85832021D01*
X90847593Y-85783135D01*
X90858108Y-85710003D01*
X90858108Y-85709996D01*
X90840565Y-85587985D01*
X90840564Y-85587984D01*
X90840564Y-85587979D01*
X90789354Y-85475844D01*
X90708625Y-85382679D01*
X90708624Y-85382678D01*
X90617592Y-85324175D01*
X90604920Y-85316031D01*
X90575349Y-85307348D01*
X90550335Y-85300003D01*
X92056892Y-85300003D01*
X92074434Y-85422014D01*
X92074436Y-85422021D01*
X92125646Y-85534156D01*
X92206375Y-85627321D01*
X92310080Y-85693969D01*
X92391932Y-85718003D01*
X92428358Y-85728699D01*
X92428359Y-85728699D01*
X92428362Y-85728700D01*
X92428365Y-85728700D01*
X92461693Y-85728700D01*
X92529814Y-85748702D01*
X92576307Y-85802358D01*
X92586410Y-85836768D01*
X92596242Y-85905153D01*
X92596244Y-85905160D01*
X92647454Y-86017295D01*
X92728183Y-86110460D01*
X92831888Y-86177108D01*
X92932591Y-86206677D01*
X92950166Y-86211838D01*
X92950167Y-86211838D01*
X92950170Y-86211839D01*
X92950173Y-86211839D01*
X93073443Y-86211839D01*
X93073446Y-86211839D01*
X93191728Y-86177108D01*
X93295433Y-86110460D01*
X93304497Y-86100000D01*
X99241120Y-86100000D01*
X99261733Y-86243368D01*
X99321903Y-86375121D01*
X99416755Y-86484587D01*
X99538599Y-86562891D01*
X99538604Y-86562894D01*
X99677579Y-86603700D01*
X99822421Y-86603700D01*
X99961396Y-86562894D01*
X100083246Y-86484586D01*
X100178097Y-86375121D01*
X100238267Y-86243368D01*
X100258880Y-86100000D01*
X100238267Y-85956632D01*
X100178097Y-85824879D01*
X100083246Y-85715414D01*
X100083245Y-85715413D01*
X100083244Y-85715412D01*
X99961400Y-85637108D01*
X99961397Y-85637106D01*
X99961396Y-85637106D01*
X99822421Y-85596300D01*
X99677579Y-85596300D01*
X99538606Y-85637105D01*
X99538599Y-85637108D01*
X99416755Y-85715412D01*
X99321903Y-85824878D01*
X99261733Y-85956631D01*
X99241120Y-86100000D01*
X93304497Y-86100000D01*
X93376162Y-86017295D01*
X93427372Y-85905160D01*
X93427631Y-85903355D01*
X93444916Y-85783142D01*
X93444916Y-85783135D01*
X93427373Y-85661124D01*
X93427372Y-85661123D01*
X93427372Y-85661118D01*
X93376162Y-85548983D01*
X93295433Y-85455818D01*
X93295432Y-85455817D01*
X93243580Y-85422494D01*
X93191728Y-85389170D01*
X93162157Y-85380487D01*
X93073449Y-85354439D01*
X93073446Y-85354439D01*
X93040115Y-85354439D01*
X92971994Y-85334437D01*
X92925501Y-85280781D01*
X92915398Y-85246371D01*
X92905565Y-85177985D01*
X92905564Y-85177984D01*
X92905564Y-85177979D01*
X92854354Y-85065844D01*
X92773625Y-84972679D01*
X92773624Y-84972678D01*
X92721772Y-84939355D01*
X92669920Y-84906031D01*
X92640349Y-84897348D01*
X92551641Y-84871300D01*
X92551638Y-84871300D01*
X92428362Y-84871300D01*
X92428358Y-84871300D01*
X92310080Y-84906031D01*
X92310078Y-84906032D01*
X92206375Y-84972678D01*
X92125646Y-85065843D01*
X92074436Y-85177978D01*
X92074434Y-85177985D01*
X92056892Y-85299996D01*
X92056892Y-85300003D01*
X90550335Y-85300003D01*
X90486641Y-85281300D01*
X90486638Y-85281300D01*
X90363362Y-85281300D01*
X90363358Y-85281300D01*
X90245080Y-85316031D01*
X90245078Y-85316032D01*
X90141375Y-85382678D01*
X90060646Y-85475843D01*
X90009436Y-85587978D01*
X90009434Y-85587985D01*
X89991892Y-85709996D01*
X89991892Y-85710003D01*
X68954500Y-85710003D01*
X68954500Y-85180806D01*
X81100312Y-85180806D01*
X81120925Y-85324175D01*
X81181095Y-85455928D01*
X81275947Y-85565394D01*
X81324038Y-85596300D01*
X81397796Y-85643701D01*
X81536771Y-85684507D01*
X81681613Y-85684507D01*
X81820588Y-85643701D01*
X81942438Y-85565393D01*
X82037289Y-85455928D01*
X82097459Y-85324175D01*
X82118072Y-85180807D01*
X82097459Y-85037439D01*
X82037289Y-84905686D01*
X81942438Y-84796221D01*
X81942437Y-84796220D01*
X81942436Y-84796219D01*
X81820592Y-84717915D01*
X81820589Y-84717913D01*
X81820588Y-84717913D01*
X81681613Y-84677107D01*
X81536771Y-84677107D01*
X81397798Y-84717912D01*
X81397791Y-84717915D01*
X81275947Y-84796219D01*
X81181095Y-84905685D01*
X81120925Y-85037438D01*
X81100312Y-85180806D01*
X68954500Y-85180806D01*
X68954500Y-84100000D01*
X69391120Y-84100000D01*
X69411733Y-84243368D01*
X69471903Y-84375121D01*
X69566755Y-84484587D01*
X69688599Y-84562891D01*
X69688604Y-84562894D01*
X69827579Y-84603700D01*
X69972421Y-84603700D01*
X70111396Y-84562894D01*
X70233246Y-84484586D01*
X70267683Y-84444843D01*
X76120944Y-84444843D01*
X76138486Y-84566854D01*
X76138488Y-84566861D01*
X76189698Y-84678996D01*
X76270427Y-84772161D01*
X76374132Y-84838809D01*
X76474835Y-84868378D01*
X76492410Y-84873539D01*
X76492411Y-84873539D01*
X76492414Y-84873540D01*
X76492417Y-84873540D01*
X76615687Y-84873540D01*
X76615690Y-84873540D01*
X76733972Y-84838809D01*
X76837677Y-84772161D01*
X76918406Y-84678996D01*
X76969616Y-84566861D01*
X76970187Y-84562891D01*
X76987160Y-84444843D01*
X76987160Y-84444836D01*
X76969617Y-84322825D01*
X76969616Y-84322824D01*
X76969616Y-84322819D01*
X76918406Y-84210684D01*
X76837677Y-84117519D01*
X76837676Y-84117518D01*
X76785824Y-84084195D01*
X76733972Y-84050871D01*
X76704401Y-84042188D01*
X76615693Y-84016140D01*
X76615690Y-84016140D01*
X76492414Y-84016140D01*
X76492410Y-84016140D01*
X76374132Y-84050871D01*
X76374130Y-84050872D01*
X76270427Y-84117518D01*
X76189698Y-84210683D01*
X76138488Y-84322818D01*
X76138486Y-84322825D01*
X76120944Y-84444836D01*
X76120944Y-84444843D01*
X70267683Y-84444843D01*
X70328097Y-84375121D01*
X70388267Y-84243368D01*
X70408880Y-84100000D01*
X70388267Y-83956632D01*
X70328097Y-83824879D01*
X70306542Y-83800003D01*
X77736892Y-83800003D01*
X77754434Y-83922014D01*
X77754436Y-83922021D01*
X77805646Y-84034156D01*
X77886375Y-84127321D01*
X77990080Y-84193969D01*
X78090783Y-84223538D01*
X78108358Y-84228699D01*
X78108359Y-84228699D01*
X78108362Y-84228700D01*
X78108365Y-84228700D01*
X78231635Y-84228700D01*
X78231638Y-84228700D01*
X78349920Y-84193969D01*
X78453625Y-84127321D01*
X78534354Y-84034156D01*
X78585564Y-83922021D01*
X78603108Y-83800000D01*
X78603108Y-83799996D01*
X78597358Y-83760003D01*
X101056892Y-83760003D01*
X101074434Y-83882014D01*
X101074436Y-83882021D01*
X101125646Y-83994156D01*
X101206375Y-84087321D01*
X101310080Y-84153969D01*
X101410783Y-84183538D01*
X101428358Y-84188699D01*
X101428359Y-84188699D01*
X101428362Y-84188700D01*
X101428365Y-84188700D01*
X101551635Y-84188700D01*
X101551638Y-84188700D01*
X101669920Y-84153969D01*
X101773625Y-84087321D01*
X101854354Y-83994156D01*
X101905564Y-83882021D01*
X101913780Y-83824878D01*
X101923108Y-83760003D01*
X101923108Y-83759996D01*
X101905565Y-83637985D01*
X101905564Y-83637984D01*
X101905564Y-83637979D01*
X101854354Y-83525844D01*
X101773625Y-83432679D01*
X101773624Y-83432678D01*
X101718608Y-83397321D01*
X101669920Y-83366031D01*
X101640349Y-83357348D01*
X101551641Y-83331300D01*
X101551638Y-83331300D01*
X101428362Y-83331300D01*
X101428358Y-83331300D01*
X101310080Y-83366031D01*
X101310078Y-83366032D01*
X101206375Y-83432678D01*
X101125646Y-83525843D01*
X101074436Y-83637978D01*
X101074434Y-83637985D01*
X101056892Y-83759996D01*
X101056892Y-83760003D01*
X78597358Y-83760003D01*
X78585565Y-83677985D01*
X78585564Y-83677984D01*
X78585564Y-83677979D01*
X78534354Y-83565844D01*
X78453625Y-83472679D01*
X78453624Y-83472678D01*
X78401772Y-83439355D01*
X78349920Y-83406031D01*
X78320257Y-83397321D01*
X78231641Y-83371300D01*
X78231638Y-83371300D01*
X78108362Y-83371300D01*
X78108358Y-83371300D01*
X77990080Y-83406031D01*
X77990078Y-83406032D01*
X77886375Y-83472678D01*
X77805646Y-83565843D01*
X77754436Y-83677978D01*
X77754434Y-83677985D01*
X77736892Y-83799996D01*
X77736892Y-83800003D01*
X70306542Y-83800003D01*
X70233246Y-83715414D01*
X70233245Y-83715413D01*
X70233244Y-83715412D01*
X70111400Y-83637108D01*
X70111397Y-83637106D01*
X70111396Y-83637106D01*
X69972421Y-83596300D01*
X69827579Y-83596300D01*
X69688606Y-83637105D01*
X69688599Y-83637108D01*
X69566755Y-83715412D01*
X69471903Y-83824878D01*
X69411733Y-83956631D01*
X69391120Y-84100000D01*
X68954500Y-84100000D01*
X68954500Y-83070003D01*
X80646892Y-83070003D01*
X80664434Y-83192014D01*
X80664436Y-83192021D01*
X80715646Y-83304156D01*
X80796375Y-83397321D01*
X80900080Y-83463969D01*
X81000783Y-83493538D01*
X81018358Y-83498699D01*
X81018359Y-83498699D01*
X81018362Y-83498700D01*
X81018365Y-83498700D01*
X81141635Y-83498700D01*
X81141638Y-83498700D01*
X81259920Y-83463969D01*
X81363625Y-83397321D01*
X81444354Y-83304156D01*
X81495564Y-83192021D01*
X81499597Y-83163969D01*
X81513108Y-83070003D01*
X81513108Y-83069996D01*
X81495929Y-82950517D01*
X81506032Y-82880243D01*
X81552522Y-82826589D01*
X81613625Y-82787321D01*
X81628631Y-82770003D01*
X82106892Y-82770003D01*
X82124434Y-82892014D01*
X82124436Y-82892021D01*
X82175646Y-83004156D01*
X82256375Y-83097321D01*
X82360080Y-83163969D01*
X82455592Y-83192014D01*
X82478358Y-83198699D01*
X82478359Y-83198699D01*
X82478362Y-83198700D01*
X82478365Y-83198700D01*
X82601635Y-83198700D01*
X82601638Y-83198700D01*
X82719920Y-83163969D01*
X82823625Y-83097321D01*
X82904354Y-83004156D01*
X82955564Y-82892021D01*
X82964972Y-82826587D01*
X82973108Y-82770003D01*
X82973108Y-82769996D01*
X82955565Y-82647985D01*
X82955564Y-82647984D01*
X82955564Y-82647979D01*
X82953217Y-82642839D01*
X82943115Y-82572565D01*
X82972610Y-82507985D01*
X83032337Y-82469603D01*
X83103327Y-82469603D01*
X83168362Y-82488700D01*
X83168365Y-82488700D01*
X83291635Y-82488700D01*
X83291638Y-82488700D01*
X83355324Y-82470000D01*
X89051120Y-82470000D01*
X89071733Y-82613368D01*
X89131903Y-82745121D01*
X89226219Y-82853969D01*
X89226755Y-82854587D01*
X89248873Y-82868801D01*
X89348604Y-82932894D01*
X89487579Y-82973700D01*
X89632421Y-82973700D01*
X89771396Y-82932894D01*
X89893246Y-82854586D01*
X89988097Y-82745121D01*
X90048267Y-82613368D01*
X90068880Y-82470000D01*
X90048267Y-82326632D01*
X89988097Y-82194879D01*
X89893246Y-82085414D01*
X89893245Y-82085413D01*
X89893244Y-82085412D01*
X89771400Y-82007108D01*
X89771397Y-82007106D01*
X89771396Y-82007106D01*
X89632421Y-81966300D01*
X89487579Y-81966300D01*
X89487578Y-81966300D01*
X89341497Y-82009192D01*
X89292691Y-82009192D01*
X89274733Y-82048512D01*
X89247629Y-82071998D01*
X89226755Y-82085412D01*
X89131903Y-82194878D01*
X89071733Y-82326631D01*
X89064631Y-82376031D01*
X89051120Y-82470000D01*
X83355324Y-82470000D01*
X83409920Y-82453969D01*
X83513625Y-82387321D01*
X83594354Y-82294156D01*
X83645564Y-82182021D01*
X83659454Y-82085414D01*
X83663108Y-82060003D01*
X83663108Y-82059996D01*
X83645565Y-81937985D01*
X83645564Y-81937984D01*
X83645564Y-81937979D01*
X83594354Y-81825844D01*
X83513625Y-81732679D01*
X83513624Y-81732678D01*
X83461772Y-81699355D01*
X83409920Y-81666031D01*
X83380349Y-81657348D01*
X83291641Y-81631300D01*
X83291638Y-81631300D01*
X83168362Y-81631300D01*
X83168358Y-81631300D01*
X83050080Y-81666031D01*
X83050078Y-81666032D01*
X82946375Y-81732678D01*
X82865646Y-81825843D01*
X82814436Y-81937978D01*
X82814434Y-81937985D01*
X82796892Y-82059996D01*
X82796892Y-82060003D01*
X82814434Y-82182014D01*
X82814437Y-82182025D01*
X82816784Y-82187164D01*
X82826883Y-82257438D01*
X82797386Y-82322017D01*
X82737658Y-82360397D01*
X82666669Y-82360395D01*
X82649336Y-82355305D01*
X82601641Y-82341300D01*
X82601638Y-82341300D01*
X82478362Y-82341300D01*
X82478358Y-82341300D01*
X82360080Y-82376031D01*
X82360078Y-82376032D01*
X82256375Y-82442678D01*
X82175646Y-82535843D01*
X82124436Y-82647978D01*
X82124434Y-82647985D01*
X82106892Y-82769996D01*
X82106892Y-82770003D01*
X81628631Y-82770003D01*
X81694354Y-82694156D01*
X81745564Y-82582021D01*
X81752203Y-82535844D01*
X81763108Y-82460003D01*
X81763108Y-82459996D01*
X81747830Y-82353737D01*
X81757933Y-82283463D01*
X81804426Y-82229807D01*
X81837046Y-82214910D01*
X81875381Y-82203654D01*
X81979086Y-82137006D01*
X82059815Y-82043841D01*
X82101594Y-81952356D01*
X82148086Y-81898703D01*
X82216206Y-81878700D01*
X82311635Y-81878700D01*
X82311638Y-81878700D01*
X82429920Y-81843969D01*
X82533625Y-81777321D01*
X82614354Y-81684156D01*
X82665564Y-81572021D01*
X82681073Y-81464156D01*
X82683108Y-81450003D01*
X82683108Y-81449996D01*
X82680233Y-81430003D01*
X84286892Y-81430003D01*
X84304434Y-81552014D01*
X84304436Y-81552021D01*
X84355646Y-81664156D01*
X84436375Y-81757321D01*
X84540080Y-81823969D01*
X84628733Y-81850000D01*
X84658358Y-81858699D01*
X84658359Y-81858699D01*
X84658362Y-81858700D01*
X84658365Y-81858700D01*
X84781635Y-81858700D01*
X84781638Y-81858700D01*
X84899920Y-81823969D01*
X85001880Y-81758441D01*
X85069997Y-81738440D01*
X85138118Y-81758441D01*
X85138121Y-81758443D01*
X85240076Y-81823967D01*
X85240077Y-81823967D01*
X85240080Y-81823969D01*
X85328733Y-81850000D01*
X85358358Y-81858699D01*
X85358359Y-81858699D01*
X85358362Y-81858700D01*
X85358365Y-81858700D01*
X85481635Y-81858700D01*
X85481638Y-81858700D01*
X85599920Y-81823969D01*
X85703625Y-81757321D01*
X85784354Y-81664156D01*
X85835564Y-81552021D01*
X85850232Y-81450003D01*
X85853108Y-81430003D01*
X85853108Y-81429996D01*
X85835565Y-81307985D01*
X85835564Y-81307984D01*
X85835564Y-81307979D01*
X85784354Y-81195844D01*
X85703625Y-81102679D01*
X85703624Y-81102678D01*
X85607560Y-81040941D01*
X85599920Y-81036031D01*
X85570349Y-81027348D01*
X85481641Y-81001300D01*
X85481638Y-81001300D01*
X85358362Y-81001300D01*
X85358358Y-81001300D01*
X85240080Y-81036031D01*
X85240074Y-81036033D01*
X85138119Y-81101556D01*
X85069998Y-81121558D01*
X85001878Y-81101556D01*
X84907560Y-81040941D01*
X84899920Y-81036031D01*
X84870349Y-81027348D01*
X84781641Y-81001300D01*
X84781638Y-81001300D01*
X84658362Y-81001300D01*
X84658358Y-81001300D01*
X84540080Y-81036031D01*
X84540078Y-81036032D01*
X84436375Y-81102678D01*
X84355646Y-81195843D01*
X84304436Y-81307978D01*
X84304434Y-81307985D01*
X84286892Y-81429996D01*
X84286892Y-81430003D01*
X82680233Y-81430003D01*
X82665565Y-81327985D01*
X82665564Y-81327984D01*
X82665564Y-81327979D01*
X82614354Y-81215844D01*
X82533625Y-81122679D01*
X82533624Y-81122678D01*
X82481772Y-81089355D01*
X82429920Y-81056031D01*
X82429920Y-81056030D01*
X82373608Y-81039496D01*
X82313882Y-81001111D01*
X82284390Y-80936530D01*
X82283108Y-80918600D01*
X82283108Y-80909996D01*
X82265565Y-80787985D01*
X82265564Y-80787984D01*
X82265564Y-80787979D01*
X82214354Y-80675844D01*
X82133625Y-80582679D01*
X82133624Y-80582678D01*
X82074089Y-80544417D01*
X82029920Y-80516031D01*
X82000349Y-80507348D01*
X81911641Y-80481300D01*
X81911638Y-80481300D01*
X81788362Y-80481300D01*
X81788358Y-80481300D01*
X81670080Y-80516031D01*
X81670078Y-80516032D01*
X81566375Y-80582678D01*
X81485646Y-80675843D01*
X81434436Y-80787978D01*
X81434434Y-80787985D01*
X81416892Y-80909996D01*
X81416892Y-80910003D01*
X81435718Y-81040941D01*
X81432240Y-81041441D01*
X81432219Y-81095565D01*
X81393812Y-81155276D01*
X81329219Y-81184744D01*
X81275624Y-81177032D01*
X81274644Y-81180370D01*
X81265998Y-81177831D01*
X81243574Y-81171246D01*
X81147719Y-81143100D01*
X81147716Y-81143100D01*
X81024440Y-81143100D01*
X81024436Y-81143100D01*
X80906158Y-81177831D01*
X80906156Y-81177832D01*
X80802453Y-81244478D01*
X80721724Y-81337643D01*
X80670514Y-81449778D01*
X80670512Y-81449785D01*
X80652970Y-81571796D01*
X80652970Y-81571803D01*
X80670512Y-81693814D01*
X80670514Y-81693821D01*
X80721724Y-81805956D01*
X80802453Y-81899121D01*
X80906158Y-81965769D01*
X80945111Y-81977206D01*
X81004836Y-82015589D01*
X81034329Y-82080170D01*
X81024226Y-82150444D01*
X81004837Y-82180613D01*
X80965649Y-82225839D01*
X80965646Y-82225843D01*
X80914436Y-82337978D01*
X80914434Y-82337985D01*
X80896892Y-82459996D01*
X80896892Y-82459997D01*
X80896892Y-82460000D01*
X80903791Y-82507985D01*
X80914071Y-82579483D01*
X80903966Y-82649757D01*
X80857475Y-82703411D01*
X80796376Y-82742677D01*
X80796375Y-82742678D01*
X80715646Y-82835843D01*
X80664436Y-82947978D01*
X80664434Y-82947985D01*
X80646892Y-83069996D01*
X80646892Y-83070003D01*
X68954500Y-83070003D01*
X68954500Y-81230003D01*
X70056892Y-81230003D01*
X70074434Y-81352013D01*
X70074436Y-81352021D01*
X70125646Y-81464156D01*
X70206375Y-81557321D01*
X70310080Y-81623969D01*
X70384753Y-81645895D01*
X70428358Y-81658699D01*
X70428359Y-81658699D01*
X70428362Y-81658700D01*
X70428365Y-81658700D01*
X70551635Y-81658700D01*
X70551638Y-81658700D01*
X70669920Y-81623969D01*
X70773625Y-81557321D01*
X70854354Y-81464156D01*
X70905564Y-81352021D01*
X70905564Y-81352016D01*
X70905566Y-81352013D01*
X70923108Y-81230003D01*
X70923108Y-81229996D01*
X70918795Y-81200000D01*
X73291120Y-81200000D01*
X73311733Y-81343368D01*
X73371903Y-81475121D01*
X73455866Y-81572021D01*
X73466755Y-81584587D01*
X73588599Y-81662891D01*
X73588604Y-81662894D01*
X73727579Y-81703700D01*
X73872421Y-81703700D01*
X74011396Y-81662894D01*
X74133246Y-81584586D01*
X74171877Y-81540003D01*
X77736892Y-81540003D01*
X77754434Y-81662014D01*
X77754436Y-81662021D01*
X77805646Y-81774156D01*
X77886375Y-81867321D01*
X77990080Y-81933969D01*
X78090783Y-81963538D01*
X78108358Y-81968699D01*
X78108359Y-81968699D01*
X78108362Y-81968700D01*
X78108365Y-81968700D01*
X78231635Y-81968700D01*
X78231638Y-81968700D01*
X78349920Y-81933969D01*
X78453625Y-81867321D01*
X78534354Y-81774156D01*
X78585564Y-81662021D01*
X78587883Y-81645892D01*
X78603108Y-81540003D01*
X78603108Y-81539996D01*
X78585565Y-81417985D01*
X78585564Y-81417984D01*
X78585564Y-81417979D01*
X78534354Y-81305844D01*
X78453625Y-81212679D01*
X78453624Y-81212678D01*
X78364305Y-81155276D01*
X78349920Y-81146031D01*
X78320349Y-81137348D01*
X78231641Y-81111300D01*
X78231638Y-81111300D01*
X78108362Y-81111300D01*
X78108358Y-81111300D01*
X77990080Y-81146031D01*
X77990078Y-81146032D01*
X77886375Y-81212678D01*
X77805646Y-81305843D01*
X77754436Y-81417978D01*
X77754434Y-81417985D01*
X77736892Y-81539996D01*
X77736892Y-81540003D01*
X74171877Y-81540003D01*
X74228097Y-81475121D01*
X74288267Y-81343368D01*
X74308880Y-81200000D01*
X74288267Y-81056632D01*
X74228097Y-80924879D01*
X74133246Y-80815414D01*
X74133245Y-80815413D01*
X74133244Y-80815412D01*
X74011400Y-80737108D01*
X74011397Y-80737106D01*
X74011396Y-80737106D01*
X73962639Y-80722790D01*
X73872421Y-80696300D01*
X73727579Y-80696300D01*
X73588606Y-80737105D01*
X73588599Y-80737108D01*
X73466755Y-80815412D01*
X73371903Y-80924878D01*
X73311733Y-81056631D01*
X73304351Y-81107978D01*
X73291120Y-81200000D01*
X70918795Y-81200000D01*
X70905565Y-81107985D01*
X70905564Y-81107984D01*
X70905564Y-81107979D01*
X70854354Y-80995844D01*
X70773625Y-80902679D01*
X70773624Y-80902678D01*
X70672056Y-80837404D01*
X70669920Y-80836031D01*
X70640349Y-80827348D01*
X70551641Y-80801300D01*
X70551638Y-80801300D01*
X70428362Y-80801300D01*
X70428358Y-80801300D01*
X70310080Y-80836031D01*
X70310078Y-80836032D01*
X70206375Y-80902678D01*
X70125646Y-80995843D01*
X70074436Y-81107978D01*
X70074434Y-81107985D01*
X70056892Y-81229996D01*
X70056892Y-81230003D01*
X68954500Y-81230003D01*
X68954500Y-80647498D01*
X68974502Y-80579377D01*
X69028158Y-80532884D01*
X69098432Y-80522780D01*
X69111831Y-80525456D01*
X69205476Y-80549500D01*
X69205479Y-80549500D01*
X69324600Y-80549500D01*
X69324603Y-80549500D01*
X69363644Y-80544568D01*
X69442789Y-80534570D01*
X69442789Y-80534569D01*
X69442794Y-80534569D01*
X69590674Y-80476019D01*
X69601738Y-80467981D01*
X69635675Y-80443324D01*
X69719347Y-80382533D01*
X69820729Y-80259984D01*
X69888448Y-80116072D01*
X69916342Y-79969847D01*
X69918250Y-79959847D01*
X69918251Y-79959836D01*
X69913238Y-79880159D01*
X71401749Y-79880159D01*
X71411735Y-80038890D01*
X71411735Y-80038892D01*
X71460885Y-80190158D01*
X71460887Y-80190162D01*
X71546105Y-80324445D01*
X71546106Y-80324446D01*
X71546107Y-80324447D01*
X71618612Y-80392534D01*
X71662048Y-80433324D01*
X71662050Y-80433326D01*
X71757897Y-80486017D01*
X71801424Y-80509946D01*
X71801426Y-80509947D01*
X71933042Y-80543740D01*
X71955476Y-80549500D01*
X71955479Y-80549500D01*
X72074600Y-80549500D01*
X72074603Y-80549500D01*
X72113644Y-80544568D01*
X72192789Y-80534570D01*
X72192789Y-80534569D01*
X72192794Y-80534569D01*
X72340674Y-80476019D01*
X72351738Y-80467981D01*
X72385675Y-80443324D01*
X72469347Y-80382533D01*
X72545895Y-80290003D01*
X75846892Y-80290003D01*
X75864434Y-80412014D01*
X75864436Y-80412021D01*
X75915646Y-80524156D01*
X75996375Y-80617321D01*
X76100080Y-80683969D01*
X76200783Y-80713538D01*
X76218358Y-80718699D01*
X76218359Y-80718699D01*
X76218362Y-80718700D01*
X76218365Y-80718700D01*
X76341635Y-80718700D01*
X76341638Y-80718700D01*
X76402544Y-80700815D01*
X76473538Y-80700815D01*
X76533264Y-80739198D01*
X76562758Y-80803779D01*
X76562759Y-80839643D01*
X76546892Y-80950002D01*
X76546892Y-80950003D01*
X76564434Y-81072014D01*
X76564436Y-81072021D01*
X76615646Y-81184156D01*
X76696375Y-81277321D01*
X76800080Y-81343969D01*
X76900783Y-81373538D01*
X76918358Y-81378699D01*
X76918359Y-81378699D01*
X76918362Y-81378700D01*
X76918365Y-81378700D01*
X77041635Y-81378700D01*
X77041638Y-81378700D01*
X77159920Y-81343969D01*
X77263625Y-81277321D01*
X77344354Y-81184156D01*
X77395564Y-81072021D01*
X77400221Y-81039632D01*
X77413108Y-80950003D01*
X77413108Y-80949996D01*
X77395565Y-80827985D01*
X77395564Y-80827984D01*
X77395564Y-80827979D01*
X77344354Y-80715844D01*
X77263625Y-80622679D01*
X77263624Y-80622678D01*
X77228341Y-80600003D01*
X78636892Y-80600003D01*
X78654434Y-80722014D01*
X78654436Y-80722021D01*
X78705646Y-80834156D01*
X78786375Y-80927321D01*
X78890080Y-80993969D01*
X78983160Y-81021300D01*
X79008358Y-81028699D01*
X79008359Y-81028699D01*
X79008362Y-81028700D01*
X79008365Y-81028700D01*
X79131635Y-81028700D01*
X79131638Y-81028700D01*
X79249920Y-80993969D01*
X79353625Y-80927321D01*
X79434354Y-80834156D01*
X79485564Y-80722021D01*
X79492203Y-80675844D01*
X79503108Y-80600003D01*
X79503108Y-80599996D01*
X79485565Y-80477985D01*
X79485564Y-80477984D01*
X79485564Y-80477979D01*
X79434354Y-80365844D01*
X79353625Y-80272679D01*
X79353624Y-80272678D01*
X79301772Y-80239355D01*
X79249920Y-80206031D01*
X79195876Y-80190162D01*
X79131641Y-80171300D01*
X79131638Y-80171300D01*
X79008362Y-80171300D01*
X79008358Y-80171300D01*
X78890080Y-80206031D01*
X78890078Y-80206032D01*
X78786375Y-80272678D01*
X78705646Y-80365843D01*
X78654436Y-80477978D01*
X78654434Y-80477985D01*
X78636892Y-80599996D01*
X78636892Y-80600003D01*
X77228341Y-80600003D01*
X77211772Y-80589355D01*
X77159920Y-80556031D01*
X77120888Y-80544570D01*
X77041641Y-80521300D01*
X77041638Y-80521300D01*
X76918362Y-80521300D01*
X76918360Y-80521300D01*
X76918356Y-80521301D01*
X76857456Y-80539183D01*
X76786459Y-80539183D01*
X76726733Y-80500799D01*
X76697240Y-80436218D01*
X76697241Y-80400354D01*
X76698366Y-80392534D01*
X76713108Y-80290000D01*
X76713108Y-80289996D01*
X76695565Y-80167985D01*
X76695564Y-80167984D01*
X76695564Y-80167979D01*
X76644354Y-80055844D01*
X76563625Y-79962679D01*
X76563624Y-79962678D01*
X76511772Y-79929355D01*
X76459920Y-79896031D01*
X76430349Y-79887348D01*
X76341641Y-79861300D01*
X76341638Y-79861300D01*
X76218362Y-79861300D01*
X76218358Y-79861300D01*
X76100080Y-79896031D01*
X76100078Y-79896032D01*
X75996375Y-79962678D01*
X75915646Y-80055843D01*
X75864436Y-80167978D01*
X75864434Y-80167985D01*
X75846892Y-80289996D01*
X75846892Y-80290003D01*
X72545895Y-80290003D01*
X72570729Y-80259984D01*
X72638448Y-80116072D01*
X72666342Y-79969847D01*
X72668250Y-79959847D01*
X72668251Y-79959836D01*
X72658264Y-79801109D01*
X72658264Y-79801107D01*
X72658264Y-79801106D01*
X72609115Y-79649842D01*
X72609112Y-79649837D01*
X72523894Y-79515554D01*
X72407951Y-79406675D01*
X72407949Y-79406673D01*
X72268578Y-79330055D01*
X72268573Y-79330052D01*
X72114531Y-79290501D01*
X72114525Y-79290500D01*
X72114524Y-79290500D01*
X71995397Y-79290500D01*
X71995394Y-79290500D01*
X71995381Y-79290501D01*
X71877210Y-79305429D01*
X71877208Y-79305430D01*
X71729325Y-79363981D01*
X71729322Y-79363982D01*
X71600654Y-79457465D01*
X71600653Y-79457466D01*
X71499275Y-79580009D01*
X71499268Y-79580019D01*
X71431551Y-79723927D01*
X71401749Y-79880152D01*
X71401749Y-79880159D01*
X69913238Y-79880159D01*
X69908264Y-79801109D01*
X69908264Y-79801107D01*
X69908264Y-79801106D01*
X69859115Y-79649842D01*
X69859112Y-79649837D01*
X69773894Y-79515554D01*
X69657951Y-79406675D01*
X69657949Y-79406673D01*
X69518578Y-79330055D01*
X69518573Y-79330052D01*
X69364531Y-79290501D01*
X69364525Y-79290500D01*
X69364524Y-79290500D01*
X69245397Y-79290500D01*
X69245394Y-79290500D01*
X69245381Y-79290501D01*
X69127210Y-79305429D01*
X69127197Y-79305433D01*
X69126872Y-79305562D01*
X69126598Y-79305587D01*
X69119530Y-79307402D01*
X69119237Y-79306261D01*
X69056171Y-79312035D01*
X68993194Y-79279256D01*
X68957937Y-79217633D01*
X68954500Y-79188406D01*
X68954500Y-79156000D01*
X68974502Y-79087879D01*
X69028158Y-79041386D01*
X69080500Y-79030000D01*
X82024458Y-79030000D01*
X82092579Y-79050002D01*
G37*
G04 #@! TD.AperFunction*
M02*
