G04 #@! TF.GenerationSoftware,KiCad,Pcbnew,(5.1.8)-1*
G04 #@! TF.CreationDate,2020-12-20T18:41:58-05:00*
G04 #@! TF.ProjectId,Watchy,57617463-6879-42e6-9b69-6361645f7063,rev?*
G04 #@! TF.SameCoordinates,Original*
G04 #@! TF.FileFunction,Soldermask,Bot*
G04 #@! TF.FilePolarity,Negative*
%FSLAX46Y46*%
G04 Gerber Fmt 4.6, Leading zero omitted, Abs format (unit mm)*
G04 Created by KiCad (PCBNEW (5.1.8)-1) date 2020-12-20 18:41:58*
%MOMM*%
%LPD*%
G01*
G04 APERTURE LIST*
%ADD10C,0.100000*%
%ADD11C,0.150000*%
%ADD12C,0.250000*%
%ADD13C,0.010000*%
%ADD14O,1.350000X1.650000*%
%ADD15O,1.950000X1.400000*%
%ADD16C,1.200000*%
G04 APERTURE END LIST*
D10*
X99136332Y-82389048D02*
X98681764Y-82641586D01*
X98833287Y-82288033D01*
X98479733Y-82439556D01*
X98732271Y-81984987D01*
X97949403Y-81909226D02*
X98227195Y-81631434D01*
X98302956Y-81606180D01*
X98378718Y-81631434D01*
X98479733Y-81732449D01*
X98504987Y-81808210D01*
X97974657Y-81883972D02*
X97999911Y-81959733D01*
X98126180Y-82086002D01*
X98201941Y-82111256D01*
X98277703Y-82086002D01*
X98328210Y-82035495D01*
X98353464Y-81959733D01*
X98328210Y-81883972D01*
X98201941Y-81757703D01*
X98176687Y-81681941D01*
X98126180Y-81378895D02*
X97924149Y-81176865D01*
X98227195Y-81126357D02*
X97772626Y-81580926D01*
X97696865Y-81606180D01*
X97621104Y-81580926D01*
X97570596Y-81530418D01*
X97191789Y-81101104D02*
X97217043Y-81176865D01*
X97318058Y-81277880D01*
X97393819Y-81303134D01*
X97444327Y-81303134D01*
X97520088Y-81277880D01*
X97671611Y-81126357D01*
X97696865Y-81050596D01*
X97696865Y-81000088D01*
X97671611Y-80924327D01*
X97570596Y-80823312D01*
X97494834Y-80798058D01*
X96939251Y-80899073D02*
X97469581Y-80368743D01*
X96711966Y-80671789D02*
X96989758Y-80393997D01*
X97065520Y-80368743D01*
X97141281Y-80393997D01*
X97217043Y-80469758D01*
X97242296Y-80545520D01*
X97242296Y-80596027D01*
X96863489Y-80116205D02*
X96383667Y-80343489D01*
X96610951Y-79863667D02*
X96383667Y-80343489D01*
X96307905Y-80520266D01*
X96307905Y-80570773D01*
X96333159Y-80646535D01*
D11*
X83936751Y-96983705D02*
X83344128Y-97333892D01*
X83559628Y-96875956D01*
X83101692Y-97091455D01*
X83451878Y-96498832D01*
X82465296Y-96455059D02*
X82835685Y-96084670D01*
X82933333Y-96047631D01*
X83027614Y-96074568D01*
X83148832Y-96195786D01*
X83175770Y-96290067D01*
X82498967Y-96421387D02*
X82525905Y-96515668D01*
X82677428Y-96667191D01*
X82771709Y-96694128D01*
X82869357Y-96657089D01*
X82936700Y-96589746D01*
X82973739Y-96492098D01*
X82946802Y-96397817D01*
X82795279Y-96246294D01*
X82768341Y-96152013D01*
X82724568Y-95771522D02*
X82482132Y-95529086D01*
X82869357Y-95444906D02*
X82263265Y-96050998D01*
X82165617Y-96088037D01*
X82071336Y-96061099D01*
X82010727Y-96000490D01*
X81559526Y-95481945D02*
X81586463Y-95576226D01*
X81707681Y-95697445D01*
X81801962Y-95724382D01*
X81865938Y-95721015D01*
X81963587Y-95683976D01*
X82165617Y-95481945D01*
X82202656Y-95384297D01*
X82206023Y-95320321D01*
X82179086Y-95226040D01*
X82057867Y-95104822D01*
X81963587Y-95077884D01*
X81253113Y-95242876D02*
X81960219Y-94535769D01*
X80980371Y-94970135D02*
X81350761Y-94599745D01*
X81448409Y-94562707D01*
X81542690Y-94589644D01*
X81633603Y-94680558D01*
X81660541Y-94774839D01*
X81657174Y-94838815D01*
X81209339Y-94256294D02*
X80586412Y-94576175D01*
X80906294Y-93953248D02*
X80586412Y-94576175D01*
X80478662Y-94805143D01*
X80475295Y-94869119D01*
X80502233Y-94963400D01*
X78902857Y-90825714D02*
X78731428Y-91492380D01*
X78560000Y-91016190D01*
X78388571Y-91492380D01*
X78217142Y-90825714D01*
X77488571Y-91492380D02*
X77488571Y-90968571D01*
X77531428Y-90873333D01*
X77617142Y-90825714D01*
X77788571Y-90825714D01*
X77874285Y-90873333D01*
X77488571Y-91444761D02*
X77574285Y-91492380D01*
X77788571Y-91492380D01*
X77874285Y-91444761D01*
X77917142Y-91349523D01*
X77917142Y-91254285D01*
X77874285Y-91159047D01*
X77788571Y-91111428D01*
X77574285Y-91111428D01*
X77488571Y-91063809D01*
X77188571Y-90825714D02*
X76845714Y-90825714D01*
X77060000Y-90492380D02*
X77060000Y-91349523D01*
X77017142Y-91444761D01*
X76931428Y-91492380D01*
X76845714Y-91492380D01*
X76160000Y-91444761D02*
X76245714Y-91492380D01*
X76417142Y-91492380D01*
X76502857Y-91444761D01*
X76545714Y-91397142D01*
X76588571Y-91301904D01*
X76588571Y-91016190D01*
X76545714Y-90920952D01*
X76502857Y-90873333D01*
X76417142Y-90825714D01*
X76245714Y-90825714D01*
X76160000Y-90873333D01*
X75774285Y-91492380D02*
X75774285Y-90492380D01*
X75388571Y-91492380D02*
X75388571Y-90968571D01*
X75431428Y-90873333D01*
X75517142Y-90825714D01*
X75645714Y-90825714D01*
X75731428Y-90873333D01*
X75774285Y-90920952D01*
X75045714Y-90825714D02*
X74831428Y-91492380D01*
X74617142Y-90825714D02*
X74831428Y-91492380D01*
X74917142Y-91730476D01*
X74960000Y-91778095D01*
X75045714Y-91825714D01*
X71767142Y-98804285D02*
X71938571Y-98137619D01*
X72110000Y-98613809D01*
X72281428Y-98137619D01*
X72452857Y-98804285D01*
X73181428Y-98137619D02*
X73181428Y-98661428D01*
X73138571Y-98756666D01*
X73052857Y-98804285D01*
X72881428Y-98804285D01*
X72795714Y-98756666D01*
X73181428Y-98185238D02*
X73095714Y-98137619D01*
X72881428Y-98137619D01*
X72795714Y-98185238D01*
X72752857Y-98280476D01*
X72752857Y-98375714D01*
X72795714Y-98470952D01*
X72881428Y-98518571D01*
X73095714Y-98518571D01*
X73181428Y-98566190D01*
X73481428Y-98804285D02*
X73824285Y-98804285D01*
X73610000Y-99137619D02*
X73610000Y-98280476D01*
X73652857Y-98185238D01*
X73738571Y-98137619D01*
X73824285Y-98137619D01*
X74510000Y-98185238D02*
X74424285Y-98137619D01*
X74252857Y-98137619D01*
X74167142Y-98185238D01*
X74124285Y-98232857D01*
X74081428Y-98328095D01*
X74081428Y-98613809D01*
X74124285Y-98709047D01*
X74167142Y-98756666D01*
X74252857Y-98804285D01*
X74424285Y-98804285D01*
X74510000Y-98756666D01*
X74895714Y-98137619D02*
X74895714Y-99137619D01*
X75281428Y-98137619D02*
X75281428Y-98661428D01*
X75238571Y-98756666D01*
X75152857Y-98804285D01*
X75024285Y-98804285D01*
X74938571Y-98756666D01*
X74895714Y-98709047D01*
X75624285Y-98804285D02*
X75838571Y-98137619D01*
X76052857Y-98804285D02*
X75838571Y-98137619D01*
X75752857Y-97899523D01*
X75710000Y-97851904D01*
X75624285Y-97804285D01*
X79872183Y-97911725D02*
X80693773Y-98975752D01*
X79899120Y-98423536D01*
X80451337Y-99218189D01*
X79387309Y-98396598D01*
X79814941Y-99854585D02*
X79074162Y-99113806D01*
X78969780Y-98948815D01*
X78963045Y-98820862D01*
X79084264Y-98699644D01*
X79212216Y-98706378D01*
X79747597Y-99787241D02*
X79875550Y-99793976D01*
X80027073Y-99642453D01*
X80020338Y-99514500D01*
X79915956Y-99349509D01*
X79781269Y-99214822D01*
X79616277Y-99110439D01*
X79488325Y-99103705D01*
X79336802Y-99255228D01*
X79208849Y-99248493D01*
X78660000Y-99123908D02*
X78417563Y-99366345D01*
X78097681Y-98743417D02*
X79309864Y-99955600D01*
X79414247Y-100120592D01*
X79420981Y-100248544D01*
X79360372Y-100309154D01*
X78808155Y-100726683D02*
X78936108Y-100733418D01*
X79057326Y-100612199D01*
X79050592Y-100484247D01*
X79013553Y-100386599D01*
X78909170Y-100221607D01*
X78505109Y-99817546D01*
X78340118Y-99713164D01*
X78242470Y-99676125D01*
X78114517Y-99669390D01*
X77993299Y-99790609D01*
X78000033Y-99918561D01*
X78602758Y-101066768D02*
X77188544Y-99652554D01*
X78330016Y-101339509D02*
X77589238Y-100598731D01*
X77484855Y-100433739D01*
X77478121Y-100305786D01*
X77569035Y-100214873D01*
X77696987Y-100221607D01*
X77794635Y-100258646D01*
X77144771Y-100639137D02*
X77936057Y-101733469D01*
X76841725Y-100942183D02*
X77936057Y-101733469D01*
X78333384Y-102009577D01*
X78431032Y-102046616D01*
X78558984Y-102053350D01*
X76092857Y-103055714D02*
X75921428Y-103722380D01*
X75750000Y-103246190D01*
X75578571Y-103722380D01*
X75407142Y-103055714D01*
X74678571Y-103722380D02*
X74678571Y-103198571D01*
X74721428Y-103103333D01*
X74807142Y-103055714D01*
X74978571Y-103055714D01*
X75064285Y-103103333D01*
X74678571Y-103674761D02*
X74764285Y-103722380D01*
X74978571Y-103722380D01*
X75064285Y-103674761D01*
X75107142Y-103579523D01*
X75107142Y-103484285D01*
X75064285Y-103389047D01*
X74978571Y-103341428D01*
X74764285Y-103341428D01*
X74678571Y-103293809D01*
X74378571Y-103055714D02*
X74035714Y-103055714D01*
X74250000Y-102722380D02*
X74250000Y-103579523D01*
X74207142Y-103674761D01*
X74121428Y-103722380D01*
X74035714Y-103722380D01*
X73350000Y-103674761D02*
X73435714Y-103722380D01*
X73607142Y-103722380D01*
X73692857Y-103674761D01*
X73735714Y-103627142D01*
X73778571Y-103531904D01*
X73778571Y-103246190D01*
X73735714Y-103150952D01*
X73692857Y-103103333D01*
X73607142Y-103055714D01*
X73435714Y-103055714D01*
X73350000Y-103103333D01*
X72964285Y-103722380D02*
X72964285Y-102722380D01*
X72578571Y-103722380D02*
X72578571Y-103198571D01*
X72621428Y-103103333D01*
X72707142Y-103055714D01*
X72835714Y-103055714D01*
X72921428Y-103103333D01*
X72964285Y-103150952D01*
X72235714Y-103055714D02*
X72021428Y-103722380D01*
X71807142Y-103055714D02*
X72021428Y-103722380D01*
X72107142Y-103960476D01*
X72150000Y-104008095D01*
X72235714Y-104055714D01*
X76759508Y-109825714D02*
X76671413Y-110492380D01*
X76440461Y-110016190D01*
X76328556Y-110492380D01*
X76073794Y-109825714D01*
X75428556Y-110492380D02*
X75363080Y-109968571D01*
X75394032Y-109873333D01*
X75473794Y-109825714D01*
X75645223Y-109825714D01*
X75736889Y-109873333D01*
X75422604Y-110444761D02*
X75514270Y-110492380D01*
X75728556Y-110492380D01*
X75808318Y-110444761D01*
X75839270Y-110349523D01*
X75827366Y-110254285D01*
X75772604Y-110159047D01*
X75680937Y-110111428D01*
X75466651Y-110111428D01*
X75374985Y-110063809D01*
X75045223Y-109825714D02*
X74702366Y-109825714D01*
X74874985Y-109492380D02*
X74982127Y-110349523D01*
X74951175Y-110444761D01*
X74871413Y-110492380D01*
X74785699Y-110492380D01*
X74094032Y-110444761D02*
X74185699Y-110492380D01*
X74357127Y-110492380D01*
X74436889Y-110444761D01*
X74473794Y-110397142D01*
X74504747Y-110301904D01*
X74469032Y-110016190D01*
X74414270Y-109920952D01*
X74365461Y-109873333D01*
X74273794Y-109825714D01*
X74102366Y-109825714D01*
X74022604Y-109873333D01*
X73714270Y-110492380D02*
X73589270Y-109492380D01*
X73328556Y-110492380D02*
X73263080Y-109968571D01*
X73294032Y-109873333D01*
X73373794Y-109825714D01*
X73502366Y-109825714D01*
X73594032Y-109873333D01*
X73642842Y-109920952D01*
X72902366Y-109825714D02*
X72771413Y-110492380D01*
X72473794Y-109825714D02*
X72771413Y-110492380D01*
X72886889Y-110730476D01*
X72935699Y-110778095D01*
X73027366Y-110825714D01*
X88482857Y-109195714D02*
X88311428Y-109862380D01*
X88140000Y-109386190D01*
X87968571Y-109862380D01*
X87797142Y-109195714D01*
X87068571Y-109862380D02*
X87068571Y-109338571D01*
X87111428Y-109243333D01*
X87197142Y-109195714D01*
X87368571Y-109195714D01*
X87454285Y-109243333D01*
X87068571Y-109814761D02*
X87154285Y-109862380D01*
X87368571Y-109862380D01*
X87454285Y-109814761D01*
X87497142Y-109719523D01*
X87497142Y-109624285D01*
X87454285Y-109529047D01*
X87368571Y-109481428D01*
X87154285Y-109481428D01*
X87068571Y-109433809D01*
X86768571Y-109195714D02*
X86425714Y-109195714D01*
X86640000Y-108862380D02*
X86640000Y-109719523D01*
X86597142Y-109814761D01*
X86511428Y-109862380D01*
X86425714Y-109862380D01*
X85740000Y-109814761D02*
X85825714Y-109862380D01*
X85997142Y-109862380D01*
X86082857Y-109814761D01*
X86125714Y-109767142D01*
X86168571Y-109671904D01*
X86168571Y-109386190D01*
X86125714Y-109290952D01*
X86082857Y-109243333D01*
X85997142Y-109195714D01*
X85825714Y-109195714D01*
X85740000Y-109243333D01*
X85354285Y-109862380D02*
X85354285Y-108862380D01*
X84968571Y-109862380D02*
X84968571Y-109338571D01*
X85011428Y-109243333D01*
X85097142Y-109195714D01*
X85225714Y-109195714D01*
X85311428Y-109243333D01*
X85354285Y-109290952D01*
X84625714Y-109195714D02*
X84411428Y-109862380D01*
X84197142Y-109195714D02*
X84411428Y-109862380D01*
X84497142Y-110100476D01*
X84540000Y-110148095D01*
X84625714Y-110195714D01*
X101224285Y-95852857D02*
X100557619Y-95681428D01*
X101033809Y-95510000D01*
X100557619Y-95338571D01*
X101224285Y-95167142D01*
X100557619Y-94438571D02*
X101081428Y-94438571D01*
X101176666Y-94481428D01*
X101224285Y-94567142D01*
X101224285Y-94738571D01*
X101176666Y-94824285D01*
X100605238Y-94438571D02*
X100557619Y-94524285D01*
X100557619Y-94738571D01*
X100605238Y-94824285D01*
X100700476Y-94867142D01*
X100795714Y-94867142D01*
X100890952Y-94824285D01*
X100938571Y-94738571D01*
X100938571Y-94524285D01*
X100986190Y-94438571D01*
X101224285Y-94138571D02*
X101224285Y-93795714D01*
X101557619Y-94010000D02*
X100700476Y-94010000D01*
X100605238Y-93967142D01*
X100557619Y-93881428D01*
X100557619Y-93795714D01*
X100605238Y-93110000D02*
X100557619Y-93195714D01*
X100557619Y-93367142D01*
X100605238Y-93452857D01*
X100652857Y-93495714D01*
X100748095Y-93538571D01*
X101033809Y-93538571D01*
X101129047Y-93495714D01*
X101176666Y-93452857D01*
X101224285Y-93367142D01*
X101224285Y-93195714D01*
X101176666Y-93110000D01*
X100557619Y-92724285D02*
X101557619Y-92724285D01*
X100557619Y-92338571D02*
X101081428Y-92338571D01*
X101176666Y-92381428D01*
X101224285Y-92467142D01*
X101224285Y-92595714D01*
X101176666Y-92681428D01*
X101129047Y-92724285D01*
X101224285Y-91995714D02*
X100557619Y-91781428D01*
X101224285Y-91567142D02*
X100557619Y-91781428D01*
X100319523Y-91867142D01*
X100271904Y-91910000D01*
X100224285Y-91995714D01*
X100742857Y-98715714D02*
X100571428Y-99382380D01*
X100400000Y-98906190D01*
X100228571Y-99382380D01*
X100057142Y-98715714D01*
X99328571Y-99382380D02*
X99328571Y-98858571D01*
X99371428Y-98763333D01*
X99457142Y-98715714D01*
X99628571Y-98715714D01*
X99714285Y-98763333D01*
X99328571Y-99334761D02*
X99414285Y-99382380D01*
X99628571Y-99382380D01*
X99714285Y-99334761D01*
X99757142Y-99239523D01*
X99757142Y-99144285D01*
X99714285Y-99049047D01*
X99628571Y-99001428D01*
X99414285Y-99001428D01*
X99328571Y-98953809D01*
X99028571Y-98715714D02*
X98685714Y-98715714D01*
X98900000Y-98382380D02*
X98900000Y-99239523D01*
X98857142Y-99334761D01*
X98771428Y-99382380D01*
X98685714Y-99382380D01*
X98000000Y-99334761D02*
X98085714Y-99382380D01*
X98257142Y-99382380D01*
X98342857Y-99334761D01*
X98385714Y-99287142D01*
X98428571Y-99191904D01*
X98428571Y-98906190D01*
X98385714Y-98810952D01*
X98342857Y-98763333D01*
X98257142Y-98715714D01*
X98085714Y-98715714D01*
X98000000Y-98763333D01*
X97614285Y-99382380D02*
X97614285Y-98382380D01*
X97228571Y-99382380D02*
X97228571Y-98858571D01*
X97271428Y-98763333D01*
X97357142Y-98715714D01*
X97485714Y-98715714D01*
X97571428Y-98763333D01*
X97614285Y-98810952D01*
X96885714Y-98715714D02*
X96671428Y-99382380D01*
X96457142Y-98715714D02*
X96671428Y-99382380D01*
X96757142Y-99620476D01*
X96800000Y-99668095D01*
X96885714Y-99715714D01*
X94262857Y-99445714D02*
X94091428Y-100112380D01*
X93920000Y-99636190D01*
X93748571Y-100112380D01*
X93577142Y-99445714D01*
X92848571Y-100112380D02*
X92848571Y-99588571D01*
X92891428Y-99493333D01*
X92977142Y-99445714D01*
X93148571Y-99445714D01*
X93234285Y-99493333D01*
X92848571Y-100064761D02*
X92934285Y-100112380D01*
X93148571Y-100112380D01*
X93234285Y-100064761D01*
X93277142Y-99969523D01*
X93277142Y-99874285D01*
X93234285Y-99779047D01*
X93148571Y-99731428D01*
X92934285Y-99731428D01*
X92848571Y-99683809D01*
X92548571Y-99445714D02*
X92205714Y-99445714D01*
X92420000Y-99112380D02*
X92420000Y-99969523D01*
X92377142Y-100064761D01*
X92291428Y-100112380D01*
X92205714Y-100112380D01*
X91520000Y-100064761D02*
X91605714Y-100112380D01*
X91777142Y-100112380D01*
X91862857Y-100064761D01*
X91905714Y-100017142D01*
X91948571Y-99921904D01*
X91948571Y-99636190D01*
X91905714Y-99540952D01*
X91862857Y-99493333D01*
X91777142Y-99445714D01*
X91605714Y-99445714D01*
X91520000Y-99493333D01*
X91134285Y-100112380D02*
X91134285Y-99112380D01*
X90748571Y-100112380D02*
X90748571Y-99588571D01*
X90791428Y-99493333D01*
X90877142Y-99445714D01*
X91005714Y-99445714D01*
X91091428Y-99493333D01*
X91134285Y-99540952D01*
X90405714Y-99445714D02*
X90191428Y-100112380D01*
X89977142Y-99445714D02*
X90191428Y-100112380D01*
X90277142Y-100350476D01*
X90320000Y-100398095D01*
X90405714Y-100445714D01*
X98552857Y-104415714D02*
X98381428Y-105082380D01*
X98210000Y-104606190D01*
X98038571Y-105082380D01*
X97867142Y-104415714D01*
X97138571Y-105082380D02*
X97138571Y-104558571D01*
X97181428Y-104463333D01*
X97267142Y-104415714D01*
X97438571Y-104415714D01*
X97524285Y-104463333D01*
X97138571Y-105034761D02*
X97224285Y-105082380D01*
X97438571Y-105082380D01*
X97524285Y-105034761D01*
X97567142Y-104939523D01*
X97567142Y-104844285D01*
X97524285Y-104749047D01*
X97438571Y-104701428D01*
X97224285Y-104701428D01*
X97138571Y-104653809D01*
X96838571Y-104415714D02*
X96495714Y-104415714D01*
X96710000Y-104082380D02*
X96710000Y-104939523D01*
X96667142Y-105034761D01*
X96581428Y-105082380D01*
X96495714Y-105082380D01*
X95810000Y-105034761D02*
X95895714Y-105082380D01*
X96067142Y-105082380D01*
X96152857Y-105034761D01*
X96195714Y-104987142D01*
X96238571Y-104891904D01*
X96238571Y-104606190D01*
X96195714Y-104510952D01*
X96152857Y-104463333D01*
X96067142Y-104415714D01*
X95895714Y-104415714D01*
X95810000Y-104463333D01*
X95424285Y-105082380D02*
X95424285Y-104082380D01*
X95038571Y-105082380D02*
X95038571Y-104558571D01*
X95081428Y-104463333D01*
X95167142Y-104415714D01*
X95295714Y-104415714D01*
X95381428Y-104463333D01*
X95424285Y-104510952D01*
X94695714Y-104415714D02*
X94481428Y-105082380D01*
X94267142Y-104415714D02*
X94481428Y-105082380D01*
X94567142Y-105320476D01*
X94610000Y-105368095D01*
X94695714Y-105415714D01*
D12*
X101070952Y-108065714D02*
X100880476Y-108732380D01*
X100690000Y-108256190D01*
X100499523Y-108732380D01*
X100309047Y-108065714D01*
X99499523Y-108732380D02*
X99499523Y-108208571D01*
X99547142Y-108113333D01*
X99642380Y-108065714D01*
X99832857Y-108065714D01*
X99928095Y-108113333D01*
X99499523Y-108684761D02*
X99594761Y-108732380D01*
X99832857Y-108732380D01*
X99928095Y-108684761D01*
X99975714Y-108589523D01*
X99975714Y-108494285D01*
X99928095Y-108399047D01*
X99832857Y-108351428D01*
X99594761Y-108351428D01*
X99499523Y-108303809D01*
X99166190Y-108065714D02*
X98785238Y-108065714D01*
X99023333Y-107732380D02*
X99023333Y-108589523D01*
X98975714Y-108684761D01*
X98880476Y-108732380D01*
X98785238Y-108732380D01*
X98023333Y-108684761D02*
X98118571Y-108732380D01*
X98309047Y-108732380D01*
X98404285Y-108684761D01*
X98451904Y-108637142D01*
X98499523Y-108541904D01*
X98499523Y-108256190D01*
X98451904Y-108160952D01*
X98404285Y-108113333D01*
X98309047Y-108065714D01*
X98118571Y-108065714D01*
X98023333Y-108113333D01*
X97594761Y-108732380D02*
X97594761Y-107732380D01*
X97166190Y-108732380D02*
X97166190Y-108208571D01*
X97213809Y-108113333D01*
X97309047Y-108065714D01*
X97451904Y-108065714D01*
X97547142Y-108113333D01*
X97594761Y-108160952D01*
X96785238Y-108065714D02*
X96547142Y-108732380D01*
X96309047Y-108065714D02*
X96547142Y-108732380D01*
X96642380Y-108970476D01*
X96690000Y-109018095D01*
X96785238Y-109065714D01*
D13*
G36*
X77240940Y-82132044D02*
G01*
X77213590Y-82141796D01*
X77202335Y-82161468D01*
X77199229Y-82178469D01*
X77173294Y-82225768D01*
X77139772Y-82238742D01*
X77101088Y-82255541D01*
X77088155Y-82299575D01*
X77087818Y-82313788D01*
X77094353Y-82362517D01*
X77122033Y-82380018D01*
X77146117Y-82381454D01*
X77200115Y-82364413D01*
X77226363Y-82323727D01*
X77243020Y-82291315D01*
X77269957Y-82273977D01*
X77319943Y-82267090D01*
X77385872Y-82266000D01*
X77464584Y-82268146D01*
X77509104Y-82277069D01*
X77531324Y-82296493D01*
X77538620Y-82313848D01*
X77545116Y-82374632D01*
X77539736Y-82417757D01*
X77528981Y-82447318D01*
X77507984Y-82464128D01*
X77465688Y-82471757D01*
X77391038Y-82473773D01*
X77366075Y-82473818D01*
X77281736Y-82475012D01*
X77233004Y-82480782D01*
X77209321Y-82494415D01*
X77200133Y-82519195D01*
X77199106Y-82525773D01*
X77172811Y-82572454D01*
X77139772Y-82585106D01*
X77109626Y-82594287D01*
X77094060Y-82618716D01*
X77088401Y-82670335D01*
X77087818Y-82717879D01*
X77089755Y-82790497D01*
X77098424Y-82828118D01*
X77118112Y-82841861D01*
X77136161Y-82843273D01*
X77182260Y-82863070D01*
X77196582Y-82889454D01*
X77207396Y-82912758D01*
X77231431Y-82926625D01*
X77278682Y-82933432D01*
X77359143Y-82935556D01*
X77390693Y-82935636D01*
X77482079Y-82934580D01*
X77536604Y-82929894D01*
X77563568Y-82919299D01*
X77572272Y-82900519D01*
X77572727Y-82891060D01*
X77592196Y-82851028D01*
X77624681Y-82839106D01*
X77667758Y-82816438D01*
X77681133Y-82776213D01*
X77665938Y-82735257D01*
X77623302Y-82710393D01*
X77615956Y-82709238D01*
X77567884Y-82713309D01*
X77543985Y-82748780D01*
X77540199Y-82762276D01*
X77529150Y-82795016D01*
X77509108Y-82812258D01*
X77468248Y-82817969D01*
X77394748Y-82816114D01*
X77381515Y-82815492D01*
X77237909Y-82808636D01*
X77223809Y-82614438D01*
X77392495Y-82607628D01*
X77479992Y-82602850D01*
X77531489Y-82595094D01*
X77557169Y-82581040D01*
X77567214Y-82557370D01*
X77568374Y-82550283D01*
X77595047Y-82504586D01*
X77626101Y-82492556D01*
X77656455Y-82482479D01*
X77671526Y-82455317D01*
X77676399Y-82398728D01*
X77676636Y-82369909D01*
X77674116Y-82300202D01*
X77663166Y-82264213D01*
X77638701Y-82249598D01*
X77626101Y-82247262D01*
X77580404Y-82220589D01*
X77568374Y-82189534D01*
X77560784Y-82163749D01*
X77540443Y-82147925D01*
X77497422Y-82138980D01*
X77421789Y-82133832D01*
X77383956Y-82132287D01*
X77294393Y-82129708D01*
X77240940Y-82132044D01*
G37*
X77240940Y-82132044D02*
X77213590Y-82141796D01*
X77202335Y-82161468D01*
X77199229Y-82178469D01*
X77173294Y-82225768D01*
X77139772Y-82238742D01*
X77101088Y-82255541D01*
X77088155Y-82299575D01*
X77087818Y-82313788D01*
X77094353Y-82362517D01*
X77122033Y-82380018D01*
X77146117Y-82381454D01*
X77200115Y-82364413D01*
X77226363Y-82323727D01*
X77243020Y-82291315D01*
X77269957Y-82273977D01*
X77319943Y-82267090D01*
X77385872Y-82266000D01*
X77464584Y-82268146D01*
X77509104Y-82277069D01*
X77531324Y-82296493D01*
X77538620Y-82313848D01*
X77545116Y-82374632D01*
X77539736Y-82417757D01*
X77528981Y-82447318D01*
X77507984Y-82464128D01*
X77465688Y-82471757D01*
X77391038Y-82473773D01*
X77366075Y-82473818D01*
X77281736Y-82475012D01*
X77233004Y-82480782D01*
X77209321Y-82494415D01*
X77200133Y-82519195D01*
X77199106Y-82525773D01*
X77172811Y-82572454D01*
X77139772Y-82585106D01*
X77109626Y-82594287D01*
X77094060Y-82618716D01*
X77088401Y-82670335D01*
X77087818Y-82717879D01*
X77089755Y-82790497D01*
X77098424Y-82828118D01*
X77118112Y-82841861D01*
X77136161Y-82843273D01*
X77182260Y-82863070D01*
X77196582Y-82889454D01*
X77207396Y-82912758D01*
X77231431Y-82926625D01*
X77278682Y-82933432D01*
X77359143Y-82935556D01*
X77390693Y-82935636D01*
X77482079Y-82934580D01*
X77536604Y-82929894D01*
X77563568Y-82919299D01*
X77572272Y-82900519D01*
X77572727Y-82891060D01*
X77592196Y-82851028D01*
X77624681Y-82839106D01*
X77667758Y-82816438D01*
X77681133Y-82776213D01*
X77665938Y-82735257D01*
X77623302Y-82710393D01*
X77615956Y-82709238D01*
X77567884Y-82713309D01*
X77543985Y-82748780D01*
X77540199Y-82762276D01*
X77529150Y-82795016D01*
X77509108Y-82812258D01*
X77468248Y-82817969D01*
X77394748Y-82816114D01*
X77381515Y-82815492D01*
X77237909Y-82808636D01*
X77223809Y-82614438D01*
X77392495Y-82607628D01*
X77479992Y-82602850D01*
X77531489Y-82595094D01*
X77557169Y-82581040D01*
X77567214Y-82557370D01*
X77568374Y-82550283D01*
X77595047Y-82504586D01*
X77626101Y-82492556D01*
X77656455Y-82482479D01*
X77671526Y-82455317D01*
X77676399Y-82398728D01*
X77676636Y-82369909D01*
X77674116Y-82300202D01*
X77663166Y-82264213D01*
X77638701Y-82249598D01*
X77626101Y-82247262D01*
X77580404Y-82220589D01*
X77568374Y-82189534D01*
X77560784Y-82163749D01*
X77540443Y-82147925D01*
X77497422Y-82138980D01*
X77421789Y-82133832D01*
X77383956Y-82132287D01*
X77294393Y-82129708D01*
X77240940Y-82132044D01*
G36*
X76295271Y-82128386D02*
G01*
X76242563Y-82133366D01*
X76214816Y-82145672D01*
X76201421Y-82168584D01*
X76196755Y-82185182D01*
X76170371Y-82231290D01*
X76141058Y-82242909D01*
X76109342Y-82250900D01*
X76088690Y-82279724D01*
X76077023Y-82336662D01*
X76072261Y-82428991D01*
X76071818Y-82485363D01*
X76074059Y-82596092D01*
X76082239Y-82668179D01*
X76098543Y-82709011D01*
X76125159Y-82725976D01*
X76143561Y-82727818D01*
X76179995Y-82740837D01*
X76184095Y-82770848D01*
X76158153Y-82804280D01*
X76127865Y-82820820D01*
X76081863Y-82852293D01*
X76076471Y-82888455D01*
X76108732Y-82918674D01*
X76158598Y-82931327D01*
X76210698Y-82931496D01*
X76231055Y-82913334D01*
X76233454Y-82890917D01*
X76246951Y-82852076D01*
X76276051Y-82846188D01*
X76303674Y-82873581D01*
X76309418Y-82889454D01*
X76324196Y-82917246D01*
X76357808Y-82931172D01*
X76422532Y-82935533D01*
X76441272Y-82935636D01*
X76514109Y-82932740D01*
X76553250Y-82921185D01*
X76570973Y-82896670D01*
X76573127Y-82889454D01*
X76600194Y-82851881D01*
X76626222Y-82843273D01*
X76654854Y-82837219D01*
X76674472Y-82814432D01*
X76686673Y-82767971D01*
X76693052Y-82690896D01*
X76695207Y-82576267D01*
X76695272Y-82543091D01*
X76693882Y-82418638D01*
X76688643Y-82333368D01*
X76677954Y-82280335D01*
X76668786Y-82266000D01*
X76533636Y-82266000D01*
X76533636Y-82527697D01*
X76532259Y-82633474D01*
X76528522Y-82721827D01*
X76523017Y-82782785D01*
X76517148Y-82805882D01*
X76477651Y-82819571D01*
X76423035Y-82814054D01*
X76374386Y-82794173D01*
X76353177Y-82768227D01*
X76361891Y-82734890D01*
X76391841Y-82727818D01*
X76433437Y-82708422D01*
X76458339Y-82664365D01*
X76455309Y-82616845D01*
X76452946Y-82612570D01*
X76421041Y-82594601D01*
X76381611Y-82589273D01*
X76328699Y-82606688D01*
X76302199Y-82648389D01*
X76278739Y-82691950D01*
X76259293Y-82691619D01*
X76244714Y-82649581D01*
X76235854Y-82568018D01*
X76233454Y-82472455D01*
X76233454Y-82266000D01*
X76533636Y-82266000D01*
X76668786Y-82266000D01*
X76660212Y-82252596D01*
X76633816Y-82243204D01*
X76626032Y-82242909D01*
X76587911Y-82222160D01*
X76570336Y-82185182D01*
X76560152Y-82155685D01*
X76540962Y-82138445D01*
X76502156Y-82130183D01*
X76433127Y-82127622D01*
X76383545Y-82127454D01*
X76295271Y-82128386D01*
G37*
X76295271Y-82128386D02*
X76242563Y-82133366D01*
X76214816Y-82145672D01*
X76201421Y-82168584D01*
X76196755Y-82185182D01*
X76170371Y-82231290D01*
X76141058Y-82242909D01*
X76109342Y-82250900D01*
X76088690Y-82279724D01*
X76077023Y-82336662D01*
X76072261Y-82428991D01*
X76071818Y-82485363D01*
X76074059Y-82596092D01*
X76082239Y-82668179D01*
X76098543Y-82709011D01*
X76125159Y-82725976D01*
X76143561Y-82727818D01*
X76179995Y-82740837D01*
X76184095Y-82770848D01*
X76158153Y-82804280D01*
X76127865Y-82820820D01*
X76081863Y-82852293D01*
X76076471Y-82888455D01*
X76108732Y-82918674D01*
X76158598Y-82931327D01*
X76210698Y-82931496D01*
X76231055Y-82913334D01*
X76233454Y-82890917D01*
X76246951Y-82852076D01*
X76276051Y-82846188D01*
X76303674Y-82873581D01*
X76309418Y-82889454D01*
X76324196Y-82917246D01*
X76357808Y-82931172D01*
X76422532Y-82935533D01*
X76441272Y-82935636D01*
X76514109Y-82932740D01*
X76553250Y-82921185D01*
X76570973Y-82896670D01*
X76573127Y-82889454D01*
X76600194Y-82851881D01*
X76626222Y-82843273D01*
X76654854Y-82837219D01*
X76674472Y-82814432D01*
X76686673Y-82767971D01*
X76693052Y-82690896D01*
X76695207Y-82576267D01*
X76695272Y-82543091D01*
X76693882Y-82418638D01*
X76688643Y-82333368D01*
X76677954Y-82280335D01*
X76668786Y-82266000D01*
X76533636Y-82266000D01*
X76533636Y-82527697D01*
X76532259Y-82633474D01*
X76528522Y-82721827D01*
X76523017Y-82782785D01*
X76517148Y-82805882D01*
X76477651Y-82819571D01*
X76423035Y-82814054D01*
X76374386Y-82794173D01*
X76353177Y-82768227D01*
X76361891Y-82734890D01*
X76391841Y-82727818D01*
X76433437Y-82708422D01*
X76458339Y-82664365D01*
X76455309Y-82616845D01*
X76452946Y-82612570D01*
X76421041Y-82594601D01*
X76381611Y-82589273D01*
X76328699Y-82606688D01*
X76302199Y-82648389D01*
X76278739Y-82691950D01*
X76259293Y-82691619D01*
X76244714Y-82649581D01*
X76235854Y-82568018D01*
X76233454Y-82472455D01*
X76233454Y-82266000D01*
X76533636Y-82266000D01*
X76668786Y-82266000D01*
X76660212Y-82252596D01*
X76633816Y-82243204D01*
X76626032Y-82242909D01*
X76587911Y-82222160D01*
X76570336Y-82185182D01*
X76560152Y-82155685D01*
X76540962Y-82138445D01*
X76502156Y-82130183D01*
X76433127Y-82127622D01*
X76383545Y-82127454D01*
X76295271Y-82128386D01*
G36*
X75078909Y-82264328D02*
G01*
X75304045Y-82270936D01*
X75529181Y-82277545D01*
X75529181Y-82462273D01*
X75302594Y-82468899D01*
X75076006Y-82475525D01*
X75083230Y-82538172D01*
X75088147Y-82567264D01*
X75100728Y-82586116D01*
X75129894Y-82597650D01*
X75184565Y-82604786D01*
X75273662Y-82610445D01*
X75309818Y-82612364D01*
X75529181Y-82623909D01*
X75536009Y-82779773D01*
X75540381Y-82862272D01*
X75547685Y-82908881D01*
X75562856Y-82929847D01*
X75590829Y-82935420D01*
X75611055Y-82935636D01*
X75679272Y-82935636D01*
X75679272Y-82600247D01*
X75679036Y-82469603D01*
X75677567Y-82377706D01*
X75673725Y-82317119D01*
X75666373Y-82280407D01*
X75654369Y-82260133D01*
X75636575Y-82248863D01*
X75624702Y-82244109D01*
X75577588Y-82210085D01*
X75557591Y-82175408D01*
X75548579Y-82153616D01*
X75529409Y-82139646D01*
X75491267Y-82131777D01*
X75425339Y-82128288D01*
X75322809Y-82127458D01*
X75311980Y-82127454D01*
X75078909Y-82127454D01*
X75078909Y-82264328D01*
G37*
X75078909Y-82264328D02*
X75304045Y-82270936D01*
X75529181Y-82277545D01*
X75529181Y-82462273D01*
X75302594Y-82468899D01*
X75076006Y-82475525D01*
X75083230Y-82538172D01*
X75088147Y-82567264D01*
X75100728Y-82586116D01*
X75129894Y-82597650D01*
X75184565Y-82604786D01*
X75273662Y-82610445D01*
X75309818Y-82612364D01*
X75529181Y-82623909D01*
X75536009Y-82779773D01*
X75540381Y-82862272D01*
X75547685Y-82908881D01*
X75562856Y-82929847D01*
X75590829Y-82935420D01*
X75611055Y-82935636D01*
X75679272Y-82935636D01*
X75679272Y-82600247D01*
X75679036Y-82469603D01*
X75677567Y-82377706D01*
X75673725Y-82317119D01*
X75666373Y-82280407D01*
X75654369Y-82260133D01*
X75636575Y-82248863D01*
X75624702Y-82244109D01*
X75577588Y-82210085D01*
X75557591Y-82175408D01*
X75548579Y-82153616D01*
X75529409Y-82139646D01*
X75491267Y-82131777D01*
X75425339Y-82128288D01*
X75322809Y-82127458D01*
X75311980Y-82127454D01*
X75078909Y-82127454D01*
X75078909Y-82264328D01*
G36*
X74599772Y-82131693D02*
G01*
X74547155Y-82151207D01*
X74529080Y-82189534D01*
X74502407Y-82235232D01*
X74471352Y-82247262D01*
X74425790Y-82273863D01*
X74413439Y-82306409D01*
X74395782Y-82347029D01*
X74374636Y-82358364D01*
X74347276Y-82338708D01*
X74335833Y-82306409D01*
X74309636Y-82259721D01*
X74277920Y-82247262D01*
X74232222Y-82220589D01*
X74220192Y-82189534D01*
X74203403Y-82152111D01*
X74159066Y-82139374D01*
X74143727Y-82139000D01*
X74074454Y-82139000D01*
X74074454Y-82924091D01*
X74213000Y-82924091D01*
X74219505Y-82652773D01*
X74223525Y-82532485D01*
X74229379Y-82451884D01*
X74237996Y-82404486D01*
X74250302Y-82383804D01*
X74258308Y-82381454D01*
X74286352Y-82401110D01*
X74297985Y-82433409D01*
X74320452Y-82476712D01*
X74368058Y-82492592D01*
X74417146Y-82489249D01*
X74441230Y-82455918D01*
X74445607Y-82440638D01*
X74467359Y-82396627D01*
X74492594Y-82381454D01*
X74506642Y-82390328D01*
X74516103Y-82421345D01*
X74521743Y-82481101D01*
X74524325Y-82576191D01*
X74524727Y-82658545D01*
X74524727Y-82935636D01*
X74663272Y-82935636D01*
X74663272Y-82124387D01*
X74599772Y-82131693D01*
G37*
X74599772Y-82131693D02*
X74547155Y-82151207D01*
X74529080Y-82189534D01*
X74502407Y-82235232D01*
X74471352Y-82247262D01*
X74425790Y-82273863D01*
X74413439Y-82306409D01*
X74395782Y-82347029D01*
X74374636Y-82358364D01*
X74347276Y-82338708D01*
X74335833Y-82306409D01*
X74309636Y-82259721D01*
X74277920Y-82247262D01*
X74232222Y-82220589D01*
X74220192Y-82189534D01*
X74203403Y-82152111D01*
X74159066Y-82139374D01*
X74143727Y-82139000D01*
X74074454Y-82139000D01*
X74074454Y-82924091D01*
X74213000Y-82924091D01*
X74219505Y-82652773D01*
X74223525Y-82532485D01*
X74229379Y-82451884D01*
X74237996Y-82404486D01*
X74250302Y-82383804D01*
X74258308Y-82381454D01*
X74286352Y-82401110D01*
X74297985Y-82433409D01*
X74320452Y-82476712D01*
X74368058Y-82492592D01*
X74417146Y-82489249D01*
X74441230Y-82455918D01*
X74445607Y-82440638D01*
X74467359Y-82396627D01*
X74492594Y-82381454D01*
X74506642Y-82390328D01*
X74516103Y-82421345D01*
X74521743Y-82481101D01*
X74524325Y-82576191D01*
X74524727Y-82658545D01*
X74524727Y-82935636D01*
X74663272Y-82935636D01*
X74663272Y-82124387D01*
X74599772Y-82131693D01*
G36*
X73531818Y-82935636D02*
G01*
X73671454Y-82935636D01*
X73658818Y-82139000D01*
X73595318Y-82131693D01*
X73531818Y-82124387D01*
X73531818Y-82935636D01*
G37*
X73531818Y-82935636D02*
X73671454Y-82935636D01*
X73658818Y-82139000D01*
X73595318Y-82131693D01*
X73531818Y-82124387D01*
X73531818Y-82935636D01*
D14*
X98350000Y-96180000D03*
X98350000Y-91180000D03*
D15*
X101050000Y-97180000D03*
X101050000Y-90180000D03*
D16*
X69230000Y-79930000D03*
X71830000Y-79930000D03*
X69230000Y-106330000D03*
X71830000Y-106330000D03*
X101970000Y-79930000D03*
X99370000Y-79930000D03*
X101970000Y-106330000D03*
X99370000Y-106330000D03*
M02*
