G04 #@! TF.GenerationSoftware,KiCad,Pcbnew,(5.1.8)-1*
G04 #@! TF.CreationDate,2020-12-20T18:41:57-05:00*
G04 #@! TF.ProjectId,Watchy,57617463-6879-42e6-9b69-6361645f7063,rev?*
G04 #@! TF.SameCoordinates,Original*
G04 #@! TF.FileFunction,Copper,L1,Top*
G04 #@! TF.FilePolarity,Positive*
%FSLAX46Y46*%
G04 Gerber Fmt 4.6, Leading zero omitted, Abs format (unit mm)*
G04 Created by KiCad (PCBNEW (5.1.8)-1) date 2020-12-20 18:41:57*
%MOMM*%
%LPD*%
G01*
G04 APERTURE LIST*
G04 #@! TA.AperFunction,EtchedComponent*
%ADD10C,0.100000*%
G04 #@! TD*
G04 #@! TA.AperFunction,SMDPad,CuDef*
%ADD11O,0.950000X1.250000*%
G04 #@! TD*
G04 #@! TA.AperFunction,SMDPad,CuDef*
%ADD12O,1.550000X1.000000*%
G04 #@! TD*
G04 #@! TA.AperFunction,SMDPad,CuDef*
%ADD13R,1.350000X0.400000*%
G04 #@! TD*
G04 #@! TA.AperFunction,ComponentPad*
%ADD14O,0.950000X1.250000*%
G04 #@! TD*
G04 #@! TA.AperFunction,ComponentPad*
%ADD15O,1.550000X1.000000*%
G04 #@! TD*
G04 #@! TA.AperFunction,SMDPad,CuDef*
%ADD16R,0.800000X0.750000*%
G04 #@! TD*
G04 #@! TA.AperFunction,SMDPad,CuDef*
%ADD17R,1.000000X1.400000*%
G04 #@! TD*
G04 #@! TA.AperFunction,SMDPad,CuDef*
%ADD18R,0.350000X0.375000*%
G04 #@! TD*
G04 #@! TA.AperFunction,SMDPad,CuDef*
%ADD19R,0.375000X0.350000*%
G04 #@! TD*
G04 #@! TA.AperFunction,SMDPad,CuDef*
%ADD20R,2.000000X3.000000*%
G04 #@! TD*
G04 #@! TA.AperFunction,SMDPad,CuDef*
%ADD21R,0.300000X1.300000*%
G04 #@! TD*
G04 #@! TA.AperFunction,SMDPad,CuDef*
%ADD22R,2.900000X2.100000*%
G04 #@! TD*
G04 #@! TA.AperFunction,SMDPad,CuDef*
%ADD23R,1.600000X0.500000*%
G04 #@! TD*
G04 #@! TA.AperFunction,SMDPad,CuDef*
%ADD24R,0.600000X0.400000*%
G04 #@! TD*
G04 #@! TA.AperFunction,SMDPad,CuDef*
%ADD25R,1.300000X1.300000*%
G04 #@! TD*
G04 #@! TA.AperFunction,SMDPad,CuDef*
%ADD26R,0.300000X0.850000*%
G04 #@! TD*
G04 #@! TA.AperFunction,SMDPad,CuDef*
%ADD27R,0.850000X0.300000*%
G04 #@! TD*
G04 #@! TA.AperFunction,SMDPad,CuDef*
%ADD28R,0.400000X0.600000*%
G04 #@! TD*
G04 #@! TA.AperFunction,SMDPad,CuDef*
%ADD29R,0.750000X0.800000*%
G04 #@! TD*
G04 #@! TA.AperFunction,SMDPad,CuDef*
%ADD30R,1.000000X1.250000*%
G04 #@! TD*
G04 #@! TA.AperFunction,SMDPad,CuDef*
%ADD31R,1.200000X0.900000*%
G04 #@! TD*
G04 #@! TA.AperFunction,SMDPad,CuDef*
%ADD32R,0.800000X0.800000*%
G04 #@! TD*
G04 #@! TA.AperFunction,SMDPad,CuDef*
%ADD33R,1.100000X1.100000*%
G04 #@! TD*
G04 #@! TA.AperFunction,SMDPad,CuDef*
%ADD34R,3.900000X1.200000*%
G04 #@! TD*
G04 #@! TA.AperFunction,SMDPad,CuDef*
%ADD35R,0.800000X0.900000*%
G04 #@! TD*
G04 #@! TA.AperFunction,SMDPad,CuDef*
%ADD36R,0.900000X0.800000*%
G04 #@! TD*
G04 #@! TA.AperFunction,SMDPad,CuDef*
%ADD37R,1.287500X1.287500*%
G04 #@! TD*
G04 #@! TA.AperFunction,SMDPad,CuDef*
%ADD38R,0.700000X0.250000*%
G04 #@! TD*
G04 #@! TA.AperFunction,SMDPad,CuDef*
%ADD39R,0.250000X0.700000*%
G04 #@! TD*
G04 #@! TA.AperFunction,SMDPad,CuDef*
%ADD40R,0.650000X1.060000*%
G04 #@! TD*
G04 #@! TA.AperFunction,SMDPad,CuDef*
%ADD41R,0.650000X0.400000*%
G04 #@! TD*
G04 #@! TA.AperFunction,SMDPad,CuDef*
%ADD42R,0.600000X1.550000*%
G04 #@! TD*
G04 #@! TA.AperFunction,SMDPad,CuDef*
%ADD43R,1.350000X1.500000*%
G04 #@! TD*
G04 #@! TA.AperFunction,SMDPad,CuDef*
%ADD44O,1.350000X1.500000*%
G04 #@! TD*
G04 #@! TA.AperFunction,SMDPad,CuDef*
%ADD45R,0.500000X0.500000*%
G04 #@! TD*
G04 #@! TA.AperFunction,SMDPad,CuDef*
%ADD46R,0.900000X0.500000*%
G04 #@! TD*
G04 #@! TA.AperFunction,ViaPad*
%ADD47C,0.600000*%
G04 #@! TD*
G04 #@! TA.AperFunction,Conductor*
%ADD48C,0.350000*%
G04 #@! TD*
G04 #@! TA.AperFunction,Conductor*
%ADD49C,0.250000*%
G04 #@! TD*
G04 #@! TA.AperFunction,Conductor*
%ADD50C,0.900000*%
G04 #@! TD*
G04 #@! TA.AperFunction,Conductor*
%ADD51C,0.200000*%
G04 #@! TD*
G04 #@! TA.AperFunction,Conductor*
%ADD52C,0.152400*%
G04 #@! TD*
G04 #@! TA.AperFunction,Conductor*
%ADD53C,0.300000*%
G04 #@! TD*
G04 #@! TA.AperFunction,Conductor*
%ADD54C,0.500000*%
G04 #@! TD*
G04 #@! TA.AperFunction,Conductor*
%ADD55C,0.254000*%
G04 #@! TD*
G04 #@! TA.AperFunction,Conductor*
%ADD56C,0.100000*%
G04 #@! TD*
G04 APERTURE END LIST*
D10*
G36*
X77425000Y-74780000D02*
G01*
X77425000Y-78720000D01*
X76925000Y-78720000D01*
X76925000Y-74780000D01*
X77425000Y-74780000D01*
G37*
G36*
X79625000Y-74280000D02*
G01*
X79625000Y-74780000D01*
X76925000Y-74780000D01*
X76925000Y-74280000D01*
X79625000Y-74280000D01*
G37*
G36*
X79625000Y-74780000D02*
G01*
X79625000Y-77420000D01*
X79125000Y-77420000D01*
X79125000Y-74780000D01*
X79625000Y-74780000D01*
G37*
G36*
X81625000Y-76920000D02*
G01*
X81625000Y-77420000D01*
X79625000Y-77420000D01*
X79625000Y-76920000D01*
X81625000Y-76920000D01*
G37*
G36*
X82125000Y-74780000D02*
G01*
X82125000Y-77420000D01*
X81625000Y-77420000D01*
X81625000Y-74780000D01*
X82125000Y-74780000D01*
G37*
G36*
X84325000Y-74280000D02*
G01*
X84325000Y-74780000D01*
X81625000Y-74780000D01*
X81625000Y-74280000D01*
X84325000Y-74280000D01*
G37*
G36*
X84325000Y-74780000D02*
G01*
X84325000Y-77420000D01*
X83825000Y-77420000D01*
X83825000Y-74780000D01*
X84325000Y-74780000D01*
G37*
G36*
X86275000Y-76920000D02*
G01*
X86275000Y-77420000D01*
X84275000Y-77420000D01*
X84275000Y-76920000D01*
X86275000Y-76920000D01*
G37*
G36*
X86775000Y-74780000D02*
G01*
X86775000Y-77420000D01*
X86275000Y-77420000D01*
X86275000Y-74780000D01*
X86775000Y-74780000D01*
G37*
G36*
X91275000Y-74280000D02*
G01*
X91275000Y-74780000D01*
X86275000Y-74780000D01*
X86275000Y-74280000D01*
X91275000Y-74280000D01*
G37*
G36*
X91275000Y-74780000D02*
G01*
X91275000Y-79680000D01*
X90375000Y-79680000D01*
X90375000Y-74780000D01*
X91275000Y-74780000D01*
G37*
G36*
X88975000Y-74780000D02*
G01*
X88975000Y-79680000D01*
X88475000Y-79680000D01*
X88475000Y-74780000D01*
X88975000Y-74780000D01*
G37*
D11*
X98350000Y-91180000D03*
X98350000Y-96180000D03*
D12*
X101050000Y-90180000D03*
X101050000Y-97180000D03*
D13*
X98350000Y-94980000D03*
X98350000Y-94330000D03*
X98350000Y-93680000D03*
X98350000Y-93030000D03*
X98350000Y-92380000D03*
D14*
X98350000Y-96180000D03*
X98350000Y-91180000D03*
D15*
X101050000Y-97180000D03*
X101050000Y-90180000D03*
D16*
X73110000Y-78400000D03*
X74610000Y-78400000D03*
D17*
X69730000Y-82730000D03*
X69730000Y-77130000D03*
X71430000Y-82730000D03*
X71430000Y-77130000D03*
X69730000Y-109130000D03*
X69730000Y-103530000D03*
X71430000Y-109130000D03*
X71430000Y-103530000D03*
X101470000Y-77130000D03*
X101470000Y-82730000D03*
X99770000Y-77130000D03*
X99770000Y-82730000D03*
X101470000Y-103530000D03*
X101470000Y-109130000D03*
X99770000Y-103530000D03*
X99770000Y-109130000D03*
D18*
X79710000Y-81982500D03*
X79210000Y-81982500D03*
X79210000Y-80457500D03*
X79710000Y-80457500D03*
D19*
X78697500Y-81970000D03*
X80222500Y-81970000D03*
X78697500Y-80470000D03*
X80222500Y-80470000D03*
X78697500Y-80970000D03*
X78697500Y-81470000D03*
X80222500Y-80970000D03*
X80222500Y-81470000D03*
D20*
X78075000Y-99770000D03*
X92875000Y-99770000D03*
D21*
X91225000Y-97420000D03*
X90725000Y-97420000D03*
X90225000Y-97420000D03*
X89725000Y-97420000D03*
X89225000Y-97420000D03*
X88725000Y-97420000D03*
X88225000Y-97420000D03*
X87725000Y-97420000D03*
X83225000Y-97420000D03*
X82725000Y-97420000D03*
X82225000Y-97420000D03*
X80225000Y-97420000D03*
X79725000Y-97420000D03*
X80725000Y-97420000D03*
X81225000Y-97420000D03*
X81725000Y-97420000D03*
X85725000Y-97420000D03*
X85225000Y-97420000D03*
X84725000Y-97420000D03*
X83725000Y-97420000D03*
X84225000Y-97420000D03*
X86225000Y-97420000D03*
X86725000Y-97420000D03*
X87225000Y-97420000D03*
D22*
X96880000Y-87877000D03*
X96880000Y-81545000D03*
D23*
X99730000Y-84095000D03*
X99730000Y-85345000D03*
D24*
X100400000Y-88280000D03*
X100400000Y-87380000D03*
D25*
X93810000Y-91080000D03*
X93810000Y-92380000D03*
X95110000Y-91080000D03*
X95110000Y-92380000D03*
D26*
X93210000Y-89780000D03*
X93710000Y-89780000D03*
X94210000Y-89780000D03*
X94710000Y-89780000D03*
X95210000Y-89780000D03*
X95710000Y-89780000D03*
D27*
X96410000Y-90480000D03*
X96410000Y-90980000D03*
X96410000Y-91480000D03*
X96410000Y-91980000D03*
X96410000Y-92480000D03*
X96410000Y-92980000D03*
D26*
X95710000Y-93680000D03*
X95210000Y-93680000D03*
X94710000Y-93680000D03*
X94210000Y-93680000D03*
X93710000Y-93680000D03*
X93210000Y-93680000D03*
D27*
X92510000Y-92980000D03*
X92510000Y-92480000D03*
X92510000Y-91980000D03*
X92510000Y-91480000D03*
X92510000Y-90980000D03*
X92510000Y-90480000D03*
D28*
X98200000Y-103040000D03*
X97300000Y-103040000D03*
D16*
X89660000Y-92690000D03*
X91160000Y-92690000D03*
D29*
X84120000Y-80300000D03*
X84120000Y-81800000D03*
X87710000Y-93890000D03*
X87710000Y-95390000D03*
D30*
X73330000Y-103520000D03*
X75330000Y-103520000D03*
X76330000Y-109770000D03*
X74330000Y-109770000D03*
D29*
X82510000Y-93890000D03*
X82510000Y-95390000D03*
X85110000Y-95390000D03*
X85110000Y-93890000D03*
X86410000Y-95390000D03*
X86410000Y-93890000D03*
X83810000Y-93890000D03*
X83810000Y-95390000D03*
X81160000Y-95390000D03*
X81160000Y-93890000D03*
X79860000Y-93890000D03*
X79860000Y-95390000D03*
D30*
X85520000Y-80580000D03*
X87520000Y-80580000D03*
D31*
X69950000Y-101940000D03*
X69950000Y-98640000D03*
X72250000Y-101940000D03*
X72250000Y-98640000D03*
X74550000Y-98640000D03*
X74550000Y-101940000D03*
X95970000Y-95180000D03*
X95970000Y-98480000D03*
D32*
X101740000Y-84780000D03*
X101740000Y-86380000D03*
D33*
X73610000Y-82805000D03*
X73610000Y-80005000D03*
D34*
X74830000Y-108040000D03*
X74830000Y-105240000D03*
D35*
X96800000Y-108080000D03*
X95850000Y-106080000D03*
X97750000Y-106080000D03*
X98100000Y-99880000D03*
X96200000Y-99880000D03*
X97150000Y-101880000D03*
D36*
X77510000Y-81750000D03*
X77510000Y-79850000D03*
X75510000Y-80800000D03*
D28*
X85220000Y-81920000D03*
X86120000Y-81920000D03*
D24*
X91250000Y-88990000D03*
X91250000Y-89890000D03*
D28*
X93060000Y-88630000D03*
X92160000Y-88630000D03*
X95400000Y-103040000D03*
X96300000Y-103040000D03*
X97810000Y-79670000D03*
X96910000Y-79670000D03*
D24*
X75390000Y-82980000D03*
X75390000Y-83880000D03*
D28*
X98200000Y-104830000D03*
X97300000Y-104830000D03*
X95400000Y-104830000D03*
X96300000Y-104830000D03*
D24*
X73050000Y-110220000D03*
X73050000Y-109320000D03*
X99500000Y-88280000D03*
X99500000Y-87380000D03*
D28*
X97570000Y-98710000D03*
X98470000Y-98710000D03*
D24*
X101940000Y-87380000D03*
X101940000Y-88280000D03*
X76450000Y-82980000D03*
X76450000Y-83880000D03*
D37*
X88405000Y-84520000D03*
X87117500Y-84520000D03*
X85830000Y-84520000D03*
X84542500Y-84520000D03*
X88405000Y-85807500D03*
X87117500Y-85807500D03*
X85830000Y-85807500D03*
X84542500Y-85807500D03*
X88405000Y-87095000D03*
X87117500Y-87095000D03*
X85830000Y-87095000D03*
X84542500Y-87095000D03*
X88405000Y-88382500D03*
X87117500Y-88382500D03*
X85830000Y-88382500D03*
X84542500Y-88382500D03*
D38*
X89873750Y-83701250D03*
X89873750Y-84201250D03*
X89873750Y-84701250D03*
X89873750Y-85201250D03*
X89873750Y-85701250D03*
X89873750Y-86201250D03*
X89873750Y-86701250D03*
X89873750Y-87201250D03*
X89873750Y-87701250D03*
X89873750Y-88201250D03*
X89873750Y-88701250D03*
X89873750Y-89201250D03*
D39*
X89223750Y-89851250D03*
X88723750Y-89851250D03*
X88223750Y-89851250D03*
X87723750Y-89851250D03*
X87223750Y-89851250D03*
X86723750Y-89851250D03*
X86223750Y-89851250D03*
X85723750Y-89851250D03*
X85223750Y-89851250D03*
X84723750Y-89851250D03*
X84223750Y-89851250D03*
X83723750Y-89851250D03*
D38*
X83073750Y-89201250D03*
X83073750Y-88701250D03*
X83073750Y-88201250D03*
X83073750Y-87701250D03*
X83073750Y-87201250D03*
X83073750Y-86701250D03*
X83073750Y-86201250D03*
X83073750Y-85701250D03*
X83073750Y-85201250D03*
X83073750Y-84701250D03*
X83073750Y-84201250D03*
X83073750Y-83701250D03*
D39*
X83723750Y-83051250D03*
X84223750Y-83051250D03*
X84723750Y-83051250D03*
X85223750Y-83051250D03*
X85723750Y-83051250D03*
X86223750Y-83051250D03*
X86723750Y-83051250D03*
X87223750Y-83051250D03*
X87723750Y-83051250D03*
X88223750Y-83051250D03*
X88723750Y-83051250D03*
X89223750Y-83051250D03*
D40*
X94310000Y-95130000D03*
X93360000Y-95130000D03*
X92410000Y-95130000D03*
X92410000Y-97330000D03*
X94310000Y-97330000D03*
X101650000Y-101280000D03*
X99750000Y-101280000D03*
X99750000Y-99080000D03*
X100700000Y-99080000D03*
X101650000Y-99080000D03*
D41*
X89060000Y-95290000D03*
X89060000Y-93990000D03*
X90960000Y-94640000D03*
X89060000Y-94640000D03*
X90960000Y-93990000D03*
X90960000Y-95290000D03*
D42*
X77865000Y-83600000D03*
X79135000Y-83600000D03*
X80405000Y-83600000D03*
X81675000Y-83600000D03*
X81675000Y-89000000D03*
X80405000Y-89000000D03*
X79135000Y-89000000D03*
X77865000Y-89000000D03*
D24*
X76450000Y-85140000D03*
X76450000Y-86040000D03*
D43*
X69900000Y-85155000D03*
D44*
X71900000Y-85155000D03*
D45*
X88725000Y-79430000D03*
D46*
X90825000Y-79430000D03*
D47*
X78670000Y-97260000D03*
X77670000Y-97260000D03*
X90820000Y-80280000D03*
X84540000Y-84520000D03*
X87725000Y-79380000D03*
X86725000Y-79380000D03*
X85725000Y-79380000D03*
X84725000Y-79380000D03*
X83725000Y-79380000D03*
X90820000Y-81280000D03*
X91820000Y-79380000D03*
X92820000Y-79380000D03*
X92820000Y-80380000D03*
X91820000Y-80380000D03*
X92820000Y-81380000D03*
X91820000Y-81380000D03*
X92820000Y-82380000D03*
X91820000Y-82380000D03*
X92820000Y-83380000D03*
X91820000Y-83380000D03*
X89820000Y-80280000D03*
X89820000Y-81280000D03*
X72670000Y-92260000D03*
X78670000Y-92260000D03*
X77670000Y-92260000D03*
X76670000Y-92260000D03*
X74670000Y-92260000D03*
X75670000Y-92260000D03*
X73670000Y-92260000D03*
X78670000Y-93260000D03*
X77670000Y-93260000D03*
X75670000Y-93260000D03*
X72670000Y-93260000D03*
X76670000Y-93260000D03*
X73670000Y-93260000D03*
X74670000Y-93260000D03*
X77670000Y-94260000D03*
X73670000Y-94260000D03*
X74670000Y-94260000D03*
X72670000Y-94260000D03*
X75670000Y-94260000D03*
X78670000Y-94260000D03*
X76670000Y-94260000D03*
X72670000Y-95260000D03*
X77670000Y-95260000D03*
X74670000Y-95260000D03*
X76670000Y-95260000D03*
X73670000Y-95260000D03*
X78670000Y-95260000D03*
X75670000Y-95260000D03*
X77670000Y-96260000D03*
X76670000Y-96260000D03*
X78670000Y-96260000D03*
X72670000Y-96260000D03*
X73670000Y-96260000D03*
X75670000Y-96260000D03*
X74670000Y-96260000D03*
X73670000Y-97260000D03*
X75670000Y-97260000D03*
X74670000Y-97260000D03*
X72670000Y-97260000D03*
X76670000Y-97260000D03*
X79960000Y-102580000D03*
X80960000Y-102580000D03*
X81960000Y-102580000D03*
X82960000Y-102580000D03*
X83960000Y-102580000D03*
X84960000Y-102580000D03*
X85960000Y-102580000D03*
X86960000Y-102580000D03*
X87960000Y-102580000D03*
X88960000Y-102580000D03*
X89960000Y-102580000D03*
X78960000Y-103580000D03*
X79960000Y-103580000D03*
X80960000Y-103580000D03*
X81960000Y-103580000D03*
X82960000Y-103580000D03*
X83960000Y-103580000D03*
X84960000Y-103580000D03*
X85960000Y-103580000D03*
X86960000Y-103580000D03*
X87960000Y-103580000D03*
X88960000Y-103580000D03*
X89960000Y-103580000D03*
X90960000Y-103580000D03*
X91960000Y-103580000D03*
X92960000Y-103580000D03*
X78960000Y-104580000D03*
X79960000Y-104580000D03*
X80960000Y-104580000D03*
X81960000Y-104580000D03*
X82960000Y-104580000D03*
X83960000Y-104580000D03*
X84960000Y-104580000D03*
X85960000Y-104580000D03*
X86960000Y-104580000D03*
X87960000Y-104580000D03*
X88960000Y-104580000D03*
X89960000Y-104580000D03*
X90960000Y-104580000D03*
X91960000Y-104580000D03*
X92960000Y-104580000D03*
X78960000Y-105580000D03*
X79960000Y-105580000D03*
X80960000Y-105580000D03*
X81960000Y-105580000D03*
X82960000Y-105580000D03*
X83960000Y-105580000D03*
X84960000Y-105580000D03*
X85960000Y-105580000D03*
X86960000Y-105580000D03*
X87960000Y-105580000D03*
X88960000Y-105580000D03*
X89960000Y-105580000D03*
X90960000Y-105580000D03*
X91960000Y-105580000D03*
X92960000Y-105580000D03*
X78960000Y-106580000D03*
X79960000Y-106580000D03*
X80960000Y-106580000D03*
X81960000Y-106580000D03*
X82960000Y-106580000D03*
X83960000Y-106580000D03*
X84960000Y-106580000D03*
X85960000Y-106580000D03*
X86960000Y-106580000D03*
X87960000Y-106580000D03*
X88960000Y-106580000D03*
X89960000Y-106580000D03*
X90960000Y-106580000D03*
X91960000Y-106580000D03*
X92960000Y-106580000D03*
X81960000Y-101580000D03*
X83960000Y-101580000D03*
X82960000Y-101580000D03*
X86960000Y-101580000D03*
X85960000Y-101580000D03*
X84960000Y-101580000D03*
X82960000Y-100580000D03*
X83960000Y-100580000D03*
X84960000Y-100580000D03*
X81960000Y-100580000D03*
X83960000Y-99580000D03*
X81960000Y-99580000D03*
X82960000Y-99580000D03*
X81960000Y-98580000D03*
X83960000Y-98580000D03*
X82960000Y-98580000D03*
X83960000Y-107580000D03*
X84960000Y-107580000D03*
X85960000Y-107580000D03*
X79960000Y-107580000D03*
X80960000Y-107580000D03*
X78960000Y-107580000D03*
X81960000Y-107580000D03*
X82960000Y-107580000D03*
X86960000Y-107580000D03*
X91960000Y-107580000D03*
X90960000Y-107580000D03*
X87960000Y-107580000D03*
X88960000Y-107580000D03*
X92960000Y-107580000D03*
X89960000Y-107580000D03*
X84960000Y-108580000D03*
X88960000Y-108580000D03*
X79960000Y-108580000D03*
X83960000Y-108580000D03*
X92960000Y-108580000D03*
X89960000Y-108580000D03*
X82960000Y-108580000D03*
X78960000Y-108580000D03*
X85960000Y-108580000D03*
X86960000Y-108580000D03*
X81960000Y-108580000D03*
X91960000Y-108580000D03*
X80960000Y-108580000D03*
X90960000Y-108580000D03*
X87960000Y-108580000D03*
X84540000Y-85520000D03*
X84540000Y-86520000D03*
X85540000Y-84520000D03*
X85540000Y-86520000D03*
X85540000Y-85520000D03*
X86540000Y-85520000D03*
X86540000Y-86520000D03*
X86540000Y-84520000D03*
X87540000Y-84520000D03*
X87540000Y-86520000D03*
X87540000Y-85520000D03*
X88540000Y-84520000D03*
X88540000Y-85520000D03*
X89647600Y-99020000D03*
X80960000Y-101580000D03*
X84960000Y-110630000D03*
X80960000Y-110630000D03*
X86960000Y-110630000D03*
X85960000Y-110630000D03*
X92960000Y-110630000D03*
X90960000Y-110630000D03*
X83960000Y-110630000D03*
X81960000Y-110630000D03*
X79960000Y-110630000D03*
X78960000Y-110630000D03*
X88960000Y-110630000D03*
X82960000Y-110630000D03*
X87960000Y-110630000D03*
X89960000Y-110630000D03*
X91960000Y-110630000D03*
X96750000Y-103552600D03*
X101130000Y-100180000D03*
X99480001Y-92380000D03*
X72670000Y-92260000D03*
X69942600Y-91220000D03*
X69942600Y-93220000D03*
X69942600Y-94220000D03*
X69942600Y-95220000D03*
X69942600Y-96220000D03*
X69942600Y-92220000D03*
X69942600Y-97220000D03*
X71670000Y-97260000D03*
X71670000Y-94260000D03*
X71670000Y-95260000D03*
X71670000Y-96260000D03*
X71670000Y-93260000D03*
X93820000Y-79380000D03*
X93820000Y-80380000D03*
X93820000Y-81380000D03*
X93820000Y-82380000D03*
X93820000Y-83380000D03*
X94820000Y-81380000D03*
X94820000Y-82380000D03*
X94820000Y-80380000D03*
X94820000Y-79380000D03*
X94820000Y-83380000D03*
X93960000Y-107580000D03*
X93960000Y-105580000D03*
X93960000Y-108580000D03*
X93960000Y-110630000D03*
X94960000Y-110430000D03*
X95960000Y-110430000D03*
X96960000Y-110430000D03*
X97960000Y-110430000D03*
X98960000Y-110430000D03*
X99960000Y-110430000D03*
X94960000Y-111430000D03*
X98960000Y-111430000D03*
X95960000Y-111430000D03*
X97960000Y-111430000D03*
X96960000Y-111430000D03*
X99960000Y-111430000D03*
X100960000Y-111430000D03*
X77960000Y-104580000D03*
X76960000Y-103580000D03*
X77960000Y-103580000D03*
X77960000Y-110630000D03*
X71460000Y-110430000D03*
X70460000Y-110430000D03*
X69460000Y-110430000D03*
X71460000Y-111430000D03*
X70460000Y-111430000D03*
X69460000Y-111430000D03*
X72460000Y-111430000D03*
X73460000Y-111430000D03*
X74460000Y-111430000D03*
X75460000Y-111430000D03*
X76460000Y-111430000D03*
X77460000Y-111430000D03*
X95820000Y-83380000D03*
X96820000Y-83380000D03*
X97820000Y-83380000D03*
X97820000Y-84380000D03*
X96820000Y-84380000D03*
X95820000Y-84380000D03*
X93820000Y-84380000D03*
X94820000Y-84380000D03*
X97820000Y-85380000D03*
X96820000Y-85380000D03*
X93820000Y-85380000D03*
X94820000Y-85380000D03*
X95820000Y-85380000D03*
X92820000Y-84380000D03*
X89110931Y-92080445D03*
X93360000Y-95807988D03*
X75670000Y-92260000D03*
X79670000Y-92260000D03*
X80670000Y-92260000D03*
X80670000Y-92260000D03*
X94960000Y-108580000D03*
X94960000Y-107580000D03*
X93960000Y-106580000D03*
X97650000Y-97810000D03*
X100960000Y-110430000D03*
X101960000Y-111430000D03*
X101960000Y-110430000D03*
X76580000Y-80800000D03*
X80738983Y-81998600D03*
X96820000Y-85380000D03*
X97820000Y-85380000D03*
X95820000Y-85380000D03*
X69942600Y-90220000D03*
X69942600Y-89220000D03*
X69942600Y-88220000D03*
X69942600Y-87220000D03*
X71670000Y-92260000D03*
X71292600Y-87220000D03*
X71292600Y-89220000D03*
X71292600Y-90220000D03*
X71292600Y-88220000D03*
X72292600Y-89220000D03*
X72292600Y-87220000D03*
X72292600Y-90220000D03*
X72292600Y-88220000D03*
X73292600Y-90220000D03*
X73292600Y-88220000D03*
X73292600Y-87220000D03*
X73292600Y-89220000D03*
X74292600Y-89220000D03*
X74292600Y-87220000D03*
X74292600Y-90220000D03*
X74292600Y-88220000D03*
X75292600Y-89220000D03*
X75292600Y-87220000D03*
X75292600Y-88220000D03*
X75292600Y-90220000D03*
X76292600Y-90220000D03*
X76292600Y-89220000D03*
X76292600Y-88220000D03*
X76292600Y-87220000D03*
X74292600Y-86220000D03*
X75292600Y-86220000D03*
X75292600Y-85220000D03*
X74292600Y-85220000D03*
X73292600Y-85220000D03*
X73292600Y-86220000D03*
X82664439Y-91365561D03*
X83240000Y-81477597D03*
X86830000Y-81920000D03*
X90950000Y-86123850D03*
X90424264Y-82900000D03*
X80337400Y-87615464D03*
X90000000Y-89980000D03*
X86140165Y-95980521D03*
X92450000Y-89720000D03*
X100970000Y-81560000D03*
X94480000Y-98520000D03*
X69940000Y-105306554D03*
X101370000Y-105000000D03*
X93387830Y-96962789D03*
X69900000Y-83880000D03*
X78470000Y-79790000D03*
X80910000Y-80538600D03*
X73610000Y-81060000D03*
X99480000Y-94990000D03*
X101699806Y-83922208D03*
X95947624Y-96187624D03*
X90570000Y-92690000D03*
X88884536Y-99580000D03*
X87130000Y-92195817D03*
X84850000Y-90710000D03*
X86720000Y-96460000D03*
X85665035Y-90710000D03*
X86574935Y-98765142D03*
X88300000Y-100510000D03*
X89425032Y-90557400D03*
X87729735Y-99932600D03*
X88716879Y-90811619D03*
X87152335Y-99342542D03*
X87964449Y-90638606D03*
X90610000Y-91720000D03*
X96990000Y-94257400D03*
X91116337Y-91142600D03*
X96501829Y-93680000D03*
X96310000Y-89790000D03*
X90960000Y-96070000D03*
X91581192Y-94642360D03*
X93780000Y-88860000D03*
X91414509Y-86715745D03*
X91660000Y-88277829D03*
X79136621Y-84436620D03*
X81267583Y-81207316D03*
X79140000Y-83074609D03*
X90842170Y-88277830D03*
X78551620Y-85021620D03*
X78780188Y-86460001D03*
X99570000Y-104810000D03*
X95400000Y-101087401D03*
X99940000Y-80980000D03*
X83240000Y-80725194D03*
X83240000Y-82230000D03*
X78019592Y-85553649D03*
X71430000Y-81530000D03*
X73350000Y-83880000D03*
X96138438Y-101664801D03*
X101118370Y-88755062D03*
X100602220Y-85880000D03*
X77622228Y-86973162D03*
X82950000Y-89980000D03*
X81936470Y-91029895D03*
X71020000Y-104690000D03*
X71021307Y-107628693D03*
X71192599Y-91352391D03*
X97110000Y-89660000D03*
X83080000Y-83070000D03*
X77050000Y-83880000D03*
X80781669Y-90784819D03*
X80960877Y-86277991D03*
X82836199Y-80090326D03*
X81416472Y-85672650D03*
X82212780Y-80511583D03*
D48*
X88405000Y-84120000D02*
X88405000Y-84115000D01*
X88405000Y-84115000D02*
X88410000Y-84110000D01*
D49*
X87725000Y-96920000D02*
X87725000Y-97820000D01*
X84542500Y-84520000D02*
X84540000Y-84520000D01*
X83073750Y-87701250D02*
X84448750Y-87701250D01*
D50*
X90825000Y-80275000D02*
X90820000Y-80280000D01*
X90825000Y-79430000D02*
X90825000Y-80275000D01*
D49*
X87725000Y-97420000D02*
X87725000Y-98219322D01*
X89630199Y-99002599D02*
X89647600Y-99020000D01*
X88508277Y-99002599D02*
X89630199Y-99002599D01*
X87725000Y-98219322D02*
X88508277Y-99002599D01*
X89660000Y-92590000D02*
X89748534Y-92590000D01*
X92510000Y-90980000D02*
X91973185Y-90980000D01*
X91973185Y-90980000D02*
X91558384Y-90565199D01*
X96300000Y-104830000D02*
X96810000Y-104830000D01*
X96810000Y-104830000D02*
X97240000Y-104830000D01*
X96300000Y-103030000D02*
X96750000Y-103030000D01*
X96750000Y-103030000D02*
X97210000Y-103030000D01*
X96750000Y-103030000D02*
X96750000Y-103552600D01*
X97650000Y-98730000D02*
X97650000Y-97810000D01*
X100700000Y-99080000D02*
X100700000Y-99750000D01*
X100700000Y-99750000D02*
X101130000Y-100180000D01*
X98350000Y-92380000D02*
X99480001Y-92380000D01*
X95599322Y-107580000D02*
X92960000Y-107580000D01*
X96510000Y-107110000D02*
X96069322Y-107110000D01*
X96069322Y-107110000D02*
X95599322Y-107580000D01*
X96810000Y-104830000D02*
X96810000Y-106810000D01*
X96810000Y-106810000D02*
X96510000Y-107110000D01*
X89660000Y-92590000D02*
X89620486Y-92590000D01*
X89620486Y-92590000D02*
X89110931Y-92080445D01*
X89325634Y-92080445D02*
X89110931Y-92080445D01*
X90840880Y-90565199D02*
X89325634Y-92080445D01*
D51*
X93360000Y-95190000D02*
X93360000Y-94859322D01*
D49*
X93360000Y-95190000D02*
X93360000Y-95807988D01*
X90840880Y-90565199D02*
X91558384Y-90565199D01*
D52*
X76590000Y-80810000D02*
X76580000Y-80800000D01*
D49*
X81675000Y-83600000D02*
X81670000Y-83600000D01*
X81675000Y-83600000D02*
X81592833Y-83600000D01*
X81592833Y-83600000D02*
X81582833Y-83610000D01*
D52*
X80222500Y-81970000D02*
X81008618Y-81970000D01*
X81008618Y-81970000D02*
X81037218Y-81998600D01*
X81675000Y-82636382D02*
X81037218Y-81998600D01*
X81675000Y-83600000D02*
X81675000Y-82636382D01*
X81037218Y-81998600D02*
X80738983Y-81998600D01*
D49*
X75390000Y-82980000D02*
X75390000Y-82280000D01*
X77560000Y-79850000D02*
X78250000Y-79160000D01*
X77510000Y-79850000D02*
X77560000Y-79850000D01*
X78250000Y-79160000D02*
X78520000Y-79160000D01*
D52*
X78697500Y-81297400D02*
X78700000Y-81299900D01*
X78697500Y-80970000D02*
X78697500Y-81297400D01*
X78700000Y-81299900D02*
X78700000Y-81566399D01*
X76750000Y-80970000D02*
X76580000Y-80800000D01*
X78697500Y-80970000D02*
X76750000Y-80970000D01*
D49*
X85220000Y-81920000D02*
X85220000Y-83050000D01*
X85220000Y-81920000D02*
X84170000Y-81920000D01*
X84120000Y-81800000D02*
X84030000Y-81800000D01*
X84120000Y-81800000D02*
X83885334Y-81565334D01*
D51*
X84436478Y-93137600D02*
X82664439Y-91365561D01*
X87791752Y-92850000D02*
X87504154Y-93137600D01*
X87504154Y-93137600D02*
X84436478Y-93137600D01*
X89040000Y-95290000D02*
X88535000Y-95290000D01*
X88535000Y-95290000D02*
X88410000Y-95165000D01*
X88230000Y-92850000D02*
X87791752Y-92850000D01*
X88410000Y-95165000D02*
X88410000Y-93030000D01*
X88410000Y-93030000D02*
X88230000Y-92850000D01*
D49*
X84120000Y-81800000D02*
X83797597Y-81477597D01*
X83797597Y-81477597D02*
X83240000Y-81477597D01*
X90000000Y-82900000D02*
X89575736Y-82900000D01*
X89575736Y-82900000D02*
X89260000Y-82900000D01*
X89873750Y-89201250D02*
X89873750Y-89853750D01*
X90878750Y-85801250D02*
X90880000Y-85800000D01*
X89873750Y-84701250D02*
X90348072Y-84701250D01*
X90424264Y-82900000D02*
X90880000Y-83355736D01*
X90000000Y-82900000D02*
X90424264Y-82900000D01*
X86120000Y-81920000D02*
X86830000Y-81920000D01*
X87192500Y-81920000D02*
X86830000Y-81920000D01*
X87723750Y-82451250D02*
X87192500Y-81920000D01*
X87723750Y-83051250D02*
X87723750Y-82451250D01*
X88098750Y-83051250D02*
X88100000Y-83050000D01*
X87723750Y-83051250D02*
X88098750Y-83051250D01*
X88100000Y-83050000D02*
X88200000Y-83050000D01*
X90872600Y-86201250D02*
X90950000Y-86123850D01*
X89873750Y-86201250D02*
X90872600Y-86201250D01*
X90880000Y-86053850D02*
X90950000Y-86123850D01*
X90880000Y-85233178D02*
X90880000Y-86053850D01*
X87520000Y-81230000D02*
X86830000Y-81920000D01*
X87520000Y-80580000D02*
X87520000Y-81230000D01*
X80439923Y-87615464D02*
X80337400Y-87615464D01*
X83073750Y-86701250D02*
X81354137Y-86701250D01*
X81354137Y-86701250D02*
X80439923Y-87615464D01*
X90348072Y-84701250D02*
X90356822Y-84710000D01*
X90880000Y-85233178D02*
X90348072Y-84701250D01*
X90880000Y-85233178D02*
X90880000Y-83355736D01*
X86410000Y-95390000D02*
X86410000Y-95710686D01*
X86410000Y-95710686D02*
X86140165Y-95980521D01*
X74330000Y-109770000D02*
X74330000Y-108330000D01*
X69940000Y-103530000D02*
X69940000Y-105306554D01*
X72633446Y-108000000D02*
X73500000Y-108000000D01*
X83725000Y-97420000D02*
X84125000Y-97420000D01*
X86410000Y-95390000D02*
X86504554Y-95390000D01*
X92280000Y-89890000D02*
X92450000Y-89720000D01*
X91360000Y-89890000D02*
X92280000Y-89890000D01*
X74830000Y-108040000D02*
X76560908Y-108040000D01*
X94480000Y-98520000D02*
X94480000Y-98095736D01*
X94480000Y-98095736D02*
X94480000Y-97670000D01*
X78440718Y-109559811D02*
X76920907Y-108040000D01*
X97320189Y-109559811D02*
X78440718Y-109559811D01*
X76920907Y-108040000D02*
X74830000Y-108040000D01*
X101370000Y-105510000D02*
X97320189Y-109559811D01*
X101370000Y-105000000D02*
X101370000Y-105510000D01*
X101370000Y-81960000D02*
X100970000Y-81560000D01*
X101370000Y-82720000D02*
X101370000Y-81960000D01*
X69940000Y-105730818D02*
X72209182Y-108000000D01*
X72209182Y-108000000D02*
X72633446Y-108000000D01*
X69940000Y-105306554D02*
X69940000Y-105730818D01*
D51*
X84225000Y-96570000D02*
X84335000Y-96460000D01*
X84225000Y-97420000D02*
X84225000Y-96570000D01*
X85660686Y-96460000D02*
X86140165Y-95980521D01*
X84335000Y-96460000D02*
X85660686Y-96460000D01*
D49*
X94310000Y-97390000D02*
X94310000Y-97080000D01*
X94310000Y-97390000D02*
X94310000Y-97367359D01*
X94310000Y-97390000D02*
X93815041Y-97390000D01*
X93815041Y-97390000D02*
X93387830Y-96962789D01*
X93060000Y-88710000D02*
X93060000Y-88630000D01*
X92710000Y-89060000D02*
X93060000Y-88710000D01*
X92710000Y-89470000D02*
X92710000Y-89060000D01*
X92450000Y-89720000D02*
X92460000Y-89720000D01*
X92460000Y-89720000D02*
X92710000Y-89470000D01*
X73610000Y-79205000D02*
X73060000Y-78655000D01*
X73610000Y-80005000D02*
X73610000Y-79205000D01*
X69730000Y-81780000D02*
X70700000Y-80810000D01*
X69730000Y-82730000D02*
X69730000Y-81780000D01*
X70700000Y-80810000D02*
X72810000Y-80810000D01*
X72810000Y-80810000D02*
X73480000Y-80140000D01*
X69900000Y-83880000D02*
X69900000Y-82650000D01*
X69900000Y-85155000D02*
X69900000Y-83880000D01*
D52*
X80222500Y-80970000D02*
X80478600Y-80970000D01*
X80478600Y-80970000D02*
X80910000Y-80538600D01*
X73610000Y-80005000D02*
X73610000Y-81060000D01*
D49*
X101370000Y-105000000D02*
X101370000Y-103450000D01*
D52*
X78697500Y-80017500D02*
X78470000Y-79790000D01*
X78697500Y-80470000D02*
X78697500Y-80017500D01*
D49*
X81220000Y-100465446D02*
X81220000Y-97020000D01*
X79682849Y-102002597D02*
X81220000Y-100465446D01*
X76413504Y-102002597D02*
X79682849Y-102002597D01*
X75427401Y-101016494D02*
X76413504Y-102002597D01*
X75427401Y-99387401D02*
X75427401Y-101016494D01*
X74550000Y-98510000D02*
X75427401Y-99387401D01*
D51*
X81225000Y-96667295D02*
X81579028Y-96313268D01*
X81225000Y-97420000D02*
X81225000Y-96667295D01*
X81579028Y-96313268D02*
X82382296Y-95510000D01*
D49*
X80220000Y-100896354D02*
X79516165Y-101600189D01*
X80220000Y-97020000D02*
X80220000Y-100896354D01*
X79516165Y-101600189D02*
X79509811Y-101600189D01*
X73817401Y-97837401D02*
X73782599Y-97837401D01*
X78400189Y-101600189D02*
X79516165Y-101600189D01*
X76580189Y-101600189D02*
X78400189Y-101600189D01*
X75829811Y-98219811D02*
X75829811Y-100849811D01*
X75829811Y-100849811D02*
X76580189Y-101600189D01*
X75447401Y-97837401D02*
X75829811Y-98219811D01*
X73817401Y-97837401D02*
X75447401Y-97837401D01*
X73400000Y-98050000D02*
X73400000Y-99039322D01*
X73817401Y-97837401D02*
X73612599Y-97837401D01*
X73400000Y-99039322D02*
X73400000Y-99130000D01*
X73612599Y-97837401D02*
X73400000Y-98050000D01*
X70860000Y-99410000D02*
X70090000Y-98640000D01*
X71170000Y-99720000D02*
X70860000Y-99410000D01*
X73070000Y-99720000D02*
X71170000Y-99720000D01*
X73400000Y-99039322D02*
X73400000Y-99390000D01*
X73400000Y-99390000D02*
X73070000Y-99720000D01*
X93210000Y-93690000D02*
X93660000Y-93690000D01*
X97425000Y-94980000D02*
X96200000Y-94980000D01*
X98350000Y-94980000D02*
X97425000Y-94980000D01*
X98350000Y-94980000D02*
X97875000Y-94980000D01*
X98350000Y-94980000D02*
X98825000Y-94980000D01*
X98350000Y-94980000D02*
X99470000Y-94980000D01*
X99470000Y-94980000D02*
X99480000Y-94990000D01*
X101699806Y-83922208D02*
X101699806Y-84809806D01*
X99080000Y-100440000D02*
X99560000Y-100920000D01*
X99080000Y-100440000D02*
X98440000Y-99800000D01*
X98440000Y-99800000D02*
X98310000Y-99670000D01*
X91792526Y-93492526D02*
X93227474Y-93492526D01*
X91792526Y-93492526D02*
X91722526Y-93492526D01*
X91722526Y-93492526D02*
X91160000Y-92930000D01*
X95970000Y-95180000D02*
X95970000Y-96165248D01*
X95970000Y-96165248D02*
X95947624Y-96187624D01*
X91160000Y-92690000D02*
X90570000Y-92690000D01*
X98810000Y-98990000D02*
X98530000Y-98710000D01*
X99030000Y-99210000D02*
X98810000Y-98990000D01*
X99030000Y-99210000D02*
X99030000Y-100390000D01*
X99480000Y-96570000D02*
X99480000Y-94990000D01*
X99030000Y-99210000D02*
X99030000Y-97020001D01*
X99030000Y-97020001D02*
X99480000Y-96570000D01*
X87225000Y-96920000D02*
X87225000Y-97889092D01*
X88485000Y-99580000D02*
X88884536Y-99580000D01*
X87225000Y-97420000D02*
X87225000Y-98320000D01*
X87225000Y-98320000D02*
X88485000Y-99580000D01*
X90348072Y-88701250D02*
X90577401Y-88930579D01*
X90577401Y-90259585D02*
X89447966Y-91389020D01*
X89873750Y-88701250D02*
X90348072Y-88701250D01*
X90577401Y-88930579D02*
X90577401Y-90259585D01*
X87936797Y-91389020D02*
X89447966Y-91389020D01*
X87130000Y-92195817D02*
X87936797Y-91389020D01*
X85223750Y-89851250D02*
X85223750Y-90336250D01*
X85223750Y-90336250D02*
X84850000Y-90710000D01*
X86725000Y-96465000D02*
X86720000Y-96460000D01*
X86725000Y-97420000D02*
X86725000Y-96465000D01*
X85723750Y-90649905D02*
X85665035Y-90708620D01*
X85723750Y-89851250D02*
X85723750Y-90649905D01*
X86225000Y-98415207D02*
X86574935Y-98765142D01*
X86225000Y-96920000D02*
X86225000Y-98415207D01*
X84725000Y-96920000D02*
X84725000Y-99295000D01*
X85940000Y-100510000D02*
X88300000Y-100510000D01*
X84725000Y-99295000D02*
X85940000Y-100510000D01*
X89223750Y-89851250D02*
X89223750Y-90356118D01*
X89223750Y-90356118D02*
X89425032Y-90557400D01*
X85225000Y-96920000D02*
X85225000Y-99225908D01*
X85225000Y-99225908D02*
X85931692Y-99932600D01*
X85931692Y-99932600D02*
X87729735Y-99932600D01*
X88723750Y-89851250D02*
X88723750Y-90804748D01*
X88723750Y-90804748D02*
X88716879Y-90811619D01*
X87152335Y-99342542D02*
X86142542Y-99342542D01*
X86142542Y-99342542D02*
X85720000Y-98920000D01*
X85720000Y-98920000D02*
X85720000Y-97040000D01*
X88223750Y-89851250D02*
X88223750Y-90379305D01*
X88223750Y-90379305D02*
X87964449Y-90638606D01*
X90225000Y-100484092D02*
X90225000Y-96920000D01*
X90225000Y-101345000D02*
X90225000Y-100484092D01*
X91882599Y-103002599D02*
X90225000Y-101345000D01*
X95400000Y-104830000D02*
X95400000Y-105480000D01*
X95400000Y-105480000D02*
X95770000Y-105850000D01*
X93237153Y-103002599D02*
X93550000Y-103315446D01*
X92762599Y-103002599D02*
X93237153Y-103002599D01*
X91882599Y-103002599D02*
X92762599Y-103002599D01*
X93550000Y-103315446D02*
X93550000Y-104320000D01*
X93550000Y-104320000D02*
X94060000Y-104830000D01*
X94060000Y-104830000D02*
X95370000Y-104830000D01*
X98200000Y-105380000D02*
X97780000Y-105800000D01*
X98200000Y-104830000D02*
X98200000Y-105380000D01*
X93952410Y-103148763D02*
X93952410Y-103822410D01*
X93403836Y-102600189D02*
X93952410Y-103148763D01*
X91050189Y-101601097D02*
X92049281Y-102600189D01*
X93952410Y-103822410D02*
X94260000Y-104130000D01*
X97610000Y-104130000D02*
X97770000Y-104130000D01*
X94260000Y-104130000D02*
X97610000Y-104130000D01*
X92049281Y-102600189D02*
X93403836Y-102600189D01*
X91050189Y-101600189D02*
X91050189Y-101601097D01*
X90725000Y-101275000D02*
X91050189Y-101600189D01*
X90725000Y-96920000D02*
X90725000Y-101275000D01*
X97770000Y-104130000D02*
X97790000Y-104130000D01*
X97790000Y-104130000D02*
X98200000Y-104540000D01*
X98200000Y-104540000D02*
X98200000Y-104700000D01*
X98340000Y-94330000D02*
X97130000Y-94330000D01*
X97130000Y-94330000D02*
X97010000Y-94210000D01*
X91514322Y-91720000D02*
X91754322Y-91960000D01*
X91754322Y-91960000D02*
X92300000Y-91960000D01*
X91514322Y-91720000D02*
X90610000Y-91720000D01*
X90916336Y-91142599D02*
X90916337Y-91142600D01*
X98340000Y-93680000D02*
X96501829Y-93680000D01*
X91566692Y-91142599D02*
X91884093Y-91460000D01*
X91884093Y-91460000D02*
X92310000Y-91460000D01*
X91540601Y-91142600D02*
X91116337Y-91142600D01*
X91566692Y-91142599D02*
X91540601Y-91142600D01*
X89635000Y-94640000D02*
X90285000Y-95290000D01*
X89060000Y-94640000D02*
X89635000Y-94640000D01*
X90285000Y-95290000D02*
X90810000Y-95290000D01*
X96300000Y-89780000D02*
X96310000Y-89790000D01*
X95710000Y-89780000D02*
X96300000Y-89780000D01*
X90960000Y-95290000D02*
X90960000Y-96070000D01*
D51*
X90330980Y-93990000D02*
X90960000Y-93990000D01*
X89750980Y-93410000D02*
X90330980Y-93990000D01*
X89010000Y-93410000D02*
X89750980Y-93410000D01*
X88762410Y-93262410D02*
X88910000Y-93410000D01*
X88762410Y-92884027D02*
X88762410Y-93262410D01*
X88910000Y-93410000D02*
X89750980Y-93410000D01*
X88375973Y-92497590D02*
X88762410Y-92884027D01*
X87645779Y-92497590D02*
X88375973Y-92497590D01*
X82540000Y-88700000D02*
X82340000Y-88900000D01*
X87358181Y-92785190D02*
X87645779Y-92497590D01*
X82340000Y-88900000D02*
X82340000Y-90187554D01*
X84937636Y-92785190D02*
X87358181Y-92785190D01*
X83010000Y-88700000D02*
X82540000Y-88700000D01*
X82340000Y-90187554D02*
X84937636Y-92785190D01*
D49*
X89635000Y-93990000D02*
X90285000Y-94640000D01*
X89060000Y-93990000D02*
X89635000Y-93990000D01*
X90285000Y-94640000D02*
X90680000Y-94640000D01*
X91538832Y-94640000D02*
X91541192Y-94642360D01*
X90960000Y-94640000D02*
X91588832Y-94640000D01*
X93710000Y-89780000D02*
X93710000Y-88930000D01*
X93710000Y-88930000D02*
X93780000Y-88860000D01*
X79135000Y-83600000D02*
X79135000Y-83102400D01*
X79135000Y-83600000D02*
X79135000Y-83105000D01*
X79135000Y-83600000D02*
X79135000Y-83003496D01*
X89873750Y-86701250D02*
X91400014Y-86701250D01*
X91400014Y-86701250D02*
X91414509Y-86715745D01*
X92160000Y-88630000D02*
X92090000Y-88630000D01*
X92090000Y-88630000D02*
X91650000Y-88190000D01*
X79135000Y-84434999D02*
X79136621Y-84436620D01*
X79135000Y-83600000D02*
X79135000Y-84434999D01*
D52*
X80222500Y-81470000D02*
X81004899Y-81470000D01*
X81004899Y-81470000D02*
X81267583Y-81207316D01*
D49*
X89873750Y-88201250D02*
X90765590Y-88201250D01*
X90765590Y-88201250D02*
X90842170Y-88277830D01*
X77865000Y-83600000D02*
X77865000Y-84149802D01*
X77865000Y-83600000D02*
X77865000Y-83282402D01*
X91360000Y-88795660D02*
X90842170Y-88277830D01*
X91360000Y-88990000D02*
X91360000Y-88795660D01*
X77865000Y-84335000D02*
X78551620Y-85021620D01*
X77865000Y-83600000D02*
X77865000Y-84335000D01*
D52*
X78450000Y-82530000D02*
X77890000Y-83090000D01*
X79060000Y-82530000D02*
X78610000Y-82530000D01*
X78610000Y-82530000D02*
X79436482Y-82530000D01*
X79436482Y-82530000D02*
X79613601Y-82352881D01*
X78610000Y-82530000D02*
X78450000Y-82530000D01*
X79613601Y-82352881D02*
X79613601Y-81986399D01*
D49*
X95400000Y-101090000D02*
X95400000Y-101087401D01*
X95400000Y-103030000D02*
X95400000Y-101090000D01*
D52*
X82571350Y-84701250D02*
X82433361Y-84839239D01*
X83073750Y-84701250D02*
X82571350Y-84701250D01*
X80400950Y-84839239D02*
X78780188Y-86460001D01*
X82433361Y-84839239D02*
X80400950Y-84839239D01*
D49*
X99570000Y-104810000D02*
X99570000Y-103470000D01*
X99940000Y-80980000D02*
X99940000Y-82110000D01*
X100239999Y-79609999D02*
X100239999Y-80680001D01*
X99822599Y-79192599D02*
X100239999Y-79609999D01*
X100239999Y-80680001D02*
X99940000Y-80980000D01*
X98260000Y-79670000D02*
X98737401Y-79192599D01*
X97810000Y-79670000D02*
X98260000Y-79670000D01*
X98737401Y-79192599D02*
X99822599Y-79192599D01*
X83073750Y-84201250D02*
X82473750Y-84201250D01*
X82473750Y-84201250D02*
X82367443Y-84094943D01*
X82367443Y-84094943D02*
X82367443Y-81173487D01*
X82815736Y-80725194D02*
X83240000Y-80725194D01*
X82367443Y-81173487D02*
X82815736Y-80725194D01*
D51*
X83240000Y-82230000D02*
X83240000Y-82399694D01*
X83240000Y-82399694D02*
X83710000Y-82869694D01*
D49*
X71430000Y-82730000D02*
X71430000Y-81530000D01*
D52*
X74590000Y-83880000D02*
X73350000Y-83880000D01*
X75390000Y-83880000D02*
X74590000Y-83880000D01*
X75390000Y-83880000D02*
X75390000Y-84232400D01*
X75390000Y-84232400D02*
X75667600Y-84510000D01*
X76975943Y-84510000D02*
X78019592Y-85553649D01*
X75667600Y-84510000D02*
X76975943Y-84510000D01*
D49*
X80405000Y-83600000D02*
X80405000Y-83836814D01*
X80400000Y-83290678D02*
X80400000Y-83590000D01*
X80405000Y-83600000D02*
X80405000Y-83836815D01*
X96138438Y-101664801D02*
X97205199Y-101664801D01*
X100057401Y-95267153D02*
X100057402Y-92102847D01*
X99750000Y-99060000D02*
X99542410Y-98852410D01*
X99750000Y-99080000D02*
X99750000Y-99060000D01*
X100057402Y-92102847D02*
X99300000Y-91345445D01*
X99300000Y-91345445D02*
X99300000Y-89499092D01*
X100700000Y-101930908D02*
X100700000Y-100810000D01*
X100480719Y-102150189D02*
X100700000Y-101930908D01*
X97210189Y-102150189D02*
X100480719Y-102150189D01*
X100700000Y-100604554D02*
X99750000Y-99654554D01*
X100700000Y-100810000D02*
X100700000Y-100604554D01*
X99750000Y-99654554D02*
X99750000Y-99050000D01*
X99646683Y-96972410D02*
X99550000Y-97069093D01*
X100057401Y-96561692D02*
X99646683Y-96972410D01*
X99550000Y-97069093D02*
X99550000Y-99040000D01*
X100057401Y-95267153D02*
X100057401Y-96561692D01*
X99724546Y-89074546D02*
X99867409Y-88931682D01*
X99300000Y-89499092D02*
X99724546Y-89074546D01*
X99859546Y-88939546D02*
X99724546Y-89074546D01*
X99867410Y-88931682D02*
X99859546Y-88939546D01*
X100198318Y-88931682D02*
X99867410Y-88931682D01*
X100400000Y-88730000D02*
X100198318Y-88931682D01*
X100400000Y-88280000D02*
X100400000Y-88730000D01*
X100741682Y-88931682D02*
X100941750Y-88931682D01*
X100741682Y-88931682D02*
X99867410Y-88931682D01*
X100941750Y-88931682D02*
X101118370Y-88755062D01*
X100958318Y-88931682D02*
X100741682Y-88931682D01*
X99750000Y-85325000D02*
X100047220Y-85325000D01*
X100047220Y-85325000D02*
X100602220Y-85880000D01*
X77922227Y-86467581D02*
X80400000Y-83989807D01*
X80400000Y-83989807D02*
X80400000Y-83840000D01*
X77922227Y-86673163D02*
X77922227Y-86467581D01*
X77622228Y-86973162D02*
X77922227Y-86673163D01*
X80405000Y-83600000D02*
X80405000Y-83055000D01*
D52*
X77622228Y-86548898D02*
X77622228Y-86973162D01*
X77622228Y-86212228D02*
X77622228Y-86548898D01*
X76550000Y-85140000D02*
X77622228Y-86212228D01*
X76450000Y-85140000D02*
X76550000Y-85140000D01*
D49*
X101950000Y-87430000D02*
X101950000Y-86980000D01*
X101950000Y-86980000D02*
X101950000Y-86640000D01*
X83073750Y-89856250D02*
X82950000Y-89980000D01*
X83073750Y-89201250D02*
X83073750Y-89856250D01*
X73130000Y-109240000D02*
X72580000Y-109240000D01*
X71430000Y-104280000D02*
X71020000Y-104690000D01*
X71430000Y-103530000D02*
X71430000Y-104280000D01*
X72580000Y-109240000D02*
X71370000Y-109240000D01*
X71430000Y-108037386D02*
X71021307Y-107628693D01*
X71430000Y-109130000D02*
X71430000Y-108037386D01*
X71202428Y-91362220D02*
X71192599Y-91352391D01*
X81604145Y-91362220D02*
X71202428Y-91362220D01*
X81936470Y-91029895D02*
X81604145Y-91362220D01*
X83073750Y-83701250D02*
X82844683Y-83701250D01*
X99500000Y-88280000D02*
X100330000Y-87450000D01*
X98570000Y-89660000D02*
X97534264Y-89660000D01*
X99500000Y-88730000D02*
X98570000Y-89660000D01*
X97534264Y-89660000D02*
X97110000Y-89660000D01*
X99500000Y-88280000D02*
X99500000Y-88730000D01*
D52*
X83073750Y-83701250D02*
X83073750Y-83076250D01*
X83073750Y-83076250D02*
X83080000Y-83070000D01*
X81727402Y-85201250D02*
X81670201Y-85144049D01*
X83073750Y-85201250D02*
X81727402Y-85201250D01*
X79808799Y-87869193D02*
X80429606Y-88490000D01*
X81670201Y-85144049D02*
X81162743Y-85144049D01*
X81162743Y-85144049D02*
X79808799Y-86497993D01*
X79808799Y-86497993D02*
X79808799Y-87869193D01*
X78805029Y-87501763D02*
X79808799Y-86497993D01*
X77368499Y-87501763D02*
X78805029Y-87501763D01*
X76450000Y-86583264D02*
X77368499Y-87501763D01*
X76450000Y-86040000D02*
X76450000Y-86583264D01*
D49*
X76450000Y-83880000D02*
X76450000Y-84153268D01*
X76450000Y-83880000D02*
X76450000Y-84120000D01*
D52*
X76450000Y-83880000D02*
X77050000Y-83880000D01*
X81478750Y-87201250D02*
X83073750Y-87201250D01*
X81040000Y-87640000D02*
X81478750Y-87201250D01*
X81040000Y-90580000D02*
X81040000Y-87640000D01*
X80781669Y-90784819D02*
X80835181Y-90784819D01*
X80835181Y-90784819D02*
X81040000Y-90580000D01*
D51*
X95012410Y-89053088D02*
X95160000Y-89200678D01*
X95012410Y-88776473D02*
X95012410Y-89053088D01*
X95160000Y-89200678D02*
X95160000Y-89410000D01*
X90423750Y-87201250D02*
X90590090Y-87367590D01*
X89873750Y-87201250D02*
X90423750Y-87201250D01*
X94125937Y-87890000D02*
X94130000Y-87890000D01*
X93603527Y-87367590D02*
X94125937Y-87890000D01*
X90590090Y-87367590D02*
X93603527Y-87367590D01*
X94130000Y-87890000D02*
X95012410Y-88776473D01*
X93275000Y-87720000D02*
X90110000Y-87720000D01*
X93457554Y-87720000D02*
X93275000Y-87720000D01*
X93457554Y-87720000D02*
X94660000Y-88922446D01*
X94660000Y-88922446D02*
X94660000Y-89470000D01*
D52*
X83073750Y-86201250D02*
X81188750Y-86201250D01*
X81188750Y-86201250D02*
X81000000Y-86390000D01*
X79210000Y-80117600D02*
X79622410Y-79705190D01*
X79210000Y-80457500D02*
X79210000Y-80117600D01*
X79622410Y-79705190D02*
X82451063Y-79705190D01*
X82451063Y-79705190D02*
X82836199Y-80090326D01*
X83073750Y-85701250D02*
X81445072Y-85701250D01*
X81445072Y-85701250D02*
X81416472Y-85672650D01*
X79710000Y-80117600D02*
X79817600Y-80010000D01*
X79710000Y-80457500D02*
X79710000Y-80117600D01*
X79817600Y-80010000D02*
X81711197Y-80010000D01*
X81711197Y-80010000D02*
X82212780Y-80511583D01*
D49*
X93810000Y-91080000D02*
X95110000Y-91080000D01*
X95110000Y-91080000D02*
X95110000Y-92380000D01*
X95110000Y-92380000D02*
X93810000Y-92380000D01*
X93810000Y-92380000D02*
X93810000Y-91080000D01*
X92510000Y-92480000D02*
X92510000Y-92930000D01*
X89225000Y-96520000D02*
X89045000Y-96340000D01*
X89225000Y-97420000D02*
X89225000Y-96520000D01*
X89045000Y-96340000D02*
X88090000Y-96340000D01*
X88090000Y-96340000D02*
X87710000Y-95960000D01*
X87710000Y-95960000D02*
X87710000Y-95500000D01*
X72400000Y-101940000D02*
X73330000Y-102870000D01*
X72250000Y-101940000D02*
X72400000Y-101940000D01*
X73330000Y-102870000D02*
X73330000Y-103570000D01*
X69950000Y-101940000D02*
X72210000Y-101940000D01*
X75330000Y-103520000D02*
X75330000Y-105310000D01*
X75330000Y-102645000D02*
X74615000Y-101930000D01*
X75330000Y-103520000D02*
X75330000Y-102645000D01*
X95672599Y-109157401D02*
X96660000Y-108170000D01*
X77370000Y-105240000D02*
X78150000Y-106020000D01*
X78607401Y-109157401D02*
X95672599Y-109157401D01*
X74830000Y-105240000D02*
X77370000Y-105240000D01*
X78150000Y-108700000D02*
X78607401Y-109157401D01*
X78150000Y-106020000D02*
X78150000Y-108700000D01*
D51*
X82725000Y-96570000D02*
X82835000Y-96460000D01*
X82725000Y-97420000D02*
X82725000Y-96570000D01*
X82835000Y-96460000D02*
X83836617Y-96460000D01*
X83836617Y-96460000D02*
X84189027Y-96107590D01*
X84189027Y-96107590D02*
X84742410Y-96107590D01*
X84742410Y-96107590D02*
X85110000Y-95740000D01*
X85110000Y-95740000D02*
X85110000Y-95470000D01*
X81725000Y-96665678D02*
X82283088Y-96107590D01*
X81725000Y-97420000D02*
X81725000Y-96665678D01*
X82283088Y-96107590D02*
X83392410Y-96107590D01*
X83392410Y-96107590D02*
X83810000Y-95690000D01*
D49*
X80725000Y-97420000D02*
X80725000Y-95875000D01*
X80725000Y-95875000D02*
X80970000Y-95630000D01*
X79725000Y-97420000D02*
X79725000Y-95615000D01*
X73610000Y-82805000D02*
X73605000Y-82805000D01*
X73605000Y-82805000D02*
X71900000Y-84510000D01*
X71900000Y-84510000D02*
X71900000Y-85140000D01*
X73610000Y-82005000D02*
X74545000Y-81070000D01*
X73610000Y-82805000D02*
X73610000Y-82005000D01*
X74545000Y-81070000D02*
X75340000Y-81070000D01*
X75510000Y-80150000D02*
X74610000Y-79250000D01*
X75510000Y-80800000D02*
X75510000Y-80150000D01*
X74610000Y-79250000D02*
X74610000Y-78360000D01*
X76550000Y-82980000D02*
X76550000Y-82530000D01*
X76550000Y-82530000D02*
X77330000Y-81750000D01*
D53*
X88723750Y-83051250D02*
X88723750Y-82243750D01*
D54*
X88725000Y-82242500D02*
X88723750Y-82243750D01*
X88725000Y-79430000D02*
X88725000Y-82242500D01*
D49*
X96200000Y-99790000D02*
X96200000Y-99090000D01*
X96200000Y-99090000D02*
X96200000Y-98690000D01*
X92410000Y-95970000D02*
X92640000Y-96200000D01*
X92410000Y-95190000D02*
X92410000Y-95970000D01*
X94310000Y-95190000D02*
X94310000Y-95970000D01*
X95500000Y-96920000D02*
X95500000Y-98150000D01*
X95200000Y-96620000D02*
X95500000Y-96920000D01*
X92825388Y-96385388D02*
X92640000Y-96200000D01*
X95200000Y-96620000D02*
X94965388Y-96385388D01*
X93894612Y-96385388D02*
X94310000Y-95970000D01*
X93595388Y-96385388D02*
X92825388Y-96385388D01*
X93595388Y-96385388D02*
X93894612Y-96385388D01*
X94965388Y-96385388D02*
X93595388Y-96385388D01*
X81700000Y-88475000D02*
X81700000Y-89060000D01*
D51*
X101650000Y-101514646D02*
X100637047Y-102527599D01*
X101650000Y-101280000D02*
X101650000Y-101514646D01*
X100637047Y-102527599D02*
X98582401Y-102527599D01*
X98582401Y-102527599D02*
X98200000Y-102910000D01*
D49*
X102147590Y-96357590D02*
X102147590Y-97802410D01*
X100459811Y-91936165D02*
X100459811Y-94669811D01*
X101650000Y-98300000D02*
X101650000Y-99080000D01*
X99702410Y-91178763D02*
X100459811Y-91936165D01*
X102147590Y-97802410D02*
X101650000Y-98300000D01*
X100459811Y-94669811D02*
X102147590Y-96357590D01*
X99702410Y-89665774D02*
X99702410Y-91178763D01*
X101940000Y-88280000D02*
X101940000Y-88730000D01*
X100034092Y-89334092D02*
X101355908Y-89334092D01*
X100034092Y-89334092D02*
X99702410Y-89665774D01*
X101940000Y-88750000D02*
X101940000Y-88730000D01*
X101355908Y-89334092D02*
X101940000Y-88750000D01*
D55*
X101239800Y-106401918D02*
X101267861Y-106542991D01*
X101322905Y-106675879D01*
X101402817Y-106795475D01*
X101504525Y-106897183D01*
X101624121Y-106977095D01*
X101757009Y-107032139D01*
X101898082Y-107060200D01*
X102041918Y-107060200D01*
X102094800Y-107049681D01*
X102094800Y-108122801D01*
X102034730Y-108104578D01*
X101970000Y-108098203D01*
X100970000Y-108098203D01*
X100905270Y-108104578D01*
X100843027Y-108123460D01*
X100785663Y-108154121D01*
X100735384Y-108195384D01*
X100694121Y-108245663D01*
X100663460Y-108303027D01*
X100644578Y-108365270D01*
X100638203Y-108430000D01*
X100638203Y-109830000D01*
X100644578Y-109894730D01*
X100663460Y-109956973D01*
X100694121Y-110014337D01*
X100735384Y-110064616D01*
X100785663Y-110105879D01*
X100843027Y-110136540D01*
X100905270Y-110155422D01*
X100970000Y-110161797D01*
X101970000Y-110161797D01*
X102034730Y-110155422D01*
X102094800Y-110137199D01*
X102094800Y-111883000D01*
X99275335Y-111883000D01*
X99171300Y-111827683D01*
X99137320Y-111813678D01*
X99103590Y-111799221D01*
X99098186Y-111797548D01*
X98911349Y-111741139D01*
X98875310Y-111734003D01*
X98839401Y-111726370D01*
X98833775Y-111725779D01*
X98639541Y-111706734D01*
X98639539Y-111706734D01*
X98619901Y-111704800D01*
X94569814Y-111704800D01*
X94531963Y-111701089D01*
X94514615Y-111695851D01*
X94498617Y-111687345D01*
X94484569Y-111675888D01*
X94473017Y-111661924D01*
X94464398Y-111645983D01*
X94459039Y-111628669D01*
X94457120Y-111610410D01*
X94457160Y-111610000D01*
X94449337Y-111530567D01*
X94426167Y-111454187D01*
X94388541Y-111383794D01*
X94337906Y-111322094D01*
X94276206Y-111271459D01*
X94205813Y-111233833D01*
X94129433Y-111210663D01*
X94069901Y-111204800D01*
X78030099Y-111204800D01*
X77970567Y-111210663D01*
X77894187Y-111233833D01*
X77823794Y-111271459D01*
X77762094Y-111322094D01*
X77711459Y-111383794D01*
X77673833Y-111454187D01*
X77650663Y-111530567D01*
X77642840Y-111610000D01*
X77642849Y-111610088D01*
X77641089Y-111628037D01*
X77635851Y-111645385D01*
X77627345Y-111661383D01*
X77615888Y-111675431D01*
X77601924Y-111686983D01*
X77585983Y-111695602D01*
X77568669Y-111700961D01*
X77532145Y-111704800D01*
X72580099Y-111704800D01*
X72562489Y-111706534D01*
X72556293Y-111706491D01*
X72550663Y-111707044D01*
X72356566Y-111727445D01*
X72320599Y-111734828D01*
X72284517Y-111741711D01*
X72279101Y-111743346D01*
X72092663Y-111801058D01*
X72058794Y-111815295D01*
X72024756Y-111829047D01*
X72019766Y-111831701D01*
X72019761Y-111831703D01*
X72019757Y-111831706D01*
X71924890Y-111883000D01*
X69105200Y-111883000D01*
X69105200Y-110451750D01*
X72115000Y-110451750D01*
X72127594Y-110560524D01*
X72166968Y-110679249D01*
X72228748Y-110788012D01*
X72310559Y-110882631D01*
X72409258Y-110959473D01*
X72521051Y-111015582D01*
X72641643Y-111048804D01*
X72764250Y-111055000D01*
X72923000Y-110896250D01*
X72923000Y-110293000D01*
X72273750Y-110293000D01*
X72115000Y-110451750D01*
X69105200Y-110451750D01*
X69105200Y-110137199D01*
X69165270Y-110155422D01*
X69230000Y-110161797D01*
X70230000Y-110161797D01*
X70294730Y-110155422D01*
X70356973Y-110136540D01*
X70414337Y-110105879D01*
X70464616Y-110064616D01*
X70505879Y-110014337D01*
X70536540Y-109956973D01*
X70555422Y-109894730D01*
X70561797Y-109830000D01*
X70561797Y-108430000D01*
X70555422Y-108365270D01*
X70536540Y-108303027D01*
X70505879Y-108245663D01*
X70464616Y-108195384D01*
X70414337Y-108154121D01*
X70356973Y-108123460D01*
X70294730Y-108104578D01*
X70230000Y-108098203D01*
X69230000Y-108098203D01*
X69165270Y-108104578D01*
X69105200Y-108122801D01*
X69105200Y-107049681D01*
X69158082Y-107060200D01*
X69301918Y-107060200D01*
X69442991Y-107032139D01*
X69575879Y-106977095D01*
X69695475Y-106897183D01*
X69797183Y-106795475D01*
X69877095Y-106675879D01*
X69932139Y-106542991D01*
X69960200Y-106401918D01*
X69960200Y-106394767D01*
X70670555Y-107105123D01*
X70619578Y-107139185D01*
X70531799Y-107226964D01*
X70462831Y-107330181D01*
X70415325Y-107444871D01*
X70391107Y-107566624D01*
X70391107Y-107690762D01*
X70415325Y-107812515D01*
X70462831Y-107927205D01*
X70531799Y-108030422D01*
X70619578Y-108118201D01*
X70713203Y-108180760D01*
X70695384Y-108195384D01*
X70654121Y-108245663D01*
X70623460Y-108303027D01*
X70604578Y-108365270D01*
X70598203Y-108430000D01*
X70598203Y-109830000D01*
X70604578Y-109894730D01*
X70623460Y-109956973D01*
X70654121Y-110014337D01*
X70695384Y-110064616D01*
X70745663Y-110105879D01*
X70803027Y-110136540D01*
X70865270Y-110155422D01*
X70930000Y-110161797D01*
X71930000Y-110161797D01*
X71994730Y-110155422D01*
X72056973Y-110136540D01*
X72114337Y-110105879D01*
X72164616Y-110064616D01*
X72176674Y-110049924D01*
X72273750Y-110147000D01*
X72923000Y-110147000D01*
X72923000Y-110073000D01*
X73177000Y-110073000D01*
X73177000Y-110147000D01*
X73197000Y-110147000D01*
X73197000Y-110293000D01*
X73177000Y-110293000D01*
X73177000Y-110896250D01*
X73335750Y-111055000D01*
X73458357Y-111048804D01*
X73578949Y-111015582D01*
X73690742Y-110959473D01*
X73789441Y-110882631D01*
X73871252Y-110788012D01*
X73906024Y-110726797D01*
X74830000Y-110726797D01*
X74894730Y-110720422D01*
X74956973Y-110701540D01*
X75014337Y-110670879D01*
X75064616Y-110629616D01*
X75105879Y-110579337D01*
X75136540Y-110521973D01*
X75155422Y-110459730D01*
X75161797Y-110395000D01*
X75191928Y-110395000D01*
X75204188Y-110519482D01*
X75240498Y-110639180D01*
X75299463Y-110749494D01*
X75378815Y-110846185D01*
X75475506Y-110925537D01*
X75585820Y-110984502D01*
X75705518Y-111020812D01*
X75830000Y-111033072D01*
X76044250Y-111030000D01*
X76203000Y-110871250D01*
X76203000Y-109897000D01*
X76457000Y-109897000D01*
X76457000Y-110871250D01*
X76615750Y-111030000D01*
X76830000Y-111033072D01*
X76954482Y-111020812D01*
X77074180Y-110984502D01*
X77184494Y-110925537D01*
X77281185Y-110846185D01*
X77360537Y-110749494D01*
X77419502Y-110639180D01*
X77455812Y-110519482D01*
X77468072Y-110395000D01*
X77465000Y-110055750D01*
X77306250Y-109897000D01*
X76457000Y-109897000D01*
X76203000Y-109897000D01*
X75353750Y-109897000D01*
X75195000Y-110055750D01*
X75191928Y-110395000D01*
X75161797Y-110395000D01*
X75161797Y-109145000D01*
X75155422Y-109080270D01*
X75136540Y-109018027D01*
X75130646Y-109007000D01*
X75208289Y-109007000D01*
X75204188Y-109020518D01*
X75191928Y-109145000D01*
X75195000Y-109484250D01*
X75353750Y-109643000D01*
X76203000Y-109643000D01*
X76203000Y-109623000D01*
X76457000Y-109623000D01*
X76457000Y-109643000D01*
X77306250Y-109643000D01*
X77465000Y-109484250D01*
X77467301Y-109230144D01*
X78103034Y-109865877D01*
X78117286Y-109883243D01*
X78186599Y-109940127D01*
X78265678Y-109982395D01*
X78351483Y-110008424D01*
X78418361Y-110015011D01*
X78418368Y-110015011D01*
X78440717Y-110017212D01*
X78463066Y-110015011D01*
X97297840Y-110015011D01*
X97320189Y-110017212D01*
X97342538Y-110015011D01*
X97342546Y-110015011D01*
X97409424Y-110008424D01*
X97495229Y-109982395D01*
X97574308Y-109940127D01*
X97643621Y-109883243D01*
X97657877Y-109865872D01*
X98938203Y-108585546D01*
X98938203Y-109830000D01*
X98944578Y-109894730D01*
X98963460Y-109956973D01*
X98994121Y-110014337D01*
X99035384Y-110064616D01*
X99085663Y-110105879D01*
X99143027Y-110136540D01*
X99205270Y-110155422D01*
X99270000Y-110161797D01*
X100270000Y-110161797D01*
X100334730Y-110155422D01*
X100396973Y-110136540D01*
X100454337Y-110105879D01*
X100504616Y-110064616D01*
X100545879Y-110014337D01*
X100576540Y-109956973D01*
X100595422Y-109894730D01*
X100601797Y-109830000D01*
X100601797Y-108430000D01*
X100595422Y-108365270D01*
X100576540Y-108303027D01*
X100545879Y-108245663D01*
X100504616Y-108195384D01*
X100454337Y-108154121D01*
X100396973Y-108123460D01*
X100334730Y-108104578D01*
X100270000Y-108098203D01*
X99425546Y-108098203D01*
X101239800Y-106283950D01*
X101239800Y-106401918D01*
G04 #@! TA.AperFunction,Conductor*
D56*
G36*
X101239800Y-106401918D02*
G01*
X101267861Y-106542991D01*
X101322905Y-106675879D01*
X101402817Y-106795475D01*
X101504525Y-106897183D01*
X101624121Y-106977095D01*
X101757009Y-107032139D01*
X101898082Y-107060200D01*
X102041918Y-107060200D01*
X102094800Y-107049681D01*
X102094800Y-108122801D01*
X102034730Y-108104578D01*
X101970000Y-108098203D01*
X100970000Y-108098203D01*
X100905270Y-108104578D01*
X100843027Y-108123460D01*
X100785663Y-108154121D01*
X100735384Y-108195384D01*
X100694121Y-108245663D01*
X100663460Y-108303027D01*
X100644578Y-108365270D01*
X100638203Y-108430000D01*
X100638203Y-109830000D01*
X100644578Y-109894730D01*
X100663460Y-109956973D01*
X100694121Y-110014337D01*
X100735384Y-110064616D01*
X100785663Y-110105879D01*
X100843027Y-110136540D01*
X100905270Y-110155422D01*
X100970000Y-110161797D01*
X101970000Y-110161797D01*
X102034730Y-110155422D01*
X102094800Y-110137199D01*
X102094800Y-111883000D01*
X99275335Y-111883000D01*
X99171300Y-111827683D01*
X99137320Y-111813678D01*
X99103590Y-111799221D01*
X99098186Y-111797548D01*
X98911349Y-111741139D01*
X98875310Y-111734003D01*
X98839401Y-111726370D01*
X98833775Y-111725779D01*
X98639541Y-111706734D01*
X98639539Y-111706734D01*
X98619901Y-111704800D01*
X94569814Y-111704800D01*
X94531963Y-111701089D01*
X94514615Y-111695851D01*
X94498617Y-111687345D01*
X94484569Y-111675888D01*
X94473017Y-111661924D01*
X94464398Y-111645983D01*
X94459039Y-111628669D01*
X94457120Y-111610410D01*
X94457160Y-111610000D01*
X94449337Y-111530567D01*
X94426167Y-111454187D01*
X94388541Y-111383794D01*
X94337906Y-111322094D01*
X94276206Y-111271459D01*
X94205813Y-111233833D01*
X94129433Y-111210663D01*
X94069901Y-111204800D01*
X78030099Y-111204800D01*
X77970567Y-111210663D01*
X77894187Y-111233833D01*
X77823794Y-111271459D01*
X77762094Y-111322094D01*
X77711459Y-111383794D01*
X77673833Y-111454187D01*
X77650663Y-111530567D01*
X77642840Y-111610000D01*
X77642849Y-111610088D01*
X77641089Y-111628037D01*
X77635851Y-111645385D01*
X77627345Y-111661383D01*
X77615888Y-111675431D01*
X77601924Y-111686983D01*
X77585983Y-111695602D01*
X77568669Y-111700961D01*
X77532145Y-111704800D01*
X72580099Y-111704800D01*
X72562489Y-111706534D01*
X72556293Y-111706491D01*
X72550663Y-111707044D01*
X72356566Y-111727445D01*
X72320599Y-111734828D01*
X72284517Y-111741711D01*
X72279101Y-111743346D01*
X72092663Y-111801058D01*
X72058794Y-111815295D01*
X72024756Y-111829047D01*
X72019766Y-111831701D01*
X72019761Y-111831703D01*
X72019757Y-111831706D01*
X71924890Y-111883000D01*
X69105200Y-111883000D01*
X69105200Y-110451750D01*
X72115000Y-110451750D01*
X72127594Y-110560524D01*
X72166968Y-110679249D01*
X72228748Y-110788012D01*
X72310559Y-110882631D01*
X72409258Y-110959473D01*
X72521051Y-111015582D01*
X72641643Y-111048804D01*
X72764250Y-111055000D01*
X72923000Y-110896250D01*
X72923000Y-110293000D01*
X72273750Y-110293000D01*
X72115000Y-110451750D01*
X69105200Y-110451750D01*
X69105200Y-110137199D01*
X69165270Y-110155422D01*
X69230000Y-110161797D01*
X70230000Y-110161797D01*
X70294730Y-110155422D01*
X70356973Y-110136540D01*
X70414337Y-110105879D01*
X70464616Y-110064616D01*
X70505879Y-110014337D01*
X70536540Y-109956973D01*
X70555422Y-109894730D01*
X70561797Y-109830000D01*
X70561797Y-108430000D01*
X70555422Y-108365270D01*
X70536540Y-108303027D01*
X70505879Y-108245663D01*
X70464616Y-108195384D01*
X70414337Y-108154121D01*
X70356973Y-108123460D01*
X70294730Y-108104578D01*
X70230000Y-108098203D01*
X69230000Y-108098203D01*
X69165270Y-108104578D01*
X69105200Y-108122801D01*
X69105200Y-107049681D01*
X69158082Y-107060200D01*
X69301918Y-107060200D01*
X69442991Y-107032139D01*
X69575879Y-106977095D01*
X69695475Y-106897183D01*
X69797183Y-106795475D01*
X69877095Y-106675879D01*
X69932139Y-106542991D01*
X69960200Y-106401918D01*
X69960200Y-106394767D01*
X70670555Y-107105123D01*
X70619578Y-107139185D01*
X70531799Y-107226964D01*
X70462831Y-107330181D01*
X70415325Y-107444871D01*
X70391107Y-107566624D01*
X70391107Y-107690762D01*
X70415325Y-107812515D01*
X70462831Y-107927205D01*
X70531799Y-108030422D01*
X70619578Y-108118201D01*
X70713203Y-108180760D01*
X70695384Y-108195384D01*
X70654121Y-108245663D01*
X70623460Y-108303027D01*
X70604578Y-108365270D01*
X70598203Y-108430000D01*
X70598203Y-109830000D01*
X70604578Y-109894730D01*
X70623460Y-109956973D01*
X70654121Y-110014337D01*
X70695384Y-110064616D01*
X70745663Y-110105879D01*
X70803027Y-110136540D01*
X70865270Y-110155422D01*
X70930000Y-110161797D01*
X71930000Y-110161797D01*
X71994730Y-110155422D01*
X72056973Y-110136540D01*
X72114337Y-110105879D01*
X72164616Y-110064616D01*
X72176674Y-110049924D01*
X72273750Y-110147000D01*
X72923000Y-110147000D01*
X72923000Y-110073000D01*
X73177000Y-110073000D01*
X73177000Y-110147000D01*
X73197000Y-110147000D01*
X73197000Y-110293000D01*
X73177000Y-110293000D01*
X73177000Y-110896250D01*
X73335750Y-111055000D01*
X73458357Y-111048804D01*
X73578949Y-111015582D01*
X73690742Y-110959473D01*
X73789441Y-110882631D01*
X73871252Y-110788012D01*
X73906024Y-110726797D01*
X74830000Y-110726797D01*
X74894730Y-110720422D01*
X74956973Y-110701540D01*
X75014337Y-110670879D01*
X75064616Y-110629616D01*
X75105879Y-110579337D01*
X75136540Y-110521973D01*
X75155422Y-110459730D01*
X75161797Y-110395000D01*
X75191928Y-110395000D01*
X75204188Y-110519482D01*
X75240498Y-110639180D01*
X75299463Y-110749494D01*
X75378815Y-110846185D01*
X75475506Y-110925537D01*
X75585820Y-110984502D01*
X75705518Y-111020812D01*
X75830000Y-111033072D01*
X76044250Y-111030000D01*
X76203000Y-110871250D01*
X76203000Y-109897000D01*
X76457000Y-109897000D01*
X76457000Y-110871250D01*
X76615750Y-111030000D01*
X76830000Y-111033072D01*
X76954482Y-111020812D01*
X77074180Y-110984502D01*
X77184494Y-110925537D01*
X77281185Y-110846185D01*
X77360537Y-110749494D01*
X77419502Y-110639180D01*
X77455812Y-110519482D01*
X77468072Y-110395000D01*
X77465000Y-110055750D01*
X77306250Y-109897000D01*
X76457000Y-109897000D01*
X76203000Y-109897000D01*
X75353750Y-109897000D01*
X75195000Y-110055750D01*
X75191928Y-110395000D01*
X75161797Y-110395000D01*
X75161797Y-109145000D01*
X75155422Y-109080270D01*
X75136540Y-109018027D01*
X75130646Y-109007000D01*
X75208289Y-109007000D01*
X75204188Y-109020518D01*
X75191928Y-109145000D01*
X75195000Y-109484250D01*
X75353750Y-109643000D01*
X76203000Y-109643000D01*
X76203000Y-109623000D01*
X76457000Y-109623000D01*
X76457000Y-109643000D01*
X77306250Y-109643000D01*
X77465000Y-109484250D01*
X77467301Y-109230144D01*
X78103034Y-109865877D01*
X78117286Y-109883243D01*
X78186599Y-109940127D01*
X78265678Y-109982395D01*
X78351483Y-110008424D01*
X78418361Y-110015011D01*
X78418368Y-110015011D01*
X78440717Y-110017212D01*
X78463066Y-110015011D01*
X97297840Y-110015011D01*
X97320189Y-110017212D01*
X97342538Y-110015011D01*
X97342546Y-110015011D01*
X97409424Y-110008424D01*
X97495229Y-109982395D01*
X97574308Y-109940127D01*
X97643621Y-109883243D01*
X97657877Y-109865872D01*
X98938203Y-108585546D01*
X98938203Y-109830000D01*
X98944578Y-109894730D01*
X98963460Y-109956973D01*
X98994121Y-110014337D01*
X99035384Y-110064616D01*
X99085663Y-110105879D01*
X99143027Y-110136540D01*
X99205270Y-110155422D01*
X99270000Y-110161797D01*
X100270000Y-110161797D01*
X100334730Y-110155422D01*
X100396973Y-110136540D01*
X100454337Y-110105879D01*
X100504616Y-110064616D01*
X100545879Y-110014337D01*
X100576540Y-109956973D01*
X100595422Y-109894730D01*
X100601797Y-109830000D01*
X100601797Y-108430000D01*
X100595422Y-108365270D01*
X100576540Y-108303027D01*
X100545879Y-108245663D01*
X100504616Y-108195384D01*
X100454337Y-108154121D01*
X100396973Y-108123460D01*
X100334730Y-108104578D01*
X100270000Y-108098203D01*
X99425546Y-108098203D01*
X101239800Y-106283950D01*
X101239800Y-106401918D01*
G37*
G04 #@! TD.AperFunction*
D55*
X83243203Y-98070000D02*
X83248000Y-98118707D01*
X83248000Y-98546250D01*
X83406750Y-98705000D01*
X83509732Y-98693685D01*
X83628818Y-98655416D01*
X83738150Y-98594650D01*
X83833526Y-98513722D01*
X83911282Y-98415742D01*
X83920759Y-98397290D01*
X83939730Y-98395422D01*
X83975000Y-98384723D01*
X84010270Y-98395422D01*
X84075000Y-98401797D01*
X84269801Y-98401797D01*
X84269801Y-99272641D01*
X84267599Y-99295000D01*
X84276387Y-99384234D01*
X84300074Y-99462317D01*
X84302417Y-99470040D01*
X84344685Y-99549119D01*
X84401569Y-99618432D01*
X84418935Y-99632684D01*
X85602316Y-100816066D01*
X85616568Y-100833432D01*
X85685881Y-100890316D01*
X85764960Y-100932584D01*
X85850765Y-100958613D01*
X85917643Y-100965200D01*
X85917652Y-100965200D01*
X85939999Y-100967401D01*
X85962346Y-100965200D01*
X87863963Y-100965200D01*
X87898271Y-100999508D01*
X88001488Y-101068476D01*
X88116178Y-101115982D01*
X88237931Y-101140200D01*
X88362069Y-101140200D01*
X88483822Y-101115982D01*
X88598512Y-101068476D01*
X88701729Y-100999508D01*
X88789508Y-100911729D01*
X88858476Y-100808512D01*
X88905982Y-100693822D01*
X88930200Y-100572069D01*
X88930200Y-100447931D01*
X88905982Y-100326178D01*
X88858476Y-100211488D01*
X88857615Y-100210200D01*
X88946605Y-100210200D01*
X89068358Y-100185982D01*
X89183048Y-100138476D01*
X89286265Y-100069508D01*
X89374044Y-99981729D01*
X89443012Y-99878512D01*
X89490518Y-99763822D01*
X89514736Y-99642069D01*
X89514736Y-99517931D01*
X89490518Y-99396178D01*
X89443012Y-99281488D01*
X89374044Y-99178271D01*
X89286265Y-99090492D01*
X89183048Y-99021524D01*
X89068358Y-98974018D01*
X88946605Y-98949800D01*
X88822467Y-98949800D01*
X88700714Y-98974018D01*
X88586024Y-99021524D01*
X88576582Y-99027833D01*
X88177248Y-98628499D01*
X88238150Y-98594650D01*
X88333526Y-98513722D01*
X88411282Y-98415742D01*
X88420759Y-98397290D01*
X88439730Y-98395422D01*
X88475000Y-98384723D01*
X88510270Y-98395422D01*
X88575000Y-98401797D01*
X88875000Y-98401797D01*
X88939730Y-98395422D01*
X88975000Y-98384723D01*
X89010270Y-98395422D01*
X89075000Y-98401797D01*
X89375000Y-98401797D01*
X89439730Y-98395422D01*
X89475000Y-98384723D01*
X89510270Y-98395422D01*
X89575000Y-98401797D01*
X89769801Y-98401797D01*
X89769800Y-100506448D01*
X89769801Y-100506458D01*
X89769800Y-101322650D01*
X89767599Y-101345000D01*
X89769800Y-101367349D01*
X89769800Y-101367356D01*
X89776387Y-101434234D01*
X89802416Y-101520039D01*
X89844684Y-101599118D01*
X89901568Y-101668432D01*
X89918939Y-101682688D01*
X91544915Y-103308665D01*
X91559167Y-103326031D01*
X91628480Y-103382915D01*
X91707559Y-103425183D01*
X91793364Y-103451212D01*
X91860242Y-103457799D01*
X91860250Y-103457799D01*
X91882599Y-103460000D01*
X91904948Y-103457799D01*
X93048604Y-103457799D01*
X93094800Y-103503996D01*
X93094801Y-104297641D01*
X93092599Y-104320000D01*
X93101387Y-104409234D01*
X93113658Y-104449684D01*
X93127417Y-104495040D01*
X93169685Y-104574119D01*
X93226569Y-104643432D01*
X93243935Y-104657684D01*
X93722316Y-105136066D01*
X93736568Y-105153432D01*
X93805881Y-105210316D01*
X93884960Y-105252584D01*
X93970765Y-105278613D01*
X94037643Y-105285200D01*
X94037651Y-105285200D01*
X94060000Y-105287401D01*
X94082349Y-105285200D01*
X94908547Y-105285200D01*
X94924121Y-105314337D01*
X94944801Y-105339535D01*
X94944801Y-105457641D01*
X94942599Y-105480000D01*
X94951387Y-105569234D01*
X94972759Y-105639684D01*
X94977417Y-105655040D01*
X95019685Y-105734119D01*
X95076569Y-105803432D01*
X95093934Y-105817684D01*
X95118203Y-105841952D01*
X95118203Y-106530000D01*
X95124578Y-106594730D01*
X95143460Y-106656973D01*
X95174121Y-106714337D01*
X95215384Y-106764616D01*
X95265663Y-106805879D01*
X95323027Y-106836540D01*
X95385270Y-106855422D01*
X95450000Y-106861797D01*
X96250000Y-106861797D01*
X96314730Y-106855422D01*
X96376973Y-106836540D01*
X96434337Y-106805879D01*
X96484616Y-106764616D01*
X96525879Y-106714337D01*
X96556540Y-106656973D01*
X96575422Y-106594730D01*
X96581797Y-106530000D01*
X96581797Y-105759205D01*
X96640524Y-105752406D01*
X96759249Y-105713032D01*
X96800000Y-105689884D01*
X96840751Y-105713032D01*
X96959476Y-105752406D01*
X97018203Y-105759205D01*
X97018203Y-106530000D01*
X97024578Y-106594730D01*
X97043460Y-106656973D01*
X97074121Y-106714337D01*
X97115384Y-106764616D01*
X97165663Y-106805879D01*
X97223027Y-106836540D01*
X97285270Y-106855422D01*
X97350000Y-106861797D01*
X98150000Y-106861797D01*
X98214730Y-106855422D01*
X98276973Y-106836540D01*
X98334337Y-106805879D01*
X98384616Y-106764616D01*
X98425879Y-106714337D01*
X98456540Y-106656973D01*
X98475422Y-106594730D01*
X98481797Y-106530000D01*
X98481797Y-105741954D01*
X98506071Y-105717680D01*
X98523432Y-105703432D01*
X98537679Y-105686072D01*
X98537684Y-105686067D01*
X98580316Y-105634119D01*
X98622584Y-105555040D01*
X98648613Y-105469235D01*
X98657402Y-105380000D01*
X98655200Y-105357643D01*
X98655200Y-105339534D01*
X98675879Y-105314337D01*
X98706540Y-105256973D01*
X98725422Y-105194730D01*
X98731797Y-105130000D01*
X98731797Y-104530000D01*
X98725422Y-104465270D01*
X98706540Y-104403027D01*
X98675879Y-104345663D01*
X98634616Y-104295384D01*
X98584337Y-104254121D01*
X98530741Y-104225474D01*
X98523432Y-104216568D01*
X98506067Y-104202317D01*
X98127688Y-103823939D01*
X98113432Y-103806568D01*
X98044119Y-103749684D01*
X98002936Y-103727672D01*
X98039473Y-103680742D01*
X98043963Y-103671797D01*
X98400000Y-103671797D01*
X98464730Y-103665422D01*
X98526973Y-103646540D01*
X98584337Y-103615879D01*
X98634616Y-103574616D01*
X98675879Y-103524337D01*
X98706540Y-103466973D01*
X98725422Y-103404730D01*
X98731797Y-103340000D01*
X98731797Y-102986597D01*
X98760595Y-102957799D01*
X98938203Y-102957799D01*
X98938203Y-104230000D01*
X98944578Y-104294730D01*
X98963460Y-104356973D01*
X98994121Y-104414337D01*
X99035384Y-104464616D01*
X99040201Y-104468570D01*
X99011524Y-104511488D01*
X98964018Y-104626178D01*
X98939800Y-104747931D01*
X98939800Y-104872069D01*
X98964018Y-104993822D01*
X99011524Y-105108512D01*
X99080492Y-105211729D01*
X99168271Y-105299508D01*
X99271488Y-105368476D01*
X99386178Y-105415982D01*
X99507931Y-105440200D01*
X99632069Y-105440200D01*
X99753822Y-105415982D01*
X99868512Y-105368476D01*
X99971729Y-105299508D01*
X100059508Y-105211729D01*
X100128476Y-105108512D01*
X100175982Y-104993822D01*
X100200200Y-104872069D01*
X100200200Y-104747931D01*
X100175982Y-104626178D01*
X100149315Y-104561797D01*
X100270000Y-104561797D01*
X100334730Y-104555422D01*
X100396973Y-104536540D01*
X100454337Y-104505879D01*
X100504616Y-104464616D01*
X100545879Y-104414337D01*
X100576540Y-104356973D01*
X100595422Y-104294730D01*
X100601797Y-104230000D01*
X100601797Y-102957799D01*
X100615920Y-102957799D01*
X100637047Y-102959880D01*
X100638203Y-102959766D01*
X100638203Y-104230000D01*
X100644578Y-104294730D01*
X100663460Y-104356973D01*
X100694121Y-104414337D01*
X100735384Y-104464616D01*
X100785663Y-104505879D01*
X100843027Y-104536540D01*
X100905270Y-104555422D01*
X100914800Y-104556361D01*
X100914800Y-104563963D01*
X100880492Y-104598271D01*
X100811524Y-104701488D01*
X100764018Y-104816178D01*
X100739800Y-104937931D01*
X100739800Y-105062069D01*
X100764018Y-105183822D01*
X100811524Y-105298512D01*
X100862079Y-105374172D01*
X100079954Y-106156297D01*
X100072139Y-106117009D01*
X100017095Y-105984121D01*
X99937183Y-105864525D01*
X99835475Y-105762817D01*
X99715879Y-105682905D01*
X99582991Y-105627861D01*
X99441918Y-105599800D01*
X99298082Y-105599800D01*
X99157009Y-105627861D01*
X99024121Y-105682905D01*
X98904525Y-105762817D01*
X98802817Y-105864525D01*
X98722905Y-105984121D01*
X98667861Y-106117009D01*
X98639800Y-106258082D01*
X98639800Y-106401918D01*
X98667861Y-106542991D01*
X98722905Y-106675879D01*
X98802817Y-106795475D01*
X98904525Y-106897183D01*
X99024121Y-106977095D01*
X99157009Y-107032139D01*
X99196297Y-107039954D01*
X97131640Y-109104611D01*
X96369138Y-109104611D01*
X96611953Y-108861797D01*
X97200000Y-108861797D01*
X97264730Y-108855422D01*
X97326973Y-108836540D01*
X97384337Y-108805879D01*
X97434616Y-108764616D01*
X97475879Y-108714337D01*
X97506540Y-108656973D01*
X97525422Y-108594730D01*
X97531797Y-108530000D01*
X97531797Y-107630000D01*
X97525422Y-107565270D01*
X97506540Y-107503027D01*
X97475879Y-107445663D01*
X97434616Y-107395384D01*
X97384337Y-107354121D01*
X97326973Y-107323460D01*
X97264730Y-107304578D01*
X97200000Y-107298203D01*
X96400000Y-107298203D01*
X96335270Y-107304578D01*
X96273027Y-107323460D01*
X96215663Y-107354121D01*
X96165384Y-107395384D01*
X96124121Y-107445663D01*
X96093460Y-107503027D01*
X96074578Y-107565270D01*
X96068203Y-107630000D01*
X96068203Y-108118047D01*
X95484050Y-108702201D01*
X78795951Y-108702201D01*
X78605200Y-108511450D01*
X78605200Y-106042357D01*
X78607402Y-106020000D01*
X78598613Y-105930765D01*
X78572584Y-105844960D01*
X78530316Y-105765881D01*
X78487684Y-105713934D01*
X78473432Y-105696568D01*
X78456067Y-105682317D01*
X77707688Y-104933939D01*
X77693432Y-104916568D01*
X77624119Y-104859684D01*
X77545040Y-104817416D01*
X77459235Y-104791387D01*
X77392357Y-104784800D01*
X77392349Y-104784800D01*
X77370000Y-104782599D01*
X77347651Y-104784800D01*
X77207000Y-104784800D01*
X77207000Y-104380000D01*
X77204560Y-104355224D01*
X77197333Y-104331399D01*
X77185597Y-104309443D01*
X77169803Y-104290197D01*
X77150557Y-104274403D01*
X77128601Y-104262667D01*
X77104776Y-104255440D01*
X77080000Y-104253000D01*
X76142296Y-104253000D01*
X76155422Y-104209730D01*
X76161797Y-104145000D01*
X76161797Y-102895000D01*
X76155422Y-102830270D01*
X76136540Y-102768027D01*
X76105879Y-102710663D01*
X76064616Y-102660384D01*
X76014337Y-102619121D01*
X75956973Y-102588460D01*
X75894730Y-102569578D01*
X75830000Y-102563203D01*
X75779346Y-102563203D01*
X75778613Y-102555765D01*
X75752584Y-102469960D01*
X75710316Y-102390881D01*
X75667684Y-102338933D01*
X75667679Y-102338928D01*
X75653432Y-102321568D01*
X75636071Y-102307320D01*
X75481797Y-102153046D01*
X75481797Y-101714639D01*
X76075820Y-102308663D01*
X76090072Y-102326029D01*
X76159385Y-102382913D01*
X76238464Y-102425181D01*
X76324269Y-102451210D01*
X76391147Y-102457797D01*
X76391154Y-102457797D01*
X76413503Y-102459998D01*
X76435852Y-102457797D01*
X79660500Y-102457797D01*
X79682849Y-102459998D01*
X79705198Y-102457797D01*
X79705206Y-102457797D01*
X79772084Y-102451210D01*
X79857889Y-102425181D01*
X79936968Y-102382913D01*
X80006281Y-102326029D01*
X80020537Y-102308658D01*
X81526067Y-100803129D01*
X81543432Y-100788878D01*
X81600316Y-100719565D01*
X81642584Y-100640486D01*
X81668613Y-100554681D01*
X81675200Y-100487803D01*
X81675200Y-100487802D01*
X81677402Y-100465446D01*
X81675200Y-100443089D01*
X81675200Y-98401797D01*
X81875000Y-98401797D01*
X81939730Y-98395422D01*
X81975000Y-98384723D01*
X82010270Y-98395422D01*
X82075000Y-98401797D01*
X82375000Y-98401797D01*
X82439730Y-98395422D01*
X82475000Y-98384723D01*
X82510270Y-98395422D01*
X82529241Y-98397290D01*
X82538718Y-98415742D01*
X82616474Y-98513722D01*
X82711850Y-98594650D01*
X82821182Y-98655416D01*
X82940268Y-98693685D01*
X83043250Y-98705000D01*
X83202000Y-98546250D01*
X83202000Y-98118707D01*
X83206797Y-98070000D01*
X83206797Y-97273000D01*
X83243203Y-97273000D01*
X83243203Y-98070000D01*
G04 #@! TA.AperFunction,Conductor*
D56*
G36*
X83243203Y-98070000D02*
G01*
X83248000Y-98118707D01*
X83248000Y-98546250D01*
X83406750Y-98705000D01*
X83509732Y-98693685D01*
X83628818Y-98655416D01*
X83738150Y-98594650D01*
X83833526Y-98513722D01*
X83911282Y-98415742D01*
X83920759Y-98397290D01*
X83939730Y-98395422D01*
X83975000Y-98384723D01*
X84010270Y-98395422D01*
X84075000Y-98401797D01*
X84269801Y-98401797D01*
X84269801Y-99272641D01*
X84267599Y-99295000D01*
X84276387Y-99384234D01*
X84300074Y-99462317D01*
X84302417Y-99470040D01*
X84344685Y-99549119D01*
X84401569Y-99618432D01*
X84418935Y-99632684D01*
X85602316Y-100816066D01*
X85616568Y-100833432D01*
X85685881Y-100890316D01*
X85764960Y-100932584D01*
X85850765Y-100958613D01*
X85917643Y-100965200D01*
X85917652Y-100965200D01*
X85939999Y-100967401D01*
X85962346Y-100965200D01*
X87863963Y-100965200D01*
X87898271Y-100999508D01*
X88001488Y-101068476D01*
X88116178Y-101115982D01*
X88237931Y-101140200D01*
X88362069Y-101140200D01*
X88483822Y-101115982D01*
X88598512Y-101068476D01*
X88701729Y-100999508D01*
X88789508Y-100911729D01*
X88858476Y-100808512D01*
X88905982Y-100693822D01*
X88930200Y-100572069D01*
X88930200Y-100447931D01*
X88905982Y-100326178D01*
X88858476Y-100211488D01*
X88857615Y-100210200D01*
X88946605Y-100210200D01*
X89068358Y-100185982D01*
X89183048Y-100138476D01*
X89286265Y-100069508D01*
X89374044Y-99981729D01*
X89443012Y-99878512D01*
X89490518Y-99763822D01*
X89514736Y-99642069D01*
X89514736Y-99517931D01*
X89490518Y-99396178D01*
X89443012Y-99281488D01*
X89374044Y-99178271D01*
X89286265Y-99090492D01*
X89183048Y-99021524D01*
X89068358Y-98974018D01*
X88946605Y-98949800D01*
X88822467Y-98949800D01*
X88700714Y-98974018D01*
X88586024Y-99021524D01*
X88576582Y-99027833D01*
X88177248Y-98628499D01*
X88238150Y-98594650D01*
X88333526Y-98513722D01*
X88411282Y-98415742D01*
X88420759Y-98397290D01*
X88439730Y-98395422D01*
X88475000Y-98384723D01*
X88510270Y-98395422D01*
X88575000Y-98401797D01*
X88875000Y-98401797D01*
X88939730Y-98395422D01*
X88975000Y-98384723D01*
X89010270Y-98395422D01*
X89075000Y-98401797D01*
X89375000Y-98401797D01*
X89439730Y-98395422D01*
X89475000Y-98384723D01*
X89510270Y-98395422D01*
X89575000Y-98401797D01*
X89769801Y-98401797D01*
X89769800Y-100506448D01*
X89769801Y-100506458D01*
X89769800Y-101322650D01*
X89767599Y-101345000D01*
X89769800Y-101367349D01*
X89769800Y-101367356D01*
X89776387Y-101434234D01*
X89802416Y-101520039D01*
X89844684Y-101599118D01*
X89901568Y-101668432D01*
X89918939Y-101682688D01*
X91544915Y-103308665D01*
X91559167Y-103326031D01*
X91628480Y-103382915D01*
X91707559Y-103425183D01*
X91793364Y-103451212D01*
X91860242Y-103457799D01*
X91860250Y-103457799D01*
X91882599Y-103460000D01*
X91904948Y-103457799D01*
X93048604Y-103457799D01*
X93094800Y-103503996D01*
X93094801Y-104297641D01*
X93092599Y-104320000D01*
X93101387Y-104409234D01*
X93113658Y-104449684D01*
X93127417Y-104495040D01*
X93169685Y-104574119D01*
X93226569Y-104643432D01*
X93243935Y-104657684D01*
X93722316Y-105136066D01*
X93736568Y-105153432D01*
X93805881Y-105210316D01*
X93884960Y-105252584D01*
X93970765Y-105278613D01*
X94037643Y-105285200D01*
X94037651Y-105285200D01*
X94060000Y-105287401D01*
X94082349Y-105285200D01*
X94908547Y-105285200D01*
X94924121Y-105314337D01*
X94944801Y-105339535D01*
X94944801Y-105457641D01*
X94942599Y-105480000D01*
X94951387Y-105569234D01*
X94972759Y-105639684D01*
X94977417Y-105655040D01*
X95019685Y-105734119D01*
X95076569Y-105803432D01*
X95093934Y-105817684D01*
X95118203Y-105841952D01*
X95118203Y-106530000D01*
X95124578Y-106594730D01*
X95143460Y-106656973D01*
X95174121Y-106714337D01*
X95215384Y-106764616D01*
X95265663Y-106805879D01*
X95323027Y-106836540D01*
X95385270Y-106855422D01*
X95450000Y-106861797D01*
X96250000Y-106861797D01*
X96314730Y-106855422D01*
X96376973Y-106836540D01*
X96434337Y-106805879D01*
X96484616Y-106764616D01*
X96525879Y-106714337D01*
X96556540Y-106656973D01*
X96575422Y-106594730D01*
X96581797Y-106530000D01*
X96581797Y-105759205D01*
X96640524Y-105752406D01*
X96759249Y-105713032D01*
X96800000Y-105689884D01*
X96840751Y-105713032D01*
X96959476Y-105752406D01*
X97018203Y-105759205D01*
X97018203Y-106530000D01*
X97024578Y-106594730D01*
X97043460Y-106656973D01*
X97074121Y-106714337D01*
X97115384Y-106764616D01*
X97165663Y-106805879D01*
X97223027Y-106836540D01*
X97285270Y-106855422D01*
X97350000Y-106861797D01*
X98150000Y-106861797D01*
X98214730Y-106855422D01*
X98276973Y-106836540D01*
X98334337Y-106805879D01*
X98384616Y-106764616D01*
X98425879Y-106714337D01*
X98456540Y-106656973D01*
X98475422Y-106594730D01*
X98481797Y-106530000D01*
X98481797Y-105741954D01*
X98506071Y-105717680D01*
X98523432Y-105703432D01*
X98537679Y-105686072D01*
X98537684Y-105686067D01*
X98580316Y-105634119D01*
X98622584Y-105555040D01*
X98648613Y-105469235D01*
X98657402Y-105380000D01*
X98655200Y-105357643D01*
X98655200Y-105339534D01*
X98675879Y-105314337D01*
X98706540Y-105256973D01*
X98725422Y-105194730D01*
X98731797Y-105130000D01*
X98731797Y-104530000D01*
X98725422Y-104465270D01*
X98706540Y-104403027D01*
X98675879Y-104345663D01*
X98634616Y-104295384D01*
X98584337Y-104254121D01*
X98530741Y-104225474D01*
X98523432Y-104216568D01*
X98506067Y-104202317D01*
X98127688Y-103823939D01*
X98113432Y-103806568D01*
X98044119Y-103749684D01*
X98002936Y-103727672D01*
X98039473Y-103680742D01*
X98043963Y-103671797D01*
X98400000Y-103671797D01*
X98464730Y-103665422D01*
X98526973Y-103646540D01*
X98584337Y-103615879D01*
X98634616Y-103574616D01*
X98675879Y-103524337D01*
X98706540Y-103466973D01*
X98725422Y-103404730D01*
X98731797Y-103340000D01*
X98731797Y-102986597D01*
X98760595Y-102957799D01*
X98938203Y-102957799D01*
X98938203Y-104230000D01*
X98944578Y-104294730D01*
X98963460Y-104356973D01*
X98994121Y-104414337D01*
X99035384Y-104464616D01*
X99040201Y-104468570D01*
X99011524Y-104511488D01*
X98964018Y-104626178D01*
X98939800Y-104747931D01*
X98939800Y-104872069D01*
X98964018Y-104993822D01*
X99011524Y-105108512D01*
X99080492Y-105211729D01*
X99168271Y-105299508D01*
X99271488Y-105368476D01*
X99386178Y-105415982D01*
X99507931Y-105440200D01*
X99632069Y-105440200D01*
X99753822Y-105415982D01*
X99868512Y-105368476D01*
X99971729Y-105299508D01*
X100059508Y-105211729D01*
X100128476Y-105108512D01*
X100175982Y-104993822D01*
X100200200Y-104872069D01*
X100200200Y-104747931D01*
X100175982Y-104626178D01*
X100149315Y-104561797D01*
X100270000Y-104561797D01*
X100334730Y-104555422D01*
X100396973Y-104536540D01*
X100454337Y-104505879D01*
X100504616Y-104464616D01*
X100545879Y-104414337D01*
X100576540Y-104356973D01*
X100595422Y-104294730D01*
X100601797Y-104230000D01*
X100601797Y-102957799D01*
X100615920Y-102957799D01*
X100637047Y-102959880D01*
X100638203Y-102959766D01*
X100638203Y-104230000D01*
X100644578Y-104294730D01*
X100663460Y-104356973D01*
X100694121Y-104414337D01*
X100735384Y-104464616D01*
X100785663Y-104505879D01*
X100843027Y-104536540D01*
X100905270Y-104555422D01*
X100914800Y-104556361D01*
X100914800Y-104563963D01*
X100880492Y-104598271D01*
X100811524Y-104701488D01*
X100764018Y-104816178D01*
X100739800Y-104937931D01*
X100739800Y-105062069D01*
X100764018Y-105183822D01*
X100811524Y-105298512D01*
X100862079Y-105374172D01*
X100079954Y-106156297D01*
X100072139Y-106117009D01*
X100017095Y-105984121D01*
X99937183Y-105864525D01*
X99835475Y-105762817D01*
X99715879Y-105682905D01*
X99582991Y-105627861D01*
X99441918Y-105599800D01*
X99298082Y-105599800D01*
X99157009Y-105627861D01*
X99024121Y-105682905D01*
X98904525Y-105762817D01*
X98802817Y-105864525D01*
X98722905Y-105984121D01*
X98667861Y-106117009D01*
X98639800Y-106258082D01*
X98639800Y-106401918D01*
X98667861Y-106542991D01*
X98722905Y-106675879D01*
X98802817Y-106795475D01*
X98904525Y-106897183D01*
X99024121Y-106977095D01*
X99157009Y-107032139D01*
X99196297Y-107039954D01*
X97131640Y-109104611D01*
X96369138Y-109104611D01*
X96611953Y-108861797D01*
X97200000Y-108861797D01*
X97264730Y-108855422D01*
X97326973Y-108836540D01*
X97384337Y-108805879D01*
X97434616Y-108764616D01*
X97475879Y-108714337D01*
X97506540Y-108656973D01*
X97525422Y-108594730D01*
X97531797Y-108530000D01*
X97531797Y-107630000D01*
X97525422Y-107565270D01*
X97506540Y-107503027D01*
X97475879Y-107445663D01*
X97434616Y-107395384D01*
X97384337Y-107354121D01*
X97326973Y-107323460D01*
X97264730Y-107304578D01*
X97200000Y-107298203D01*
X96400000Y-107298203D01*
X96335270Y-107304578D01*
X96273027Y-107323460D01*
X96215663Y-107354121D01*
X96165384Y-107395384D01*
X96124121Y-107445663D01*
X96093460Y-107503027D01*
X96074578Y-107565270D01*
X96068203Y-107630000D01*
X96068203Y-108118047D01*
X95484050Y-108702201D01*
X78795951Y-108702201D01*
X78605200Y-108511450D01*
X78605200Y-106042357D01*
X78607402Y-106020000D01*
X78598613Y-105930765D01*
X78572584Y-105844960D01*
X78530316Y-105765881D01*
X78487684Y-105713934D01*
X78473432Y-105696568D01*
X78456067Y-105682317D01*
X77707688Y-104933939D01*
X77693432Y-104916568D01*
X77624119Y-104859684D01*
X77545040Y-104817416D01*
X77459235Y-104791387D01*
X77392357Y-104784800D01*
X77392349Y-104784800D01*
X77370000Y-104782599D01*
X77347651Y-104784800D01*
X77207000Y-104784800D01*
X77207000Y-104380000D01*
X77204560Y-104355224D01*
X77197333Y-104331399D01*
X77185597Y-104309443D01*
X77169803Y-104290197D01*
X77150557Y-104274403D01*
X77128601Y-104262667D01*
X77104776Y-104255440D01*
X77080000Y-104253000D01*
X76142296Y-104253000D01*
X76155422Y-104209730D01*
X76161797Y-104145000D01*
X76161797Y-102895000D01*
X76155422Y-102830270D01*
X76136540Y-102768027D01*
X76105879Y-102710663D01*
X76064616Y-102660384D01*
X76014337Y-102619121D01*
X75956973Y-102588460D01*
X75894730Y-102569578D01*
X75830000Y-102563203D01*
X75779346Y-102563203D01*
X75778613Y-102555765D01*
X75752584Y-102469960D01*
X75710316Y-102390881D01*
X75667684Y-102338933D01*
X75667679Y-102338928D01*
X75653432Y-102321568D01*
X75636071Y-102307320D01*
X75481797Y-102153046D01*
X75481797Y-101714639D01*
X76075820Y-102308663D01*
X76090072Y-102326029D01*
X76159385Y-102382913D01*
X76238464Y-102425181D01*
X76324269Y-102451210D01*
X76391147Y-102457797D01*
X76391154Y-102457797D01*
X76413503Y-102459998D01*
X76435852Y-102457797D01*
X79660500Y-102457797D01*
X79682849Y-102459998D01*
X79705198Y-102457797D01*
X79705206Y-102457797D01*
X79772084Y-102451210D01*
X79857889Y-102425181D01*
X79936968Y-102382913D01*
X80006281Y-102326029D01*
X80020537Y-102308658D01*
X81526067Y-100803129D01*
X81543432Y-100788878D01*
X81600316Y-100719565D01*
X81642584Y-100640486D01*
X81668613Y-100554681D01*
X81675200Y-100487803D01*
X81675200Y-100487802D01*
X81677402Y-100465446D01*
X81675200Y-100443089D01*
X81675200Y-98401797D01*
X81875000Y-98401797D01*
X81939730Y-98395422D01*
X81975000Y-98384723D01*
X82010270Y-98395422D01*
X82075000Y-98401797D01*
X82375000Y-98401797D01*
X82439730Y-98395422D01*
X82475000Y-98384723D01*
X82510270Y-98395422D01*
X82529241Y-98397290D01*
X82538718Y-98415742D01*
X82616474Y-98513722D01*
X82711850Y-98594650D01*
X82821182Y-98655416D01*
X82940268Y-98693685D01*
X83043250Y-98705000D01*
X83202000Y-98546250D01*
X83202000Y-98118707D01*
X83206797Y-98070000D01*
X83206797Y-97273000D01*
X83243203Y-97273000D01*
X83243203Y-98070000D01*
G37*
G04 #@! TD.AperFunction*
D55*
X96373000Y-104703000D02*
X97227000Y-104703000D01*
X97227000Y-104683000D01*
X97373000Y-104683000D01*
X97373000Y-104703000D01*
X97447000Y-104703000D01*
X97447000Y-104957000D01*
X97373000Y-104957000D01*
X97373000Y-104977000D01*
X97227000Y-104977000D01*
X97227000Y-104957000D01*
X96373000Y-104957000D01*
X96373000Y-104977000D01*
X96227000Y-104977000D01*
X96227000Y-104957000D01*
X96153000Y-104957000D01*
X96153000Y-104703000D01*
X96227000Y-104703000D01*
X96227000Y-104683000D01*
X96373000Y-104683000D01*
X96373000Y-104703000D01*
G04 #@! TA.AperFunction,Conductor*
D56*
G36*
X96373000Y-104703000D02*
G01*
X97227000Y-104703000D01*
X97227000Y-104683000D01*
X97373000Y-104683000D01*
X97373000Y-104703000D01*
X97447000Y-104703000D01*
X97447000Y-104957000D01*
X97373000Y-104957000D01*
X97373000Y-104977000D01*
X97227000Y-104977000D01*
X97227000Y-104957000D01*
X96373000Y-104957000D01*
X96373000Y-104977000D01*
X96227000Y-104977000D01*
X96227000Y-104957000D01*
X96153000Y-104957000D01*
X96153000Y-104703000D01*
X96227000Y-104703000D01*
X96227000Y-104683000D01*
X96373000Y-104683000D01*
X96373000Y-104703000D01*
G37*
G04 #@! TD.AperFunction*
D55*
X96373000Y-102913000D02*
X97227000Y-102913000D01*
X97227000Y-102893000D01*
X97373000Y-102893000D01*
X97373000Y-102913000D01*
X97447000Y-102913000D01*
X97447000Y-103167000D01*
X97373000Y-103167000D01*
X97373000Y-103187000D01*
X97227000Y-103187000D01*
X97227000Y-103167000D01*
X96373000Y-103167000D01*
X96373000Y-103187000D01*
X96227000Y-103187000D01*
X96227000Y-103167000D01*
X96153000Y-103167000D01*
X96153000Y-102913000D01*
X96227000Y-102913000D01*
X96227000Y-102893000D01*
X96373000Y-102893000D01*
X96373000Y-102913000D01*
G04 #@! TA.AperFunction,Conductor*
D56*
G36*
X96373000Y-102913000D02*
G01*
X97227000Y-102913000D01*
X97227000Y-102893000D01*
X97373000Y-102893000D01*
X97373000Y-102913000D01*
X97447000Y-102913000D01*
X97447000Y-103167000D01*
X97373000Y-103167000D01*
X97373000Y-103187000D01*
X97227000Y-103187000D01*
X97227000Y-103167000D01*
X96373000Y-103167000D01*
X96373000Y-103187000D01*
X96227000Y-103187000D01*
X96227000Y-103167000D01*
X96153000Y-103167000D01*
X96153000Y-102913000D01*
X96227000Y-102913000D01*
X96227000Y-102893000D01*
X96373000Y-102893000D01*
X96373000Y-102913000D01*
G37*
G04 #@! TD.AperFunction*
D55*
X72860492Y-84281729D02*
X72948271Y-84369508D01*
X73051488Y-84438476D01*
X73166178Y-84485982D01*
X73287931Y-84510200D01*
X73412069Y-84510200D01*
X73533822Y-84485982D01*
X73648512Y-84438476D01*
X73751729Y-84369508D01*
X73834837Y-84286400D01*
X74832228Y-84286400D01*
X74855384Y-84314616D01*
X74905663Y-84355879D01*
X74963027Y-84386540D01*
X75020975Y-84404119D01*
X75050457Y-84459276D01*
X75061912Y-84473234D01*
X75088518Y-84505654D01*
X75088524Y-84505660D01*
X75101243Y-84521158D01*
X75116741Y-84533877D01*
X75366122Y-84783259D01*
X75378842Y-84798758D01*
X75394340Y-84811477D01*
X75394345Y-84811482D01*
X75415346Y-84828717D01*
X75440724Y-84849544D01*
X75503215Y-84882946D01*
X75511325Y-84887281D01*
X75587931Y-84910519D01*
X75595204Y-84911235D01*
X75647640Y-84916400D01*
X75647647Y-84916400D01*
X75667600Y-84918365D01*
X75687553Y-84916400D01*
X75820527Y-84916400D01*
X75818203Y-84940000D01*
X75818203Y-85340000D01*
X75824578Y-85404730D01*
X75843460Y-85466973D01*
X75874121Y-85524337D01*
X75915384Y-85574616D01*
X75934129Y-85590000D01*
X75915384Y-85605384D01*
X75874121Y-85655663D01*
X75843460Y-85713027D01*
X75824578Y-85775270D01*
X75818203Y-85840000D01*
X75818203Y-86240000D01*
X75824578Y-86304730D01*
X75843460Y-86366973D01*
X75874121Y-86424337D01*
X75915384Y-86474616D01*
X75965663Y-86515879D01*
X76023027Y-86546540D01*
X76043601Y-86552781D01*
X76043601Y-86563302D01*
X76041635Y-86583264D01*
X76049481Y-86662932D01*
X76072719Y-86739538D01*
X76077648Y-86748759D01*
X76110457Y-86810140D01*
X76124294Y-86827000D01*
X76148518Y-86856518D01*
X76148524Y-86856524D01*
X76161243Y-86872022D01*
X76176741Y-86884741D01*
X77067021Y-87775022D01*
X77079741Y-87790521D01*
X77095239Y-87803240D01*
X77095244Y-87803245D01*
X77109100Y-87814616D01*
X77141623Y-87841307D01*
X77194522Y-87869582D01*
X77212224Y-87879044D01*
X77288830Y-87902282D01*
X77296103Y-87902998D01*
X77348539Y-87908163D01*
X77348546Y-87908163D01*
X77368499Y-87910128D01*
X77388452Y-87908163D01*
X77471970Y-87908163D01*
X77438027Y-87918460D01*
X77380663Y-87949121D01*
X77330384Y-87990384D01*
X77289121Y-88040663D01*
X77258460Y-88098027D01*
X77239578Y-88160270D01*
X77233203Y-88225000D01*
X77233203Y-89775000D01*
X77239578Y-89839730D01*
X77258460Y-89901973D01*
X77289121Y-89959337D01*
X77330384Y-90009616D01*
X77380663Y-90050879D01*
X77438027Y-90081540D01*
X77500270Y-90100422D01*
X77565000Y-90106797D01*
X78165000Y-90106797D01*
X78229730Y-90100422D01*
X78280664Y-90084971D01*
X78304463Y-90129494D01*
X78383815Y-90226185D01*
X78480506Y-90305537D01*
X78590820Y-90364502D01*
X78710518Y-90400812D01*
X78835000Y-90413072D01*
X78849250Y-90410000D01*
X79008000Y-90251250D01*
X79008000Y-89127000D01*
X78988000Y-89127000D01*
X78988000Y-88873000D01*
X79008000Y-88873000D01*
X79008000Y-88853000D01*
X79262000Y-88853000D01*
X79262000Y-88873000D01*
X79282000Y-88873000D01*
X79282000Y-89127000D01*
X79262000Y-89127000D01*
X79262000Y-90251250D01*
X79420750Y-90410000D01*
X79435000Y-90413072D01*
X79559482Y-90400812D01*
X79679180Y-90364502D01*
X79789494Y-90305537D01*
X79886185Y-90226185D01*
X79965537Y-90129494D01*
X79989336Y-90084971D01*
X80040270Y-90100422D01*
X80105000Y-90106797D01*
X80633600Y-90106797D01*
X80633600Y-90171725D01*
X80597847Y-90178837D01*
X80483157Y-90226343D01*
X80379940Y-90295311D01*
X80292161Y-90383090D01*
X80223193Y-90486307D01*
X80175687Y-90600997D01*
X80151469Y-90722750D01*
X80151469Y-90846888D01*
X80163430Y-90907020D01*
X71638465Y-90907020D01*
X71594328Y-90862883D01*
X71491111Y-90793915D01*
X71376421Y-90746409D01*
X71254668Y-90722191D01*
X71130530Y-90722191D01*
X71008777Y-90746409D01*
X70894087Y-90793915D01*
X70790870Y-90862883D01*
X70703091Y-90950662D01*
X70634123Y-91053879D01*
X70586617Y-91168569D01*
X70562399Y-91290322D01*
X70562399Y-91414460D01*
X70586617Y-91536213D01*
X70634123Y-91650903D01*
X70703091Y-91754120D01*
X70790870Y-91841899D01*
X70894087Y-91910867D01*
X71008777Y-91958373D01*
X71130530Y-91982591D01*
X71254668Y-91982591D01*
X71376421Y-91958373D01*
X71491111Y-91910867D01*
X71594328Y-91841899D01*
X71618807Y-91817420D01*
X81581796Y-91817420D01*
X81604145Y-91819621D01*
X81626494Y-91817420D01*
X81626502Y-91817420D01*
X81693380Y-91810833D01*
X81779185Y-91784804D01*
X81858264Y-91742536D01*
X81927577Y-91685652D01*
X81941833Y-91668281D01*
X81950019Y-91660095D01*
X81998539Y-91660095D01*
X82096264Y-91640657D01*
X82105963Y-91664073D01*
X82174931Y-91767290D01*
X82262710Y-91855069D01*
X82365927Y-91924037D01*
X82480617Y-91971543D01*
X82602370Y-91995761D01*
X82686246Y-91995761D01*
X83682998Y-92992515D01*
X83682998Y-93013748D01*
X83524250Y-92855000D01*
X83435000Y-92851928D01*
X83310518Y-92864188D01*
X83190820Y-92900498D01*
X83160000Y-92916972D01*
X83129180Y-92900498D01*
X83009482Y-92864188D01*
X82885000Y-92851928D01*
X82795750Y-92855000D01*
X82637000Y-93013750D01*
X82637000Y-93763000D01*
X83683000Y-93763000D01*
X83683000Y-93743000D01*
X83937000Y-93743000D01*
X83937000Y-93763000D01*
X84983000Y-93763000D01*
X84983000Y-93743000D01*
X85237000Y-93743000D01*
X85237000Y-93763000D01*
X86283000Y-93763000D01*
X86283000Y-93743000D01*
X86537000Y-93743000D01*
X86537000Y-93763000D01*
X87583000Y-93763000D01*
X87583000Y-93743000D01*
X87837000Y-93743000D01*
X87837000Y-93763000D01*
X87857000Y-93763000D01*
X87857000Y-94017000D01*
X87837000Y-94017000D01*
X87837000Y-94037000D01*
X87583000Y-94037000D01*
X87583000Y-94017000D01*
X86537000Y-94017000D01*
X86537000Y-94037000D01*
X86283000Y-94037000D01*
X86283000Y-94017000D01*
X85237000Y-94017000D01*
X85237000Y-94037000D01*
X84983000Y-94037000D01*
X84983000Y-94017000D01*
X83937000Y-94017000D01*
X83937000Y-94037000D01*
X83683000Y-94037000D01*
X83683000Y-94017000D01*
X82637000Y-94017000D01*
X82637000Y-94037000D01*
X82383000Y-94037000D01*
X82383000Y-94017000D01*
X81287000Y-94017000D01*
X81287000Y-94037000D01*
X81033000Y-94037000D01*
X81033000Y-94017000D01*
X79987000Y-94017000D01*
X79987000Y-94037000D01*
X79733000Y-94037000D01*
X79733000Y-94017000D01*
X79008750Y-94017000D01*
X78850000Y-94175750D01*
X78846928Y-94290000D01*
X78859188Y-94414482D01*
X78895498Y-94534180D01*
X78954463Y-94644494D01*
X79033815Y-94741185D01*
X79130506Y-94820537D01*
X79185468Y-94849915D01*
X79178460Y-94863027D01*
X79159578Y-94925270D01*
X79153203Y-94990000D01*
X79153203Y-95790000D01*
X79159578Y-95854730D01*
X79178460Y-95916973D01*
X79209121Y-95974337D01*
X79250384Y-96024616D01*
X79269801Y-96040551D01*
X79269800Y-96640519D01*
X79268460Y-96643027D01*
X79249578Y-96705270D01*
X79243203Y-96770000D01*
X79243203Y-96997042D01*
X79228476Y-96961488D01*
X79159508Y-96858271D01*
X79071729Y-96770492D01*
X78968512Y-96701524D01*
X78853822Y-96654018D01*
X78732069Y-96629800D01*
X78607931Y-96629800D01*
X78486178Y-96654018D01*
X78371488Y-96701524D01*
X78268271Y-96770492D01*
X78180492Y-96858271D01*
X78170000Y-96873973D01*
X78159508Y-96858271D01*
X78071729Y-96770492D01*
X77968512Y-96701524D01*
X77853822Y-96654018D01*
X77732069Y-96629800D01*
X77607931Y-96629800D01*
X77486178Y-96654018D01*
X77371488Y-96701524D01*
X77268271Y-96770492D01*
X77180492Y-96858271D01*
X77111524Y-96961488D01*
X77064018Y-97076178D01*
X77039800Y-97197931D01*
X77039800Y-97322069D01*
X77064018Y-97443822D01*
X77111524Y-97558512D01*
X77180492Y-97661729D01*
X77268271Y-97749508D01*
X77371488Y-97818476D01*
X77486178Y-97865982D01*
X77607931Y-97890200D01*
X77732069Y-97890200D01*
X77853822Y-97865982D01*
X77968512Y-97818476D01*
X78071729Y-97749508D01*
X78159508Y-97661729D01*
X78170000Y-97646027D01*
X78180492Y-97661729D01*
X78268271Y-97749508D01*
X78371488Y-97818476D01*
X78486178Y-97865982D01*
X78607931Y-97890200D01*
X78732069Y-97890200D01*
X78853822Y-97865982D01*
X78968512Y-97818476D01*
X79071729Y-97749508D01*
X79159508Y-97661729D01*
X79228476Y-97558512D01*
X79243203Y-97522958D01*
X79243203Y-97985497D01*
X79201973Y-97963460D01*
X79139730Y-97944578D01*
X79075000Y-97938203D01*
X77075000Y-97938203D01*
X77010270Y-97944578D01*
X76948027Y-97963460D01*
X76890663Y-97994121D01*
X76840384Y-98035384D01*
X76799121Y-98085663D01*
X76768460Y-98143027D01*
X76749578Y-98205270D01*
X76743203Y-98270000D01*
X76743203Y-101119453D01*
X76285011Y-100661262D01*
X76285011Y-98242159D01*
X76287212Y-98219810D01*
X76285011Y-98197461D01*
X76285011Y-98197454D01*
X76278424Y-98130576D01*
X76276815Y-98125270D01*
X76268789Y-98098815D01*
X76252395Y-98044771D01*
X76210127Y-97965692D01*
X76153243Y-97896379D01*
X76135878Y-97882128D01*
X75785089Y-97531340D01*
X75770833Y-97513969D01*
X75701520Y-97457085D01*
X75622441Y-97414817D01*
X75536636Y-97388788D01*
X75469758Y-97382201D01*
X75469750Y-97382201D01*
X75447401Y-97380000D01*
X75425052Y-97382201D01*
X73634947Y-97382201D01*
X73612598Y-97380000D01*
X73590249Y-97382201D01*
X73590242Y-97382201D01*
X73532125Y-97387925D01*
X73523363Y-97388788D01*
X73502909Y-97394993D01*
X73437559Y-97414817D01*
X73358480Y-97457085D01*
X73289167Y-97513969D01*
X73274911Y-97531340D01*
X73166889Y-97639362D01*
X73094180Y-97600498D01*
X72974482Y-97564188D01*
X72850000Y-97551928D01*
X72535750Y-97555000D01*
X72377000Y-97713750D01*
X72377000Y-98513000D01*
X72397000Y-98513000D01*
X72397000Y-98767000D01*
X72377000Y-98767000D01*
X72377000Y-98787000D01*
X72123000Y-98787000D01*
X72123000Y-98767000D01*
X71173750Y-98767000D01*
X71017250Y-98923500D01*
X70881797Y-98788047D01*
X70881797Y-98190000D01*
X71011928Y-98190000D01*
X71015000Y-98354250D01*
X71173750Y-98513000D01*
X72123000Y-98513000D01*
X72123000Y-97713750D01*
X71964250Y-97555000D01*
X71650000Y-97551928D01*
X71525518Y-97564188D01*
X71405820Y-97600498D01*
X71295506Y-97659463D01*
X71198815Y-97738815D01*
X71119463Y-97835506D01*
X71060498Y-97945820D01*
X71024188Y-98065518D01*
X71011928Y-98190000D01*
X70881797Y-98190000D01*
X70875422Y-98125270D01*
X70856540Y-98063027D01*
X70825879Y-98005663D01*
X70784616Y-97955384D01*
X70734337Y-97914121D01*
X70676973Y-97883460D01*
X70614730Y-97864578D01*
X70550000Y-97858203D01*
X69350000Y-97858203D01*
X69285270Y-97864578D01*
X69223027Y-97883460D01*
X69165663Y-97914121D01*
X69115384Y-97955384D01*
X69105200Y-97967793D01*
X69105200Y-93490000D01*
X78846928Y-93490000D01*
X78850000Y-93604250D01*
X79008750Y-93763000D01*
X79733000Y-93763000D01*
X79733000Y-93013750D01*
X79987000Y-93013750D01*
X79987000Y-93763000D01*
X81033000Y-93763000D01*
X81033000Y-93013750D01*
X81287000Y-93013750D01*
X81287000Y-93763000D01*
X82383000Y-93763000D01*
X82383000Y-93013750D01*
X82224250Y-92855000D01*
X82135000Y-92851928D01*
X82010518Y-92864188D01*
X81890820Y-92900498D01*
X81835000Y-92930335D01*
X81779180Y-92900498D01*
X81659482Y-92864188D01*
X81535000Y-92851928D01*
X81445750Y-92855000D01*
X81287000Y-93013750D01*
X81033000Y-93013750D01*
X80874250Y-92855000D01*
X80785000Y-92851928D01*
X80660518Y-92864188D01*
X80540820Y-92900498D01*
X80510000Y-92916972D01*
X80479180Y-92900498D01*
X80359482Y-92864188D01*
X80235000Y-92851928D01*
X80145750Y-92855000D01*
X79987000Y-93013750D01*
X79733000Y-93013750D01*
X79574250Y-92855000D01*
X79485000Y-92851928D01*
X79360518Y-92864188D01*
X79240820Y-92900498D01*
X79130506Y-92959463D01*
X79033815Y-93038815D01*
X78954463Y-93135506D01*
X78895498Y-93245820D01*
X78859188Y-93365518D01*
X78846928Y-93490000D01*
X69105200Y-93490000D01*
X69105200Y-86213716D01*
X69160270Y-86230422D01*
X69225000Y-86236797D01*
X70575000Y-86236797D01*
X70639730Y-86230422D01*
X70701973Y-86211540D01*
X70759337Y-86180879D01*
X70809616Y-86139616D01*
X70850879Y-86089337D01*
X70881540Y-86031973D01*
X70900422Y-85969730D01*
X70906797Y-85905000D01*
X70906797Y-85401184D01*
X70909345Y-85427054D01*
X70966823Y-85616534D01*
X71060163Y-85791161D01*
X71185778Y-85944222D01*
X71338840Y-86069837D01*
X71513467Y-86163177D01*
X71702947Y-86220655D01*
X71900000Y-86240063D01*
X72097054Y-86220655D01*
X72286534Y-86163177D01*
X72461161Y-86069837D01*
X72614222Y-85944222D01*
X72739837Y-85791161D01*
X72833177Y-85616534D01*
X72890655Y-85427053D01*
X72905200Y-85279374D01*
X72905200Y-85030625D01*
X72890655Y-84882946D01*
X72833177Y-84693466D01*
X72739837Y-84518839D01*
X72647465Y-84406284D01*
X72825055Y-84228694D01*
X72860492Y-84281729D01*
G04 #@! TA.AperFunction,Conductor*
D56*
G36*
X72860492Y-84281729D02*
G01*
X72948271Y-84369508D01*
X73051488Y-84438476D01*
X73166178Y-84485982D01*
X73287931Y-84510200D01*
X73412069Y-84510200D01*
X73533822Y-84485982D01*
X73648512Y-84438476D01*
X73751729Y-84369508D01*
X73834837Y-84286400D01*
X74832228Y-84286400D01*
X74855384Y-84314616D01*
X74905663Y-84355879D01*
X74963027Y-84386540D01*
X75020975Y-84404119D01*
X75050457Y-84459276D01*
X75061912Y-84473234D01*
X75088518Y-84505654D01*
X75088524Y-84505660D01*
X75101243Y-84521158D01*
X75116741Y-84533877D01*
X75366122Y-84783259D01*
X75378842Y-84798758D01*
X75394340Y-84811477D01*
X75394345Y-84811482D01*
X75415346Y-84828717D01*
X75440724Y-84849544D01*
X75503215Y-84882946D01*
X75511325Y-84887281D01*
X75587931Y-84910519D01*
X75595204Y-84911235D01*
X75647640Y-84916400D01*
X75647647Y-84916400D01*
X75667600Y-84918365D01*
X75687553Y-84916400D01*
X75820527Y-84916400D01*
X75818203Y-84940000D01*
X75818203Y-85340000D01*
X75824578Y-85404730D01*
X75843460Y-85466973D01*
X75874121Y-85524337D01*
X75915384Y-85574616D01*
X75934129Y-85590000D01*
X75915384Y-85605384D01*
X75874121Y-85655663D01*
X75843460Y-85713027D01*
X75824578Y-85775270D01*
X75818203Y-85840000D01*
X75818203Y-86240000D01*
X75824578Y-86304730D01*
X75843460Y-86366973D01*
X75874121Y-86424337D01*
X75915384Y-86474616D01*
X75965663Y-86515879D01*
X76023027Y-86546540D01*
X76043601Y-86552781D01*
X76043601Y-86563302D01*
X76041635Y-86583264D01*
X76049481Y-86662932D01*
X76072719Y-86739538D01*
X76077648Y-86748759D01*
X76110457Y-86810140D01*
X76124294Y-86827000D01*
X76148518Y-86856518D01*
X76148524Y-86856524D01*
X76161243Y-86872022D01*
X76176741Y-86884741D01*
X77067021Y-87775022D01*
X77079741Y-87790521D01*
X77095239Y-87803240D01*
X77095244Y-87803245D01*
X77109100Y-87814616D01*
X77141623Y-87841307D01*
X77194522Y-87869582D01*
X77212224Y-87879044D01*
X77288830Y-87902282D01*
X77296103Y-87902998D01*
X77348539Y-87908163D01*
X77348546Y-87908163D01*
X77368499Y-87910128D01*
X77388452Y-87908163D01*
X77471970Y-87908163D01*
X77438027Y-87918460D01*
X77380663Y-87949121D01*
X77330384Y-87990384D01*
X77289121Y-88040663D01*
X77258460Y-88098027D01*
X77239578Y-88160270D01*
X77233203Y-88225000D01*
X77233203Y-89775000D01*
X77239578Y-89839730D01*
X77258460Y-89901973D01*
X77289121Y-89959337D01*
X77330384Y-90009616D01*
X77380663Y-90050879D01*
X77438027Y-90081540D01*
X77500270Y-90100422D01*
X77565000Y-90106797D01*
X78165000Y-90106797D01*
X78229730Y-90100422D01*
X78280664Y-90084971D01*
X78304463Y-90129494D01*
X78383815Y-90226185D01*
X78480506Y-90305537D01*
X78590820Y-90364502D01*
X78710518Y-90400812D01*
X78835000Y-90413072D01*
X78849250Y-90410000D01*
X79008000Y-90251250D01*
X79008000Y-89127000D01*
X78988000Y-89127000D01*
X78988000Y-88873000D01*
X79008000Y-88873000D01*
X79008000Y-88853000D01*
X79262000Y-88853000D01*
X79262000Y-88873000D01*
X79282000Y-88873000D01*
X79282000Y-89127000D01*
X79262000Y-89127000D01*
X79262000Y-90251250D01*
X79420750Y-90410000D01*
X79435000Y-90413072D01*
X79559482Y-90400812D01*
X79679180Y-90364502D01*
X79789494Y-90305537D01*
X79886185Y-90226185D01*
X79965537Y-90129494D01*
X79989336Y-90084971D01*
X80040270Y-90100422D01*
X80105000Y-90106797D01*
X80633600Y-90106797D01*
X80633600Y-90171725D01*
X80597847Y-90178837D01*
X80483157Y-90226343D01*
X80379940Y-90295311D01*
X80292161Y-90383090D01*
X80223193Y-90486307D01*
X80175687Y-90600997D01*
X80151469Y-90722750D01*
X80151469Y-90846888D01*
X80163430Y-90907020D01*
X71638465Y-90907020D01*
X71594328Y-90862883D01*
X71491111Y-90793915D01*
X71376421Y-90746409D01*
X71254668Y-90722191D01*
X71130530Y-90722191D01*
X71008777Y-90746409D01*
X70894087Y-90793915D01*
X70790870Y-90862883D01*
X70703091Y-90950662D01*
X70634123Y-91053879D01*
X70586617Y-91168569D01*
X70562399Y-91290322D01*
X70562399Y-91414460D01*
X70586617Y-91536213D01*
X70634123Y-91650903D01*
X70703091Y-91754120D01*
X70790870Y-91841899D01*
X70894087Y-91910867D01*
X71008777Y-91958373D01*
X71130530Y-91982591D01*
X71254668Y-91982591D01*
X71376421Y-91958373D01*
X71491111Y-91910867D01*
X71594328Y-91841899D01*
X71618807Y-91817420D01*
X81581796Y-91817420D01*
X81604145Y-91819621D01*
X81626494Y-91817420D01*
X81626502Y-91817420D01*
X81693380Y-91810833D01*
X81779185Y-91784804D01*
X81858264Y-91742536D01*
X81927577Y-91685652D01*
X81941833Y-91668281D01*
X81950019Y-91660095D01*
X81998539Y-91660095D01*
X82096264Y-91640657D01*
X82105963Y-91664073D01*
X82174931Y-91767290D01*
X82262710Y-91855069D01*
X82365927Y-91924037D01*
X82480617Y-91971543D01*
X82602370Y-91995761D01*
X82686246Y-91995761D01*
X83682998Y-92992515D01*
X83682998Y-93013748D01*
X83524250Y-92855000D01*
X83435000Y-92851928D01*
X83310518Y-92864188D01*
X83190820Y-92900498D01*
X83160000Y-92916972D01*
X83129180Y-92900498D01*
X83009482Y-92864188D01*
X82885000Y-92851928D01*
X82795750Y-92855000D01*
X82637000Y-93013750D01*
X82637000Y-93763000D01*
X83683000Y-93763000D01*
X83683000Y-93743000D01*
X83937000Y-93743000D01*
X83937000Y-93763000D01*
X84983000Y-93763000D01*
X84983000Y-93743000D01*
X85237000Y-93743000D01*
X85237000Y-93763000D01*
X86283000Y-93763000D01*
X86283000Y-93743000D01*
X86537000Y-93743000D01*
X86537000Y-93763000D01*
X87583000Y-93763000D01*
X87583000Y-93743000D01*
X87837000Y-93743000D01*
X87837000Y-93763000D01*
X87857000Y-93763000D01*
X87857000Y-94017000D01*
X87837000Y-94017000D01*
X87837000Y-94037000D01*
X87583000Y-94037000D01*
X87583000Y-94017000D01*
X86537000Y-94017000D01*
X86537000Y-94037000D01*
X86283000Y-94037000D01*
X86283000Y-94017000D01*
X85237000Y-94017000D01*
X85237000Y-94037000D01*
X84983000Y-94037000D01*
X84983000Y-94017000D01*
X83937000Y-94017000D01*
X83937000Y-94037000D01*
X83683000Y-94037000D01*
X83683000Y-94017000D01*
X82637000Y-94017000D01*
X82637000Y-94037000D01*
X82383000Y-94037000D01*
X82383000Y-94017000D01*
X81287000Y-94017000D01*
X81287000Y-94037000D01*
X81033000Y-94037000D01*
X81033000Y-94017000D01*
X79987000Y-94017000D01*
X79987000Y-94037000D01*
X79733000Y-94037000D01*
X79733000Y-94017000D01*
X79008750Y-94017000D01*
X78850000Y-94175750D01*
X78846928Y-94290000D01*
X78859188Y-94414482D01*
X78895498Y-94534180D01*
X78954463Y-94644494D01*
X79033815Y-94741185D01*
X79130506Y-94820537D01*
X79185468Y-94849915D01*
X79178460Y-94863027D01*
X79159578Y-94925270D01*
X79153203Y-94990000D01*
X79153203Y-95790000D01*
X79159578Y-95854730D01*
X79178460Y-95916973D01*
X79209121Y-95974337D01*
X79250384Y-96024616D01*
X79269801Y-96040551D01*
X79269800Y-96640519D01*
X79268460Y-96643027D01*
X79249578Y-96705270D01*
X79243203Y-96770000D01*
X79243203Y-96997042D01*
X79228476Y-96961488D01*
X79159508Y-96858271D01*
X79071729Y-96770492D01*
X78968512Y-96701524D01*
X78853822Y-96654018D01*
X78732069Y-96629800D01*
X78607931Y-96629800D01*
X78486178Y-96654018D01*
X78371488Y-96701524D01*
X78268271Y-96770492D01*
X78180492Y-96858271D01*
X78170000Y-96873973D01*
X78159508Y-96858271D01*
X78071729Y-96770492D01*
X77968512Y-96701524D01*
X77853822Y-96654018D01*
X77732069Y-96629800D01*
X77607931Y-96629800D01*
X77486178Y-96654018D01*
X77371488Y-96701524D01*
X77268271Y-96770492D01*
X77180492Y-96858271D01*
X77111524Y-96961488D01*
X77064018Y-97076178D01*
X77039800Y-97197931D01*
X77039800Y-97322069D01*
X77064018Y-97443822D01*
X77111524Y-97558512D01*
X77180492Y-97661729D01*
X77268271Y-97749508D01*
X77371488Y-97818476D01*
X77486178Y-97865982D01*
X77607931Y-97890200D01*
X77732069Y-97890200D01*
X77853822Y-97865982D01*
X77968512Y-97818476D01*
X78071729Y-97749508D01*
X78159508Y-97661729D01*
X78170000Y-97646027D01*
X78180492Y-97661729D01*
X78268271Y-97749508D01*
X78371488Y-97818476D01*
X78486178Y-97865982D01*
X78607931Y-97890200D01*
X78732069Y-97890200D01*
X78853822Y-97865982D01*
X78968512Y-97818476D01*
X79071729Y-97749508D01*
X79159508Y-97661729D01*
X79228476Y-97558512D01*
X79243203Y-97522958D01*
X79243203Y-97985497D01*
X79201973Y-97963460D01*
X79139730Y-97944578D01*
X79075000Y-97938203D01*
X77075000Y-97938203D01*
X77010270Y-97944578D01*
X76948027Y-97963460D01*
X76890663Y-97994121D01*
X76840384Y-98035384D01*
X76799121Y-98085663D01*
X76768460Y-98143027D01*
X76749578Y-98205270D01*
X76743203Y-98270000D01*
X76743203Y-101119453D01*
X76285011Y-100661262D01*
X76285011Y-98242159D01*
X76287212Y-98219810D01*
X76285011Y-98197461D01*
X76285011Y-98197454D01*
X76278424Y-98130576D01*
X76276815Y-98125270D01*
X76268789Y-98098815D01*
X76252395Y-98044771D01*
X76210127Y-97965692D01*
X76153243Y-97896379D01*
X76135878Y-97882128D01*
X75785089Y-97531340D01*
X75770833Y-97513969D01*
X75701520Y-97457085D01*
X75622441Y-97414817D01*
X75536636Y-97388788D01*
X75469758Y-97382201D01*
X75469750Y-97382201D01*
X75447401Y-97380000D01*
X75425052Y-97382201D01*
X73634947Y-97382201D01*
X73612598Y-97380000D01*
X73590249Y-97382201D01*
X73590242Y-97382201D01*
X73532125Y-97387925D01*
X73523363Y-97388788D01*
X73502909Y-97394993D01*
X73437559Y-97414817D01*
X73358480Y-97457085D01*
X73289167Y-97513969D01*
X73274911Y-97531340D01*
X73166889Y-97639362D01*
X73094180Y-97600498D01*
X72974482Y-97564188D01*
X72850000Y-97551928D01*
X72535750Y-97555000D01*
X72377000Y-97713750D01*
X72377000Y-98513000D01*
X72397000Y-98513000D01*
X72397000Y-98767000D01*
X72377000Y-98767000D01*
X72377000Y-98787000D01*
X72123000Y-98787000D01*
X72123000Y-98767000D01*
X71173750Y-98767000D01*
X71017250Y-98923500D01*
X70881797Y-98788047D01*
X70881797Y-98190000D01*
X71011928Y-98190000D01*
X71015000Y-98354250D01*
X71173750Y-98513000D01*
X72123000Y-98513000D01*
X72123000Y-97713750D01*
X71964250Y-97555000D01*
X71650000Y-97551928D01*
X71525518Y-97564188D01*
X71405820Y-97600498D01*
X71295506Y-97659463D01*
X71198815Y-97738815D01*
X71119463Y-97835506D01*
X71060498Y-97945820D01*
X71024188Y-98065518D01*
X71011928Y-98190000D01*
X70881797Y-98190000D01*
X70875422Y-98125270D01*
X70856540Y-98063027D01*
X70825879Y-98005663D01*
X70784616Y-97955384D01*
X70734337Y-97914121D01*
X70676973Y-97883460D01*
X70614730Y-97864578D01*
X70550000Y-97858203D01*
X69350000Y-97858203D01*
X69285270Y-97864578D01*
X69223027Y-97883460D01*
X69165663Y-97914121D01*
X69115384Y-97955384D01*
X69105200Y-97967793D01*
X69105200Y-93490000D01*
X78846928Y-93490000D01*
X78850000Y-93604250D01*
X79008750Y-93763000D01*
X79733000Y-93763000D01*
X79733000Y-93013750D01*
X79987000Y-93013750D01*
X79987000Y-93763000D01*
X81033000Y-93763000D01*
X81033000Y-93013750D01*
X81287000Y-93013750D01*
X81287000Y-93763000D01*
X82383000Y-93763000D01*
X82383000Y-93013750D01*
X82224250Y-92855000D01*
X82135000Y-92851928D01*
X82010518Y-92864188D01*
X81890820Y-92900498D01*
X81835000Y-92930335D01*
X81779180Y-92900498D01*
X81659482Y-92864188D01*
X81535000Y-92851928D01*
X81445750Y-92855000D01*
X81287000Y-93013750D01*
X81033000Y-93013750D01*
X80874250Y-92855000D01*
X80785000Y-92851928D01*
X80660518Y-92864188D01*
X80540820Y-92900498D01*
X80510000Y-92916972D01*
X80479180Y-92900498D01*
X80359482Y-92864188D01*
X80235000Y-92851928D01*
X80145750Y-92855000D01*
X79987000Y-93013750D01*
X79733000Y-93013750D01*
X79574250Y-92855000D01*
X79485000Y-92851928D01*
X79360518Y-92864188D01*
X79240820Y-92900498D01*
X79130506Y-92959463D01*
X79033815Y-93038815D01*
X78954463Y-93135506D01*
X78895498Y-93245820D01*
X78859188Y-93365518D01*
X78846928Y-93490000D01*
X69105200Y-93490000D01*
X69105200Y-86213716D01*
X69160270Y-86230422D01*
X69225000Y-86236797D01*
X70575000Y-86236797D01*
X70639730Y-86230422D01*
X70701973Y-86211540D01*
X70759337Y-86180879D01*
X70809616Y-86139616D01*
X70850879Y-86089337D01*
X70881540Y-86031973D01*
X70900422Y-85969730D01*
X70906797Y-85905000D01*
X70906797Y-85401184D01*
X70909345Y-85427054D01*
X70966823Y-85616534D01*
X71060163Y-85791161D01*
X71185778Y-85944222D01*
X71338840Y-86069837D01*
X71513467Y-86163177D01*
X71702947Y-86220655D01*
X71900000Y-86240063D01*
X72097054Y-86220655D01*
X72286534Y-86163177D01*
X72461161Y-86069837D01*
X72614222Y-85944222D01*
X72739837Y-85791161D01*
X72833177Y-85616534D01*
X72890655Y-85427053D01*
X72905200Y-85279374D01*
X72905200Y-85030625D01*
X72890655Y-84882946D01*
X72833177Y-84693466D01*
X72739837Y-84518839D01*
X72647465Y-84406284D01*
X72825055Y-84228694D01*
X72860492Y-84281729D01*
G37*
G04 #@! TD.AperFunction*
D55*
X102094800Y-100441284D02*
X102039730Y-100424578D01*
X101975000Y-100418203D01*
X101325000Y-100418203D01*
X101260270Y-100424578D01*
X101198027Y-100443460D01*
X101140663Y-100474121D01*
X101137022Y-100477109D01*
X101122584Y-100429514D01*
X101080316Y-100350435D01*
X101037683Y-100298487D01*
X101023432Y-100281122D01*
X101006066Y-100266870D01*
X100827002Y-100087806D01*
X100827002Y-100086252D01*
X100985750Y-100245000D01*
X101025000Y-100248072D01*
X101149482Y-100235812D01*
X101269180Y-100199502D01*
X101379494Y-100140537D01*
X101476185Y-100061185D01*
X101555537Y-99964494D01*
X101567669Y-99941797D01*
X101975000Y-99941797D01*
X102039730Y-99935422D01*
X102094800Y-99918716D01*
X102094800Y-100441284D01*
G04 #@! TA.AperFunction,Conductor*
D56*
G36*
X102094800Y-100441284D02*
G01*
X102039730Y-100424578D01*
X101975000Y-100418203D01*
X101325000Y-100418203D01*
X101260270Y-100424578D01*
X101198027Y-100443460D01*
X101140663Y-100474121D01*
X101137022Y-100477109D01*
X101122584Y-100429514D01*
X101080316Y-100350435D01*
X101037683Y-100298487D01*
X101023432Y-100281122D01*
X101006066Y-100266870D01*
X100827002Y-100087806D01*
X100827002Y-100086252D01*
X100985750Y-100245000D01*
X101025000Y-100248072D01*
X101149482Y-100235812D01*
X101269180Y-100199502D01*
X101379494Y-100140537D01*
X101476185Y-100061185D01*
X101555537Y-99964494D01*
X101567669Y-99941797D01*
X101975000Y-99941797D01*
X102039730Y-99935422D01*
X102094800Y-99918716D01*
X102094800Y-100441284D01*
G37*
G04 #@! TD.AperFunction*
D55*
X100827000Y-98953000D02*
X100847000Y-98953000D01*
X100847000Y-99207000D01*
X100827000Y-99207000D01*
X100827000Y-99227000D01*
X100573000Y-99227000D01*
X100573000Y-99207000D01*
X100553000Y-99207000D01*
X100553000Y-98953000D01*
X100573000Y-98953000D01*
X100573000Y-98933000D01*
X100827000Y-98933000D01*
X100827000Y-98953000D01*
G04 #@! TA.AperFunction,Conductor*
D56*
G36*
X100827000Y-98953000D02*
G01*
X100847000Y-98953000D01*
X100847000Y-99207000D01*
X100827000Y-99207000D01*
X100827000Y-99227000D01*
X100573000Y-99227000D01*
X100573000Y-99207000D01*
X100553000Y-99207000D01*
X100553000Y-98953000D01*
X100573000Y-98953000D01*
X100573000Y-98933000D01*
X100827000Y-98933000D01*
X100827000Y-98953000D01*
G37*
G04 #@! TD.AperFunction*
D55*
X97490663Y-95455879D02*
X97548027Y-95486540D01*
X97610270Y-95505422D01*
X97675000Y-95511797D01*
X97733636Y-95511797D01*
X97677261Y-95580490D01*
X97602493Y-95720372D01*
X97556451Y-95872153D01*
X97544800Y-95990444D01*
X97544800Y-96369555D01*
X97556451Y-96487846D01*
X97602493Y-96639627D01*
X97677261Y-96779509D01*
X97777883Y-96902117D01*
X97900490Y-97002739D01*
X98040372Y-97077507D01*
X98192153Y-97123549D01*
X98350000Y-97139096D01*
X98507846Y-97123549D01*
X98574801Y-97103239D01*
X98574801Y-98078203D01*
X98313963Y-98078203D01*
X98309473Y-98069258D01*
X98232631Y-97970559D01*
X98138012Y-97888748D01*
X98029249Y-97826968D01*
X97910524Y-97787594D01*
X97801750Y-97775000D01*
X97643000Y-97933750D01*
X97643000Y-98583000D01*
X97717000Y-98583000D01*
X97717000Y-98837000D01*
X97643000Y-98837000D01*
X97643000Y-98857000D01*
X97497000Y-98857000D01*
X97497000Y-98837000D01*
X97423000Y-98837000D01*
X97423000Y-98583000D01*
X97497000Y-98583000D01*
X97497000Y-97933750D01*
X97338250Y-97775000D01*
X97229476Y-97787594D01*
X97110751Y-97826968D01*
X97001988Y-97888748D01*
X96907369Y-97970559D01*
X96897226Y-97983587D01*
X96895422Y-97965270D01*
X96876540Y-97903027D01*
X96845879Y-97845663D01*
X96804616Y-97795384D01*
X96754337Y-97754121D01*
X96696973Y-97723460D01*
X96634730Y-97704578D01*
X96570000Y-97698203D01*
X95955200Y-97698203D01*
X95955200Y-96942348D01*
X95957401Y-96919999D01*
X95955200Y-96897650D01*
X95955200Y-96897643D01*
X95948613Y-96830765D01*
X95944687Y-96817824D01*
X96009693Y-96817824D01*
X96131446Y-96793606D01*
X96246136Y-96746100D01*
X96349353Y-96677132D01*
X96437132Y-96589353D01*
X96506100Y-96486136D01*
X96553606Y-96371446D01*
X96577824Y-96249693D01*
X96577824Y-96125555D01*
X96553606Y-96003802D01*
X96536207Y-95961797D01*
X96570000Y-95961797D01*
X96634730Y-95955422D01*
X96696973Y-95936540D01*
X96754337Y-95905879D01*
X96804616Y-95864616D01*
X96845879Y-95814337D01*
X96876540Y-95756973D01*
X96895422Y-95694730D01*
X96901797Y-95630000D01*
X96901797Y-95435200D01*
X97465466Y-95435200D01*
X97490663Y-95455879D01*
G04 #@! TA.AperFunction,Conductor*
D56*
G36*
X97490663Y-95455879D02*
G01*
X97548027Y-95486540D01*
X97610270Y-95505422D01*
X97675000Y-95511797D01*
X97733636Y-95511797D01*
X97677261Y-95580490D01*
X97602493Y-95720372D01*
X97556451Y-95872153D01*
X97544800Y-95990444D01*
X97544800Y-96369555D01*
X97556451Y-96487846D01*
X97602493Y-96639627D01*
X97677261Y-96779509D01*
X97777883Y-96902117D01*
X97900490Y-97002739D01*
X98040372Y-97077507D01*
X98192153Y-97123549D01*
X98350000Y-97139096D01*
X98507846Y-97123549D01*
X98574801Y-97103239D01*
X98574801Y-98078203D01*
X98313963Y-98078203D01*
X98309473Y-98069258D01*
X98232631Y-97970559D01*
X98138012Y-97888748D01*
X98029249Y-97826968D01*
X97910524Y-97787594D01*
X97801750Y-97775000D01*
X97643000Y-97933750D01*
X97643000Y-98583000D01*
X97717000Y-98583000D01*
X97717000Y-98837000D01*
X97643000Y-98837000D01*
X97643000Y-98857000D01*
X97497000Y-98857000D01*
X97497000Y-98837000D01*
X97423000Y-98837000D01*
X97423000Y-98583000D01*
X97497000Y-98583000D01*
X97497000Y-97933750D01*
X97338250Y-97775000D01*
X97229476Y-97787594D01*
X97110751Y-97826968D01*
X97001988Y-97888748D01*
X96907369Y-97970559D01*
X96897226Y-97983587D01*
X96895422Y-97965270D01*
X96876540Y-97903027D01*
X96845879Y-97845663D01*
X96804616Y-97795384D01*
X96754337Y-97754121D01*
X96696973Y-97723460D01*
X96634730Y-97704578D01*
X96570000Y-97698203D01*
X95955200Y-97698203D01*
X95955200Y-96942348D01*
X95957401Y-96919999D01*
X95955200Y-96897650D01*
X95955200Y-96897643D01*
X95948613Y-96830765D01*
X95944687Y-96817824D01*
X96009693Y-96817824D01*
X96131446Y-96793606D01*
X96246136Y-96746100D01*
X96349353Y-96677132D01*
X96437132Y-96589353D01*
X96506100Y-96486136D01*
X96553606Y-96371446D01*
X96577824Y-96249693D01*
X96577824Y-96125555D01*
X96553606Y-96003802D01*
X96536207Y-95961797D01*
X96570000Y-95961797D01*
X96634730Y-95955422D01*
X96696973Y-95936540D01*
X96754337Y-95905879D01*
X96804616Y-95864616D01*
X96845879Y-95814337D01*
X96876540Y-95756973D01*
X96895422Y-95694730D01*
X96901797Y-95630000D01*
X96901797Y-95435200D01*
X97465466Y-95435200D01*
X97490663Y-95455879D01*
G37*
G04 #@! TD.AperFunction*
D55*
X87743203Y-97567000D02*
X87706797Y-97567000D01*
X87706797Y-97273000D01*
X87743203Y-97273000D01*
X87743203Y-97567000D01*
G04 #@! TA.AperFunction,Conductor*
D56*
G36*
X87743203Y-97567000D02*
G01*
X87706797Y-97567000D01*
X87706797Y-97273000D01*
X87743203Y-97273000D01*
X87743203Y-97567000D01*
G37*
G04 #@! TD.AperFunction*
D55*
X93487000Y-95003000D02*
X93507000Y-95003000D01*
X93507000Y-95257000D01*
X93487000Y-95257000D01*
X93487000Y-95277000D01*
X93233000Y-95277000D01*
X93233000Y-95257000D01*
X93213000Y-95257000D01*
X93213000Y-95003000D01*
X93233000Y-95003000D01*
X93233000Y-94983000D01*
X93487000Y-94983000D01*
X93487000Y-95003000D01*
G04 #@! TA.AperFunction,Conductor*
D56*
G36*
X93487000Y-95003000D02*
G01*
X93507000Y-95003000D01*
X93507000Y-95257000D01*
X93487000Y-95257000D01*
X93487000Y-95277000D01*
X93233000Y-95277000D01*
X93233000Y-95257000D01*
X93213000Y-95257000D01*
X93213000Y-95003000D01*
X93233000Y-95003000D01*
X93233000Y-94983000D01*
X93487000Y-94983000D01*
X93487000Y-95003000D01*
G37*
G04 #@! TD.AperFunction*
D55*
X89787000Y-92563000D02*
X89807000Y-92563000D01*
X89807000Y-92817000D01*
X89787000Y-92817000D01*
X89787000Y-92837000D01*
X89533000Y-92837000D01*
X89533000Y-92817000D01*
X89513000Y-92817000D01*
X89513000Y-92563000D01*
X89533000Y-92563000D01*
X89533000Y-92543000D01*
X89787000Y-92543000D01*
X89787000Y-92563000D01*
G04 #@! TA.AperFunction,Conductor*
D56*
G36*
X89787000Y-92563000D02*
G01*
X89807000Y-92563000D01*
X89807000Y-92817000D01*
X89787000Y-92817000D01*
X89787000Y-92837000D01*
X89533000Y-92837000D01*
X89533000Y-92817000D01*
X89513000Y-92817000D01*
X89513000Y-92563000D01*
X89533000Y-92563000D01*
X89533000Y-92543000D01*
X89787000Y-92543000D01*
X89787000Y-92563000D01*
G37*
G04 #@! TD.AperFunction*
D55*
X98477000Y-92307000D02*
X98497000Y-92307000D01*
X98497000Y-92453000D01*
X98477000Y-92453000D01*
X98477000Y-92498203D01*
X98223000Y-92498203D01*
X98223000Y-92453000D01*
X98203000Y-92453000D01*
X98203000Y-92307000D01*
X98223000Y-92307000D01*
X98223000Y-92233000D01*
X98477000Y-92233000D01*
X98477000Y-92307000D01*
G04 #@! TA.AperFunction,Conductor*
D56*
G36*
X98477000Y-92307000D02*
G01*
X98497000Y-92307000D01*
X98497000Y-92453000D01*
X98477000Y-92453000D01*
X98477000Y-92498203D01*
X98223000Y-92498203D01*
X98223000Y-92453000D01*
X98203000Y-92453000D01*
X98203000Y-92307000D01*
X98223000Y-92307000D01*
X98223000Y-92233000D01*
X98477000Y-92233000D01*
X98477000Y-92307000D01*
G37*
G04 #@! TD.AperFunction*
D55*
X92657000Y-90998203D02*
X92363000Y-90998203D01*
X92363000Y-90961797D01*
X92657000Y-90961797D01*
X92657000Y-90998203D01*
G04 #@! TA.AperFunction,Conductor*
D56*
G36*
X92657000Y-90998203D02*
G01*
X92363000Y-90998203D01*
X92363000Y-90961797D01*
X92657000Y-90961797D01*
X92657000Y-90998203D01*
G37*
G04 #@! TD.AperFunction*
D55*
X91562161Y-90464247D02*
X91500853Y-90573275D01*
X91482526Y-90629345D01*
X91414849Y-90584124D01*
X91300159Y-90536618D01*
X91178406Y-90512400D01*
X91054268Y-90512400D01*
X90940160Y-90535097D01*
X90957717Y-90513704D01*
X90999985Y-90434625D01*
X91003876Y-90421797D01*
X91550000Y-90421797D01*
X91603020Y-90416575D01*
X91562161Y-90464247D01*
G04 #@! TA.AperFunction,Conductor*
D56*
G36*
X91562161Y-90464247D02*
G01*
X91500853Y-90573275D01*
X91482526Y-90629345D01*
X91414849Y-90584124D01*
X91300159Y-90536618D01*
X91178406Y-90512400D01*
X91054268Y-90512400D01*
X90940160Y-90535097D01*
X90957717Y-90513704D01*
X90999985Y-90434625D01*
X91003876Y-90421797D01*
X91550000Y-90421797D01*
X91603020Y-90416575D01*
X91562161Y-90464247D01*
G37*
G04 #@! TD.AperFunction*
D55*
X84669500Y-84393000D02*
X85703000Y-84393000D01*
X85703000Y-84373000D01*
X85957000Y-84373000D01*
X85957000Y-84393000D01*
X86990500Y-84393000D01*
X86990500Y-84373000D01*
X87244500Y-84373000D01*
X87244500Y-84393000D01*
X88278000Y-84393000D01*
X88278000Y-84373000D01*
X88532000Y-84373000D01*
X88532000Y-84393000D01*
X88552000Y-84393000D01*
X88552000Y-84647000D01*
X88532000Y-84647000D01*
X88532000Y-85680500D01*
X88552000Y-85680500D01*
X88552000Y-85934500D01*
X88532000Y-85934500D01*
X88532000Y-86968000D01*
X88552000Y-86968000D01*
X88552000Y-87222000D01*
X88532000Y-87222000D01*
X88532000Y-88255500D01*
X88552000Y-88255500D01*
X88552000Y-88509500D01*
X88532000Y-88509500D01*
X88532000Y-88529500D01*
X88278000Y-88529500D01*
X88278000Y-88509500D01*
X87244500Y-88509500D01*
X87244500Y-88529500D01*
X86990500Y-88529500D01*
X86990500Y-88509500D01*
X85957000Y-88509500D01*
X85957000Y-88529500D01*
X85703000Y-88529500D01*
X85703000Y-88509500D01*
X84669500Y-88509500D01*
X84669500Y-88529500D01*
X84415500Y-88529500D01*
X84415500Y-88509500D01*
X84395500Y-88509500D01*
X84395500Y-88255500D01*
X84415500Y-88255500D01*
X84415500Y-87738750D01*
X84548178Y-87738750D01*
X84551250Y-88096750D01*
X84669500Y-88215000D01*
X84669500Y-88255500D01*
X84710000Y-88255500D01*
X84828250Y-88373750D01*
X85186250Y-88376822D01*
X85544250Y-88373750D01*
X85662500Y-88255500D01*
X85703000Y-88255500D01*
X85703000Y-88215000D01*
X85821250Y-88096750D01*
X85824322Y-87738750D01*
X85835678Y-87738750D01*
X85838750Y-88096750D01*
X85957000Y-88215000D01*
X85957000Y-88255500D01*
X85997500Y-88255500D01*
X86115750Y-88373750D01*
X86473750Y-88376822D01*
X86831750Y-88373750D01*
X86950000Y-88255500D01*
X86990500Y-88255500D01*
X86990500Y-88215000D01*
X87108750Y-88096750D01*
X87111822Y-87738750D01*
X87123178Y-87738750D01*
X87126250Y-88096750D01*
X87244500Y-88215000D01*
X87244500Y-88255500D01*
X87285000Y-88255500D01*
X87403250Y-88373750D01*
X87761250Y-88376822D01*
X88119250Y-88373750D01*
X88237500Y-88255500D01*
X88278000Y-88255500D01*
X88278000Y-88215000D01*
X88396250Y-88096750D01*
X88399322Y-87738750D01*
X88396250Y-87380750D01*
X88278000Y-87262500D01*
X88278000Y-87222000D01*
X88237500Y-87222000D01*
X88119250Y-87103750D01*
X87761250Y-87100678D01*
X87403250Y-87103750D01*
X87285000Y-87222000D01*
X87244500Y-87222000D01*
X87244500Y-87262500D01*
X87126250Y-87380750D01*
X87123178Y-87738750D01*
X87111822Y-87738750D01*
X87108750Y-87380750D01*
X86990500Y-87262500D01*
X86990500Y-87222000D01*
X86950000Y-87222000D01*
X86831750Y-87103750D01*
X86473750Y-87100678D01*
X86115750Y-87103750D01*
X85997500Y-87222000D01*
X85957000Y-87222000D01*
X85957000Y-87262500D01*
X85838750Y-87380750D01*
X85835678Y-87738750D01*
X85824322Y-87738750D01*
X85821250Y-87380750D01*
X85703000Y-87262500D01*
X85703000Y-87222000D01*
X85662500Y-87222000D01*
X85544250Y-87103750D01*
X85186250Y-87100678D01*
X84828250Y-87103750D01*
X84710000Y-87222000D01*
X84669500Y-87222000D01*
X84669500Y-87262500D01*
X84551250Y-87380750D01*
X84548178Y-87738750D01*
X84415500Y-87738750D01*
X84415500Y-87222000D01*
X84395500Y-87222000D01*
X84395500Y-86968000D01*
X84415500Y-86968000D01*
X84415500Y-86451250D01*
X84548178Y-86451250D01*
X84551250Y-86809250D01*
X84669500Y-86927500D01*
X84669500Y-86968000D01*
X84710000Y-86968000D01*
X84828250Y-87086250D01*
X85186250Y-87089322D01*
X85544250Y-87086250D01*
X85662500Y-86968000D01*
X85703000Y-86968000D01*
X85703000Y-86927500D01*
X85821250Y-86809250D01*
X85824322Y-86451250D01*
X85835678Y-86451250D01*
X85838750Y-86809250D01*
X85957000Y-86927500D01*
X85957000Y-86968000D01*
X85997500Y-86968000D01*
X86115750Y-87086250D01*
X86473750Y-87089322D01*
X86831750Y-87086250D01*
X86950000Y-86968000D01*
X86990500Y-86968000D01*
X86990500Y-86927500D01*
X87108750Y-86809250D01*
X87111822Y-86451250D01*
X87123178Y-86451250D01*
X87126250Y-86809250D01*
X87244500Y-86927500D01*
X87244500Y-86968000D01*
X87285000Y-86968000D01*
X87403250Y-87086250D01*
X87761250Y-87089322D01*
X88119250Y-87086250D01*
X88237500Y-86968000D01*
X88278000Y-86968000D01*
X88278000Y-86927500D01*
X88396250Y-86809250D01*
X88399322Y-86451250D01*
X88396250Y-86093250D01*
X88278000Y-85975000D01*
X88278000Y-85934500D01*
X88237500Y-85934500D01*
X88119250Y-85816250D01*
X87761250Y-85813178D01*
X87403250Y-85816250D01*
X87285000Y-85934500D01*
X87244500Y-85934500D01*
X87244500Y-85975000D01*
X87126250Y-86093250D01*
X87123178Y-86451250D01*
X87111822Y-86451250D01*
X87108750Y-86093250D01*
X86990500Y-85975000D01*
X86990500Y-85934500D01*
X86950000Y-85934500D01*
X86831750Y-85816250D01*
X86473750Y-85813178D01*
X86115750Y-85816250D01*
X85997500Y-85934500D01*
X85957000Y-85934500D01*
X85957000Y-85975000D01*
X85838750Y-86093250D01*
X85835678Y-86451250D01*
X85824322Y-86451250D01*
X85821250Y-86093250D01*
X85703000Y-85975000D01*
X85703000Y-85934500D01*
X85662500Y-85934500D01*
X85544250Y-85816250D01*
X85186250Y-85813178D01*
X84828250Y-85816250D01*
X84710000Y-85934500D01*
X84669500Y-85934500D01*
X84669500Y-85975000D01*
X84551250Y-86093250D01*
X84548178Y-86451250D01*
X84415500Y-86451250D01*
X84415500Y-85934500D01*
X84395500Y-85934500D01*
X84395500Y-85680500D01*
X84415500Y-85680500D01*
X84415500Y-85163750D01*
X84548178Y-85163750D01*
X84551250Y-85521750D01*
X84669500Y-85640000D01*
X84669500Y-85680500D01*
X84710000Y-85680500D01*
X84828250Y-85798750D01*
X85186250Y-85801822D01*
X85544250Y-85798750D01*
X85662500Y-85680500D01*
X85703000Y-85680500D01*
X85703000Y-85640000D01*
X85821250Y-85521750D01*
X85824322Y-85163750D01*
X85835678Y-85163750D01*
X85838750Y-85521750D01*
X85957000Y-85640000D01*
X85957000Y-85680500D01*
X85997500Y-85680500D01*
X86115750Y-85798750D01*
X86473750Y-85801822D01*
X86831750Y-85798750D01*
X86950000Y-85680500D01*
X86990500Y-85680500D01*
X86990500Y-85640000D01*
X87108750Y-85521750D01*
X87111822Y-85163750D01*
X87123178Y-85163750D01*
X87126250Y-85521750D01*
X87244500Y-85640000D01*
X87244500Y-85680500D01*
X87285000Y-85680500D01*
X87403250Y-85798750D01*
X87761250Y-85801822D01*
X88119250Y-85798750D01*
X88237500Y-85680500D01*
X88278000Y-85680500D01*
X88278000Y-85640000D01*
X88396250Y-85521750D01*
X88399322Y-85163750D01*
X88396250Y-84805750D01*
X88278000Y-84687500D01*
X88278000Y-84647000D01*
X88237500Y-84647000D01*
X88119250Y-84528750D01*
X87761250Y-84525678D01*
X87403250Y-84528750D01*
X87285000Y-84647000D01*
X87244500Y-84647000D01*
X87244500Y-84687500D01*
X87126250Y-84805750D01*
X87123178Y-85163750D01*
X87111822Y-85163750D01*
X87108750Y-84805750D01*
X86990500Y-84687500D01*
X86990500Y-84647000D01*
X86950000Y-84647000D01*
X86831750Y-84528750D01*
X86473750Y-84525678D01*
X86115750Y-84528750D01*
X85997500Y-84647000D01*
X85957000Y-84647000D01*
X85957000Y-84687500D01*
X85838750Y-84805750D01*
X85835678Y-85163750D01*
X85824322Y-85163750D01*
X85821250Y-84805750D01*
X85703000Y-84687500D01*
X85703000Y-84647000D01*
X85662500Y-84647000D01*
X85544250Y-84528750D01*
X85186250Y-84525678D01*
X84828250Y-84528750D01*
X84710000Y-84647000D01*
X84669500Y-84647000D01*
X84669500Y-84687500D01*
X84551250Y-84805750D01*
X84548178Y-85163750D01*
X84415500Y-85163750D01*
X84415500Y-84647000D01*
X84395500Y-84647000D01*
X84395500Y-84393000D01*
X84415500Y-84393000D01*
X84415500Y-84373000D01*
X84669500Y-84373000D01*
X84669500Y-84393000D01*
G04 #@! TA.AperFunction,Conductor*
D56*
G36*
X84669500Y-84393000D02*
G01*
X85703000Y-84393000D01*
X85703000Y-84373000D01*
X85957000Y-84373000D01*
X85957000Y-84393000D01*
X86990500Y-84393000D01*
X86990500Y-84373000D01*
X87244500Y-84373000D01*
X87244500Y-84393000D01*
X88278000Y-84393000D01*
X88278000Y-84373000D01*
X88532000Y-84373000D01*
X88532000Y-84393000D01*
X88552000Y-84393000D01*
X88552000Y-84647000D01*
X88532000Y-84647000D01*
X88532000Y-85680500D01*
X88552000Y-85680500D01*
X88552000Y-85934500D01*
X88532000Y-85934500D01*
X88532000Y-86968000D01*
X88552000Y-86968000D01*
X88552000Y-87222000D01*
X88532000Y-87222000D01*
X88532000Y-88255500D01*
X88552000Y-88255500D01*
X88552000Y-88509500D01*
X88532000Y-88509500D01*
X88532000Y-88529500D01*
X88278000Y-88529500D01*
X88278000Y-88509500D01*
X87244500Y-88509500D01*
X87244500Y-88529500D01*
X86990500Y-88529500D01*
X86990500Y-88509500D01*
X85957000Y-88509500D01*
X85957000Y-88529500D01*
X85703000Y-88529500D01*
X85703000Y-88509500D01*
X84669500Y-88509500D01*
X84669500Y-88529500D01*
X84415500Y-88529500D01*
X84415500Y-88509500D01*
X84395500Y-88509500D01*
X84395500Y-88255500D01*
X84415500Y-88255500D01*
X84415500Y-87738750D01*
X84548178Y-87738750D01*
X84551250Y-88096750D01*
X84669500Y-88215000D01*
X84669500Y-88255500D01*
X84710000Y-88255500D01*
X84828250Y-88373750D01*
X85186250Y-88376822D01*
X85544250Y-88373750D01*
X85662500Y-88255500D01*
X85703000Y-88255500D01*
X85703000Y-88215000D01*
X85821250Y-88096750D01*
X85824322Y-87738750D01*
X85835678Y-87738750D01*
X85838750Y-88096750D01*
X85957000Y-88215000D01*
X85957000Y-88255500D01*
X85997500Y-88255500D01*
X86115750Y-88373750D01*
X86473750Y-88376822D01*
X86831750Y-88373750D01*
X86950000Y-88255500D01*
X86990500Y-88255500D01*
X86990500Y-88215000D01*
X87108750Y-88096750D01*
X87111822Y-87738750D01*
X87123178Y-87738750D01*
X87126250Y-88096750D01*
X87244500Y-88215000D01*
X87244500Y-88255500D01*
X87285000Y-88255500D01*
X87403250Y-88373750D01*
X87761250Y-88376822D01*
X88119250Y-88373750D01*
X88237500Y-88255500D01*
X88278000Y-88255500D01*
X88278000Y-88215000D01*
X88396250Y-88096750D01*
X88399322Y-87738750D01*
X88396250Y-87380750D01*
X88278000Y-87262500D01*
X88278000Y-87222000D01*
X88237500Y-87222000D01*
X88119250Y-87103750D01*
X87761250Y-87100678D01*
X87403250Y-87103750D01*
X87285000Y-87222000D01*
X87244500Y-87222000D01*
X87244500Y-87262500D01*
X87126250Y-87380750D01*
X87123178Y-87738750D01*
X87111822Y-87738750D01*
X87108750Y-87380750D01*
X86990500Y-87262500D01*
X86990500Y-87222000D01*
X86950000Y-87222000D01*
X86831750Y-87103750D01*
X86473750Y-87100678D01*
X86115750Y-87103750D01*
X85997500Y-87222000D01*
X85957000Y-87222000D01*
X85957000Y-87262500D01*
X85838750Y-87380750D01*
X85835678Y-87738750D01*
X85824322Y-87738750D01*
X85821250Y-87380750D01*
X85703000Y-87262500D01*
X85703000Y-87222000D01*
X85662500Y-87222000D01*
X85544250Y-87103750D01*
X85186250Y-87100678D01*
X84828250Y-87103750D01*
X84710000Y-87222000D01*
X84669500Y-87222000D01*
X84669500Y-87262500D01*
X84551250Y-87380750D01*
X84548178Y-87738750D01*
X84415500Y-87738750D01*
X84415500Y-87222000D01*
X84395500Y-87222000D01*
X84395500Y-86968000D01*
X84415500Y-86968000D01*
X84415500Y-86451250D01*
X84548178Y-86451250D01*
X84551250Y-86809250D01*
X84669500Y-86927500D01*
X84669500Y-86968000D01*
X84710000Y-86968000D01*
X84828250Y-87086250D01*
X85186250Y-87089322D01*
X85544250Y-87086250D01*
X85662500Y-86968000D01*
X85703000Y-86968000D01*
X85703000Y-86927500D01*
X85821250Y-86809250D01*
X85824322Y-86451250D01*
X85835678Y-86451250D01*
X85838750Y-86809250D01*
X85957000Y-86927500D01*
X85957000Y-86968000D01*
X85997500Y-86968000D01*
X86115750Y-87086250D01*
X86473750Y-87089322D01*
X86831750Y-87086250D01*
X86950000Y-86968000D01*
X86990500Y-86968000D01*
X86990500Y-86927500D01*
X87108750Y-86809250D01*
X87111822Y-86451250D01*
X87123178Y-86451250D01*
X87126250Y-86809250D01*
X87244500Y-86927500D01*
X87244500Y-86968000D01*
X87285000Y-86968000D01*
X87403250Y-87086250D01*
X87761250Y-87089322D01*
X88119250Y-87086250D01*
X88237500Y-86968000D01*
X88278000Y-86968000D01*
X88278000Y-86927500D01*
X88396250Y-86809250D01*
X88399322Y-86451250D01*
X88396250Y-86093250D01*
X88278000Y-85975000D01*
X88278000Y-85934500D01*
X88237500Y-85934500D01*
X88119250Y-85816250D01*
X87761250Y-85813178D01*
X87403250Y-85816250D01*
X87285000Y-85934500D01*
X87244500Y-85934500D01*
X87244500Y-85975000D01*
X87126250Y-86093250D01*
X87123178Y-86451250D01*
X87111822Y-86451250D01*
X87108750Y-86093250D01*
X86990500Y-85975000D01*
X86990500Y-85934500D01*
X86950000Y-85934500D01*
X86831750Y-85816250D01*
X86473750Y-85813178D01*
X86115750Y-85816250D01*
X85997500Y-85934500D01*
X85957000Y-85934500D01*
X85957000Y-85975000D01*
X85838750Y-86093250D01*
X85835678Y-86451250D01*
X85824322Y-86451250D01*
X85821250Y-86093250D01*
X85703000Y-85975000D01*
X85703000Y-85934500D01*
X85662500Y-85934500D01*
X85544250Y-85816250D01*
X85186250Y-85813178D01*
X84828250Y-85816250D01*
X84710000Y-85934500D01*
X84669500Y-85934500D01*
X84669500Y-85975000D01*
X84551250Y-86093250D01*
X84548178Y-86451250D01*
X84415500Y-86451250D01*
X84415500Y-85934500D01*
X84395500Y-85934500D01*
X84395500Y-85680500D01*
X84415500Y-85680500D01*
X84415500Y-85163750D01*
X84548178Y-85163750D01*
X84551250Y-85521750D01*
X84669500Y-85640000D01*
X84669500Y-85680500D01*
X84710000Y-85680500D01*
X84828250Y-85798750D01*
X85186250Y-85801822D01*
X85544250Y-85798750D01*
X85662500Y-85680500D01*
X85703000Y-85680500D01*
X85703000Y-85640000D01*
X85821250Y-85521750D01*
X85824322Y-85163750D01*
X85835678Y-85163750D01*
X85838750Y-85521750D01*
X85957000Y-85640000D01*
X85957000Y-85680500D01*
X85997500Y-85680500D01*
X86115750Y-85798750D01*
X86473750Y-85801822D01*
X86831750Y-85798750D01*
X86950000Y-85680500D01*
X86990500Y-85680500D01*
X86990500Y-85640000D01*
X87108750Y-85521750D01*
X87111822Y-85163750D01*
X87123178Y-85163750D01*
X87126250Y-85521750D01*
X87244500Y-85640000D01*
X87244500Y-85680500D01*
X87285000Y-85680500D01*
X87403250Y-85798750D01*
X87761250Y-85801822D01*
X88119250Y-85798750D01*
X88237500Y-85680500D01*
X88278000Y-85680500D01*
X88278000Y-85640000D01*
X88396250Y-85521750D01*
X88399322Y-85163750D01*
X88396250Y-84805750D01*
X88278000Y-84687500D01*
X88278000Y-84647000D01*
X88237500Y-84647000D01*
X88119250Y-84528750D01*
X87761250Y-84525678D01*
X87403250Y-84528750D01*
X87285000Y-84647000D01*
X87244500Y-84647000D01*
X87244500Y-84687500D01*
X87126250Y-84805750D01*
X87123178Y-85163750D01*
X87111822Y-85163750D01*
X87108750Y-84805750D01*
X86990500Y-84687500D01*
X86990500Y-84647000D01*
X86950000Y-84647000D01*
X86831750Y-84528750D01*
X86473750Y-84525678D01*
X86115750Y-84528750D01*
X85997500Y-84647000D01*
X85957000Y-84647000D01*
X85957000Y-84687500D01*
X85838750Y-84805750D01*
X85835678Y-85163750D01*
X85824322Y-85163750D01*
X85821250Y-84805750D01*
X85703000Y-84687500D01*
X85703000Y-84647000D01*
X85662500Y-84647000D01*
X85544250Y-84528750D01*
X85186250Y-84525678D01*
X84828250Y-84528750D01*
X84710000Y-84647000D01*
X84669500Y-84647000D01*
X84669500Y-84687500D01*
X84551250Y-84805750D01*
X84548178Y-85163750D01*
X84415500Y-85163750D01*
X84415500Y-84647000D01*
X84395500Y-84647000D01*
X84395500Y-84393000D01*
X84415500Y-84393000D01*
X84415500Y-84373000D01*
X84669500Y-84373000D01*
X84669500Y-84393000D01*
G37*
G04 #@! TD.AperFunction*
D55*
X89898750Y-79307000D02*
X90044800Y-79307000D01*
X90044800Y-79553000D01*
X89898750Y-79553000D01*
X89740000Y-79711750D01*
X89751896Y-79817397D01*
X89790674Y-79936318D01*
X89851907Y-80045389D01*
X89933242Y-80140419D01*
X90031553Y-80217755D01*
X90143063Y-80274425D01*
X90263486Y-80308252D01*
X90388195Y-80317936D01*
X90539250Y-80315000D01*
X90698000Y-80156250D01*
X90698000Y-80010200D01*
X90952000Y-80010200D01*
X90952000Y-80156250D01*
X91110750Y-80315000D01*
X91261805Y-80317936D01*
X91386514Y-80308252D01*
X91506937Y-80274425D01*
X91618447Y-80217755D01*
X91716758Y-80140419D01*
X91798093Y-80045389D01*
X91859326Y-79936318D01*
X91898104Y-79817397D01*
X91910000Y-79711750D01*
X91751250Y-79553000D01*
X91605200Y-79553000D01*
X91605200Y-79307000D01*
X91751250Y-79307000D01*
X91901250Y-79157000D01*
X96110024Y-79157000D01*
X96081196Y-79261643D01*
X96075000Y-79384250D01*
X96233750Y-79543000D01*
X96837000Y-79543000D01*
X96837000Y-79523000D01*
X96983000Y-79523000D01*
X96983000Y-79543000D01*
X97057000Y-79543000D01*
X97057000Y-79797000D01*
X96983000Y-79797000D01*
X96983000Y-79817000D01*
X96837000Y-79817000D01*
X96837000Y-79797000D01*
X96233750Y-79797000D01*
X96075000Y-79955750D01*
X96081196Y-80078357D01*
X96104570Y-80163203D01*
X95430000Y-80163203D01*
X95365270Y-80169578D01*
X95303027Y-80188460D01*
X95245663Y-80219121D01*
X95195384Y-80260384D01*
X95154121Y-80310663D01*
X95123460Y-80368027D01*
X95104578Y-80430270D01*
X95098203Y-80495000D01*
X95098203Y-82595000D01*
X95104578Y-82659730D01*
X95123460Y-82721973D01*
X95154121Y-82779337D01*
X95195384Y-82829616D01*
X95245663Y-82870879D01*
X95303027Y-82901540D01*
X95365270Y-82920422D01*
X95430000Y-82926797D01*
X98330000Y-82926797D01*
X98394730Y-82920422D01*
X98456973Y-82901540D01*
X98514337Y-82870879D01*
X98564616Y-82829616D01*
X98605879Y-82779337D01*
X98636540Y-82721973D01*
X98655422Y-82659730D01*
X98661797Y-82595000D01*
X98661797Y-80495000D01*
X98655422Y-80430270D01*
X98636540Y-80368027D01*
X98605879Y-80310663D01*
X98564616Y-80260384D01*
X98514337Y-80219121D01*
X98456973Y-80188460D01*
X98394730Y-80169578D01*
X98330000Y-80163203D01*
X98278603Y-80163203D01*
X98285879Y-80154337D01*
X98302514Y-80123215D01*
X98349235Y-80118613D01*
X98435040Y-80092584D01*
X98514119Y-80050316D01*
X98583432Y-79993432D01*
X98597688Y-79976061D01*
X98639800Y-79933949D01*
X98639800Y-80001918D01*
X98667861Y-80142991D01*
X98722905Y-80275879D01*
X98802817Y-80395475D01*
X98904525Y-80497183D01*
X99024121Y-80577095D01*
X99157009Y-80632139D01*
X99298082Y-80660200D01*
X99395748Y-80660200D01*
X99381524Y-80681488D01*
X99334018Y-80796178D01*
X99309800Y-80917931D01*
X99309800Y-81042069D01*
X99334018Y-81163822D01*
X99381524Y-81278512D01*
X99450492Y-81381729D01*
X99484800Y-81416037D01*
X99484801Y-81698203D01*
X99270000Y-81698203D01*
X99205270Y-81704578D01*
X99143027Y-81723460D01*
X99085663Y-81754121D01*
X99035384Y-81795384D01*
X98994121Y-81845663D01*
X98963460Y-81903027D01*
X98944578Y-81965270D01*
X98938203Y-82030000D01*
X98938203Y-83207064D01*
X98814420Y-83217483D01*
X98694219Y-83252089D01*
X98583078Y-83309481D01*
X98485269Y-83387452D01*
X98404551Y-83483006D01*
X98344026Y-83592472D01*
X98306020Y-83711642D01*
X98295000Y-83813250D01*
X98453750Y-83972000D01*
X99603000Y-83972000D01*
X99603000Y-83948000D01*
X99857000Y-83948000D01*
X99857000Y-83972000D01*
X99877000Y-83972000D01*
X99877000Y-84218000D01*
X99857000Y-84218000D01*
X99857000Y-84242000D01*
X99603000Y-84242000D01*
X99603000Y-84218000D01*
X98453750Y-84218000D01*
X98295000Y-84376750D01*
X98306020Y-84478358D01*
X98344026Y-84597528D01*
X98404551Y-84706994D01*
X98485269Y-84802548D01*
X98583078Y-84880519D01*
X98651381Y-84915790D01*
X98623460Y-84968027D01*
X98604578Y-85030270D01*
X98598203Y-85095000D01*
X98598203Y-85595000D01*
X98604578Y-85659730D01*
X98623460Y-85721973D01*
X98654121Y-85779337D01*
X98695384Y-85829616D01*
X98745663Y-85870879D01*
X98803027Y-85901540D01*
X98865270Y-85920422D01*
X98930000Y-85926797D01*
X99972020Y-85926797D01*
X99972020Y-85942069D01*
X99996238Y-86063822D01*
X100043744Y-86178512D01*
X100112712Y-86281729D01*
X100200491Y-86369508D01*
X100303708Y-86438476D01*
X100418398Y-86485982D01*
X100540151Y-86510200D01*
X100664289Y-86510200D01*
X100786042Y-86485982D01*
X100900732Y-86438476D01*
X101003949Y-86369508D01*
X101008203Y-86365254D01*
X101008203Y-86780000D01*
X101014578Y-86844730D01*
X101033460Y-86906973D01*
X101064121Y-86964337D01*
X101105384Y-87014616D01*
X101155663Y-87055879D01*
X101213027Y-87086540D01*
X101275270Y-87105422D01*
X101316338Y-87109467D01*
X101314578Y-87115270D01*
X101308203Y-87180000D01*
X101308203Y-87580000D01*
X101314578Y-87644730D01*
X101333460Y-87706973D01*
X101364121Y-87764337D01*
X101405384Y-87814616D01*
X101424129Y-87830000D01*
X101405384Y-87845384D01*
X101364121Y-87895663D01*
X101333460Y-87953027D01*
X101314578Y-88015270D01*
X101308203Y-88080000D01*
X101308203Y-88151570D01*
X101302192Y-88149080D01*
X101180439Y-88124862D01*
X101056301Y-88124862D01*
X101031797Y-88129736D01*
X101031797Y-88080000D01*
X101025422Y-88015270D01*
X101006540Y-87953027D01*
X100975879Y-87895663D01*
X100934616Y-87845384D01*
X100915871Y-87830000D01*
X100934616Y-87814616D01*
X100975879Y-87764337D01*
X101006540Y-87706973D01*
X101025422Y-87644730D01*
X101031797Y-87580000D01*
X101031797Y-87180000D01*
X101025422Y-87115270D01*
X101006540Y-87053027D01*
X100975879Y-86995663D01*
X100934616Y-86945384D01*
X100884337Y-86904121D01*
X100826973Y-86873460D01*
X100764730Y-86854578D01*
X100700000Y-86848203D01*
X100341823Y-86848203D01*
X100321252Y-86811988D01*
X100239441Y-86717369D01*
X100140742Y-86640527D01*
X100028949Y-86584418D01*
X99908357Y-86551196D01*
X99785750Y-86545000D01*
X99627000Y-86703750D01*
X99627000Y-87307000D01*
X99647000Y-87307000D01*
X99647000Y-87453000D01*
X99627000Y-87453000D01*
X99627000Y-87509250D01*
X99609250Y-87527000D01*
X99373000Y-87527000D01*
X99373000Y-87453000D01*
X99353000Y-87453000D01*
X99353000Y-87307000D01*
X99373000Y-87307000D01*
X99373000Y-86703750D01*
X99214250Y-86545000D01*
X99091643Y-86551196D01*
X98971051Y-86584418D01*
X98859258Y-86640527D01*
X98760559Y-86717369D01*
X98678748Y-86811988D01*
X98661797Y-86841830D01*
X98661797Y-86827000D01*
X98655422Y-86762270D01*
X98636540Y-86700027D01*
X98605879Y-86642663D01*
X98564616Y-86592384D01*
X98514337Y-86551121D01*
X98456973Y-86520460D01*
X98394730Y-86501578D01*
X98330000Y-86495203D01*
X95430000Y-86495203D01*
X95365270Y-86501578D01*
X95303027Y-86520460D01*
X95245663Y-86551121D01*
X95195384Y-86592384D01*
X95154121Y-86642663D01*
X95123460Y-86700027D01*
X95104578Y-86762270D01*
X95098203Y-86827000D01*
X95098203Y-88252864D01*
X94449456Y-87601131D01*
X94435669Y-87584331D01*
X94403109Y-87557609D01*
X94396456Y-87552124D01*
X93922673Y-87078343D01*
X93909196Y-87061921D01*
X93843689Y-87008161D01*
X93768954Y-86968214D01*
X93687861Y-86943615D01*
X93624656Y-86937390D01*
X93624654Y-86937390D01*
X93603527Y-86935309D01*
X93582400Y-86937390D01*
X92004824Y-86937390D01*
X92020491Y-86899567D01*
X92044709Y-86777814D01*
X92044709Y-86653676D01*
X92020491Y-86531923D01*
X91972985Y-86417233D01*
X91904017Y-86314016D01*
X91816238Y-86226237D01*
X91713021Y-86157269D01*
X91598331Y-86109763D01*
X91580200Y-86106157D01*
X91580200Y-86061781D01*
X91555982Y-85940028D01*
X91508476Y-85825338D01*
X91439508Y-85722121D01*
X91351729Y-85634342D01*
X91335200Y-85623298D01*
X91335200Y-85255534D01*
X91337402Y-85233178D01*
X91335200Y-85210821D01*
X91335200Y-83378084D01*
X91337401Y-83355735D01*
X91335200Y-83333386D01*
X91335200Y-83333379D01*
X91328613Y-83266501D01*
X91302584Y-83180696D01*
X91260316Y-83101617D01*
X91203432Y-83032304D01*
X91186066Y-83018052D01*
X91054464Y-82886450D01*
X91054464Y-82837931D01*
X91030246Y-82716178D01*
X90982740Y-82601488D01*
X90913772Y-82498271D01*
X90825993Y-82410492D01*
X90722776Y-82341524D01*
X90608086Y-82294018D01*
X90486333Y-82269800D01*
X90362195Y-82269800D01*
X90240442Y-82294018D01*
X90125752Y-82341524D01*
X90022535Y-82410492D01*
X89988227Y-82444800D01*
X89556761Y-82444800D01*
X89533087Y-82425371D01*
X89475723Y-82394710D01*
X89413480Y-82375828D01*
X89348750Y-82369453D01*
X89292797Y-82369453D01*
X89296805Y-82356239D01*
X89305200Y-82271001D01*
X89305200Y-82270991D01*
X89308006Y-82242500D01*
X89305200Y-82214009D01*
X89305200Y-79696215D01*
X89306797Y-79680000D01*
X89306797Y-79180000D01*
X89305200Y-79163785D01*
X89305200Y-79157000D01*
X89748750Y-79157000D01*
X89898750Y-79307000D01*
G04 #@! TA.AperFunction,Conductor*
D56*
G36*
X89898750Y-79307000D02*
G01*
X90044800Y-79307000D01*
X90044800Y-79553000D01*
X89898750Y-79553000D01*
X89740000Y-79711750D01*
X89751896Y-79817397D01*
X89790674Y-79936318D01*
X89851907Y-80045389D01*
X89933242Y-80140419D01*
X90031553Y-80217755D01*
X90143063Y-80274425D01*
X90263486Y-80308252D01*
X90388195Y-80317936D01*
X90539250Y-80315000D01*
X90698000Y-80156250D01*
X90698000Y-80010200D01*
X90952000Y-80010200D01*
X90952000Y-80156250D01*
X91110750Y-80315000D01*
X91261805Y-80317936D01*
X91386514Y-80308252D01*
X91506937Y-80274425D01*
X91618447Y-80217755D01*
X91716758Y-80140419D01*
X91798093Y-80045389D01*
X91859326Y-79936318D01*
X91898104Y-79817397D01*
X91910000Y-79711750D01*
X91751250Y-79553000D01*
X91605200Y-79553000D01*
X91605200Y-79307000D01*
X91751250Y-79307000D01*
X91901250Y-79157000D01*
X96110024Y-79157000D01*
X96081196Y-79261643D01*
X96075000Y-79384250D01*
X96233750Y-79543000D01*
X96837000Y-79543000D01*
X96837000Y-79523000D01*
X96983000Y-79523000D01*
X96983000Y-79543000D01*
X97057000Y-79543000D01*
X97057000Y-79797000D01*
X96983000Y-79797000D01*
X96983000Y-79817000D01*
X96837000Y-79817000D01*
X96837000Y-79797000D01*
X96233750Y-79797000D01*
X96075000Y-79955750D01*
X96081196Y-80078357D01*
X96104570Y-80163203D01*
X95430000Y-80163203D01*
X95365270Y-80169578D01*
X95303027Y-80188460D01*
X95245663Y-80219121D01*
X95195384Y-80260384D01*
X95154121Y-80310663D01*
X95123460Y-80368027D01*
X95104578Y-80430270D01*
X95098203Y-80495000D01*
X95098203Y-82595000D01*
X95104578Y-82659730D01*
X95123460Y-82721973D01*
X95154121Y-82779337D01*
X95195384Y-82829616D01*
X95245663Y-82870879D01*
X95303027Y-82901540D01*
X95365270Y-82920422D01*
X95430000Y-82926797D01*
X98330000Y-82926797D01*
X98394730Y-82920422D01*
X98456973Y-82901540D01*
X98514337Y-82870879D01*
X98564616Y-82829616D01*
X98605879Y-82779337D01*
X98636540Y-82721973D01*
X98655422Y-82659730D01*
X98661797Y-82595000D01*
X98661797Y-80495000D01*
X98655422Y-80430270D01*
X98636540Y-80368027D01*
X98605879Y-80310663D01*
X98564616Y-80260384D01*
X98514337Y-80219121D01*
X98456973Y-80188460D01*
X98394730Y-80169578D01*
X98330000Y-80163203D01*
X98278603Y-80163203D01*
X98285879Y-80154337D01*
X98302514Y-80123215D01*
X98349235Y-80118613D01*
X98435040Y-80092584D01*
X98514119Y-80050316D01*
X98583432Y-79993432D01*
X98597688Y-79976061D01*
X98639800Y-79933949D01*
X98639800Y-80001918D01*
X98667861Y-80142991D01*
X98722905Y-80275879D01*
X98802817Y-80395475D01*
X98904525Y-80497183D01*
X99024121Y-80577095D01*
X99157009Y-80632139D01*
X99298082Y-80660200D01*
X99395748Y-80660200D01*
X99381524Y-80681488D01*
X99334018Y-80796178D01*
X99309800Y-80917931D01*
X99309800Y-81042069D01*
X99334018Y-81163822D01*
X99381524Y-81278512D01*
X99450492Y-81381729D01*
X99484800Y-81416037D01*
X99484801Y-81698203D01*
X99270000Y-81698203D01*
X99205270Y-81704578D01*
X99143027Y-81723460D01*
X99085663Y-81754121D01*
X99035384Y-81795384D01*
X98994121Y-81845663D01*
X98963460Y-81903027D01*
X98944578Y-81965270D01*
X98938203Y-82030000D01*
X98938203Y-83207064D01*
X98814420Y-83217483D01*
X98694219Y-83252089D01*
X98583078Y-83309481D01*
X98485269Y-83387452D01*
X98404551Y-83483006D01*
X98344026Y-83592472D01*
X98306020Y-83711642D01*
X98295000Y-83813250D01*
X98453750Y-83972000D01*
X99603000Y-83972000D01*
X99603000Y-83948000D01*
X99857000Y-83948000D01*
X99857000Y-83972000D01*
X99877000Y-83972000D01*
X99877000Y-84218000D01*
X99857000Y-84218000D01*
X99857000Y-84242000D01*
X99603000Y-84242000D01*
X99603000Y-84218000D01*
X98453750Y-84218000D01*
X98295000Y-84376750D01*
X98306020Y-84478358D01*
X98344026Y-84597528D01*
X98404551Y-84706994D01*
X98485269Y-84802548D01*
X98583078Y-84880519D01*
X98651381Y-84915790D01*
X98623460Y-84968027D01*
X98604578Y-85030270D01*
X98598203Y-85095000D01*
X98598203Y-85595000D01*
X98604578Y-85659730D01*
X98623460Y-85721973D01*
X98654121Y-85779337D01*
X98695384Y-85829616D01*
X98745663Y-85870879D01*
X98803027Y-85901540D01*
X98865270Y-85920422D01*
X98930000Y-85926797D01*
X99972020Y-85926797D01*
X99972020Y-85942069D01*
X99996238Y-86063822D01*
X100043744Y-86178512D01*
X100112712Y-86281729D01*
X100200491Y-86369508D01*
X100303708Y-86438476D01*
X100418398Y-86485982D01*
X100540151Y-86510200D01*
X100664289Y-86510200D01*
X100786042Y-86485982D01*
X100900732Y-86438476D01*
X101003949Y-86369508D01*
X101008203Y-86365254D01*
X101008203Y-86780000D01*
X101014578Y-86844730D01*
X101033460Y-86906973D01*
X101064121Y-86964337D01*
X101105384Y-87014616D01*
X101155663Y-87055879D01*
X101213027Y-87086540D01*
X101275270Y-87105422D01*
X101316338Y-87109467D01*
X101314578Y-87115270D01*
X101308203Y-87180000D01*
X101308203Y-87580000D01*
X101314578Y-87644730D01*
X101333460Y-87706973D01*
X101364121Y-87764337D01*
X101405384Y-87814616D01*
X101424129Y-87830000D01*
X101405384Y-87845384D01*
X101364121Y-87895663D01*
X101333460Y-87953027D01*
X101314578Y-88015270D01*
X101308203Y-88080000D01*
X101308203Y-88151570D01*
X101302192Y-88149080D01*
X101180439Y-88124862D01*
X101056301Y-88124862D01*
X101031797Y-88129736D01*
X101031797Y-88080000D01*
X101025422Y-88015270D01*
X101006540Y-87953027D01*
X100975879Y-87895663D01*
X100934616Y-87845384D01*
X100915871Y-87830000D01*
X100934616Y-87814616D01*
X100975879Y-87764337D01*
X101006540Y-87706973D01*
X101025422Y-87644730D01*
X101031797Y-87580000D01*
X101031797Y-87180000D01*
X101025422Y-87115270D01*
X101006540Y-87053027D01*
X100975879Y-86995663D01*
X100934616Y-86945384D01*
X100884337Y-86904121D01*
X100826973Y-86873460D01*
X100764730Y-86854578D01*
X100700000Y-86848203D01*
X100341823Y-86848203D01*
X100321252Y-86811988D01*
X100239441Y-86717369D01*
X100140742Y-86640527D01*
X100028949Y-86584418D01*
X99908357Y-86551196D01*
X99785750Y-86545000D01*
X99627000Y-86703750D01*
X99627000Y-87307000D01*
X99647000Y-87307000D01*
X99647000Y-87453000D01*
X99627000Y-87453000D01*
X99627000Y-87509250D01*
X99609250Y-87527000D01*
X99373000Y-87527000D01*
X99373000Y-87453000D01*
X99353000Y-87453000D01*
X99353000Y-87307000D01*
X99373000Y-87307000D01*
X99373000Y-86703750D01*
X99214250Y-86545000D01*
X99091643Y-86551196D01*
X98971051Y-86584418D01*
X98859258Y-86640527D01*
X98760559Y-86717369D01*
X98678748Y-86811988D01*
X98661797Y-86841830D01*
X98661797Y-86827000D01*
X98655422Y-86762270D01*
X98636540Y-86700027D01*
X98605879Y-86642663D01*
X98564616Y-86592384D01*
X98514337Y-86551121D01*
X98456973Y-86520460D01*
X98394730Y-86501578D01*
X98330000Y-86495203D01*
X95430000Y-86495203D01*
X95365270Y-86501578D01*
X95303027Y-86520460D01*
X95245663Y-86551121D01*
X95195384Y-86592384D01*
X95154121Y-86642663D01*
X95123460Y-86700027D01*
X95104578Y-86762270D01*
X95098203Y-86827000D01*
X95098203Y-88252864D01*
X94449456Y-87601131D01*
X94435669Y-87584331D01*
X94403109Y-87557609D01*
X94396456Y-87552124D01*
X93922673Y-87078343D01*
X93909196Y-87061921D01*
X93843689Y-87008161D01*
X93768954Y-86968214D01*
X93687861Y-86943615D01*
X93624656Y-86937390D01*
X93624654Y-86937390D01*
X93603527Y-86935309D01*
X93582400Y-86937390D01*
X92004824Y-86937390D01*
X92020491Y-86899567D01*
X92044709Y-86777814D01*
X92044709Y-86653676D01*
X92020491Y-86531923D01*
X91972985Y-86417233D01*
X91904017Y-86314016D01*
X91816238Y-86226237D01*
X91713021Y-86157269D01*
X91598331Y-86109763D01*
X91580200Y-86106157D01*
X91580200Y-86061781D01*
X91555982Y-85940028D01*
X91508476Y-85825338D01*
X91439508Y-85722121D01*
X91351729Y-85634342D01*
X91335200Y-85623298D01*
X91335200Y-85255534D01*
X91337402Y-85233178D01*
X91335200Y-85210821D01*
X91335200Y-83378084D01*
X91337401Y-83355735D01*
X91335200Y-83333386D01*
X91335200Y-83333379D01*
X91328613Y-83266501D01*
X91302584Y-83180696D01*
X91260316Y-83101617D01*
X91203432Y-83032304D01*
X91186066Y-83018052D01*
X91054464Y-82886450D01*
X91054464Y-82837931D01*
X91030246Y-82716178D01*
X90982740Y-82601488D01*
X90913772Y-82498271D01*
X90825993Y-82410492D01*
X90722776Y-82341524D01*
X90608086Y-82294018D01*
X90486333Y-82269800D01*
X90362195Y-82269800D01*
X90240442Y-82294018D01*
X90125752Y-82341524D01*
X90022535Y-82410492D01*
X89988227Y-82444800D01*
X89556761Y-82444800D01*
X89533087Y-82425371D01*
X89475723Y-82394710D01*
X89413480Y-82375828D01*
X89348750Y-82369453D01*
X89292797Y-82369453D01*
X89296805Y-82356239D01*
X89305200Y-82271001D01*
X89305200Y-82270991D01*
X89308006Y-82242500D01*
X89305200Y-82214009D01*
X89305200Y-79696215D01*
X89306797Y-79680000D01*
X89306797Y-79180000D01*
X89305200Y-79163785D01*
X89305200Y-79157000D01*
X89748750Y-79157000D01*
X89898750Y-79307000D01*
G37*
G04 #@! TD.AperFunction*
D55*
X83200750Y-87744453D02*
X82946750Y-87744453D01*
X82946750Y-87658047D01*
X83200750Y-87658047D01*
X83200750Y-87744453D01*
G04 #@! TA.AperFunction,Conductor*
D56*
G36*
X83200750Y-87744453D02*
G01*
X82946750Y-87744453D01*
X82946750Y-87658047D01*
X83200750Y-87658047D01*
X83200750Y-87744453D01*
G37*
G04 #@! TD.AperFunction*
D55*
X81914268Y-81070059D02*
X81922146Y-81073322D01*
X81918830Y-81084253D01*
X81910042Y-81173487D01*
X81912244Y-81195846D01*
X81912244Y-82238506D01*
X81802000Y-82348750D01*
X81802000Y-83473000D01*
X81822000Y-83473000D01*
X81822000Y-83727000D01*
X81802000Y-83727000D01*
X81802000Y-83747000D01*
X81548000Y-83747000D01*
X81548000Y-83727000D01*
X81528000Y-83727000D01*
X81528000Y-83473000D01*
X81548000Y-83473000D01*
X81548000Y-82348750D01*
X81389250Y-82190000D01*
X81375000Y-82186928D01*
X81250518Y-82199188D01*
X81130820Y-82235498D01*
X81031661Y-82288501D01*
X81045000Y-82176750D01*
X80886250Y-82018000D01*
X80283000Y-82018000D01*
X80283000Y-82117000D01*
X80216797Y-82117000D01*
X80216797Y-81976797D01*
X80410000Y-81976797D01*
X80474730Y-81970422D01*
X80536973Y-81951540D01*
X80592240Y-81922000D01*
X80886250Y-81922000D01*
X80931850Y-81876400D01*
X80984946Y-81876400D01*
X81004899Y-81878365D01*
X81024852Y-81876400D01*
X81024859Y-81876400D01*
X81084567Y-81870519D01*
X81161174Y-81847281D01*
X81186514Y-81833737D01*
X81205514Y-81837516D01*
X81329652Y-81837516D01*
X81451405Y-81813298D01*
X81566095Y-81765792D01*
X81669312Y-81696824D01*
X81757091Y-81609045D01*
X81826059Y-81505828D01*
X81873565Y-81391138D01*
X81897783Y-81269385D01*
X81897783Y-81145247D01*
X81878008Y-81045831D01*
X81914268Y-81070059D01*
G04 #@! TA.AperFunction,Conductor*
D56*
G36*
X81914268Y-81070059D02*
G01*
X81922146Y-81073322D01*
X81918830Y-81084253D01*
X81910042Y-81173487D01*
X81912244Y-81195846D01*
X81912244Y-82238506D01*
X81802000Y-82348750D01*
X81802000Y-83473000D01*
X81822000Y-83473000D01*
X81822000Y-83727000D01*
X81802000Y-83727000D01*
X81802000Y-83747000D01*
X81548000Y-83747000D01*
X81548000Y-83727000D01*
X81528000Y-83727000D01*
X81528000Y-83473000D01*
X81548000Y-83473000D01*
X81548000Y-82348750D01*
X81389250Y-82190000D01*
X81375000Y-82186928D01*
X81250518Y-82199188D01*
X81130820Y-82235498D01*
X81031661Y-82288501D01*
X81045000Y-82176750D01*
X80886250Y-82018000D01*
X80283000Y-82018000D01*
X80283000Y-82117000D01*
X80216797Y-82117000D01*
X80216797Y-81976797D01*
X80410000Y-81976797D01*
X80474730Y-81970422D01*
X80536973Y-81951540D01*
X80592240Y-81922000D01*
X80886250Y-81922000D01*
X80931850Y-81876400D01*
X80984946Y-81876400D01*
X81004899Y-81878365D01*
X81024852Y-81876400D01*
X81024859Y-81876400D01*
X81084567Y-81870519D01*
X81161174Y-81847281D01*
X81186514Y-81833737D01*
X81205514Y-81837516D01*
X81329652Y-81837516D01*
X81451405Y-81813298D01*
X81566095Y-81765792D01*
X81669312Y-81696824D01*
X81757091Y-81609045D01*
X81826059Y-81505828D01*
X81873565Y-81391138D01*
X81897783Y-81269385D01*
X81897783Y-81145247D01*
X81878008Y-81045831D01*
X81914268Y-81070059D01*
G37*
G04 #@! TD.AperFunction*
D55*
X76470498Y-79205820D02*
X76434188Y-79325518D01*
X76421928Y-79450000D01*
X76425000Y-79564250D01*
X76583750Y-79723000D01*
X77383000Y-79723000D01*
X77383000Y-79703000D01*
X77637000Y-79703000D01*
X77637000Y-79723000D01*
X77657000Y-79723000D01*
X77657000Y-79977000D01*
X77637000Y-79977000D01*
X77637000Y-80726250D01*
X77795750Y-80885000D01*
X77960000Y-80888072D01*
X77996252Y-80884502D01*
X78011812Y-80900062D01*
X77990863Y-80924012D01*
X77936645Y-81018203D01*
X77060000Y-81018203D01*
X76995270Y-81024578D01*
X76933027Y-81043460D01*
X76875663Y-81074121D01*
X76825384Y-81115384D01*
X76784121Y-81165663D01*
X76753460Y-81223027D01*
X76734578Y-81285270D01*
X76728203Y-81350000D01*
X76728203Y-81708047D01*
X76243935Y-82192316D01*
X76226569Y-82206568D01*
X76169685Y-82275881D01*
X76140607Y-82330283D01*
X76129441Y-82317369D01*
X76030742Y-82240527D01*
X75918949Y-82184418D01*
X75798357Y-82151196D01*
X75675750Y-82145000D01*
X75517000Y-82303750D01*
X75517000Y-82907000D01*
X75537000Y-82907000D01*
X75537000Y-83053000D01*
X75517000Y-83053000D01*
X75517000Y-83127000D01*
X75263000Y-83127000D01*
X75263000Y-83053000D01*
X75243000Y-83053000D01*
X75243000Y-82907000D01*
X75263000Y-82907000D01*
X75263000Y-82303750D01*
X75104250Y-82145000D01*
X74981643Y-82151196D01*
X74861051Y-82184418D01*
X74749258Y-82240527D01*
X74650559Y-82317369D01*
X74568748Y-82411988D01*
X74506968Y-82520751D01*
X74491797Y-82566496D01*
X74491797Y-82255000D01*
X74485422Y-82190270D01*
X74466540Y-82128027D01*
X74435879Y-82070663D01*
X74394616Y-82020384D01*
X74344337Y-81979121D01*
X74302168Y-81956582D01*
X74733550Y-81525200D01*
X74994538Y-81525200D01*
X74995270Y-81525422D01*
X75060000Y-81531797D01*
X75960000Y-81531797D01*
X76024730Y-81525422D01*
X76086973Y-81506540D01*
X76144337Y-81475879D01*
X76194616Y-81434616D01*
X76235879Y-81384337D01*
X76266540Y-81326973D01*
X76285422Y-81264730D01*
X76291797Y-81200000D01*
X76291797Y-80400000D01*
X76285422Y-80335270D01*
X76266540Y-80273027D01*
X76254233Y-80250000D01*
X76421928Y-80250000D01*
X76434188Y-80374482D01*
X76470498Y-80494180D01*
X76529463Y-80604494D01*
X76608815Y-80701185D01*
X76705506Y-80780537D01*
X76815820Y-80839502D01*
X76935518Y-80875812D01*
X77060000Y-80888072D01*
X77224250Y-80885000D01*
X77383000Y-80726250D01*
X77383000Y-79977000D01*
X76583750Y-79977000D01*
X76425000Y-80135750D01*
X76421928Y-80250000D01*
X76254233Y-80250000D01*
X76235879Y-80215663D01*
X76194616Y-80165384D01*
X76144337Y-80124121D01*
X76086973Y-80093460D01*
X76024730Y-80074578D01*
X75960000Y-80068203D01*
X75959346Y-80068203D01*
X75958613Y-80060765D01*
X75932584Y-79974960D01*
X75890316Y-79895881D01*
X75833432Y-79826568D01*
X75816066Y-79812316D01*
X75160749Y-79157000D01*
X76496593Y-79157000D01*
X76470498Y-79205820D01*
G04 #@! TA.AperFunction,Conductor*
D56*
G36*
X76470498Y-79205820D02*
G01*
X76434188Y-79325518D01*
X76421928Y-79450000D01*
X76425000Y-79564250D01*
X76583750Y-79723000D01*
X77383000Y-79723000D01*
X77383000Y-79703000D01*
X77637000Y-79703000D01*
X77637000Y-79723000D01*
X77657000Y-79723000D01*
X77657000Y-79977000D01*
X77637000Y-79977000D01*
X77637000Y-80726250D01*
X77795750Y-80885000D01*
X77960000Y-80888072D01*
X77996252Y-80884502D01*
X78011812Y-80900062D01*
X77990863Y-80924012D01*
X77936645Y-81018203D01*
X77060000Y-81018203D01*
X76995270Y-81024578D01*
X76933027Y-81043460D01*
X76875663Y-81074121D01*
X76825384Y-81115384D01*
X76784121Y-81165663D01*
X76753460Y-81223027D01*
X76734578Y-81285270D01*
X76728203Y-81350000D01*
X76728203Y-81708047D01*
X76243935Y-82192316D01*
X76226569Y-82206568D01*
X76169685Y-82275881D01*
X76140607Y-82330283D01*
X76129441Y-82317369D01*
X76030742Y-82240527D01*
X75918949Y-82184418D01*
X75798357Y-82151196D01*
X75675750Y-82145000D01*
X75517000Y-82303750D01*
X75517000Y-82907000D01*
X75537000Y-82907000D01*
X75537000Y-83053000D01*
X75517000Y-83053000D01*
X75517000Y-83127000D01*
X75263000Y-83127000D01*
X75263000Y-83053000D01*
X75243000Y-83053000D01*
X75243000Y-82907000D01*
X75263000Y-82907000D01*
X75263000Y-82303750D01*
X75104250Y-82145000D01*
X74981643Y-82151196D01*
X74861051Y-82184418D01*
X74749258Y-82240527D01*
X74650559Y-82317369D01*
X74568748Y-82411988D01*
X74506968Y-82520751D01*
X74491797Y-82566496D01*
X74491797Y-82255000D01*
X74485422Y-82190270D01*
X74466540Y-82128027D01*
X74435879Y-82070663D01*
X74394616Y-82020384D01*
X74344337Y-81979121D01*
X74302168Y-81956582D01*
X74733550Y-81525200D01*
X74994538Y-81525200D01*
X74995270Y-81525422D01*
X75060000Y-81531797D01*
X75960000Y-81531797D01*
X76024730Y-81525422D01*
X76086973Y-81506540D01*
X76144337Y-81475879D01*
X76194616Y-81434616D01*
X76235879Y-81384337D01*
X76266540Y-81326973D01*
X76285422Y-81264730D01*
X76291797Y-81200000D01*
X76291797Y-80400000D01*
X76285422Y-80335270D01*
X76266540Y-80273027D01*
X76254233Y-80250000D01*
X76421928Y-80250000D01*
X76434188Y-80374482D01*
X76470498Y-80494180D01*
X76529463Y-80604494D01*
X76608815Y-80701185D01*
X76705506Y-80780537D01*
X76815820Y-80839502D01*
X76935518Y-80875812D01*
X77060000Y-80888072D01*
X77224250Y-80885000D01*
X77383000Y-80726250D01*
X77383000Y-79977000D01*
X76583750Y-79977000D01*
X76425000Y-80135750D01*
X76421928Y-80250000D01*
X76254233Y-80250000D01*
X76235879Y-80215663D01*
X76194616Y-80165384D01*
X76144337Y-80124121D01*
X76086973Y-80093460D01*
X76024730Y-80074578D01*
X75960000Y-80068203D01*
X75959346Y-80068203D01*
X75958613Y-80060765D01*
X75932584Y-79974960D01*
X75890316Y-79895881D01*
X75833432Y-79826568D01*
X75816066Y-79812316D01*
X75160749Y-79157000D01*
X76496593Y-79157000D01*
X76470498Y-79205820D01*
G37*
G04 #@! TD.AperFunction*
D55*
X88144800Y-79163785D02*
X88143203Y-79180000D01*
X88143203Y-79647316D01*
X88084730Y-79629578D01*
X88020000Y-79623203D01*
X87020000Y-79623203D01*
X86955270Y-79629578D01*
X86893027Y-79648460D01*
X86835663Y-79679121D01*
X86785384Y-79720384D01*
X86744121Y-79770663D01*
X86713460Y-79828027D01*
X86694578Y-79890270D01*
X86688203Y-79955000D01*
X86688203Y-81205000D01*
X86694578Y-81269730D01*
X86704494Y-81302418D01*
X86647358Y-81313783D01*
X86658072Y-81205000D01*
X86655000Y-80865750D01*
X86496250Y-80707000D01*
X85647000Y-80707000D01*
X85647000Y-80727000D01*
X85393000Y-80727000D01*
X85393000Y-80707000D01*
X85373000Y-80707000D01*
X85373000Y-80453000D01*
X85393000Y-80453000D01*
X85393000Y-79478750D01*
X85647000Y-79478750D01*
X85647000Y-80453000D01*
X86496250Y-80453000D01*
X86655000Y-80294250D01*
X86658072Y-79955000D01*
X86645812Y-79830518D01*
X86609502Y-79710820D01*
X86550537Y-79600506D01*
X86471185Y-79503815D01*
X86374494Y-79424463D01*
X86264180Y-79365498D01*
X86144482Y-79329188D01*
X86020000Y-79316928D01*
X85805750Y-79320000D01*
X85647000Y-79478750D01*
X85393000Y-79478750D01*
X85234250Y-79320000D01*
X85020000Y-79316928D01*
X84895518Y-79329188D01*
X84818088Y-79352676D01*
X84739180Y-79310498D01*
X84619482Y-79274188D01*
X84495000Y-79261928D01*
X84405750Y-79265000D01*
X84247000Y-79423750D01*
X84247000Y-80173000D01*
X84267000Y-80173000D01*
X84267000Y-80427000D01*
X84247000Y-80427000D01*
X84247000Y-80447000D01*
X83993000Y-80447000D01*
X83993000Y-80427000D01*
X83973000Y-80427000D01*
X83973000Y-80173000D01*
X83993000Y-80173000D01*
X83993000Y-79423750D01*
X83834250Y-79265000D01*
X83745000Y-79261928D01*
X83620518Y-79274188D01*
X83500820Y-79310498D01*
X83390506Y-79369463D01*
X83293815Y-79448815D01*
X83214463Y-79545506D01*
X83198853Y-79574709D01*
X83134711Y-79531850D01*
X83020021Y-79484344D01*
X82898268Y-79460126D01*
X82780735Y-79460126D01*
X82752545Y-79431936D01*
X82739821Y-79416432D01*
X82677939Y-79365646D01*
X82607338Y-79327909D01*
X82530731Y-79304671D01*
X82471023Y-79298790D01*
X82471016Y-79298790D01*
X82451063Y-79296825D01*
X82431110Y-79298790D01*
X79642363Y-79298790D01*
X79622410Y-79296825D01*
X79602457Y-79298790D01*
X79602450Y-79298790D01*
X79550245Y-79303932D01*
X79542741Y-79304671D01*
X79502335Y-79316928D01*
X79466135Y-79327909D01*
X79395534Y-79365646D01*
X79376052Y-79381635D01*
X79349155Y-79403708D01*
X79349150Y-79403713D01*
X79333652Y-79416432D01*
X79320932Y-79431931D01*
X79087712Y-79665151D01*
X79075982Y-79606178D01*
X79028476Y-79491488D01*
X78959508Y-79388271D01*
X78871729Y-79300492D01*
X78768512Y-79231524D01*
X78653822Y-79184018D01*
X78532069Y-79159800D01*
X78524903Y-79159800D01*
X78523407Y-79157000D01*
X88144800Y-79157000D01*
X88144800Y-79163785D01*
G04 #@! TA.AperFunction,Conductor*
D56*
G36*
X88144800Y-79163785D02*
G01*
X88143203Y-79180000D01*
X88143203Y-79647316D01*
X88084730Y-79629578D01*
X88020000Y-79623203D01*
X87020000Y-79623203D01*
X86955270Y-79629578D01*
X86893027Y-79648460D01*
X86835663Y-79679121D01*
X86785384Y-79720384D01*
X86744121Y-79770663D01*
X86713460Y-79828027D01*
X86694578Y-79890270D01*
X86688203Y-79955000D01*
X86688203Y-81205000D01*
X86694578Y-81269730D01*
X86704494Y-81302418D01*
X86647358Y-81313783D01*
X86658072Y-81205000D01*
X86655000Y-80865750D01*
X86496250Y-80707000D01*
X85647000Y-80707000D01*
X85647000Y-80727000D01*
X85393000Y-80727000D01*
X85393000Y-80707000D01*
X85373000Y-80707000D01*
X85373000Y-80453000D01*
X85393000Y-80453000D01*
X85393000Y-79478750D01*
X85647000Y-79478750D01*
X85647000Y-80453000D01*
X86496250Y-80453000D01*
X86655000Y-80294250D01*
X86658072Y-79955000D01*
X86645812Y-79830518D01*
X86609502Y-79710820D01*
X86550537Y-79600506D01*
X86471185Y-79503815D01*
X86374494Y-79424463D01*
X86264180Y-79365498D01*
X86144482Y-79329188D01*
X86020000Y-79316928D01*
X85805750Y-79320000D01*
X85647000Y-79478750D01*
X85393000Y-79478750D01*
X85234250Y-79320000D01*
X85020000Y-79316928D01*
X84895518Y-79329188D01*
X84818088Y-79352676D01*
X84739180Y-79310498D01*
X84619482Y-79274188D01*
X84495000Y-79261928D01*
X84405750Y-79265000D01*
X84247000Y-79423750D01*
X84247000Y-80173000D01*
X84267000Y-80173000D01*
X84267000Y-80427000D01*
X84247000Y-80427000D01*
X84247000Y-80447000D01*
X83993000Y-80447000D01*
X83993000Y-80427000D01*
X83973000Y-80427000D01*
X83973000Y-80173000D01*
X83993000Y-80173000D01*
X83993000Y-79423750D01*
X83834250Y-79265000D01*
X83745000Y-79261928D01*
X83620518Y-79274188D01*
X83500820Y-79310498D01*
X83390506Y-79369463D01*
X83293815Y-79448815D01*
X83214463Y-79545506D01*
X83198853Y-79574709D01*
X83134711Y-79531850D01*
X83020021Y-79484344D01*
X82898268Y-79460126D01*
X82780735Y-79460126D01*
X82752545Y-79431936D01*
X82739821Y-79416432D01*
X82677939Y-79365646D01*
X82607338Y-79327909D01*
X82530731Y-79304671D01*
X82471023Y-79298790D01*
X82471016Y-79298790D01*
X82451063Y-79296825D01*
X82431110Y-79298790D01*
X79642363Y-79298790D01*
X79622410Y-79296825D01*
X79602457Y-79298790D01*
X79602450Y-79298790D01*
X79550245Y-79303932D01*
X79542741Y-79304671D01*
X79502335Y-79316928D01*
X79466135Y-79327909D01*
X79395534Y-79365646D01*
X79376052Y-79381635D01*
X79349155Y-79403708D01*
X79349150Y-79403713D01*
X79333652Y-79416432D01*
X79320932Y-79431931D01*
X79087712Y-79665151D01*
X79075982Y-79606178D01*
X79028476Y-79491488D01*
X78959508Y-79388271D01*
X78871729Y-79300492D01*
X78768512Y-79231524D01*
X78653822Y-79184018D01*
X78532069Y-79159800D01*
X78524903Y-79159800D01*
X78523407Y-79157000D01*
X88144800Y-79157000D01*
X88144800Y-79163785D01*
G37*
G04 #@! TD.AperFunction*
M02*
