G04 #@! TF.GenerationSoftware,KiCad,Pcbnew,7.0.6*
G04 #@! TF.CreationDate,2024-04-10T23:04:11-04:00*
G04 #@! TF.ProjectId,Watchy,57617463-6879-42e6-9b69-6361645f7063,rev?*
G04 #@! TF.SameCoordinates,Original*
G04 #@! TF.FileFunction,Paste,Top*
G04 #@! TF.FilePolarity,Positive*
%FSLAX46Y46*%
G04 Gerber Fmt 4.6, Leading zero omitted, Abs format (unit mm)*
G04 Created by KiCad (PCBNEW 7.0.6) date 2024-04-10 23:04:11*
%MOMM*%
%LPD*%
G01*
G04 APERTURE LIST*
G04 Aperture macros list*
%AMRoundRect*
0 Rectangle with rounded corners*
0 $1 Rounding radius*
0 $2 $3 $4 $5 $6 $7 $8 $9 X,Y pos of 4 corners*
0 Add a 4 corners polygon primitive as box body*
4,1,4,$2,$3,$4,$5,$6,$7,$8,$9,$2,$3,0*
0 Add four circle primitives for the rounded corners*
1,1,$1+$1,$2,$3*
1,1,$1+$1,$4,$5*
1,1,$1+$1,$6,$7*
1,1,$1+$1,$8,$9*
0 Add four rect primitives between the rounded corners*
20,1,$1+$1,$2,$3,$4,$5,0*
20,1,$1+$1,$4,$5,$6,$7,0*
20,1,$1+$1,$6,$7,$8,$9,0*
20,1,$1+$1,$8,$9,$2,$3,0*%
G04 Aperture macros list end*
%ADD10RoundRect,0.150000X-0.150000X0.587500X-0.150000X-0.587500X0.150000X-0.587500X0.150000X0.587500X0*%
%ADD11R,3.700000X1.200000*%
%ADD12R,1.200000X0.900000*%
%ADD13RoundRect,0.135000X-0.185000X0.135000X-0.185000X-0.135000X0.185000X-0.135000X0.185000X0.135000X0*%
%ADD14RoundRect,0.225000X-0.225000X-0.250000X0.225000X-0.250000X0.225000X0.250000X-0.225000X0.250000X0*%
%ADD15R,0.650000X1.060000*%
%ADD16RoundRect,0.135000X0.185000X-0.135000X0.185000X0.135000X-0.185000X0.135000X-0.185000X-0.135000X0*%
%ADD17R,2.900000X2.100000*%
%ADD18R,1.600000X0.500000*%
%ADD19R,0.300000X1.300000*%
%ADD20R,2.000000X3.000000*%
%ADD21R,1.350000X1.500000*%
%ADD22O,1.350000X1.500000*%
%ADD23O,1.550000X1.000000*%
%ADD24O,0.950000X1.250000*%
%ADD25R,1.350000X0.400000*%
%ADD26RoundRect,0.140000X-0.170000X0.140000X-0.170000X-0.140000X0.170000X-0.140000X0.170000X0.140000X0*%
%ADD27RoundRect,0.140000X0.170000X-0.140000X0.170000X0.140000X-0.170000X0.140000X-0.170000X-0.140000X0*%
%ADD28RoundRect,0.135000X0.135000X0.185000X-0.135000X0.185000X-0.135000X-0.185000X0.135000X-0.185000X0*%
%ADD29R,1.150000X1.000000*%
%ADD30R,1.000000X1.550000*%
%ADD31RoundRect,0.135000X-0.135000X-0.185000X0.135000X-0.185000X0.135000X0.185000X-0.135000X0.185000X0*%
%ADD32RoundRect,0.147500X-0.172500X0.147500X-0.172500X-0.147500X0.172500X-0.147500X0.172500X0.147500X0*%
%ADD33RoundRect,0.150000X0.150000X-0.587500X0.150000X0.587500X-0.150000X0.587500X-0.150000X-0.587500X0*%
%ADD34RoundRect,0.250000X-0.315000X0.315000X-0.315000X-0.315000X0.315000X-0.315000X0.315000X0.315000X0*%
%ADD35RoundRect,0.050000X-0.050000X0.387500X-0.050000X-0.387500X0.050000X-0.387500X0.050000X0.387500X0*%
%ADD36RoundRect,0.050000X-0.387500X0.050000X-0.387500X-0.050000X0.387500X-0.050000X0.387500X0.050000X0*%
%ADD37RoundRect,0.140000X-0.140000X-0.170000X0.140000X-0.170000X0.140000X0.170000X-0.140000X0.170000X0*%
%ADD38R,0.375000X0.350000*%
%ADD39R,0.350000X0.375000*%
%ADD40R,0.500000X0.500000*%
%ADD41R,0.900000X0.500000*%
%ADD42RoundRect,0.150000X0.512500X0.150000X-0.512500X0.150000X-0.512500X-0.150000X0.512500X-0.150000X0*%
%ADD43RoundRect,0.140000X0.140000X0.170000X-0.140000X0.170000X-0.140000X-0.170000X0.140000X-0.170000X0*%
%ADD44R,1.100000X1.100000*%
%ADD45R,0.500000X0.375000*%
%ADD46R,0.650000X0.300000*%
%ADD47R,0.200000X0.800000*%
%ADD48R,0.900000X1.200000*%
%ADD49R,1.100000X0.600000*%
G04 APERTURE END LIST*
D10*
X97790000Y-105962500D03*
X95890000Y-105962500D03*
X96840000Y-107837500D03*
D11*
X75190000Y-104950000D03*
X75190000Y-107750000D03*
D12*
X74550000Y-98640000D03*
X74550000Y-101940000D03*
D13*
X90400000Y-95530000D03*
X90400000Y-96550000D03*
D12*
X72250000Y-98640000D03*
X72250000Y-101940000D03*
D14*
X73645000Y-103370000D03*
X75195000Y-103370000D03*
X73645000Y-109330000D03*
X75195000Y-109330000D03*
D15*
X101650000Y-99080000D03*
X100700000Y-99080000D03*
X99750000Y-99080000D03*
X99750000Y-101280000D03*
X101650000Y-101280000D03*
D16*
X91340000Y-96550000D03*
X91340000Y-95530000D03*
D17*
X96880000Y-87877000D03*
X96880000Y-81545000D03*
D18*
X99730000Y-85345000D03*
X99730000Y-84095000D03*
D12*
X69950000Y-101940000D03*
X69950000Y-98640000D03*
D19*
X91400000Y-97920000D03*
X90900000Y-97920000D03*
X90400000Y-97920000D03*
X89900000Y-97920000D03*
X89400000Y-97920000D03*
X88900000Y-97920000D03*
X88400000Y-97920000D03*
X87900000Y-97920000D03*
X87400000Y-97920000D03*
X86900000Y-97920000D03*
X86400000Y-97920000D03*
X85900000Y-97920000D03*
X85400000Y-97920000D03*
X84900000Y-97920000D03*
X84400000Y-97920000D03*
X83900000Y-97920000D03*
X83400000Y-97920000D03*
X82900000Y-97920000D03*
X82400000Y-97920000D03*
X81900000Y-97920000D03*
X81400000Y-97920000D03*
X80900000Y-97920000D03*
X80400000Y-97920000D03*
X79900000Y-97920000D03*
D20*
X78250000Y-100270000D03*
X93050000Y-100270000D03*
D21*
X70150000Y-85155000D03*
D22*
X72150000Y-85155000D03*
D23*
X101050000Y-97180000D03*
D24*
X98350000Y-96180000D03*
X98350000Y-91180000D03*
D23*
X101050000Y-90180000D03*
D25*
X98350000Y-94980000D03*
X98350000Y-94330000D03*
X98350000Y-93680000D03*
X98350000Y-93030000D03*
X98350000Y-92380000D03*
D26*
X79740000Y-95580000D03*
X79740000Y-96540000D03*
D27*
X82500000Y-96540000D03*
X82500000Y-95580000D03*
X85050000Y-80420000D03*
X85050000Y-79460000D03*
X84130000Y-80420000D03*
X84130000Y-79460000D03*
D28*
X101620000Y-110470000D03*
X100600000Y-110470000D03*
D29*
X92815000Y-89360000D03*
X91065000Y-89360000D03*
X91065000Y-90760000D03*
X92815000Y-90760000D03*
D27*
X78820000Y-96540000D03*
X78820000Y-95580000D03*
D30*
X101390000Y-77305000D03*
X101390000Y-82555000D03*
X99690000Y-77305000D03*
X99690000Y-82555000D03*
D27*
X90700000Y-83180000D03*
X90700000Y-82220000D03*
X92270000Y-96540000D03*
X92270000Y-95580000D03*
D31*
X77940000Y-87170000D03*
X78960000Y-87170000D03*
D32*
X88720000Y-80375000D03*
X88720000Y-81345000D03*
D27*
X81580000Y-96540000D03*
X81580000Y-95580000D03*
D13*
X97490000Y-102540000D03*
X97490000Y-103560000D03*
D33*
X74500000Y-85667500D03*
X76400000Y-85667500D03*
X75450000Y-83792500D03*
D34*
X88220000Y-83810000D03*
X86820000Y-83810000D03*
X85420000Y-83810000D03*
X84020000Y-83810000D03*
X88220000Y-85210000D03*
X86820000Y-85210000D03*
X85420000Y-85210000D03*
X84020000Y-85210000D03*
X88220000Y-86610000D03*
X86820000Y-86610000D03*
X85420000Y-86610000D03*
X84020000Y-86610000D03*
X88220000Y-88010000D03*
X86820000Y-88010000D03*
X85420000Y-88010000D03*
X84020000Y-88010000D03*
D35*
X88720000Y-82472500D03*
X88320000Y-82472500D03*
X87920000Y-82472500D03*
X87520000Y-82472500D03*
X87120000Y-82472500D03*
X86720000Y-82472500D03*
X86320000Y-82472500D03*
X85920000Y-82472500D03*
X85520000Y-82472500D03*
X85120000Y-82472500D03*
X84720000Y-82472500D03*
X84320000Y-82472500D03*
X83920000Y-82472500D03*
X83520000Y-82472500D03*
D36*
X82682500Y-83310000D03*
X82682500Y-83710000D03*
X82682500Y-84110000D03*
X82682500Y-84510000D03*
X82682500Y-84910000D03*
X82682500Y-85310000D03*
X82682500Y-85710000D03*
X82682500Y-86110000D03*
X82682500Y-86510000D03*
X82682500Y-86910000D03*
X82682500Y-87310000D03*
X82682500Y-87710000D03*
X82682500Y-88110000D03*
X82682500Y-88510000D03*
D35*
X83520000Y-89347500D03*
X83920000Y-89347500D03*
X84320000Y-89347500D03*
X84720000Y-89347500D03*
X85120000Y-89347500D03*
X85520000Y-89347500D03*
X85920000Y-89347500D03*
X86320000Y-89347500D03*
X86720000Y-89347500D03*
X87120000Y-89347500D03*
X87520000Y-89347500D03*
X87920000Y-89347500D03*
X88320000Y-89347500D03*
X88720000Y-89347500D03*
D36*
X89557500Y-88510000D03*
X89557500Y-88110000D03*
X89557500Y-87710000D03*
X89557500Y-87310000D03*
X89557500Y-86910000D03*
X89557500Y-86510000D03*
X89557500Y-86110000D03*
X89557500Y-85710000D03*
X89557500Y-85310000D03*
X89557500Y-84910000D03*
X89557500Y-84510000D03*
X89557500Y-84110000D03*
X89557500Y-83710000D03*
X89557500Y-83310000D03*
D13*
X78170000Y-82130000D03*
X78170000Y-83150000D03*
X96550000Y-102540000D03*
X96550000Y-103560000D03*
D16*
X98430000Y-103560000D03*
X98430000Y-102540000D03*
D30*
X101390000Y-103705000D03*
X101390000Y-108955000D03*
X99690000Y-103705000D03*
X99690000Y-108955000D03*
D37*
X83520000Y-91410000D03*
X84480000Y-91410000D03*
D16*
X83200000Y-80470000D03*
X83200000Y-79450000D03*
D37*
X89620000Y-81330000D03*
X90580000Y-81330000D03*
D10*
X98150000Y-99262500D03*
X96250000Y-99262500D03*
X97200000Y-101137500D03*
D16*
X91000000Y-94020000D03*
X91000000Y-93000000D03*
D27*
X91620000Y-83180000D03*
X91620000Y-82220000D03*
D38*
X79127500Y-81570000D03*
X79127500Y-82070000D03*
X79127500Y-82570000D03*
X79127500Y-83070000D03*
D39*
X79640000Y-83082500D03*
X80140000Y-83082500D03*
D38*
X80652500Y-83070000D03*
X80652500Y-82570000D03*
X80652500Y-82070000D03*
X80652500Y-81570000D03*
D39*
X80140000Y-81557500D03*
X79640000Y-81557500D03*
D27*
X89470000Y-96540000D03*
X89470000Y-95580000D03*
X92540000Y-83180000D03*
X92540000Y-82220000D03*
D40*
X88725000Y-79430000D03*
D41*
X90825000Y-79430000D03*
D27*
X83420000Y-96540000D03*
X83420000Y-95580000D03*
X84340000Y-96540000D03*
X84340000Y-95580000D03*
X85970000Y-80420000D03*
X85970000Y-79460000D03*
D13*
X91940000Y-93000000D03*
X91940000Y-94020000D03*
D26*
X94105000Y-88990000D03*
X94105000Y-89950000D03*
D37*
X100740000Y-88620000D03*
X101700000Y-88620000D03*
D27*
X89780000Y-91420000D03*
X89780000Y-90460000D03*
D30*
X69810000Y-82545000D03*
X69810000Y-77295000D03*
X71510000Y-82545000D03*
X71510000Y-77295000D03*
D26*
X75510000Y-81420000D03*
X75510000Y-82380000D03*
D42*
X96197500Y-97530000D03*
X96197500Y-96580000D03*
X96197500Y-95630000D03*
X93922500Y-95630000D03*
X93922500Y-97530000D03*
D43*
X87820000Y-80220000D03*
X86860000Y-80220000D03*
D27*
X80660000Y-96540000D03*
X80660000Y-95580000D03*
D31*
X100730000Y-87690000D03*
X101750000Y-87690000D03*
D44*
X73900000Y-80050000D03*
X73900000Y-82850000D03*
D43*
X78910000Y-86240000D03*
X77950000Y-86240000D03*
D45*
X94757500Y-90942500D03*
D46*
X94682500Y-91480000D03*
D45*
X94757500Y-92017500D03*
X96457500Y-92017500D03*
D46*
X96532500Y-91480000D03*
D45*
X96457500Y-90942500D03*
D43*
X78910000Y-84560000D03*
X77950000Y-84560000D03*
D31*
X90660000Y-84080000D03*
X91680000Y-84080000D03*
D28*
X101750000Y-86750000D03*
X100730000Y-86750000D03*
D31*
X69560000Y-110470000D03*
X70580000Y-110470000D03*
X79700000Y-80600000D03*
X80720000Y-80600000D03*
D30*
X69810000Y-108955000D03*
X69810000Y-103705000D03*
X71510000Y-108955000D03*
X71510000Y-103705000D03*
D43*
X96680000Y-89920000D03*
X95720000Y-89920000D03*
D37*
X83520000Y-90490000D03*
X84480000Y-90490000D03*
D47*
X77350000Y-81860000D03*
X76950000Y-81860000D03*
X76550000Y-81860000D03*
X76550000Y-83460000D03*
X76950000Y-83460000D03*
X77350000Y-83460000D03*
D16*
X95610000Y-103560000D03*
X95610000Y-102540000D03*
D48*
X93110000Y-93730000D03*
X96410000Y-93730000D03*
D13*
X88540000Y-95530000D03*
X88540000Y-96550000D03*
D49*
X80240000Y-84700000D03*
X80240000Y-86100000D03*
D16*
X91350000Y-87910000D03*
X91350000Y-86890000D03*
D13*
X75520000Y-79550000D03*
X75520000Y-80570000D03*
M02*
