G04 #@! TF.GenerationSoftware,KiCad,Pcbnew,(5.1.8)-1*
G04 #@! TF.CreationDate,2021-12-27T23:44:40-05:00*
G04 #@! TF.ProjectId,Watchy,57617463-6879-42e6-9b69-6361645f7063,rev?*
G04 #@! TF.SameCoordinates,Original*
G04 #@! TF.FileFunction,Soldermask,Bot*
G04 #@! TF.FilePolarity,Negative*
%FSLAX46Y46*%
G04 Gerber Fmt 4.6, Leading zero omitted, Abs format (unit mm)*
G04 Created by KiCad (PCBNEW (5.1.8)-1) date 2021-12-27 23:44:40*
%MOMM*%
%LPD*%
G01*
G04 APERTURE LIST*
%ADD10C,0.300000*%
%ADD11C,0.100000*%
%ADD12C,0.150000*%
%ADD13C,0.250000*%
%ADD14C,0.010000*%
%ADD15O,1.350000X1.650000*%
%ADD16O,1.950000X1.400000*%
%ADD17C,1.200000*%
G04 APERTURE END LIST*
D10*
X89097619Y-114468095D02*
X88788095Y-115768095D01*
X88540476Y-114839523D01*
X88292857Y-115768095D01*
X87983333Y-114468095D01*
X87550000Y-115396666D02*
X86930952Y-115396666D01*
X87673809Y-115768095D02*
X87240476Y-114468095D01*
X86807142Y-115768095D01*
X86559523Y-114468095D02*
X85816666Y-114468095D01*
X86188095Y-115768095D02*
X86188095Y-114468095D01*
X84640476Y-115644285D02*
X84702380Y-115706190D01*
X84888095Y-115768095D01*
X85011904Y-115768095D01*
X85197619Y-115706190D01*
X85321428Y-115582380D01*
X85383333Y-115458571D01*
X85445238Y-115210952D01*
X85445238Y-115025238D01*
X85383333Y-114777619D01*
X85321428Y-114653809D01*
X85197619Y-114530000D01*
X85011904Y-114468095D01*
X84888095Y-114468095D01*
X84702380Y-114530000D01*
X84640476Y-114591904D01*
X84083333Y-115768095D02*
X84083333Y-114468095D01*
X84083333Y-115087142D02*
X83340476Y-115087142D01*
X83340476Y-115768095D02*
X83340476Y-114468095D01*
X82473809Y-115149047D02*
X82473809Y-115768095D01*
X82907142Y-114468095D02*
X82473809Y-115149047D01*
X82040476Y-114468095D01*
X89097619Y-70518095D02*
X88788095Y-71818095D01*
X88540476Y-70889523D01*
X88292857Y-71818095D01*
X87983333Y-70518095D01*
X87550000Y-71446666D02*
X86930952Y-71446666D01*
X87673809Y-71818095D02*
X87240476Y-70518095D01*
X86807142Y-71818095D01*
X86559523Y-70518095D02*
X85816666Y-70518095D01*
X86188095Y-71818095D02*
X86188095Y-70518095D01*
X84640476Y-71694285D02*
X84702380Y-71756190D01*
X84888095Y-71818095D01*
X85011904Y-71818095D01*
X85197619Y-71756190D01*
X85321428Y-71632380D01*
X85383333Y-71508571D01*
X85445238Y-71260952D01*
X85445238Y-71075238D01*
X85383333Y-70827619D01*
X85321428Y-70703809D01*
X85197619Y-70580000D01*
X85011904Y-70518095D01*
X84888095Y-70518095D01*
X84702380Y-70580000D01*
X84640476Y-70641904D01*
X84083333Y-71818095D02*
X84083333Y-70518095D01*
X84083333Y-71137142D02*
X83340476Y-71137142D01*
X83340476Y-71818095D02*
X83340476Y-70518095D01*
X82473809Y-71199047D02*
X82473809Y-71818095D01*
X82907142Y-70518095D02*
X82473809Y-71199047D01*
X82040476Y-70518095D01*
D11*
X99136332Y-82389048D02*
X98681764Y-82641586D01*
X98833287Y-82288033D01*
X98479733Y-82439556D01*
X98732271Y-81984987D01*
X97949403Y-81909226D02*
X98227195Y-81631434D01*
X98302956Y-81606180D01*
X98378718Y-81631434D01*
X98479733Y-81732449D01*
X98504987Y-81808210D01*
X97974657Y-81883972D02*
X97999911Y-81959733D01*
X98126180Y-82086002D01*
X98201941Y-82111256D01*
X98277703Y-82086002D01*
X98328210Y-82035495D01*
X98353464Y-81959733D01*
X98328210Y-81883972D01*
X98201941Y-81757703D01*
X98176687Y-81681941D01*
X98126180Y-81378895D02*
X97924149Y-81176865D01*
X98227195Y-81126357D02*
X97772626Y-81580926D01*
X97696865Y-81606180D01*
X97621104Y-81580926D01*
X97570596Y-81530418D01*
X97191789Y-81101104D02*
X97217043Y-81176865D01*
X97318058Y-81277880D01*
X97393819Y-81303134D01*
X97444327Y-81303134D01*
X97520088Y-81277880D01*
X97671611Y-81126357D01*
X97696865Y-81050596D01*
X97696865Y-81000088D01*
X97671611Y-80924327D01*
X97570596Y-80823312D01*
X97494834Y-80798058D01*
X96939251Y-80899073D02*
X97469581Y-80368743D01*
X96711966Y-80671789D02*
X96989758Y-80393997D01*
X97065520Y-80368743D01*
X97141281Y-80393997D01*
X97217043Y-80469758D01*
X97242296Y-80545520D01*
X97242296Y-80596027D01*
X96863489Y-80116205D02*
X96383667Y-80343489D01*
X96610951Y-79863667D02*
X96383667Y-80343489D01*
X96307905Y-80520266D01*
X96307905Y-80570773D01*
X96333159Y-80646535D01*
D12*
X83936751Y-96983705D02*
X83344128Y-97333892D01*
X83559628Y-96875956D01*
X83101692Y-97091455D01*
X83451878Y-96498832D01*
X82465296Y-96455059D02*
X82835685Y-96084670D01*
X82933333Y-96047631D01*
X83027614Y-96074568D01*
X83148832Y-96195786D01*
X83175770Y-96290067D01*
X82498967Y-96421387D02*
X82525905Y-96515668D01*
X82677428Y-96667191D01*
X82771709Y-96694128D01*
X82869357Y-96657089D01*
X82936700Y-96589746D01*
X82973739Y-96492098D01*
X82946802Y-96397817D01*
X82795279Y-96246294D01*
X82768341Y-96152013D01*
X82724568Y-95771522D02*
X82482132Y-95529086D01*
X82869357Y-95444906D02*
X82263265Y-96050998D01*
X82165617Y-96088037D01*
X82071336Y-96061099D01*
X82010727Y-96000490D01*
X81559526Y-95481945D02*
X81586463Y-95576226D01*
X81707681Y-95697445D01*
X81801962Y-95724382D01*
X81865938Y-95721015D01*
X81963587Y-95683976D01*
X82165617Y-95481945D01*
X82202656Y-95384297D01*
X82206023Y-95320321D01*
X82179086Y-95226040D01*
X82057867Y-95104822D01*
X81963587Y-95077884D01*
X81253113Y-95242876D02*
X81960219Y-94535769D01*
X80980371Y-94970135D02*
X81350761Y-94599745D01*
X81448409Y-94562707D01*
X81542690Y-94589644D01*
X81633603Y-94680558D01*
X81660541Y-94774839D01*
X81657174Y-94838815D01*
X81209339Y-94256294D02*
X80586412Y-94576175D01*
X80906294Y-93953248D02*
X80586412Y-94576175D01*
X80478662Y-94805143D01*
X80475295Y-94869119D01*
X80502233Y-94963400D01*
X78072857Y-90225714D02*
X77901428Y-90892380D01*
X77730000Y-90416190D01*
X77558571Y-90892380D01*
X77387142Y-90225714D01*
X76658571Y-90892380D02*
X76658571Y-90368571D01*
X76701428Y-90273333D01*
X76787142Y-90225714D01*
X76958571Y-90225714D01*
X77044285Y-90273333D01*
X76658571Y-90844761D02*
X76744285Y-90892380D01*
X76958571Y-90892380D01*
X77044285Y-90844761D01*
X77087142Y-90749523D01*
X77087142Y-90654285D01*
X77044285Y-90559047D01*
X76958571Y-90511428D01*
X76744285Y-90511428D01*
X76658571Y-90463809D01*
X76358571Y-90225714D02*
X76015714Y-90225714D01*
X76230000Y-89892380D02*
X76230000Y-90749523D01*
X76187142Y-90844761D01*
X76101428Y-90892380D01*
X76015714Y-90892380D01*
X75330000Y-90844761D02*
X75415714Y-90892380D01*
X75587142Y-90892380D01*
X75672857Y-90844761D01*
X75715714Y-90797142D01*
X75758571Y-90701904D01*
X75758571Y-90416190D01*
X75715714Y-90320952D01*
X75672857Y-90273333D01*
X75587142Y-90225714D01*
X75415714Y-90225714D01*
X75330000Y-90273333D01*
X74944285Y-90892380D02*
X74944285Y-89892380D01*
X74558571Y-90892380D02*
X74558571Y-90368571D01*
X74601428Y-90273333D01*
X74687142Y-90225714D01*
X74815714Y-90225714D01*
X74901428Y-90273333D01*
X74944285Y-90320952D01*
X74215714Y-90225714D02*
X74001428Y-90892380D01*
X73787142Y-90225714D02*
X74001428Y-90892380D01*
X74087142Y-91130476D01*
X74130000Y-91178095D01*
X74215714Y-91225714D01*
X71767142Y-98804285D02*
X71938571Y-98137619D01*
X72110000Y-98613809D01*
X72281428Y-98137619D01*
X72452857Y-98804285D01*
X73181428Y-98137619D02*
X73181428Y-98661428D01*
X73138571Y-98756666D01*
X73052857Y-98804285D01*
X72881428Y-98804285D01*
X72795714Y-98756666D01*
X73181428Y-98185238D02*
X73095714Y-98137619D01*
X72881428Y-98137619D01*
X72795714Y-98185238D01*
X72752857Y-98280476D01*
X72752857Y-98375714D01*
X72795714Y-98470952D01*
X72881428Y-98518571D01*
X73095714Y-98518571D01*
X73181428Y-98566190D01*
X73481428Y-98804285D02*
X73824285Y-98804285D01*
X73610000Y-99137619D02*
X73610000Y-98280476D01*
X73652857Y-98185238D01*
X73738571Y-98137619D01*
X73824285Y-98137619D01*
X74510000Y-98185238D02*
X74424285Y-98137619D01*
X74252857Y-98137619D01*
X74167142Y-98185238D01*
X74124285Y-98232857D01*
X74081428Y-98328095D01*
X74081428Y-98613809D01*
X74124285Y-98709047D01*
X74167142Y-98756666D01*
X74252857Y-98804285D01*
X74424285Y-98804285D01*
X74510000Y-98756666D01*
X74895714Y-98137619D02*
X74895714Y-99137619D01*
X75281428Y-98137619D02*
X75281428Y-98661428D01*
X75238571Y-98756666D01*
X75152857Y-98804285D01*
X75024285Y-98804285D01*
X74938571Y-98756666D01*
X74895714Y-98709047D01*
X75624285Y-98804285D02*
X75838571Y-98137619D01*
X76052857Y-98804285D02*
X75838571Y-98137619D01*
X75752857Y-97899523D01*
X75710000Y-97851904D01*
X75624285Y-97804285D01*
X79872183Y-97911725D02*
X80693773Y-98975752D01*
X79899120Y-98423536D01*
X80451337Y-99218189D01*
X79387309Y-98396598D01*
X79814941Y-99854585D02*
X79074162Y-99113806D01*
X78969780Y-98948815D01*
X78963045Y-98820862D01*
X79084264Y-98699644D01*
X79212216Y-98706378D01*
X79747597Y-99787241D02*
X79875550Y-99793976D01*
X80027073Y-99642453D01*
X80020338Y-99514500D01*
X79915956Y-99349509D01*
X79781269Y-99214822D01*
X79616277Y-99110439D01*
X79488325Y-99103705D01*
X79336802Y-99255228D01*
X79208849Y-99248493D01*
X78660000Y-99123908D02*
X78417563Y-99366345D01*
X78097681Y-98743417D02*
X79309864Y-99955600D01*
X79414247Y-100120592D01*
X79420981Y-100248544D01*
X79360372Y-100309154D01*
X78808155Y-100726683D02*
X78936108Y-100733418D01*
X79057326Y-100612199D01*
X79050592Y-100484247D01*
X79013553Y-100386599D01*
X78909170Y-100221607D01*
X78505109Y-99817546D01*
X78340118Y-99713164D01*
X78242470Y-99676125D01*
X78114517Y-99669390D01*
X77993299Y-99790609D01*
X78000033Y-99918561D01*
X78602758Y-101066768D02*
X77188544Y-99652554D01*
X78330016Y-101339509D02*
X77589238Y-100598731D01*
X77484855Y-100433739D01*
X77478121Y-100305786D01*
X77569035Y-100214873D01*
X77696987Y-100221607D01*
X77794635Y-100258646D01*
X77144771Y-100639137D02*
X77936057Y-101733469D01*
X76841725Y-100942183D02*
X77936057Y-101733469D01*
X78333384Y-102009577D01*
X78431032Y-102046616D01*
X78558984Y-102053350D01*
X76092857Y-103055714D02*
X75921428Y-103722380D01*
X75750000Y-103246190D01*
X75578571Y-103722380D01*
X75407142Y-103055714D01*
X74678571Y-103722380D02*
X74678571Y-103198571D01*
X74721428Y-103103333D01*
X74807142Y-103055714D01*
X74978571Y-103055714D01*
X75064285Y-103103333D01*
X74678571Y-103674761D02*
X74764285Y-103722380D01*
X74978571Y-103722380D01*
X75064285Y-103674761D01*
X75107142Y-103579523D01*
X75107142Y-103484285D01*
X75064285Y-103389047D01*
X74978571Y-103341428D01*
X74764285Y-103341428D01*
X74678571Y-103293809D01*
X74378571Y-103055714D02*
X74035714Y-103055714D01*
X74250000Y-102722380D02*
X74250000Y-103579523D01*
X74207142Y-103674761D01*
X74121428Y-103722380D01*
X74035714Y-103722380D01*
X73350000Y-103674761D02*
X73435714Y-103722380D01*
X73607142Y-103722380D01*
X73692857Y-103674761D01*
X73735714Y-103627142D01*
X73778571Y-103531904D01*
X73778571Y-103246190D01*
X73735714Y-103150952D01*
X73692857Y-103103333D01*
X73607142Y-103055714D01*
X73435714Y-103055714D01*
X73350000Y-103103333D01*
X72964285Y-103722380D02*
X72964285Y-102722380D01*
X72578571Y-103722380D02*
X72578571Y-103198571D01*
X72621428Y-103103333D01*
X72707142Y-103055714D01*
X72835714Y-103055714D01*
X72921428Y-103103333D01*
X72964285Y-103150952D01*
X72235714Y-103055714D02*
X72021428Y-103722380D01*
X71807142Y-103055714D02*
X72021428Y-103722380D01*
X72107142Y-103960476D01*
X72150000Y-104008095D01*
X72235714Y-104055714D01*
X76759508Y-109825714D02*
X76671413Y-110492380D01*
X76440461Y-110016190D01*
X76328556Y-110492380D01*
X76073794Y-109825714D01*
X75428556Y-110492380D02*
X75363080Y-109968571D01*
X75394032Y-109873333D01*
X75473794Y-109825714D01*
X75645223Y-109825714D01*
X75736889Y-109873333D01*
X75422604Y-110444761D02*
X75514270Y-110492380D01*
X75728556Y-110492380D01*
X75808318Y-110444761D01*
X75839270Y-110349523D01*
X75827366Y-110254285D01*
X75772604Y-110159047D01*
X75680937Y-110111428D01*
X75466651Y-110111428D01*
X75374985Y-110063809D01*
X75045223Y-109825714D02*
X74702366Y-109825714D01*
X74874985Y-109492380D02*
X74982127Y-110349523D01*
X74951175Y-110444761D01*
X74871413Y-110492380D01*
X74785699Y-110492380D01*
X74094032Y-110444761D02*
X74185699Y-110492380D01*
X74357127Y-110492380D01*
X74436889Y-110444761D01*
X74473794Y-110397142D01*
X74504747Y-110301904D01*
X74469032Y-110016190D01*
X74414270Y-109920952D01*
X74365461Y-109873333D01*
X74273794Y-109825714D01*
X74102366Y-109825714D01*
X74022604Y-109873333D01*
X73714270Y-110492380D02*
X73589270Y-109492380D01*
X73328556Y-110492380D02*
X73263080Y-109968571D01*
X73294032Y-109873333D01*
X73373794Y-109825714D01*
X73502366Y-109825714D01*
X73594032Y-109873333D01*
X73642842Y-109920952D01*
X72902366Y-109825714D02*
X72771413Y-110492380D01*
X72473794Y-109825714D02*
X72771413Y-110492380D01*
X72886889Y-110730476D01*
X72935699Y-110778095D01*
X73027366Y-110825714D01*
X88482857Y-109195714D02*
X88311428Y-109862380D01*
X88140000Y-109386190D01*
X87968571Y-109862380D01*
X87797142Y-109195714D01*
X87068571Y-109862380D02*
X87068571Y-109338571D01*
X87111428Y-109243333D01*
X87197142Y-109195714D01*
X87368571Y-109195714D01*
X87454285Y-109243333D01*
X87068571Y-109814761D02*
X87154285Y-109862380D01*
X87368571Y-109862380D01*
X87454285Y-109814761D01*
X87497142Y-109719523D01*
X87497142Y-109624285D01*
X87454285Y-109529047D01*
X87368571Y-109481428D01*
X87154285Y-109481428D01*
X87068571Y-109433809D01*
X86768571Y-109195714D02*
X86425714Y-109195714D01*
X86640000Y-108862380D02*
X86640000Y-109719523D01*
X86597142Y-109814761D01*
X86511428Y-109862380D01*
X86425714Y-109862380D01*
X85740000Y-109814761D02*
X85825714Y-109862380D01*
X85997142Y-109862380D01*
X86082857Y-109814761D01*
X86125714Y-109767142D01*
X86168571Y-109671904D01*
X86168571Y-109386190D01*
X86125714Y-109290952D01*
X86082857Y-109243333D01*
X85997142Y-109195714D01*
X85825714Y-109195714D01*
X85740000Y-109243333D01*
X85354285Y-109862380D02*
X85354285Y-108862380D01*
X84968571Y-109862380D02*
X84968571Y-109338571D01*
X85011428Y-109243333D01*
X85097142Y-109195714D01*
X85225714Y-109195714D01*
X85311428Y-109243333D01*
X85354285Y-109290952D01*
X84625714Y-109195714D02*
X84411428Y-109862380D01*
X84197142Y-109195714D02*
X84411428Y-109862380D01*
X84497142Y-110100476D01*
X84540000Y-110148095D01*
X84625714Y-110195714D01*
X101224285Y-95852857D02*
X100557619Y-95681428D01*
X101033809Y-95510000D01*
X100557619Y-95338571D01*
X101224285Y-95167142D01*
X100557619Y-94438571D02*
X101081428Y-94438571D01*
X101176666Y-94481428D01*
X101224285Y-94567142D01*
X101224285Y-94738571D01*
X101176666Y-94824285D01*
X100605238Y-94438571D02*
X100557619Y-94524285D01*
X100557619Y-94738571D01*
X100605238Y-94824285D01*
X100700476Y-94867142D01*
X100795714Y-94867142D01*
X100890952Y-94824285D01*
X100938571Y-94738571D01*
X100938571Y-94524285D01*
X100986190Y-94438571D01*
X101224285Y-94138571D02*
X101224285Y-93795714D01*
X101557619Y-94010000D02*
X100700476Y-94010000D01*
X100605238Y-93967142D01*
X100557619Y-93881428D01*
X100557619Y-93795714D01*
X100605238Y-93110000D02*
X100557619Y-93195714D01*
X100557619Y-93367142D01*
X100605238Y-93452857D01*
X100652857Y-93495714D01*
X100748095Y-93538571D01*
X101033809Y-93538571D01*
X101129047Y-93495714D01*
X101176666Y-93452857D01*
X101224285Y-93367142D01*
X101224285Y-93195714D01*
X101176666Y-93110000D01*
X100557619Y-92724285D02*
X101557619Y-92724285D01*
X100557619Y-92338571D02*
X101081428Y-92338571D01*
X101176666Y-92381428D01*
X101224285Y-92467142D01*
X101224285Y-92595714D01*
X101176666Y-92681428D01*
X101129047Y-92724285D01*
X101224285Y-91995714D02*
X100557619Y-91781428D01*
X101224285Y-91567142D02*
X100557619Y-91781428D01*
X100319523Y-91867142D01*
X100271904Y-91910000D01*
X100224285Y-91995714D01*
X100742857Y-98715714D02*
X100571428Y-99382380D01*
X100400000Y-98906190D01*
X100228571Y-99382380D01*
X100057142Y-98715714D01*
X99328571Y-99382380D02*
X99328571Y-98858571D01*
X99371428Y-98763333D01*
X99457142Y-98715714D01*
X99628571Y-98715714D01*
X99714285Y-98763333D01*
X99328571Y-99334761D02*
X99414285Y-99382380D01*
X99628571Y-99382380D01*
X99714285Y-99334761D01*
X99757142Y-99239523D01*
X99757142Y-99144285D01*
X99714285Y-99049047D01*
X99628571Y-99001428D01*
X99414285Y-99001428D01*
X99328571Y-98953809D01*
X99028571Y-98715714D02*
X98685714Y-98715714D01*
X98900000Y-98382380D02*
X98900000Y-99239523D01*
X98857142Y-99334761D01*
X98771428Y-99382380D01*
X98685714Y-99382380D01*
X98000000Y-99334761D02*
X98085714Y-99382380D01*
X98257142Y-99382380D01*
X98342857Y-99334761D01*
X98385714Y-99287142D01*
X98428571Y-99191904D01*
X98428571Y-98906190D01*
X98385714Y-98810952D01*
X98342857Y-98763333D01*
X98257142Y-98715714D01*
X98085714Y-98715714D01*
X98000000Y-98763333D01*
X97614285Y-99382380D02*
X97614285Y-98382380D01*
X97228571Y-99382380D02*
X97228571Y-98858571D01*
X97271428Y-98763333D01*
X97357142Y-98715714D01*
X97485714Y-98715714D01*
X97571428Y-98763333D01*
X97614285Y-98810952D01*
X96885714Y-98715714D02*
X96671428Y-99382380D01*
X96457142Y-98715714D02*
X96671428Y-99382380D01*
X96757142Y-99620476D01*
X96800000Y-99668095D01*
X96885714Y-99715714D01*
X94262857Y-99445714D02*
X94091428Y-100112380D01*
X93920000Y-99636190D01*
X93748571Y-100112380D01*
X93577142Y-99445714D01*
X92848571Y-100112380D02*
X92848571Y-99588571D01*
X92891428Y-99493333D01*
X92977142Y-99445714D01*
X93148571Y-99445714D01*
X93234285Y-99493333D01*
X92848571Y-100064761D02*
X92934285Y-100112380D01*
X93148571Y-100112380D01*
X93234285Y-100064761D01*
X93277142Y-99969523D01*
X93277142Y-99874285D01*
X93234285Y-99779047D01*
X93148571Y-99731428D01*
X92934285Y-99731428D01*
X92848571Y-99683809D01*
X92548571Y-99445714D02*
X92205714Y-99445714D01*
X92420000Y-99112380D02*
X92420000Y-99969523D01*
X92377142Y-100064761D01*
X92291428Y-100112380D01*
X92205714Y-100112380D01*
X91520000Y-100064761D02*
X91605714Y-100112380D01*
X91777142Y-100112380D01*
X91862857Y-100064761D01*
X91905714Y-100017142D01*
X91948571Y-99921904D01*
X91948571Y-99636190D01*
X91905714Y-99540952D01*
X91862857Y-99493333D01*
X91777142Y-99445714D01*
X91605714Y-99445714D01*
X91520000Y-99493333D01*
X91134285Y-100112380D02*
X91134285Y-99112380D01*
X90748571Y-100112380D02*
X90748571Y-99588571D01*
X90791428Y-99493333D01*
X90877142Y-99445714D01*
X91005714Y-99445714D01*
X91091428Y-99493333D01*
X91134285Y-99540952D01*
X90405714Y-99445714D02*
X90191428Y-100112380D01*
X89977142Y-99445714D02*
X90191428Y-100112380D01*
X90277142Y-100350476D01*
X90320000Y-100398095D01*
X90405714Y-100445714D01*
X98552857Y-104415714D02*
X98381428Y-105082380D01*
X98210000Y-104606190D01*
X98038571Y-105082380D01*
X97867142Y-104415714D01*
X97138571Y-105082380D02*
X97138571Y-104558571D01*
X97181428Y-104463333D01*
X97267142Y-104415714D01*
X97438571Y-104415714D01*
X97524285Y-104463333D01*
X97138571Y-105034761D02*
X97224285Y-105082380D01*
X97438571Y-105082380D01*
X97524285Y-105034761D01*
X97567142Y-104939523D01*
X97567142Y-104844285D01*
X97524285Y-104749047D01*
X97438571Y-104701428D01*
X97224285Y-104701428D01*
X97138571Y-104653809D01*
X96838571Y-104415714D02*
X96495714Y-104415714D01*
X96710000Y-104082380D02*
X96710000Y-104939523D01*
X96667142Y-105034761D01*
X96581428Y-105082380D01*
X96495714Y-105082380D01*
X95810000Y-105034761D02*
X95895714Y-105082380D01*
X96067142Y-105082380D01*
X96152857Y-105034761D01*
X96195714Y-104987142D01*
X96238571Y-104891904D01*
X96238571Y-104606190D01*
X96195714Y-104510952D01*
X96152857Y-104463333D01*
X96067142Y-104415714D01*
X95895714Y-104415714D01*
X95810000Y-104463333D01*
X95424285Y-105082380D02*
X95424285Y-104082380D01*
X95038571Y-105082380D02*
X95038571Y-104558571D01*
X95081428Y-104463333D01*
X95167142Y-104415714D01*
X95295714Y-104415714D01*
X95381428Y-104463333D01*
X95424285Y-104510952D01*
X94695714Y-104415714D02*
X94481428Y-105082380D01*
X94267142Y-104415714D02*
X94481428Y-105082380D01*
X94567142Y-105320476D01*
X94610000Y-105368095D01*
X94695714Y-105415714D01*
D13*
X101070952Y-108065714D02*
X100880476Y-108732380D01*
X100690000Y-108256190D01*
X100499523Y-108732380D01*
X100309047Y-108065714D01*
X99499523Y-108732380D02*
X99499523Y-108208571D01*
X99547142Y-108113333D01*
X99642380Y-108065714D01*
X99832857Y-108065714D01*
X99928095Y-108113333D01*
X99499523Y-108684761D02*
X99594761Y-108732380D01*
X99832857Y-108732380D01*
X99928095Y-108684761D01*
X99975714Y-108589523D01*
X99975714Y-108494285D01*
X99928095Y-108399047D01*
X99832857Y-108351428D01*
X99594761Y-108351428D01*
X99499523Y-108303809D01*
X99166190Y-108065714D02*
X98785238Y-108065714D01*
X99023333Y-107732380D02*
X99023333Y-108589523D01*
X98975714Y-108684761D01*
X98880476Y-108732380D01*
X98785238Y-108732380D01*
X98023333Y-108684761D02*
X98118571Y-108732380D01*
X98309047Y-108732380D01*
X98404285Y-108684761D01*
X98451904Y-108637142D01*
X98499523Y-108541904D01*
X98499523Y-108256190D01*
X98451904Y-108160952D01*
X98404285Y-108113333D01*
X98309047Y-108065714D01*
X98118571Y-108065714D01*
X98023333Y-108113333D01*
X97594761Y-108732380D02*
X97594761Y-107732380D01*
X97166190Y-108732380D02*
X97166190Y-108208571D01*
X97213809Y-108113333D01*
X97309047Y-108065714D01*
X97451904Y-108065714D01*
X97547142Y-108113333D01*
X97594761Y-108160952D01*
X96785238Y-108065714D02*
X96547142Y-108732380D01*
X96309047Y-108065714D02*
X96547142Y-108732380D01*
X96642380Y-108970476D01*
X96690000Y-109018095D01*
X96785238Y-109065714D01*
D14*
G36*
X73531818Y-81435636D02*
G01*
X73671454Y-81435636D01*
X73658818Y-80639000D01*
X73595318Y-80631693D01*
X73531818Y-80624387D01*
X73531818Y-81435636D01*
G37*
X73531818Y-81435636D02*
X73671454Y-81435636D01*
X73658818Y-80639000D01*
X73595318Y-80631693D01*
X73531818Y-80624387D01*
X73531818Y-81435636D01*
G36*
X74599772Y-80631693D02*
G01*
X74547155Y-80651207D01*
X74529080Y-80689534D01*
X74502407Y-80735232D01*
X74471352Y-80747262D01*
X74425790Y-80773863D01*
X74413439Y-80806409D01*
X74395782Y-80847029D01*
X74374636Y-80858364D01*
X74347276Y-80838708D01*
X74335833Y-80806409D01*
X74309636Y-80759721D01*
X74277920Y-80747262D01*
X74232222Y-80720589D01*
X74220192Y-80689534D01*
X74203403Y-80652111D01*
X74159066Y-80639374D01*
X74143727Y-80639000D01*
X74074454Y-80639000D01*
X74074454Y-81424091D01*
X74213000Y-81424091D01*
X74219505Y-81152773D01*
X74223525Y-81032485D01*
X74229379Y-80951884D01*
X74237996Y-80904486D01*
X74250302Y-80883804D01*
X74258308Y-80881454D01*
X74286352Y-80901110D01*
X74297985Y-80933409D01*
X74320452Y-80976712D01*
X74368058Y-80992592D01*
X74417146Y-80989249D01*
X74441230Y-80955918D01*
X74445607Y-80940638D01*
X74467359Y-80896627D01*
X74492594Y-80881454D01*
X74506642Y-80890328D01*
X74516103Y-80921345D01*
X74521743Y-80981101D01*
X74524325Y-81076191D01*
X74524727Y-81158545D01*
X74524727Y-81435636D01*
X74663272Y-81435636D01*
X74663272Y-80624387D01*
X74599772Y-80631693D01*
G37*
X74599772Y-80631693D02*
X74547155Y-80651207D01*
X74529080Y-80689534D01*
X74502407Y-80735232D01*
X74471352Y-80747262D01*
X74425790Y-80773863D01*
X74413439Y-80806409D01*
X74395782Y-80847029D01*
X74374636Y-80858364D01*
X74347276Y-80838708D01*
X74335833Y-80806409D01*
X74309636Y-80759721D01*
X74277920Y-80747262D01*
X74232222Y-80720589D01*
X74220192Y-80689534D01*
X74203403Y-80652111D01*
X74159066Y-80639374D01*
X74143727Y-80639000D01*
X74074454Y-80639000D01*
X74074454Y-81424091D01*
X74213000Y-81424091D01*
X74219505Y-81152773D01*
X74223525Y-81032485D01*
X74229379Y-80951884D01*
X74237996Y-80904486D01*
X74250302Y-80883804D01*
X74258308Y-80881454D01*
X74286352Y-80901110D01*
X74297985Y-80933409D01*
X74320452Y-80976712D01*
X74368058Y-80992592D01*
X74417146Y-80989249D01*
X74441230Y-80955918D01*
X74445607Y-80940638D01*
X74467359Y-80896627D01*
X74492594Y-80881454D01*
X74506642Y-80890328D01*
X74516103Y-80921345D01*
X74521743Y-80981101D01*
X74524325Y-81076191D01*
X74524727Y-81158545D01*
X74524727Y-81435636D01*
X74663272Y-81435636D01*
X74663272Y-80624387D01*
X74599772Y-80631693D01*
G36*
X75078909Y-80764328D02*
G01*
X75304045Y-80770936D01*
X75529181Y-80777545D01*
X75529181Y-80962273D01*
X75302594Y-80968899D01*
X75076006Y-80975525D01*
X75083230Y-81038172D01*
X75088147Y-81067264D01*
X75100728Y-81086116D01*
X75129894Y-81097650D01*
X75184565Y-81104786D01*
X75273662Y-81110445D01*
X75309818Y-81112364D01*
X75529181Y-81123909D01*
X75536009Y-81279773D01*
X75540381Y-81362272D01*
X75547685Y-81408881D01*
X75562856Y-81429847D01*
X75590829Y-81435420D01*
X75611055Y-81435636D01*
X75679272Y-81435636D01*
X75679272Y-81100247D01*
X75679036Y-80969603D01*
X75677567Y-80877706D01*
X75673725Y-80817119D01*
X75666373Y-80780407D01*
X75654369Y-80760133D01*
X75636575Y-80748863D01*
X75624702Y-80744109D01*
X75577588Y-80710085D01*
X75557591Y-80675408D01*
X75548579Y-80653616D01*
X75529409Y-80639646D01*
X75491267Y-80631777D01*
X75425339Y-80628288D01*
X75322809Y-80627458D01*
X75311980Y-80627454D01*
X75078909Y-80627454D01*
X75078909Y-80764328D01*
G37*
X75078909Y-80764328D02*
X75304045Y-80770936D01*
X75529181Y-80777545D01*
X75529181Y-80962273D01*
X75302594Y-80968899D01*
X75076006Y-80975525D01*
X75083230Y-81038172D01*
X75088147Y-81067264D01*
X75100728Y-81086116D01*
X75129894Y-81097650D01*
X75184565Y-81104786D01*
X75273662Y-81110445D01*
X75309818Y-81112364D01*
X75529181Y-81123909D01*
X75536009Y-81279773D01*
X75540381Y-81362272D01*
X75547685Y-81408881D01*
X75562856Y-81429847D01*
X75590829Y-81435420D01*
X75611055Y-81435636D01*
X75679272Y-81435636D01*
X75679272Y-81100247D01*
X75679036Y-80969603D01*
X75677567Y-80877706D01*
X75673725Y-80817119D01*
X75666373Y-80780407D01*
X75654369Y-80760133D01*
X75636575Y-80748863D01*
X75624702Y-80744109D01*
X75577588Y-80710085D01*
X75557591Y-80675408D01*
X75548579Y-80653616D01*
X75529409Y-80639646D01*
X75491267Y-80631777D01*
X75425339Y-80628288D01*
X75322809Y-80627458D01*
X75311980Y-80627454D01*
X75078909Y-80627454D01*
X75078909Y-80764328D01*
G36*
X76295271Y-80628386D02*
G01*
X76242563Y-80633366D01*
X76214816Y-80645672D01*
X76201421Y-80668584D01*
X76196755Y-80685182D01*
X76170371Y-80731290D01*
X76141058Y-80742909D01*
X76109342Y-80750900D01*
X76088690Y-80779724D01*
X76077023Y-80836662D01*
X76072261Y-80928991D01*
X76071818Y-80985363D01*
X76074059Y-81096092D01*
X76082239Y-81168179D01*
X76098543Y-81209011D01*
X76125159Y-81225976D01*
X76143561Y-81227818D01*
X76179995Y-81240837D01*
X76184095Y-81270848D01*
X76158153Y-81304280D01*
X76127865Y-81320820D01*
X76081863Y-81352293D01*
X76076471Y-81388455D01*
X76108732Y-81418674D01*
X76158598Y-81431327D01*
X76210698Y-81431496D01*
X76231055Y-81413334D01*
X76233454Y-81390917D01*
X76246951Y-81352076D01*
X76276051Y-81346188D01*
X76303674Y-81373581D01*
X76309418Y-81389454D01*
X76324196Y-81417246D01*
X76357808Y-81431172D01*
X76422532Y-81435533D01*
X76441272Y-81435636D01*
X76514109Y-81432740D01*
X76553250Y-81421185D01*
X76570973Y-81396670D01*
X76573127Y-81389454D01*
X76600194Y-81351881D01*
X76626222Y-81343273D01*
X76654854Y-81337219D01*
X76674472Y-81314432D01*
X76686673Y-81267971D01*
X76693052Y-81190896D01*
X76695207Y-81076267D01*
X76695272Y-81043091D01*
X76693882Y-80918638D01*
X76688643Y-80833368D01*
X76677954Y-80780335D01*
X76668786Y-80766000D01*
X76533636Y-80766000D01*
X76533636Y-81027697D01*
X76532259Y-81133474D01*
X76528522Y-81221827D01*
X76523017Y-81282785D01*
X76517148Y-81305882D01*
X76477651Y-81319571D01*
X76423035Y-81314054D01*
X76374386Y-81294173D01*
X76353177Y-81268227D01*
X76361891Y-81234890D01*
X76391841Y-81227818D01*
X76433437Y-81208422D01*
X76458339Y-81164365D01*
X76455309Y-81116845D01*
X76452946Y-81112570D01*
X76421041Y-81094601D01*
X76381611Y-81089273D01*
X76328699Y-81106688D01*
X76302199Y-81148389D01*
X76278739Y-81191950D01*
X76259293Y-81191619D01*
X76244714Y-81149581D01*
X76235854Y-81068018D01*
X76233454Y-80972455D01*
X76233454Y-80766000D01*
X76533636Y-80766000D01*
X76668786Y-80766000D01*
X76660212Y-80752596D01*
X76633816Y-80743204D01*
X76626032Y-80742909D01*
X76587911Y-80722160D01*
X76570336Y-80685182D01*
X76560152Y-80655685D01*
X76540962Y-80638445D01*
X76502156Y-80630183D01*
X76433127Y-80627622D01*
X76383545Y-80627454D01*
X76295271Y-80628386D01*
G37*
X76295271Y-80628386D02*
X76242563Y-80633366D01*
X76214816Y-80645672D01*
X76201421Y-80668584D01*
X76196755Y-80685182D01*
X76170371Y-80731290D01*
X76141058Y-80742909D01*
X76109342Y-80750900D01*
X76088690Y-80779724D01*
X76077023Y-80836662D01*
X76072261Y-80928991D01*
X76071818Y-80985363D01*
X76074059Y-81096092D01*
X76082239Y-81168179D01*
X76098543Y-81209011D01*
X76125159Y-81225976D01*
X76143561Y-81227818D01*
X76179995Y-81240837D01*
X76184095Y-81270848D01*
X76158153Y-81304280D01*
X76127865Y-81320820D01*
X76081863Y-81352293D01*
X76076471Y-81388455D01*
X76108732Y-81418674D01*
X76158598Y-81431327D01*
X76210698Y-81431496D01*
X76231055Y-81413334D01*
X76233454Y-81390917D01*
X76246951Y-81352076D01*
X76276051Y-81346188D01*
X76303674Y-81373581D01*
X76309418Y-81389454D01*
X76324196Y-81417246D01*
X76357808Y-81431172D01*
X76422532Y-81435533D01*
X76441272Y-81435636D01*
X76514109Y-81432740D01*
X76553250Y-81421185D01*
X76570973Y-81396670D01*
X76573127Y-81389454D01*
X76600194Y-81351881D01*
X76626222Y-81343273D01*
X76654854Y-81337219D01*
X76674472Y-81314432D01*
X76686673Y-81267971D01*
X76693052Y-81190896D01*
X76695207Y-81076267D01*
X76695272Y-81043091D01*
X76693882Y-80918638D01*
X76688643Y-80833368D01*
X76677954Y-80780335D01*
X76668786Y-80766000D01*
X76533636Y-80766000D01*
X76533636Y-81027697D01*
X76532259Y-81133474D01*
X76528522Y-81221827D01*
X76523017Y-81282785D01*
X76517148Y-81305882D01*
X76477651Y-81319571D01*
X76423035Y-81314054D01*
X76374386Y-81294173D01*
X76353177Y-81268227D01*
X76361891Y-81234890D01*
X76391841Y-81227818D01*
X76433437Y-81208422D01*
X76458339Y-81164365D01*
X76455309Y-81116845D01*
X76452946Y-81112570D01*
X76421041Y-81094601D01*
X76381611Y-81089273D01*
X76328699Y-81106688D01*
X76302199Y-81148389D01*
X76278739Y-81191950D01*
X76259293Y-81191619D01*
X76244714Y-81149581D01*
X76235854Y-81068018D01*
X76233454Y-80972455D01*
X76233454Y-80766000D01*
X76533636Y-80766000D01*
X76668786Y-80766000D01*
X76660212Y-80752596D01*
X76633816Y-80743204D01*
X76626032Y-80742909D01*
X76587911Y-80722160D01*
X76570336Y-80685182D01*
X76560152Y-80655685D01*
X76540962Y-80638445D01*
X76502156Y-80630183D01*
X76433127Y-80627622D01*
X76383545Y-80627454D01*
X76295271Y-80628386D01*
G36*
X77240940Y-80632044D02*
G01*
X77213590Y-80641796D01*
X77202335Y-80661468D01*
X77199229Y-80678469D01*
X77173294Y-80725768D01*
X77139772Y-80738742D01*
X77101088Y-80755541D01*
X77088155Y-80799575D01*
X77087818Y-80813788D01*
X77094353Y-80862517D01*
X77122033Y-80880018D01*
X77146117Y-80881454D01*
X77200115Y-80864413D01*
X77226363Y-80823727D01*
X77243020Y-80791315D01*
X77269957Y-80773977D01*
X77319943Y-80767090D01*
X77385872Y-80766000D01*
X77464584Y-80768146D01*
X77509104Y-80777069D01*
X77531324Y-80796493D01*
X77538620Y-80813848D01*
X77545116Y-80874632D01*
X77539736Y-80917757D01*
X77528981Y-80947318D01*
X77507984Y-80964128D01*
X77465688Y-80971757D01*
X77391038Y-80973773D01*
X77366075Y-80973818D01*
X77281736Y-80975012D01*
X77233004Y-80980782D01*
X77209321Y-80994415D01*
X77200133Y-81019195D01*
X77199106Y-81025773D01*
X77172811Y-81072454D01*
X77139772Y-81085106D01*
X77109626Y-81094287D01*
X77094060Y-81118716D01*
X77088401Y-81170335D01*
X77087818Y-81217879D01*
X77089755Y-81290497D01*
X77098424Y-81328118D01*
X77118112Y-81341861D01*
X77136161Y-81343273D01*
X77182260Y-81363070D01*
X77196582Y-81389454D01*
X77207396Y-81412758D01*
X77231431Y-81426625D01*
X77278682Y-81433432D01*
X77359143Y-81435556D01*
X77390693Y-81435636D01*
X77482079Y-81434580D01*
X77536604Y-81429894D01*
X77563568Y-81419299D01*
X77572272Y-81400519D01*
X77572727Y-81391060D01*
X77592196Y-81351028D01*
X77624681Y-81339106D01*
X77667758Y-81316438D01*
X77681133Y-81276213D01*
X77665938Y-81235257D01*
X77623302Y-81210393D01*
X77615956Y-81209238D01*
X77567884Y-81213309D01*
X77543985Y-81248780D01*
X77540199Y-81262276D01*
X77529150Y-81295016D01*
X77509108Y-81312258D01*
X77468248Y-81317969D01*
X77394748Y-81316114D01*
X77381515Y-81315492D01*
X77237909Y-81308636D01*
X77223809Y-81114438D01*
X77392495Y-81107628D01*
X77479992Y-81102850D01*
X77531489Y-81095094D01*
X77557169Y-81081040D01*
X77567214Y-81057370D01*
X77568374Y-81050283D01*
X77595047Y-81004586D01*
X77626101Y-80992556D01*
X77656455Y-80982479D01*
X77671526Y-80955317D01*
X77676399Y-80898728D01*
X77676636Y-80869909D01*
X77674116Y-80800202D01*
X77663166Y-80764213D01*
X77638701Y-80749598D01*
X77626101Y-80747262D01*
X77580404Y-80720589D01*
X77568374Y-80689534D01*
X77560784Y-80663749D01*
X77540443Y-80647925D01*
X77497422Y-80638980D01*
X77421789Y-80633832D01*
X77383956Y-80632287D01*
X77294393Y-80629708D01*
X77240940Y-80632044D01*
G37*
X77240940Y-80632044D02*
X77213590Y-80641796D01*
X77202335Y-80661468D01*
X77199229Y-80678469D01*
X77173294Y-80725768D01*
X77139772Y-80738742D01*
X77101088Y-80755541D01*
X77088155Y-80799575D01*
X77087818Y-80813788D01*
X77094353Y-80862517D01*
X77122033Y-80880018D01*
X77146117Y-80881454D01*
X77200115Y-80864413D01*
X77226363Y-80823727D01*
X77243020Y-80791315D01*
X77269957Y-80773977D01*
X77319943Y-80767090D01*
X77385872Y-80766000D01*
X77464584Y-80768146D01*
X77509104Y-80777069D01*
X77531324Y-80796493D01*
X77538620Y-80813848D01*
X77545116Y-80874632D01*
X77539736Y-80917757D01*
X77528981Y-80947318D01*
X77507984Y-80964128D01*
X77465688Y-80971757D01*
X77391038Y-80973773D01*
X77366075Y-80973818D01*
X77281736Y-80975012D01*
X77233004Y-80980782D01*
X77209321Y-80994415D01*
X77200133Y-81019195D01*
X77199106Y-81025773D01*
X77172811Y-81072454D01*
X77139772Y-81085106D01*
X77109626Y-81094287D01*
X77094060Y-81118716D01*
X77088401Y-81170335D01*
X77087818Y-81217879D01*
X77089755Y-81290497D01*
X77098424Y-81328118D01*
X77118112Y-81341861D01*
X77136161Y-81343273D01*
X77182260Y-81363070D01*
X77196582Y-81389454D01*
X77207396Y-81412758D01*
X77231431Y-81426625D01*
X77278682Y-81433432D01*
X77359143Y-81435556D01*
X77390693Y-81435636D01*
X77482079Y-81434580D01*
X77536604Y-81429894D01*
X77563568Y-81419299D01*
X77572272Y-81400519D01*
X77572727Y-81391060D01*
X77592196Y-81351028D01*
X77624681Y-81339106D01*
X77667758Y-81316438D01*
X77681133Y-81276213D01*
X77665938Y-81235257D01*
X77623302Y-81210393D01*
X77615956Y-81209238D01*
X77567884Y-81213309D01*
X77543985Y-81248780D01*
X77540199Y-81262276D01*
X77529150Y-81295016D01*
X77509108Y-81312258D01*
X77468248Y-81317969D01*
X77394748Y-81316114D01*
X77381515Y-81315492D01*
X77237909Y-81308636D01*
X77223809Y-81114438D01*
X77392495Y-81107628D01*
X77479992Y-81102850D01*
X77531489Y-81095094D01*
X77557169Y-81081040D01*
X77567214Y-81057370D01*
X77568374Y-81050283D01*
X77595047Y-81004586D01*
X77626101Y-80992556D01*
X77656455Y-80982479D01*
X77671526Y-80955317D01*
X77676399Y-80898728D01*
X77676636Y-80869909D01*
X77674116Y-80800202D01*
X77663166Y-80764213D01*
X77638701Y-80749598D01*
X77626101Y-80747262D01*
X77580404Y-80720589D01*
X77568374Y-80689534D01*
X77560784Y-80663749D01*
X77540443Y-80647925D01*
X77497422Y-80638980D01*
X77421789Y-80633832D01*
X77383956Y-80632287D01*
X77294393Y-80629708D01*
X77240940Y-80632044D01*
D15*
X98350000Y-96180000D03*
X98350000Y-91180000D03*
D16*
X101050000Y-97180000D03*
X101050000Y-90180000D03*
D17*
X69330000Y-79930000D03*
X71930000Y-79930000D03*
X69330000Y-106330000D03*
X71930000Y-106330000D03*
X101870000Y-79930000D03*
X99270000Y-79930000D03*
X101870000Y-106330000D03*
X99270000Y-106330000D03*
M02*
